M48
; DRILL file {KiCad 5.1.12-1.fc35} date Sun 08 May 2022 03:34:30 AM PDT
; FORMAT={-:-/ absolute / inch / decimal}
; #@! TF.CreationDate,2022-05-08T03:34:30-07:00
; #@! TF.GenerationSoftware,Kicad,Pcbnew,5.1.12-1.fc35
; #@! TF.FileFunction,Plated,1,2,PTH
FMAT,2
INCH
T1C0.0236
T2C0.0591
%
G90
G05
T1
X3.2283Y-3.7402
X3.2283Y-3.8386
X3.2283Y-3.937
X3.2283Y-4.0354
X3.2283Y-4.1339
X3.2283Y-4.2323
X3.2283Y-4.3307
X3.3268Y-3.7402
X3.3268Y-3.8386
X3.3268Y-3.937
X3.3268Y-4.0354
X3.3268Y-4.1339
X3.3268Y-4.2323
X3.3268Y-4.3307
X3.4252Y-3.7894
X3.4252Y-3.8878
X3.4252Y-3.9862
X3.4252Y-4.0846
X3.4252Y-4.1831
X3.4252Y-4.2815
T2
X4.2134Y-3.7795
X4.5634Y-3.5795
X4.5634Y-3.7795
X4.5634Y-3.9795
X4.7055Y-3.7795
X5.0555Y-3.5795
X5.0555Y-3.7795
X5.0555Y-3.9795
X5.1976Y-3.7795
X5.5476Y-3.5795
X5.5476Y-3.7795
X5.5476Y-3.9795
X5.6898Y-3.7795
X6.0398Y-3.5795
X6.0398Y-3.7795
X6.0398Y-3.9795
X6.1819Y-3.7795
X6.5319Y-3.5795
X6.5319Y-3.7795
X6.5319Y-3.9795
X6.674Y-3.7795
X7.024Y-3.5795
X7.024Y-3.7795
X7.024Y-3.9795
X7.1661Y-3.7795
X7.5161Y-3.5795
X7.5161Y-3.7795
X7.5161Y-3.9795
X7.6583Y-3.7795
X8.0083Y-3.5795
X8.0083Y-3.7795
X8.0083Y-3.9795
X8.1536Y-3.7795
X8.5036Y-3.5795
X8.5036Y-3.7795
X8.5036Y-3.9795
T0
M30
