%TF.GenerationSoftware,KiCad,Pcbnew,5.1.12-1.fc35*%
%TF.CreationDate,2022-04-23T06:03:32-07:00*%
%TF.ProjectId,right,72696768-742e-46b6-9963-61645f706362,v1.1*%
%TF.SameCoordinates,Original*%
%TF.FileFunction,Soldermask,Top*%
%TF.FilePolarity,Negative*%
%FSLAX46Y46*%
G04 Gerber Fmt 4.6, Leading zero omitted, Abs format (unit mm)*
G04 Created by KiCad (PCBNEW 5.1.12-1.fc35) date 2022-04-23 06:03:32*
%MOMM*%
%LPD*%
G01*
G04 APERTURE LIST*
%ADD10C,1.363600*%
%ADD11C,2.401600*%
%ADD12C,2.701600*%
%ADD13C,1.651600*%
%ADD14C,5.401600*%
G04 APERTURE END LIST*
D10*
%TO.C,J1*%
X82000000Y-110000000D03*
X82000000Y-107500000D03*
X82000000Y-105000000D03*
X82000000Y-102500000D03*
X82000000Y-100000000D03*
X82000000Y-97500000D03*
X82000000Y-95000000D03*
X87000000Y-108750000D03*
X87000000Y-106250000D03*
X87000000Y-103750000D03*
X87000000Y-101250000D03*
X87000000Y-98750000D03*
X87000000Y-96250000D03*
X84500000Y-110000000D03*
X84500000Y-107500000D03*
X84500000Y-105000000D03*
X84500000Y-102500000D03*
X84500000Y-100000000D03*
X84500000Y-97500000D03*
X84500000Y-95000000D03*
%TD*%
D11*
%TO.C,F11*%
X140310000Y-90920000D03*
X140310000Y-96000000D03*
D12*
X136500000Y-96000000D03*
D11*
X140310000Y-101080000D03*
X131420000Y-96000000D03*
D13*
X136500000Y-90920000D03*
X136500000Y-101080000D03*
%TD*%
D11*
%TO.C,F9*%
X115310000Y-90920000D03*
X115310000Y-96000000D03*
D12*
X111500000Y-96000000D03*
D11*
X115310000Y-101080000D03*
X106420000Y-96000000D03*
D13*
X111500000Y-90920000D03*
X111500000Y-101080000D03*
%TD*%
D11*
%TO.C,F10*%
X127810000Y-90920000D03*
X127810000Y-96000000D03*
D12*
X124000000Y-96000000D03*
D11*
X127810000Y-101080000D03*
X118920000Y-96000000D03*
D13*
X124000000Y-90920000D03*
X124000000Y-101080000D03*
%TD*%
D11*
%TO.C,F12*%
X152810000Y-90920000D03*
X152810000Y-96000000D03*
D12*
X149000000Y-96000000D03*
D11*
X152810000Y-101080000D03*
X143920000Y-96000000D03*
D13*
X149000000Y-90920000D03*
X149000000Y-101080000D03*
%TD*%
D11*
%TO.C,P-S1*%
X165310000Y-90920000D03*
X165310000Y-96000000D03*
D12*
X161500000Y-96000000D03*
D11*
X165310000Y-101080000D03*
X156420000Y-96000000D03*
D13*
X161500000Y-90920000D03*
X161500000Y-101080000D03*
%TD*%
D11*
%TO.C,S-L1*%
X177810000Y-90920000D03*
X177810000Y-96000000D03*
D12*
X174000000Y-96000000D03*
D11*
X177810000Y-101080000D03*
X168920000Y-96000000D03*
D13*
X174000000Y-90920000D03*
X174000000Y-101080000D03*
%TD*%
D11*
%TO.C,P-B1*%
X190310000Y-90920000D03*
X190310000Y-96000000D03*
D12*
X186500000Y-96000000D03*
D11*
X190310000Y-101080000D03*
X181420000Y-96000000D03*
D13*
X186500000Y-90920000D03*
X186500000Y-101080000D03*
%TD*%
D11*
%TO.C,KP1*%
X202810000Y-90920000D03*
X202810000Y-96000000D03*
D12*
X199000000Y-96000000D03*
D11*
X202810000Y-101080000D03*
X193920000Y-96000000D03*
D13*
X199000000Y-90920000D03*
X199000000Y-101080000D03*
%TD*%
D11*
%TO.C,PG1*%
X215310000Y-90920000D03*
X215310000Y-96000000D03*
D12*
X211500000Y-96000000D03*
D11*
X215310000Y-101080000D03*
X206420000Y-96000000D03*
D13*
X211500000Y-90920000D03*
X211500000Y-101080000D03*
%TD*%
D14*
%TO.C,H1*%
X99500000Y-103500000D03*
%TD*%
M02*
