%TF.GenerationSoftware,KiCad,Pcbnew,5.1.12-1.fc35*%
%TF.CreationDate,2022-05-08T03:34:16-07:00*%
%TF.ProjectId,right,72696768-742e-46b6-9963-61645f706362,v1.3*%
%TF.SameCoordinates,Original*%
%TF.FileFunction,Copper,L1,Top*%
%TF.FilePolarity,Positive*%
%FSLAX46Y46*%
G04 Gerber Fmt 4.6, Leading zero omitted, Abs format (unit mm)*
G04 Created by KiCad (PCBNEW 5.1.12-1.fc35) date 2022-05-08 03:34:16*
%MOMM*%
%LPD*%
G01*
G04 APERTURE LIST*
%TA.AperFunction,ComponentPad*%
%ADD10C,2.300000*%
%TD*%
%TA.AperFunction,ComponentPad*%
%ADD11C,1.362000*%
%TD*%
%TA.AperFunction,Conductor*%
%ADD12C,0.254000*%
%TD*%
%TA.AperFunction,Conductor*%
%ADD13C,0.100000*%
%TD*%
G04 APERTURE END LIST*
D10*
%TO.P,PG1,1*%
%TO.N,GND*%
X215992000Y-90920000D03*
%TO.P,PG1,2*%
%TO.N,Net-(J1-Pad3)*%
X215992000Y-96000000D03*
%TO.P,PG1,3*%
%TO.N,GND*%
X215992000Y-101080000D03*
%TO.P,PG1,4*%
%TO.N,Net-(J1-Pad1)*%
X207102000Y-96000000D03*
%TD*%
D11*
%TO.P,J1,13B*%
%TO.N,GND*%
X82000000Y-110000000D03*
%TO.P,J1,11B*%
%TO.N,Net-(J1-Pad11)*%
X82000000Y-107500000D03*
%TO.P,J1,9B*%
%TO.N,Net-(F12-Pad2)*%
X82000000Y-105000000D03*
%TO.P,J1,7B*%
%TO.N,Net-(F11-Pad2)*%
X82000000Y-102500000D03*
%TO.P,J1,5B*%
%TO.N,Net-(F12-Pad4)*%
X82000000Y-100000000D03*
%TO.P,J1,3B*%
%TO.N,Net-(J1-Pad3)*%
X82000000Y-97500000D03*
%TO.P,J1,1B*%
%TO.N,Net-(J1-Pad1)*%
X82000000Y-95000000D03*
%TO.P,J1,12*%
%TO.N,N/C*%
X87000000Y-108750000D03*
%TO.P,J1,10*%
%TO.N,Net-(J1-Pad10)*%
X87000000Y-106250000D03*
%TO.P,J1,8*%
%TO.N,Net-(F10-Pad4)*%
X87000000Y-103750000D03*
%TO.P,J1,6*%
%TO.N,Net-(F10-Pad2)*%
X87000000Y-101250000D03*
%TO.P,J1,4*%
%TO.N,Net-(J1-Pad4)*%
X87000000Y-98750000D03*
%TO.P,J1,2*%
%TO.N,Net-(J1-Pad2)*%
X87000000Y-96250000D03*
%TO.P,J1,13*%
%TO.N,GND*%
X84500000Y-110000000D03*
%TO.P,J1,11*%
%TO.N,Net-(J1-Pad11)*%
X84500000Y-107500000D03*
%TO.P,J1,9*%
%TO.N,Net-(F12-Pad2)*%
X84500000Y-105000000D03*
%TO.P,J1,7*%
%TO.N,Net-(F11-Pad2)*%
X84500000Y-102500000D03*
%TO.P,J1,5*%
%TO.N,Net-(F12-Pad4)*%
X84500000Y-100000000D03*
%TO.P,J1,3*%
%TO.N,Net-(J1-Pad3)*%
X84500000Y-97500000D03*
%TO.P,J1,1*%
%TO.N,Net-(J1-Pad1)*%
X84500000Y-95000000D03*
%TD*%
D10*
%TO.P,F11,1*%
%TO.N,GND*%
X140910000Y-90920000D03*
%TO.P,F11,2*%
%TO.N,Net-(F11-Pad2)*%
X140910000Y-96000000D03*
%TO.P,F11,3*%
%TO.N,GND*%
X140910000Y-101080000D03*
%TO.P,F11,4*%
%TO.N,Net-(F10-Pad2)*%
X132020000Y-96000000D03*
%TD*%
%TO.P,F9,1*%
%TO.N,GND*%
X115910000Y-90920000D03*
%TO.P,F9,2*%
%TO.N,Net-(F10-Pad2)*%
X115910000Y-96000000D03*
%TO.P,F9,3*%
%TO.N,GND*%
X115910000Y-101080000D03*
%TO.P,F9,4*%
%TO.N,Net-(F12-Pad4)*%
X107020000Y-96000000D03*
%TD*%
%TO.P,F10,1*%
%TO.N,GND*%
X128410000Y-90920000D03*
%TO.P,F10,2*%
%TO.N,Net-(F10-Pad2)*%
X128410000Y-96000000D03*
%TO.P,F10,3*%
%TO.N,GND*%
X128410000Y-101080000D03*
%TO.P,F10,4*%
%TO.N,Net-(F10-Pad4)*%
X119520000Y-96000000D03*
%TD*%
%TO.P,F12,1*%
%TO.N,GND*%
X153410000Y-90920000D03*
%TO.P,F12,2*%
%TO.N,Net-(F12-Pad2)*%
X153410000Y-96000000D03*
%TO.P,F12,3*%
%TO.N,GND*%
X153410000Y-101080000D03*
%TO.P,F12,4*%
%TO.N,Net-(F12-Pad4)*%
X144520000Y-96000000D03*
%TD*%
%TO.P,P-S1,1*%
%TO.N,GND*%
X165910000Y-90920000D03*
%TO.P,P-S1,2*%
%TO.N,Net-(F12-Pad2)*%
X165910000Y-96000000D03*
%TO.P,P-S1,3*%
%TO.N,GND*%
X165910000Y-101080000D03*
%TO.P,P-S1,4*%
%TO.N,Net-(J1-Pad11)*%
X157020000Y-96000000D03*
%TD*%
%TO.P,S-L1,1*%
%TO.N,GND*%
X178410000Y-90920000D03*
%TO.P,S-L1,2*%
%TO.N,Net-(J1-Pad10)*%
X178410000Y-96000000D03*
%TO.P,S-L1,3*%
%TO.N,GND*%
X178410000Y-101080000D03*
%TO.P,S-L1,4*%
%TO.N,Net-(F12-Pad2)*%
X169520000Y-96000000D03*
%TD*%
%TO.P,P-B1,1*%
%TO.N,GND*%
X190910000Y-90920000D03*
%TO.P,P-B1,2*%
%TO.N,Net-(J1-Pad4)*%
X190910000Y-96000000D03*
%TO.P,P-B1,3*%
%TO.N,GND*%
X190910000Y-101080000D03*
%TO.P,P-B1,4*%
%TO.N,Net-(F12-Pad4)*%
X182020000Y-96000000D03*
%TD*%
%TO.P,KP1,1*%
%TO.N,GND*%
X203410000Y-90920000D03*
%TO.P,KP1,2*%
%TO.N,Net-(J1-Pad3)*%
X203410000Y-96000000D03*
%TO.P,KP1,3*%
%TO.N,GND*%
X203410000Y-101080000D03*
%TO.P,KP1,4*%
%TO.N,Net-(J1-Pad2)*%
X194520000Y-96000000D03*
%TD*%
D12*
%TO.N,Net-(F10-Pad2)*%
X128500000Y-96000000D02*
X131420000Y-96000000D01*
X118654118Y-94000000D02*
X126500000Y-94000000D01*
X116654118Y-96000000D02*
X118654118Y-94000000D01*
X115310000Y-96000000D02*
X116654118Y-96000000D01*
X126500000Y-94000000D02*
X128500000Y-96000000D01*
X113310000Y-94000000D02*
X115310000Y-96000000D01*
X107500000Y-98000000D02*
X111500000Y-94000000D01*
X106500000Y-98000000D02*
X107500000Y-98000000D01*
X102508010Y-94008010D02*
X106500000Y-98000000D01*
X111500000Y-94000000D02*
X113310000Y-94000000D01*
X94241990Y-94008010D02*
X102508010Y-94008010D01*
X87000000Y-101250000D02*
X94241990Y-94008010D01*
%TO.N,Net-(F12-Pad4)*%
X82000000Y-100000000D02*
X84500000Y-100000000D01*
X107010000Y-96000000D02*
X107020000Y-96000000D01*
X104510000Y-93500000D02*
X107010000Y-96000000D01*
X91485761Y-93500000D02*
X104510000Y-93500000D01*
X87485761Y-97500000D02*
X91485761Y-93500000D01*
X86500000Y-97500000D02*
X87485761Y-97500000D01*
X84500000Y-99500000D02*
X86500000Y-97500000D01*
X84500000Y-100000000D02*
X84500000Y-99500000D01*
X164500002Y-93500002D02*
X165016020Y-94016020D01*
X107020000Y-96000000D02*
X107480000Y-96000000D01*
X165016020Y-94016020D02*
X180036020Y-94016020D01*
X144510000Y-95990000D02*
X146999998Y-93500002D01*
X109988010Y-93491990D02*
X142011990Y-93491990D01*
X180036020Y-94016020D02*
X182020000Y-96000000D01*
X107480000Y-96000000D02*
X109988010Y-93491990D01*
X142011990Y-93491990D02*
X144510000Y-95990000D01*
X146999998Y-93500002D02*
X164500002Y-93500002D01*
%TO.N,Net-(F10-Pad4)*%
X119500000Y-96020000D02*
X119520000Y-96000000D01*
X119500000Y-100500000D02*
X119500000Y-96020000D01*
X117388999Y-102611001D02*
X119500000Y-100500000D01*
X108938961Y-102611001D02*
X117388999Y-102611001D01*
X102049962Y-109500000D02*
X108938961Y-102611001D01*
X97000000Y-109500000D02*
X102049962Y-109500000D01*
X91250000Y-103750000D02*
X97000000Y-109500000D01*
X87000000Y-103750000D02*
X91250000Y-103750000D01*
%TO.N,Net-(F12-Pad2)*%
X82000000Y-105000000D02*
X84500000Y-105000000D01*
X165991990Y-96000000D02*
X168920000Y-96000000D01*
X164000000Y-94008010D02*
X165991990Y-96000000D01*
X155396990Y-94008010D02*
X164000000Y-94008010D01*
X152810000Y-96124559D02*
X153280441Y-96124559D01*
X145815548Y-103119011D02*
X152810000Y-96124559D01*
X109380989Y-103119011D02*
X145815548Y-103119011D01*
X102491990Y-110008010D02*
X109380989Y-103119011D01*
X153280441Y-96124559D02*
X155396990Y-94008010D01*
X96789576Y-110008010D02*
X102491990Y-110008010D01*
X91781566Y-105000000D02*
X96789576Y-110008010D01*
X84500000Y-105000000D02*
X91781566Y-105000000D01*
%TO.N,Net-(J1-Pad10)*%
X86500000Y-106250000D02*
X86750000Y-106500000D01*
X170307538Y-103627021D02*
X177810000Y-96124559D01*
X109591413Y-103627021D02*
X170307538Y-103627021D01*
X177810000Y-96124559D02*
X177810000Y-96000000D01*
X102702415Y-110516019D02*
X109591413Y-103627021D01*
X96516019Y-110516019D02*
X102702415Y-110516019D01*
X92250000Y-106250000D02*
X96516019Y-110516019D01*
X87000000Y-106250000D02*
X92250000Y-106250000D01*
%TO.N,Net-(J1-Pad2)*%
X192028010Y-93508010D02*
X194520000Y-96000000D01*
X164991992Y-92991992D02*
X165508010Y-93508010D01*
X147991991Y-92991991D02*
X164991992Y-92991992D01*
X87000000Y-96250000D02*
X90266021Y-92983979D01*
X147983979Y-92983979D02*
X147991991Y-92991991D01*
X165508010Y-93508010D02*
X192028010Y-93508010D01*
X90266021Y-92983979D02*
X147983979Y-92983979D01*
%TO.N,Net-(J1-Pad3)*%
X82000000Y-97500000D02*
X84500000Y-97500000D01*
X161475970Y-92475970D02*
X161483981Y-92483981D01*
X161483981Y-92483981D02*
X161983981Y-92483981D01*
X153483981Y-92483981D02*
X161983981Y-92483981D01*
X153475969Y-92475969D02*
X153483981Y-92483981D01*
X84500000Y-97053816D02*
X89077847Y-92475969D01*
X89077847Y-92475969D02*
X153475969Y-92475969D01*
X84500000Y-97500000D02*
X84500000Y-97053816D01*
X200410000Y-93000000D02*
X203410000Y-96000000D01*
X166000000Y-93000000D02*
X200410000Y-93000000D01*
X165483981Y-92483981D02*
X166000000Y-93000000D01*
X161983981Y-92483981D02*
X165483981Y-92483981D01*
X203410000Y-96000000D02*
X206410000Y-93000000D01*
X212992000Y-93000000D02*
X215992000Y-96000000D01*
X206410000Y-93000000D02*
X212992000Y-93000000D01*
%TD*%
%TO.N,GND*%
X115504681Y-89172760D02*
X115171600Y-89285406D01*
X114961118Y-89397910D01*
X114847256Y-89677651D01*
X115910000Y-90740395D01*
X116972744Y-89677651D01*
X116858882Y-89397910D01*
X116543704Y-89242039D01*
X116204174Y-89150651D01*
X116194410Y-89150000D01*
X128179083Y-89150000D01*
X128004681Y-89172760D01*
X127671600Y-89285406D01*
X127461118Y-89397910D01*
X127347256Y-89677651D01*
X128410000Y-90740395D01*
X129472744Y-89677651D01*
X129358882Y-89397910D01*
X129043704Y-89242039D01*
X128704174Y-89150651D01*
X128694410Y-89150000D01*
X140679083Y-89150000D01*
X140504681Y-89172760D01*
X140171600Y-89285406D01*
X139961118Y-89397910D01*
X139847256Y-89677651D01*
X140910000Y-90740395D01*
X141972744Y-89677651D01*
X141858882Y-89397910D01*
X141543704Y-89242039D01*
X141204174Y-89150651D01*
X141194410Y-89150000D01*
X153179083Y-89150000D01*
X153004681Y-89172760D01*
X152671600Y-89285406D01*
X152461118Y-89397910D01*
X152347256Y-89677651D01*
X153410000Y-90740395D01*
X154472744Y-89677651D01*
X154358882Y-89397910D01*
X154043704Y-89242039D01*
X153704174Y-89150651D01*
X153694410Y-89150000D01*
X165679083Y-89150000D01*
X165504681Y-89172760D01*
X165171600Y-89285406D01*
X164961118Y-89397910D01*
X164847256Y-89677651D01*
X165910000Y-90740395D01*
X166972744Y-89677651D01*
X166858882Y-89397910D01*
X166543704Y-89242039D01*
X166204174Y-89150651D01*
X166194410Y-89150000D01*
X178179083Y-89150000D01*
X178004681Y-89172760D01*
X177671600Y-89285406D01*
X177461118Y-89397910D01*
X177347256Y-89677651D01*
X178410000Y-90740395D01*
X179472744Y-89677651D01*
X179358882Y-89397910D01*
X179043704Y-89242039D01*
X178704174Y-89150651D01*
X178694410Y-89150000D01*
X190679083Y-89150000D01*
X190504681Y-89172760D01*
X190171600Y-89285406D01*
X189961118Y-89397910D01*
X189847256Y-89677651D01*
X190910000Y-90740395D01*
X191972744Y-89677651D01*
X191858882Y-89397910D01*
X191543704Y-89242039D01*
X191204174Y-89150651D01*
X191194410Y-89150000D01*
X203179083Y-89150000D01*
X203004681Y-89172760D01*
X202671600Y-89285406D01*
X202461118Y-89397910D01*
X202347256Y-89677651D01*
X203410000Y-90740395D01*
X204472744Y-89677651D01*
X204358882Y-89397910D01*
X204043704Y-89242039D01*
X203704174Y-89150651D01*
X203694410Y-89150000D01*
X215761083Y-89150000D01*
X215586681Y-89172760D01*
X215253600Y-89285406D01*
X215043118Y-89397910D01*
X214929256Y-89677651D01*
X215992000Y-90740395D01*
X217054744Y-89677651D01*
X217043489Y-89650000D01*
X219350000Y-89650000D01*
X219350001Y-101665340D01*
X218687373Y-101937754D01*
X218661344Y-101952231D01*
X217535110Y-102764977D01*
X217513758Y-102784438D01*
X216875172Y-103515909D01*
X216861316Y-103535145D01*
X216234341Y-104603325D01*
X216223269Y-104627803D01*
X215828507Y-105823700D01*
X215823018Y-105848318D01*
X215822815Y-105850000D01*
X200031924Y-105850000D01*
X200000000Y-105846856D01*
X199968076Y-105850000D01*
X199968068Y-105850000D01*
X199872578Y-105859405D01*
X199750052Y-105896573D01*
X199637132Y-105956930D01*
X199538157Y-106038157D01*
X199517802Y-106062960D01*
X198098684Y-107482078D01*
X197860183Y-107202298D01*
X197833621Y-107178778D01*
X196696706Y-106426408D01*
X196678735Y-106416503D01*
X195675574Y-105965081D01*
X195649068Y-105956504D01*
X194512153Y-105722433D01*
X194478001Y-105720112D01*
X192989980Y-105820428D01*
X192964279Y-105824844D01*
X191710329Y-106175950D01*
X191677524Y-106190387D01*
X190440293Y-106959477D01*
X190417538Y-106977533D01*
X189431097Y-107963974D01*
X189412252Y-107988016D01*
X188890524Y-108850000D01*
X168804443Y-108850000D01*
X166500948Y-106085806D01*
X166461843Y-106038157D01*
X166435146Y-106016247D01*
X166410545Y-105992013D01*
X166385781Y-105975735D01*
X166362868Y-105956930D01*
X166332402Y-105940646D01*
X166303552Y-105921681D01*
X166276095Y-105910549D01*
X166249948Y-105896573D01*
X166216890Y-105886545D01*
X166184895Y-105873573D01*
X166155792Y-105868011D01*
X166127422Y-105859405D01*
X166093044Y-105856019D01*
X166059132Y-105849538D01*
X165997644Y-105850000D01*
X150502356Y-105850000D01*
X150440867Y-105849538D01*
X150406954Y-105856019D01*
X150372578Y-105859405D01*
X150344209Y-105868011D01*
X150315104Y-105873573D01*
X150283104Y-105886547D01*
X150250052Y-105896573D01*
X150223914Y-105910544D01*
X150196447Y-105921680D01*
X150167587Y-105940652D01*
X150137132Y-105956930D01*
X150114224Y-105975730D01*
X150089454Y-105992013D01*
X150064848Y-106016252D01*
X150038157Y-106038157D01*
X149999116Y-106085728D01*
X147695556Y-108850000D01*
X145277922Y-108850000D01*
X144931894Y-108312326D01*
X144914902Y-108291253D01*
X144044103Y-107420454D01*
X144017007Y-107399818D01*
X142646950Y-106621904D01*
X142614359Y-106608965D01*
X141139806Y-106249035D01*
X141104648Y-106245513D01*
X139351440Y-106315177D01*
X139336362Y-106316681D01*
X139312285Y-106323016D01*
X137779679Y-106891938D01*
X137749775Y-106907858D01*
X136553877Y-107767046D01*
X136530232Y-107789102D01*
X136036995Y-108383689D01*
X134558356Y-106165730D01*
X134543070Y-106137132D01*
X134502654Y-106087885D01*
X134462326Y-106038641D01*
X134462062Y-106038424D01*
X134461843Y-106038157D01*
X134412227Y-105997438D01*
X134363435Y-105957310D01*
X134363135Y-105957149D01*
X134362868Y-105956930D01*
X134306192Y-105926636D01*
X134250578Y-105896835D01*
X134250253Y-105896736D01*
X134249948Y-105896573D01*
X134188615Y-105877968D01*
X134128092Y-105859539D01*
X134127752Y-105859505D01*
X134127422Y-105859405D01*
X134063540Y-105853113D01*
X134000683Y-105846856D01*
X133968417Y-105850000D01*
X115031924Y-105850000D01*
X115000000Y-105846856D01*
X114968076Y-105850000D01*
X114968068Y-105850000D01*
X114872578Y-105859405D01*
X114750052Y-105896573D01*
X114637132Y-105956930D01*
X114538157Y-106038157D01*
X114517802Y-106062960D01*
X111730762Y-108850000D01*
X106049693Y-108850000D01*
X106035547Y-108847824D01*
X105985807Y-108850000D01*
X105968068Y-108850000D01*
X105953892Y-108851396D01*
X105907631Y-108853420D01*
X105890320Y-108857658D01*
X105872578Y-108859405D01*
X105828250Y-108872852D01*
X105783264Y-108883864D01*
X105767110Y-108891398D01*
X105750052Y-108896573D01*
X105709199Y-108918410D01*
X105667227Y-108937986D01*
X105652855Y-108948526D01*
X105637132Y-108956930D01*
X105601324Y-108986317D01*
X105563977Y-109013706D01*
X105551936Y-109026849D01*
X105538157Y-109038157D01*
X105508774Y-109073961D01*
X105499159Y-109084455D01*
X105488526Y-109098632D01*
X105456930Y-109137132D01*
X105450180Y-109149760D01*
X101175000Y-114850000D01*
X80650000Y-114850000D01*
X80650000Y-110907690D01*
X81271915Y-110907690D01*
X81329070Y-111139522D01*
X81564271Y-111248519D01*
X81816217Y-111309535D01*
X82075226Y-111320226D01*
X82331345Y-111280183D01*
X82574729Y-111190942D01*
X82670930Y-111139522D01*
X82728085Y-110907690D01*
X83771915Y-110907690D01*
X83829070Y-111139522D01*
X84064271Y-111248519D01*
X84316217Y-111309535D01*
X84575226Y-111320226D01*
X84831345Y-111280183D01*
X85074729Y-111190942D01*
X85170930Y-111139522D01*
X85228085Y-110907690D01*
X84500000Y-110179605D01*
X83771915Y-110907690D01*
X82728085Y-110907690D01*
X82000000Y-110179605D01*
X81271915Y-110907690D01*
X80650000Y-110907690D01*
X80650000Y-110075226D01*
X80679774Y-110075226D01*
X80719817Y-110331345D01*
X80809058Y-110574729D01*
X80860478Y-110670930D01*
X81092310Y-110728085D01*
X81820395Y-110000000D01*
X82179605Y-110000000D01*
X82907690Y-110728085D01*
X83139522Y-110670930D01*
X83248519Y-110435729D01*
X83252327Y-110420007D01*
X83309058Y-110574729D01*
X83360478Y-110670930D01*
X83592310Y-110728085D01*
X84320395Y-110000000D01*
X84679605Y-110000000D01*
X85407690Y-110728085D01*
X85639522Y-110670930D01*
X85748519Y-110435729D01*
X85809535Y-110183783D01*
X85820226Y-109924774D01*
X85780183Y-109668655D01*
X85690942Y-109425271D01*
X85639522Y-109329070D01*
X85407690Y-109271915D01*
X84679605Y-110000000D01*
X84320395Y-110000000D01*
X83592310Y-109271915D01*
X83360478Y-109329070D01*
X83251481Y-109564271D01*
X83247673Y-109579993D01*
X83190942Y-109425271D01*
X83139522Y-109329070D01*
X82907690Y-109271915D01*
X82179605Y-110000000D01*
X81820395Y-110000000D01*
X81092310Y-109271915D01*
X80860478Y-109329070D01*
X80751481Y-109564271D01*
X80690465Y-109816217D01*
X80679774Y-110075226D01*
X80650000Y-110075226D01*
X80650000Y-94870385D01*
X80684000Y-94870385D01*
X80684000Y-95129615D01*
X80734573Y-95383863D01*
X80833776Y-95623360D01*
X80977796Y-95838901D01*
X81161099Y-96022204D01*
X81376640Y-96166224D01*
X81578893Y-96250000D01*
X81376640Y-96333776D01*
X81161099Y-96477796D01*
X80977796Y-96661099D01*
X80833776Y-96876640D01*
X80734573Y-97116137D01*
X80684000Y-97370385D01*
X80684000Y-97629615D01*
X80734573Y-97883863D01*
X80833776Y-98123360D01*
X80977796Y-98338901D01*
X81161099Y-98522204D01*
X81376640Y-98666224D01*
X81578893Y-98750000D01*
X81376640Y-98833776D01*
X81161099Y-98977796D01*
X80977796Y-99161099D01*
X80833776Y-99376640D01*
X80734573Y-99616137D01*
X80684000Y-99870385D01*
X80684000Y-100129615D01*
X80734573Y-100383863D01*
X80833776Y-100623360D01*
X80977796Y-100838901D01*
X81161099Y-101022204D01*
X81376640Y-101166224D01*
X81578893Y-101250000D01*
X81376640Y-101333776D01*
X81161099Y-101477796D01*
X80977796Y-101661099D01*
X80833776Y-101876640D01*
X80734573Y-102116137D01*
X80684000Y-102370385D01*
X80684000Y-102629615D01*
X80734573Y-102883863D01*
X80833776Y-103123360D01*
X80977796Y-103338901D01*
X81161099Y-103522204D01*
X81376640Y-103666224D01*
X81578893Y-103750000D01*
X81376640Y-103833776D01*
X81161099Y-103977796D01*
X80977796Y-104161099D01*
X80833776Y-104376640D01*
X80734573Y-104616137D01*
X80684000Y-104870385D01*
X80684000Y-105129615D01*
X80734573Y-105383863D01*
X80833776Y-105623360D01*
X80977796Y-105838901D01*
X81161099Y-106022204D01*
X81376640Y-106166224D01*
X81578893Y-106250000D01*
X81376640Y-106333776D01*
X81161099Y-106477796D01*
X80977796Y-106661099D01*
X80833776Y-106876640D01*
X80734573Y-107116137D01*
X80684000Y-107370385D01*
X80684000Y-107629615D01*
X80734573Y-107883863D01*
X80833776Y-108123360D01*
X80977796Y-108338901D01*
X81161099Y-108522204D01*
X81376640Y-108666224D01*
X81582389Y-108751448D01*
X81425271Y-108809058D01*
X81329070Y-108860478D01*
X81271915Y-109092310D01*
X82000000Y-109820395D01*
X82728085Y-109092310D01*
X82670930Y-108860478D01*
X82435729Y-108751481D01*
X82424246Y-108748700D01*
X82623360Y-108666224D01*
X82838901Y-108522204D01*
X83022204Y-108338901D01*
X83166224Y-108123360D01*
X83250000Y-107921107D01*
X83333776Y-108123360D01*
X83477796Y-108338901D01*
X83661099Y-108522204D01*
X83876640Y-108666224D01*
X84082389Y-108751448D01*
X83925271Y-108809058D01*
X83829070Y-108860478D01*
X83771915Y-109092310D01*
X84500000Y-109820395D01*
X85228085Y-109092310D01*
X85170930Y-108860478D01*
X84935729Y-108751481D01*
X84924246Y-108748700D01*
X85123360Y-108666224D01*
X85338901Y-108522204D01*
X85522204Y-108338901D01*
X85666224Y-108123360D01*
X85765427Y-107883863D01*
X85816000Y-107629615D01*
X85816000Y-107370385D01*
X85765427Y-107116137D01*
X85666224Y-106876640D01*
X85522204Y-106661099D01*
X85338901Y-106477796D01*
X85123360Y-106333776D01*
X84921107Y-106250000D01*
X85123360Y-106166224D01*
X85338901Y-106022204D01*
X85522204Y-105838901D01*
X85573588Y-105762000D01*
X85777708Y-105762000D01*
X85734573Y-105866137D01*
X85684000Y-106120385D01*
X85684000Y-106379615D01*
X85734573Y-106633863D01*
X85833776Y-106873360D01*
X85977796Y-107088901D01*
X86161099Y-107272204D01*
X86376640Y-107416224D01*
X86578893Y-107500000D01*
X86376640Y-107583776D01*
X86161099Y-107727796D01*
X85977796Y-107911099D01*
X85833776Y-108126640D01*
X85734573Y-108366137D01*
X85684000Y-108620385D01*
X85684000Y-108879615D01*
X85734573Y-109133863D01*
X85833776Y-109373360D01*
X85977796Y-109588901D01*
X86161099Y-109772204D01*
X86376640Y-109916224D01*
X86616137Y-110015427D01*
X86870385Y-110066000D01*
X87129615Y-110066000D01*
X87383863Y-110015427D01*
X87623360Y-109916224D01*
X87838901Y-109772204D01*
X88022204Y-109588901D01*
X88166224Y-109373360D01*
X88265427Y-109133863D01*
X88316000Y-108879615D01*
X88316000Y-108620385D01*
X88265427Y-108366137D01*
X88166224Y-108126640D01*
X88022204Y-107911099D01*
X87838901Y-107727796D01*
X87623360Y-107583776D01*
X87421107Y-107500000D01*
X87623360Y-107416224D01*
X87838901Y-107272204D01*
X88022204Y-107088901D01*
X88073588Y-107012000D01*
X91934370Y-107012000D01*
X95950740Y-111028371D01*
X95974597Y-111057441D01*
X96003667Y-111081298D01*
X96090626Y-111152664D01*
X96161383Y-111190484D01*
X96223004Y-111223421D01*
X96366641Y-111266993D01*
X96478593Y-111278019D01*
X96478596Y-111278019D01*
X96516019Y-111281705D01*
X96553442Y-111278019D01*
X102664992Y-111278019D01*
X102702415Y-111281705D01*
X102739838Y-111278019D01*
X102739841Y-111278019D01*
X102851793Y-111266993D01*
X102995430Y-111223421D01*
X103127807Y-111152664D01*
X103243837Y-111057441D01*
X103267699Y-111028365D01*
X109907044Y-104389021D01*
X170270115Y-104389021D01*
X170307538Y-104392707D01*
X170344961Y-104389021D01*
X170344964Y-104389021D01*
X170456916Y-104377995D01*
X170600553Y-104334423D01*
X170732930Y-104263666D01*
X170848960Y-104168443D01*
X170872822Y-104139367D01*
X173325236Y-101686953D01*
X173350475Y-101747885D01*
X173504782Y-101978822D01*
X173701178Y-102175218D01*
X173932115Y-102329525D01*
X174188718Y-102435814D01*
X174461127Y-102490000D01*
X174738873Y-102490000D01*
X175011282Y-102435814D01*
X175267885Y-102329525D01*
X175278624Y-102322349D01*
X177347256Y-102322349D01*
X177461118Y-102602090D01*
X177776296Y-102757961D01*
X178115826Y-102849349D01*
X178466661Y-102872741D01*
X178815319Y-102827240D01*
X179148400Y-102714594D01*
X179358882Y-102602090D01*
X179472744Y-102322349D01*
X178410000Y-101259605D01*
X177347256Y-102322349D01*
X175278624Y-102322349D01*
X175498822Y-102175218D01*
X175695218Y-101978822D01*
X175849525Y-101747885D01*
X175955814Y-101491282D01*
X176010000Y-101218873D01*
X176010000Y-101136661D01*
X176617259Y-101136661D01*
X176662760Y-101485319D01*
X176775406Y-101818400D01*
X176887910Y-102028882D01*
X177167651Y-102142744D01*
X178230395Y-101080000D01*
X178589605Y-101080000D01*
X179652349Y-102142744D01*
X179932090Y-102028882D01*
X180087961Y-101713704D01*
X180179349Y-101374174D01*
X180202741Y-101023339D01*
X180192013Y-100941127D01*
X185690000Y-100941127D01*
X185690000Y-101218873D01*
X185744186Y-101491282D01*
X185850475Y-101747885D01*
X186004782Y-101978822D01*
X186201178Y-102175218D01*
X186432115Y-102329525D01*
X186688718Y-102435814D01*
X186961127Y-102490000D01*
X187238873Y-102490000D01*
X187511282Y-102435814D01*
X187767885Y-102329525D01*
X187778624Y-102322349D01*
X189847256Y-102322349D01*
X189961118Y-102602090D01*
X190276296Y-102757961D01*
X190615826Y-102849349D01*
X190966661Y-102872741D01*
X191315319Y-102827240D01*
X191648400Y-102714594D01*
X191858882Y-102602090D01*
X191972744Y-102322349D01*
X190910000Y-101259605D01*
X189847256Y-102322349D01*
X187778624Y-102322349D01*
X187998822Y-102175218D01*
X188195218Y-101978822D01*
X188349525Y-101747885D01*
X188455814Y-101491282D01*
X188510000Y-101218873D01*
X188510000Y-101136661D01*
X189117259Y-101136661D01*
X189162760Y-101485319D01*
X189275406Y-101818400D01*
X189387910Y-102028882D01*
X189667651Y-102142744D01*
X190730395Y-101080000D01*
X191089605Y-101080000D01*
X192152349Y-102142744D01*
X192432090Y-102028882D01*
X192587961Y-101713704D01*
X192679349Y-101374174D01*
X192702741Y-101023339D01*
X192692013Y-100941127D01*
X198190000Y-100941127D01*
X198190000Y-101218873D01*
X198244186Y-101491282D01*
X198350475Y-101747885D01*
X198504782Y-101978822D01*
X198701178Y-102175218D01*
X198932115Y-102329525D01*
X199188718Y-102435814D01*
X199461127Y-102490000D01*
X199738873Y-102490000D01*
X200011282Y-102435814D01*
X200267885Y-102329525D01*
X200278624Y-102322349D01*
X202347256Y-102322349D01*
X202461118Y-102602090D01*
X202776296Y-102757961D01*
X203115826Y-102849349D01*
X203466661Y-102872741D01*
X203815319Y-102827240D01*
X204148400Y-102714594D01*
X204358882Y-102602090D01*
X204472744Y-102322349D01*
X203410000Y-101259605D01*
X202347256Y-102322349D01*
X200278624Y-102322349D01*
X200498822Y-102175218D01*
X200695218Y-101978822D01*
X200849525Y-101747885D01*
X200955814Y-101491282D01*
X201010000Y-101218873D01*
X201010000Y-101136661D01*
X201617259Y-101136661D01*
X201662760Y-101485319D01*
X201775406Y-101818400D01*
X201887910Y-102028882D01*
X202167651Y-102142744D01*
X203230395Y-101080000D01*
X203589605Y-101080000D01*
X204652349Y-102142744D01*
X204932090Y-102028882D01*
X205087961Y-101713704D01*
X205179349Y-101374174D01*
X205202741Y-101023339D01*
X205192013Y-100941127D01*
X210772000Y-100941127D01*
X210772000Y-101218873D01*
X210826186Y-101491282D01*
X210932475Y-101747885D01*
X211086782Y-101978822D01*
X211283178Y-102175218D01*
X211514115Y-102329525D01*
X211770718Y-102435814D01*
X212043127Y-102490000D01*
X212320873Y-102490000D01*
X212593282Y-102435814D01*
X212849885Y-102329525D01*
X212860624Y-102322349D01*
X214929256Y-102322349D01*
X215043118Y-102602090D01*
X215358296Y-102757961D01*
X215697826Y-102849349D01*
X216048661Y-102872741D01*
X216397319Y-102827240D01*
X216730400Y-102714594D01*
X216940882Y-102602090D01*
X217054744Y-102322349D01*
X215992000Y-101259605D01*
X214929256Y-102322349D01*
X212860624Y-102322349D01*
X213080822Y-102175218D01*
X213277218Y-101978822D01*
X213431525Y-101747885D01*
X213537814Y-101491282D01*
X213592000Y-101218873D01*
X213592000Y-101136661D01*
X214199259Y-101136661D01*
X214244760Y-101485319D01*
X214357406Y-101818400D01*
X214469910Y-102028882D01*
X214749651Y-102142744D01*
X215812395Y-101080000D01*
X216171605Y-101080000D01*
X217234349Y-102142744D01*
X217514090Y-102028882D01*
X217669961Y-101713704D01*
X217761349Y-101374174D01*
X217784741Y-101023339D01*
X217739240Y-100674681D01*
X217626594Y-100341600D01*
X217514090Y-100131118D01*
X217234349Y-100017256D01*
X216171605Y-101080000D01*
X215812395Y-101080000D01*
X214749651Y-100017256D01*
X214469910Y-100131118D01*
X214314039Y-100446296D01*
X214222651Y-100785826D01*
X214199259Y-101136661D01*
X213592000Y-101136661D01*
X213592000Y-100941127D01*
X213537814Y-100668718D01*
X213431525Y-100412115D01*
X213277218Y-100181178D01*
X213080822Y-99984782D01*
X212860625Y-99837651D01*
X214929256Y-99837651D01*
X215992000Y-100900395D01*
X217054744Y-99837651D01*
X216940882Y-99557910D01*
X216625704Y-99402039D01*
X216286174Y-99310651D01*
X215935339Y-99287259D01*
X215586681Y-99332760D01*
X215253600Y-99445406D01*
X215043118Y-99557910D01*
X214929256Y-99837651D01*
X212860625Y-99837651D01*
X212849885Y-99830475D01*
X212593282Y-99724186D01*
X212320873Y-99670000D01*
X212043127Y-99670000D01*
X211770718Y-99724186D01*
X211514115Y-99830475D01*
X211283178Y-99984782D01*
X211086782Y-100181178D01*
X210932475Y-100412115D01*
X210826186Y-100668718D01*
X210772000Y-100941127D01*
X205192013Y-100941127D01*
X205157240Y-100674681D01*
X205044594Y-100341600D01*
X204932090Y-100131118D01*
X204652349Y-100017256D01*
X203589605Y-101080000D01*
X203230395Y-101080000D01*
X202167651Y-100017256D01*
X201887910Y-100131118D01*
X201732039Y-100446296D01*
X201640651Y-100785826D01*
X201617259Y-101136661D01*
X201010000Y-101136661D01*
X201010000Y-100941127D01*
X200955814Y-100668718D01*
X200849525Y-100412115D01*
X200695218Y-100181178D01*
X200498822Y-99984782D01*
X200278625Y-99837651D01*
X202347256Y-99837651D01*
X203410000Y-100900395D01*
X204472744Y-99837651D01*
X204358882Y-99557910D01*
X204043704Y-99402039D01*
X203704174Y-99310651D01*
X203353339Y-99287259D01*
X203004681Y-99332760D01*
X202671600Y-99445406D01*
X202461118Y-99557910D01*
X202347256Y-99837651D01*
X200278625Y-99837651D01*
X200267885Y-99830475D01*
X200011282Y-99724186D01*
X199738873Y-99670000D01*
X199461127Y-99670000D01*
X199188718Y-99724186D01*
X198932115Y-99830475D01*
X198701178Y-99984782D01*
X198504782Y-100181178D01*
X198350475Y-100412115D01*
X198244186Y-100668718D01*
X198190000Y-100941127D01*
X192692013Y-100941127D01*
X192657240Y-100674681D01*
X192544594Y-100341600D01*
X192432090Y-100131118D01*
X192152349Y-100017256D01*
X191089605Y-101080000D01*
X190730395Y-101080000D01*
X189667651Y-100017256D01*
X189387910Y-100131118D01*
X189232039Y-100446296D01*
X189140651Y-100785826D01*
X189117259Y-101136661D01*
X188510000Y-101136661D01*
X188510000Y-100941127D01*
X188455814Y-100668718D01*
X188349525Y-100412115D01*
X188195218Y-100181178D01*
X187998822Y-99984782D01*
X187778625Y-99837651D01*
X189847256Y-99837651D01*
X190910000Y-100900395D01*
X191972744Y-99837651D01*
X191858882Y-99557910D01*
X191543704Y-99402039D01*
X191204174Y-99310651D01*
X190853339Y-99287259D01*
X190504681Y-99332760D01*
X190171600Y-99445406D01*
X189961118Y-99557910D01*
X189847256Y-99837651D01*
X187778625Y-99837651D01*
X187767885Y-99830475D01*
X187511282Y-99724186D01*
X187238873Y-99670000D01*
X186961127Y-99670000D01*
X186688718Y-99724186D01*
X186432115Y-99830475D01*
X186201178Y-99984782D01*
X186004782Y-100181178D01*
X185850475Y-100412115D01*
X185744186Y-100668718D01*
X185690000Y-100941127D01*
X180192013Y-100941127D01*
X180157240Y-100674681D01*
X180044594Y-100341600D01*
X179932090Y-100131118D01*
X179652349Y-100017256D01*
X178589605Y-101080000D01*
X178230395Y-101080000D01*
X177167651Y-100017256D01*
X176887910Y-100131118D01*
X176732039Y-100446296D01*
X176640651Y-100785826D01*
X176617259Y-101136661D01*
X176010000Y-101136661D01*
X176010000Y-100941127D01*
X175955814Y-100668718D01*
X175849525Y-100412115D01*
X175695218Y-100181178D01*
X175498822Y-99984782D01*
X175278625Y-99837651D01*
X177347256Y-99837651D01*
X178410000Y-100900395D01*
X179472744Y-99837651D01*
X179358882Y-99557910D01*
X179043704Y-99402039D01*
X178704174Y-99310651D01*
X178353339Y-99287259D01*
X178004681Y-99332760D01*
X177671600Y-99445406D01*
X177461118Y-99557910D01*
X177347256Y-99837651D01*
X175278625Y-99837651D01*
X175267885Y-99830475D01*
X175206953Y-99805236D01*
X177484072Y-97528117D01*
X177564485Y-97581847D01*
X177889335Y-97716404D01*
X178234193Y-97785000D01*
X178585807Y-97785000D01*
X178930665Y-97716404D01*
X179255515Y-97581847D01*
X179547871Y-97386500D01*
X179796500Y-97137871D01*
X179991847Y-96845515D01*
X180126404Y-96520665D01*
X180195000Y-96175807D01*
X180195000Y-95824193D01*
X180126404Y-95479335D01*
X179991847Y-95154485D01*
X179796500Y-94862129D01*
X179712391Y-94778020D01*
X179720390Y-94778020D01*
X180338189Y-95395820D01*
X180303596Y-95479335D01*
X180235000Y-95824193D01*
X180235000Y-96175807D01*
X180303596Y-96520665D01*
X180438153Y-96845515D01*
X180633500Y-97137871D01*
X180882129Y-97386500D01*
X181174485Y-97581847D01*
X181499335Y-97716404D01*
X181844193Y-97785000D01*
X182195807Y-97785000D01*
X182540665Y-97716404D01*
X182865515Y-97581847D01*
X183157871Y-97386500D01*
X183406500Y-97137871D01*
X183601847Y-96845515D01*
X183736404Y-96520665D01*
X183805000Y-96175807D01*
X183805000Y-95824193D01*
X183736404Y-95479335D01*
X183601847Y-95154485D01*
X183406500Y-94862129D01*
X183157871Y-94613500D01*
X182865515Y-94418153D01*
X182540665Y-94283596D01*
X182472363Y-94270010D01*
X186220166Y-94270010D01*
X186183434Y-94285225D01*
X185866509Y-94496987D01*
X185596987Y-94766509D01*
X185385225Y-95083434D01*
X185239361Y-95435581D01*
X185165000Y-95809419D01*
X185165000Y-96190581D01*
X185239361Y-96564419D01*
X185385225Y-96916566D01*
X185596987Y-97233491D01*
X185866509Y-97503013D01*
X186183434Y-97714775D01*
X186535581Y-97860639D01*
X186909419Y-97935000D01*
X187290581Y-97935000D01*
X187664419Y-97860639D01*
X188016566Y-97714775D01*
X188333491Y-97503013D01*
X188603013Y-97233491D01*
X188814775Y-96916566D01*
X188960639Y-96564419D01*
X189035000Y-96190581D01*
X189035000Y-95809419D01*
X188960639Y-95435581D01*
X188814775Y-95083434D01*
X188603013Y-94766509D01*
X188333491Y-94496987D01*
X188016566Y-94285225D01*
X187979834Y-94270010D01*
X190457637Y-94270010D01*
X190389335Y-94283596D01*
X190064485Y-94418153D01*
X189772129Y-94613500D01*
X189523500Y-94862129D01*
X189328153Y-95154485D01*
X189193596Y-95479335D01*
X189125000Y-95824193D01*
X189125000Y-96175807D01*
X189193596Y-96520665D01*
X189328153Y-96845515D01*
X189523500Y-97137871D01*
X189772129Y-97386500D01*
X190064485Y-97581847D01*
X190389335Y-97716404D01*
X190734193Y-97785000D01*
X191085807Y-97785000D01*
X191430665Y-97716404D01*
X191755515Y-97581847D01*
X192047871Y-97386500D01*
X192296500Y-97137871D01*
X192491847Y-96845515D01*
X192626404Y-96520665D01*
X192695000Y-96175807D01*
X192695000Y-95824193D01*
X192626404Y-95479335D01*
X192491847Y-95154485D01*
X192296500Y-94862129D01*
X192047871Y-94613500D01*
X191755515Y-94418153D01*
X191430665Y-94283596D01*
X191362363Y-94270010D01*
X191712380Y-94270010D01*
X192838189Y-95395820D01*
X192803596Y-95479335D01*
X192735000Y-95824193D01*
X192735000Y-96175807D01*
X192803596Y-96520665D01*
X192938153Y-96845515D01*
X193133500Y-97137871D01*
X193382129Y-97386500D01*
X193674485Y-97581847D01*
X193999335Y-97716404D01*
X194344193Y-97785000D01*
X194695807Y-97785000D01*
X195040665Y-97716404D01*
X195365515Y-97581847D01*
X195657871Y-97386500D01*
X195906500Y-97137871D01*
X196101847Y-96845515D01*
X196236404Y-96520665D01*
X196305000Y-96175807D01*
X196305000Y-95824193D01*
X196236404Y-95479335D01*
X196101847Y-95154485D01*
X195906500Y-94862129D01*
X195657871Y-94613500D01*
X195365515Y-94418153D01*
X195040665Y-94283596D01*
X194695807Y-94215000D01*
X194344193Y-94215000D01*
X193999335Y-94283596D01*
X193915820Y-94318189D01*
X193359630Y-93762000D01*
X200094370Y-93762000D01*
X200821033Y-94488663D01*
X200516566Y-94285225D01*
X200164419Y-94139361D01*
X199790581Y-94065000D01*
X199409419Y-94065000D01*
X199035581Y-94139361D01*
X198683434Y-94285225D01*
X198366509Y-94496987D01*
X198096987Y-94766509D01*
X197885225Y-95083434D01*
X197739361Y-95435581D01*
X197665000Y-95809419D01*
X197665000Y-96190581D01*
X197739361Y-96564419D01*
X197885225Y-96916566D01*
X198096987Y-97233491D01*
X198366509Y-97503013D01*
X198683434Y-97714775D01*
X199035581Y-97860639D01*
X199409419Y-97935000D01*
X199790581Y-97935000D01*
X200164419Y-97860639D01*
X200516566Y-97714775D01*
X200833491Y-97503013D01*
X201103013Y-97233491D01*
X201314775Y-96916566D01*
X201460639Y-96564419D01*
X201535000Y-96190581D01*
X201535000Y-95809419D01*
X201460639Y-95435581D01*
X201314775Y-95083434D01*
X201111337Y-94778967D01*
X201728189Y-95395819D01*
X201693596Y-95479335D01*
X201625000Y-95824193D01*
X201625000Y-96175807D01*
X201693596Y-96520665D01*
X201828153Y-96845515D01*
X202023500Y-97137871D01*
X202272129Y-97386500D01*
X202564485Y-97581847D01*
X202889335Y-97716404D01*
X203234193Y-97785000D01*
X203585807Y-97785000D01*
X203930665Y-97716404D01*
X204255515Y-97581847D01*
X204547871Y-97386500D01*
X204796500Y-97137871D01*
X204991847Y-96845515D01*
X205126404Y-96520665D01*
X205195000Y-96175807D01*
X205195000Y-95824193D01*
X205317000Y-95824193D01*
X205317000Y-96175807D01*
X205385596Y-96520665D01*
X205520153Y-96845515D01*
X205715500Y-97137871D01*
X205964129Y-97386500D01*
X206256485Y-97581847D01*
X206581335Y-97716404D01*
X206926193Y-97785000D01*
X207277807Y-97785000D01*
X207622665Y-97716404D01*
X207947515Y-97581847D01*
X208239871Y-97386500D01*
X208488500Y-97137871D01*
X208683847Y-96845515D01*
X208818404Y-96520665D01*
X208887000Y-96175807D01*
X208887000Y-95824193D01*
X208818404Y-95479335D01*
X208683847Y-95154485D01*
X208488500Y-94862129D01*
X208239871Y-94613500D01*
X207947515Y-94418153D01*
X207622665Y-94283596D01*
X207277807Y-94215000D01*
X206926193Y-94215000D01*
X206581335Y-94283596D01*
X206256485Y-94418153D01*
X205964129Y-94613500D01*
X205715500Y-94862129D01*
X205520153Y-95154485D01*
X205385596Y-95479335D01*
X205317000Y-95824193D01*
X205195000Y-95824193D01*
X205126404Y-95479335D01*
X205091811Y-95395819D01*
X206725630Y-93762000D01*
X212676370Y-93762000D01*
X213403033Y-94488663D01*
X213098566Y-94285225D01*
X212746419Y-94139361D01*
X212372581Y-94065000D01*
X211991419Y-94065000D01*
X211617581Y-94139361D01*
X211265434Y-94285225D01*
X210948509Y-94496987D01*
X210678987Y-94766509D01*
X210467225Y-95083434D01*
X210321361Y-95435581D01*
X210247000Y-95809419D01*
X210247000Y-96190581D01*
X210321361Y-96564419D01*
X210467225Y-96916566D01*
X210678987Y-97233491D01*
X210948509Y-97503013D01*
X211265434Y-97714775D01*
X211617581Y-97860639D01*
X211991419Y-97935000D01*
X212372581Y-97935000D01*
X212746419Y-97860639D01*
X213098566Y-97714775D01*
X213415491Y-97503013D01*
X213685013Y-97233491D01*
X213896775Y-96916566D01*
X214042639Y-96564419D01*
X214117000Y-96190581D01*
X214117000Y-95809419D01*
X214042639Y-95435581D01*
X213896775Y-95083434D01*
X213693337Y-94778967D01*
X214310189Y-95395819D01*
X214275596Y-95479335D01*
X214207000Y-95824193D01*
X214207000Y-96175807D01*
X214275596Y-96520665D01*
X214410153Y-96845515D01*
X214605500Y-97137871D01*
X214854129Y-97386500D01*
X215146485Y-97581847D01*
X215471335Y-97716404D01*
X215816193Y-97785000D01*
X216167807Y-97785000D01*
X216512665Y-97716404D01*
X216837515Y-97581847D01*
X217129871Y-97386500D01*
X217378500Y-97137871D01*
X217573847Y-96845515D01*
X217708404Y-96520665D01*
X217777000Y-96175807D01*
X217777000Y-95824193D01*
X217708404Y-95479335D01*
X217573847Y-95154485D01*
X217378500Y-94862129D01*
X217129871Y-94613500D01*
X216837515Y-94418153D01*
X216512665Y-94283596D01*
X216167807Y-94215000D01*
X215816193Y-94215000D01*
X215471335Y-94283596D01*
X215387819Y-94318189D01*
X213557284Y-92487654D01*
X213533422Y-92458578D01*
X213417392Y-92363355D01*
X213285015Y-92292598D01*
X213141378Y-92249026D01*
X213029426Y-92238000D01*
X213029423Y-92238000D01*
X212992000Y-92234314D01*
X212954577Y-92238000D01*
X212684573Y-92238000D01*
X212849885Y-92169525D01*
X212860624Y-92162349D01*
X214929256Y-92162349D01*
X215043118Y-92442090D01*
X215358296Y-92597961D01*
X215697826Y-92689349D01*
X216048661Y-92712741D01*
X216397319Y-92667240D01*
X216730400Y-92554594D01*
X216940882Y-92442090D01*
X217054744Y-92162349D01*
X215992000Y-91099605D01*
X214929256Y-92162349D01*
X212860624Y-92162349D01*
X213080822Y-92015218D01*
X213277218Y-91818822D01*
X213431525Y-91587885D01*
X213537814Y-91331282D01*
X213592000Y-91058873D01*
X213592000Y-90976661D01*
X214199259Y-90976661D01*
X214244760Y-91325319D01*
X214357406Y-91658400D01*
X214469910Y-91868882D01*
X214749651Y-91982744D01*
X215812395Y-90920000D01*
X216171605Y-90920000D01*
X217234349Y-91982744D01*
X217514090Y-91868882D01*
X217669961Y-91553704D01*
X217761349Y-91214174D01*
X217784741Y-90863339D01*
X217739240Y-90514681D01*
X217626594Y-90181600D01*
X217514090Y-89971118D01*
X217234349Y-89857256D01*
X216171605Y-90920000D01*
X215812395Y-90920000D01*
X214749651Y-89857256D01*
X214469910Y-89971118D01*
X214314039Y-90286296D01*
X214222651Y-90625826D01*
X214199259Y-90976661D01*
X213592000Y-90976661D01*
X213592000Y-90781127D01*
X213537814Y-90508718D01*
X213431525Y-90252115D01*
X213277218Y-90021178D01*
X213080822Y-89824782D01*
X212849885Y-89670475D01*
X212593282Y-89564186D01*
X212320873Y-89510000D01*
X212043127Y-89510000D01*
X211770718Y-89564186D01*
X211514115Y-89670475D01*
X211283178Y-89824782D01*
X211086782Y-90021178D01*
X210932475Y-90252115D01*
X210826186Y-90508718D01*
X210772000Y-90781127D01*
X210772000Y-91058873D01*
X210826186Y-91331282D01*
X210932475Y-91587885D01*
X211086782Y-91818822D01*
X211283178Y-92015218D01*
X211514115Y-92169525D01*
X211679427Y-92238000D01*
X206447423Y-92238000D01*
X206410000Y-92234314D01*
X206372577Y-92238000D01*
X206372574Y-92238000D01*
X206260622Y-92249026D01*
X206116985Y-92292598D01*
X206055364Y-92325535D01*
X205984607Y-92363355D01*
X205942219Y-92398143D01*
X205868578Y-92458578D01*
X205844716Y-92487654D01*
X204014181Y-94318189D01*
X203930665Y-94283596D01*
X203585807Y-94215000D01*
X203234193Y-94215000D01*
X202889335Y-94283596D01*
X202805819Y-94318189D01*
X200975284Y-92487654D01*
X200951422Y-92458578D01*
X200835392Y-92363355D01*
X200703015Y-92292598D01*
X200559378Y-92249026D01*
X200447426Y-92238000D01*
X200447423Y-92238000D01*
X200410000Y-92234314D01*
X200372577Y-92238000D01*
X200102573Y-92238000D01*
X200267885Y-92169525D01*
X200278624Y-92162349D01*
X202347256Y-92162349D01*
X202461118Y-92442090D01*
X202776296Y-92597961D01*
X203115826Y-92689349D01*
X203466661Y-92712741D01*
X203815319Y-92667240D01*
X204148400Y-92554594D01*
X204358882Y-92442090D01*
X204472744Y-92162349D01*
X203410000Y-91099605D01*
X202347256Y-92162349D01*
X200278624Y-92162349D01*
X200498822Y-92015218D01*
X200695218Y-91818822D01*
X200849525Y-91587885D01*
X200955814Y-91331282D01*
X201010000Y-91058873D01*
X201010000Y-90976661D01*
X201617259Y-90976661D01*
X201662760Y-91325319D01*
X201775406Y-91658400D01*
X201887910Y-91868882D01*
X202167651Y-91982744D01*
X203230395Y-90920000D01*
X203589605Y-90920000D01*
X204652349Y-91982744D01*
X204932090Y-91868882D01*
X205087961Y-91553704D01*
X205179349Y-91214174D01*
X205202741Y-90863339D01*
X205157240Y-90514681D01*
X205044594Y-90181600D01*
X204932090Y-89971118D01*
X204652349Y-89857256D01*
X203589605Y-90920000D01*
X203230395Y-90920000D01*
X202167651Y-89857256D01*
X201887910Y-89971118D01*
X201732039Y-90286296D01*
X201640651Y-90625826D01*
X201617259Y-90976661D01*
X201010000Y-90976661D01*
X201010000Y-90781127D01*
X200955814Y-90508718D01*
X200849525Y-90252115D01*
X200695218Y-90021178D01*
X200498822Y-89824782D01*
X200267885Y-89670475D01*
X200011282Y-89564186D01*
X199738873Y-89510000D01*
X199461127Y-89510000D01*
X199188718Y-89564186D01*
X198932115Y-89670475D01*
X198701178Y-89824782D01*
X198504782Y-90021178D01*
X198350475Y-90252115D01*
X198244186Y-90508718D01*
X198190000Y-90781127D01*
X198190000Y-91058873D01*
X198244186Y-91331282D01*
X198350475Y-91587885D01*
X198504782Y-91818822D01*
X198701178Y-92015218D01*
X198932115Y-92169525D01*
X199097427Y-92238000D01*
X191941952Y-92238000D01*
X191972744Y-92162349D01*
X190910000Y-91099605D01*
X189847256Y-92162349D01*
X189878048Y-92238000D01*
X187602573Y-92238000D01*
X187767885Y-92169525D01*
X187998822Y-92015218D01*
X188195218Y-91818822D01*
X188349525Y-91587885D01*
X188455814Y-91331282D01*
X188510000Y-91058873D01*
X188510000Y-90976661D01*
X189117259Y-90976661D01*
X189162760Y-91325319D01*
X189275406Y-91658400D01*
X189387910Y-91868882D01*
X189667651Y-91982744D01*
X190730395Y-90920000D01*
X191089605Y-90920000D01*
X192152349Y-91982744D01*
X192432090Y-91868882D01*
X192587961Y-91553704D01*
X192679349Y-91214174D01*
X192702741Y-90863339D01*
X192657240Y-90514681D01*
X192544594Y-90181600D01*
X192432090Y-89971118D01*
X192152349Y-89857256D01*
X191089605Y-90920000D01*
X190730395Y-90920000D01*
X189667651Y-89857256D01*
X189387910Y-89971118D01*
X189232039Y-90286296D01*
X189140651Y-90625826D01*
X189117259Y-90976661D01*
X188510000Y-90976661D01*
X188510000Y-90781127D01*
X188455814Y-90508718D01*
X188349525Y-90252115D01*
X188195218Y-90021178D01*
X187998822Y-89824782D01*
X187767885Y-89670475D01*
X187511282Y-89564186D01*
X187238873Y-89510000D01*
X186961127Y-89510000D01*
X186688718Y-89564186D01*
X186432115Y-89670475D01*
X186201178Y-89824782D01*
X186004782Y-90021178D01*
X185850475Y-90252115D01*
X185744186Y-90508718D01*
X185690000Y-90781127D01*
X185690000Y-91058873D01*
X185744186Y-91331282D01*
X185850475Y-91587885D01*
X186004782Y-91818822D01*
X186201178Y-92015218D01*
X186432115Y-92169525D01*
X186597427Y-92238000D01*
X179441952Y-92238000D01*
X179472744Y-92162349D01*
X178410000Y-91099605D01*
X177347256Y-92162349D01*
X177378048Y-92238000D01*
X175102573Y-92238000D01*
X175267885Y-92169525D01*
X175498822Y-92015218D01*
X175695218Y-91818822D01*
X175849525Y-91587885D01*
X175955814Y-91331282D01*
X176010000Y-91058873D01*
X176010000Y-90976661D01*
X176617259Y-90976661D01*
X176662760Y-91325319D01*
X176775406Y-91658400D01*
X176887910Y-91868882D01*
X177167651Y-91982744D01*
X178230395Y-90920000D01*
X178589605Y-90920000D01*
X179652349Y-91982744D01*
X179932090Y-91868882D01*
X180087961Y-91553704D01*
X180179349Y-91214174D01*
X180202741Y-90863339D01*
X180157240Y-90514681D01*
X180044594Y-90181600D01*
X179932090Y-89971118D01*
X179652349Y-89857256D01*
X178589605Y-90920000D01*
X178230395Y-90920000D01*
X177167651Y-89857256D01*
X176887910Y-89971118D01*
X176732039Y-90286296D01*
X176640651Y-90625826D01*
X176617259Y-90976661D01*
X176010000Y-90976661D01*
X176010000Y-90781127D01*
X175955814Y-90508718D01*
X175849525Y-90252115D01*
X175695218Y-90021178D01*
X175498822Y-89824782D01*
X175267885Y-89670475D01*
X175011282Y-89564186D01*
X174738873Y-89510000D01*
X174461127Y-89510000D01*
X174188718Y-89564186D01*
X173932115Y-89670475D01*
X173701178Y-89824782D01*
X173504782Y-90021178D01*
X173350475Y-90252115D01*
X173244186Y-90508718D01*
X173190000Y-90781127D01*
X173190000Y-91058873D01*
X173244186Y-91331282D01*
X173350475Y-91587885D01*
X173504782Y-91818822D01*
X173701178Y-92015218D01*
X173932115Y-92169525D01*
X174097427Y-92238000D01*
X166941952Y-92238000D01*
X166972744Y-92162349D01*
X165910000Y-91099605D01*
X165895858Y-91113748D01*
X165716253Y-90934143D01*
X165730395Y-90920000D01*
X166089605Y-90920000D01*
X167152349Y-91982744D01*
X167432090Y-91868882D01*
X167587961Y-91553704D01*
X167679349Y-91214174D01*
X167702741Y-90863339D01*
X167657240Y-90514681D01*
X167544594Y-90181600D01*
X167432090Y-89971118D01*
X167152349Y-89857256D01*
X166089605Y-90920000D01*
X165730395Y-90920000D01*
X164667651Y-89857256D01*
X164387910Y-89971118D01*
X164232039Y-90286296D01*
X164140651Y-90625826D01*
X164117259Y-90976661D01*
X164162760Y-91325319D01*
X164275406Y-91658400D01*
X164309390Y-91721981D01*
X163259925Y-91721981D01*
X163349525Y-91587885D01*
X163455814Y-91331282D01*
X163510000Y-91058873D01*
X163510000Y-90781127D01*
X163455814Y-90508718D01*
X163349525Y-90252115D01*
X163195218Y-90021178D01*
X162998822Y-89824782D01*
X162767885Y-89670475D01*
X162511282Y-89564186D01*
X162238873Y-89510000D01*
X161961127Y-89510000D01*
X161688718Y-89564186D01*
X161432115Y-89670475D01*
X161201178Y-89824782D01*
X161004782Y-90021178D01*
X160850475Y-90252115D01*
X160744186Y-90508718D01*
X160690000Y-90781127D01*
X160690000Y-91058873D01*
X160744186Y-91331282D01*
X160850475Y-91587885D01*
X160940075Y-91721981D01*
X155004740Y-91721981D01*
X155087961Y-91553704D01*
X155179349Y-91214174D01*
X155202741Y-90863339D01*
X155157240Y-90514681D01*
X155044594Y-90181600D01*
X154932090Y-89971118D01*
X154652349Y-89857256D01*
X153589605Y-90920000D01*
X153603748Y-90934143D01*
X153424143Y-91113748D01*
X153410000Y-91099605D01*
X153395858Y-91113748D01*
X153216253Y-90934143D01*
X153230395Y-90920000D01*
X152167651Y-89857256D01*
X151887910Y-89971118D01*
X151732039Y-90286296D01*
X151640651Y-90625826D01*
X151617259Y-90976661D01*
X151662760Y-91325319D01*
X151775406Y-91658400D01*
X151805108Y-91713969D01*
X150765278Y-91713969D01*
X150849525Y-91587885D01*
X150955814Y-91331282D01*
X151010000Y-91058873D01*
X151010000Y-90781127D01*
X150955814Y-90508718D01*
X150849525Y-90252115D01*
X150695218Y-90021178D01*
X150498822Y-89824782D01*
X150267885Y-89670475D01*
X150011282Y-89564186D01*
X149738873Y-89510000D01*
X149461127Y-89510000D01*
X149188718Y-89564186D01*
X148932115Y-89670475D01*
X148701178Y-89824782D01*
X148504782Y-90021178D01*
X148350475Y-90252115D01*
X148244186Y-90508718D01*
X148190000Y-90781127D01*
X148190000Y-91058873D01*
X148244186Y-91331282D01*
X148350475Y-91587885D01*
X148434722Y-91713969D01*
X142508702Y-91713969D01*
X142587961Y-91553704D01*
X142679349Y-91214174D01*
X142702741Y-90863339D01*
X142657240Y-90514681D01*
X142544594Y-90181600D01*
X142432090Y-89971118D01*
X142152349Y-89857256D01*
X141089605Y-90920000D01*
X141103748Y-90934143D01*
X140924143Y-91113748D01*
X140910000Y-91099605D01*
X140895858Y-91113748D01*
X140716253Y-90934143D01*
X140730395Y-90920000D01*
X139667651Y-89857256D01*
X139387910Y-89971118D01*
X139232039Y-90286296D01*
X139140651Y-90625826D01*
X139117259Y-90976661D01*
X139162760Y-91325319D01*
X139275406Y-91658400D01*
X139305108Y-91713969D01*
X138265278Y-91713969D01*
X138349525Y-91587885D01*
X138455814Y-91331282D01*
X138510000Y-91058873D01*
X138510000Y-90781127D01*
X138455814Y-90508718D01*
X138349525Y-90252115D01*
X138195218Y-90021178D01*
X137998822Y-89824782D01*
X137767885Y-89670475D01*
X137511282Y-89564186D01*
X137238873Y-89510000D01*
X136961127Y-89510000D01*
X136688718Y-89564186D01*
X136432115Y-89670475D01*
X136201178Y-89824782D01*
X136004782Y-90021178D01*
X135850475Y-90252115D01*
X135744186Y-90508718D01*
X135690000Y-90781127D01*
X135690000Y-91058873D01*
X135744186Y-91331282D01*
X135850475Y-91587885D01*
X135934722Y-91713969D01*
X130008702Y-91713969D01*
X130087961Y-91553704D01*
X130179349Y-91214174D01*
X130202741Y-90863339D01*
X130157240Y-90514681D01*
X130044594Y-90181600D01*
X129932090Y-89971118D01*
X129652349Y-89857256D01*
X128589605Y-90920000D01*
X128603748Y-90934143D01*
X128424143Y-91113748D01*
X128410000Y-91099605D01*
X128395858Y-91113748D01*
X128216253Y-90934143D01*
X128230395Y-90920000D01*
X127167651Y-89857256D01*
X126887910Y-89971118D01*
X126732039Y-90286296D01*
X126640651Y-90625826D01*
X126617259Y-90976661D01*
X126662760Y-91325319D01*
X126775406Y-91658400D01*
X126805108Y-91713969D01*
X125765278Y-91713969D01*
X125849525Y-91587885D01*
X125955814Y-91331282D01*
X126010000Y-91058873D01*
X126010000Y-90781127D01*
X125955814Y-90508718D01*
X125849525Y-90252115D01*
X125695218Y-90021178D01*
X125498822Y-89824782D01*
X125267885Y-89670475D01*
X125011282Y-89564186D01*
X124738873Y-89510000D01*
X124461127Y-89510000D01*
X124188718Y-89564186D01*
X123932115Y-89670475D01*
X123701178Y-89824782D01*
X123504782Y-90021178D01*
X123350475Y-90252115D01*
X123244186Y-90508718D01*
X123190000Y-90781127D01*
X123190000Y-91058873D01*
X123244186Y-91331282D01*
X123350475Y-91587885D01*
X123434722Y-91713969D01*
X117508702Y-91713969D01*
X117587961Y-91553704D01*
X117679349Y-91214174D01*
X117702741Y-90863339D01*
X117657240Y-90514681D01*
X117544594Y-90181600D01*
X117432090Y-89971118D01*
X117152349Y-89857256D01*
X116089605Y-90920000D01*
X116103748Y-90934143D01*
X115924143Y-91113748D01*
X115910000Y-91099605D01*
X115895858Y-91113748D01*
X115716253Y-90934143D01*
X115730395Y-90920000D01*
X114667651Y-89857256D01*
X114387910Y-89971118D01*
X114232039Y-90286296D01*
X114140651Y-90625826D01*
X114117259Y-90976661D01*
X114162760Y-91325319D01*
X114275406Y-91658400D01*
X114305108Y-91713969D01*
X113265278Y-91713969D01*
X113349525Y-91587885D01*
X113455814Y-91331282D01*
X113510000Y-91058873D01*
X113510000Y-90781127D01*
X113455814Y-90508718D01*
X113349525Y-90252115D01*
X113195218Y-90021178D01*
X112998822Y-89824782D01*
X112767885Y-89670475D01*
X112511282Y-89564186D01*
X112238873Y-89510000D01*
X111961127Y-89510000D01*
X111688718Y-89564186D01*
X111432115Y-89670475D01*
X111201178Y-89824782D01*
X111004782Y-90021178D01*
X110850475Y-90252115D01*
X110744186Y-90508718D01*
X110690000Y-90781127D01*
X110690000Y-91058873D01*
X110744186Y-91331282D01*
X110850475Y-91587885D01*
X110934722Y-91713969D01*
X89115269Y-91713969D01*
X89077846Y-91710283D01*
X89040423Y-91713969D01*
X89040421Y-91713969D01*
X88928469Y-91724995D01*
X88784832Y-91768567D01*
X88652455Y-91839324D01*
X88536425Y-91934547D01*
X88512568Y-91963617D01*
X85781126Y-94695060D01*
X85765427Y-94616137D01*
X85666224Y-94376640D01*
X85522204Y-94161099D01*
X85338901Y-93977796D01*
X85123360Y-93833776D01*
X84883863Y-93734573D01*
X84629615Y-93684000D01*
X84370385Y-93684000D01*
X84116137Y-93734573D01*
X83876640Y-93833776D01*
X83661099Y-93977796D01*
X83477796Y-94161099D01*
X83333776Y-94376640D01*
X83250000Y-94578893D01*
X83166224Y-94376640D01*
X83022204Y-94161099D01*
X82838901Y-93977796D01*
X82623360Y-93833776D01*
X82383863Y-93734573D01*
X82129615Y-93684000D01*
X81870385Y-93684000D01*
X81616137Y-93734573D01*
X81376640Y-93833776D01*
X81161099Y-93977796D01*
X80977796Y-94161099D01*
X80833776Y-94376640D01*
X80734573Y-94616137D01*
X80684000Y-94870385D01*
X80650000Y-94870385D01*
X80650000Y-90650000D01*
X101468068Y-90650000D01*
X101500000Y-90653145D01*
X101531931Y-90650000D01*
X101531932Y-90650000D01*
X101627422Y-90640595D01*
X101749948Y-90603427D01*
X101862868Y-90543070D01*
X101961843Y-90461843D01*
X102043070Y-90362868D01*
X102103427Y-90249948D01*
X102140595Y-90127422D01*
X102153145Y-90000000D01*
X102150000Y-89968068D01*
X102150000Y-89150000D01*
X115679083Y-89150000D01*
X115504681Y-89172760D01*
%TA.AperFunction,Conductor*%
D13*
G36*
X115504681Y-89172760D02*
G01*
X115171600Y-89285406D01*
X114961118Y-89397910D01*
X114847256Y-89677651D01*
X115910000Y-90740395D01*
X116972744Y-89677651D01*
X116858882Y-89397910D01*
X116543704Y-89242039D01*
X116204174Y-89150651D01*
X116194410Y-89150000D01*
X128179083Y-89150000D01*
X128004681Y-89172760D01*
X127671600Y-89285406D01*
X127461118Y-89397910D01*
X127347256Y-89677651D01*
X128410000Y-90740395D01*
X129472744Y-89677651D01*
X129358882Y-89397910D01*
X129043704Y-89242039D01*
X128704174Y-89150651D01*
X128694410Y-89150000D01*
X140679083Y-89150000D01*
X140504681Y-89172760D01*
X140171600Y-89285406D01*
X139961118Y-89397910D01*
X139847256Y-89677651D01*
X140910000Y-90740395D01*
X141972744Y-89677651D01*
X141858882Y-89397910D01*
X141543704Y-89242039D01*
X141204174Y-89150651D01*
X141194410Y-89150000D01*
X153179083Y-89150000D01*
X153004681Y-89172760D01*
X152671600Y-89285406D01*
X152461118Y-89397910D01*
X152347256Y-89677651D01*
X153410000Y-90740395D01*
X154472744Y-89677651D01*
X154358882Y-89397910D01*
X154043704Y-89242039D01*
X153704174Y-89150651D01*
X153694410Y-89150000D01*
X165679083Y-89150000D01*
X165504681Y-89172760D01*
X165171600Y-89285406D01*
X164961118Y-89397910D01*
X164847256Y-89677651D01*
X165910000Y-90740395D01*
X166972744Y-89677651D01*
X166858882Y-89397910D01*
X166543704Y-89242039D01*
X166204174Y-89150651D01*
X166194410Y-89150000D01*
X178179083Y-89150000D01*
X178004681Y-89172760D01*
X177671600Y-89285406D01*
X177461118Y-89397910D01*
X177347256Y-89677651D01*
X178410000Y-90740395D01*
X179472744Y-89677651D01*
X179358882Y-89397910D01*
X179043704Y-89242039D01*
X178704174Y-89150651D01*
X178694410Y-89150000D01*
X190679083Y-89150000D01*
X190504681Y-89172760D01*
X190171600Y-89285406D01*
X189961118Y-89397910D01*
X189847256Y-89677651D01*
X190910000Y-90740395D01*
X191972744Y-89677651D01*
X191858882Y-89397910D01*
X191543704Y-89242039D01*
X191204174Y-89150651D01*
X191194410Y-89150000D01*
X203179083Y-89150000D01*
X203004681Y-89172760D01*
X202671600Y-89285406D01*
X202461118Y-89397910D01*
X202347256Y-89677651D01*
X203410000Y-90740395D01*
X204472744Y-89677651D01*
X204358882Y-89397910D01*
X204043704Y-89242039D01*
X203704174Y-89150651D01*
X203694410Y-89150000D01*
X215761083Y-89150000D01*
X215586681Y-89172760D01*
X215253600Y-89285406D01*
X215043118Y-89397910D01*
X214929256Y-89677651D01*
X215992000Y-90740395D01*
X217054744Y-89677651D01*
X217043489Y-89650000D01*
X219350000Y-89650000D01*
X219350001Y-101665340D01*
X218687373Y-101937754D01*
X218661344Y-101952231D01*
X217535110Y-102764977D01*
X217513758Y-102784438D01*
X216875172Y-103515909D01*
X216861316Y-103535145D01*
X216234341Y-104603325D01*
X216223269Y-104627803D01*
X215828507Y-105823700D01*
X215823018Y-105848318D01*
X215822815Y-105850000D01*
X200031924Y-105850000D01*
X200000000Y-105846856D01*
X199968076Y-105850000D01*
X199968068Y-105850000D01*
X199872578Y-105859405D01*
X199750052Y-105896573D01*
X199637132Y-105956930D01*
X199538157Y-106038157D01*
X199517802Y-106062960D01*
X198098684Y-107482078D01*
X197860183Y-107202298D01*
X197833621Y-107178778D01*
X196696706Y-106426408D01*
X196678735Y-106416503D01*
X195675574Y-105965081D01*
X195649068Y-105956504D01*
X194512153Y-105722433D01*
X194478001Y-105720112D01*
X192989980Y-105820428D01*
X192964279Y-105824844D01*
X191710329Y-106175950D01*
X191677524Y-106190387D01*
X190440293Y-106959477D01*
X190417538Y-106977533D01*
X189431097Y-107963974D01*
X189412252Y-107988016D01*
X188890524Y-108850000D01*
X168804443Y-108850000D01*
X166500948Y-106085806D01*
X166461843Y-106038157D01*
X166435146Y-106016247D01*
X166410545Y-105992013D01*
X166385781Y-105975735D01*
X166362868Y-105956930D01*
X166332402Y-105940646D01*
X166303552Y-105921681D01*
X166276095Y-105910549D01*
X166249948Y-105896573D01*
X166216890Y-105886545D01*
X166184895Y-105873573D01*
X166155792Y-105868011D01*
X166127422Y-105859405D01*
X166093044Y-105856019D01*
X166059132Y-105849538D01*
X165997644Y-105850000D01*
X150502356Y-105850000D01*
X150440867Y-105849538D01*
X150406954Y-105856019D01*
X150372578Y-105859405D01*
X150344209Y-105868011D01*
X150315104Y-105873573D01*
X150283104Y-105886547D01*
X150250052Y-105896573D01*
X150223914Y-105910544D01*
X150196447Y-105921680D01*
X150167587Y-105940652D01*
X150137132Y-105956930D01*
X150114224Y-105975730D01*
X150089454Y-105992013D01*
X150064848Y-106016252D01*
X150038157Y-106038157D01*
X149999116Y-106085728D01*
X147695556Y-108850000D01*
X145277922Y-108850000D01*
X144931894Y-108312326D01*
X144914902Y-108291253D01*
X144044103Y-107420454D01*
X144017007Y-107399818D01*
X142646950Y-106621904D01*
X142614359Y-106608965D01*
X141139806Y-106249035D01*
X141104648Y-106245513D01*
X139351440Y-106315177D01*
X139336362Y-106316681D01*
X139312285Y-106323016D01*
X137779679Y-106891938D01*
X137749775Y-106907858D01*
X136553877Y-107767046D01*
X136530232Y-107789102D01*
X136036995Y-108383689D01*
X134558356Y-106165730D01*
X134543070Y-106137132D01*
X134502654Y-106087885D01*
X134462326Y-106038641D01*
X134462062Y-106038424D01*
X134461843Y-106038157D01*
X134412227Y-105997438D01*
X134363435Y-105957310D01*
X134363135Y-105957149D01*
X134362868Y-105956930D01*
X134306192Y-105926636D01*
X134250578Y-105896835D01*
X134250253Y-105896736D01*
X134249948Y-105896573D01*
X134188615Y-105877968D01*
X134128092Y-105859539D01*
X134127752Y-105859505D01*
X134127422Y-105859405D01*
X134063540Y-105853113D01*
X134000683Y-105846856D01*
X133968417Y-105850000D01*
X115031924Y-105850000D01*
X115000000Y-105846856D01*
X114968076Y-105850000D01*
X114968068Y-105850000D01*
X114872578Y-105859405D01*
X114750052Y-105896573D01*
X114637132Y-105956930D01*
X114538157Y-106038157D01*
X114517802Y-106062960D01*
X111730762Y-108850000D01*
X106049693Y-108850000D01*
X106035547Y-108847824D01*
X105985807Y-108850000D01*
X105968068Y-108850000D01*
X105953892Y-108851396D01*
X105907631Y-108853420D01*
X105890320Y-108857658D01*
X105872578Y-108859405D01*
X105828250Y-108872852D01*
X105783264Y-108883864D01*
X105767110Y-108891398D01*
X105750052Y-108896573D01*
X105709199Y-108918410D01*
X105667227Y-108937986D01*
X105652855Y-108948526D01*
X105637132Y-108956930D01*
X105601324Y-108986317D01*
X105563977Y-109013706D01*
X105551936Y-109026849D01*
X105538157Y-109038157D01*
X105508774Y-109073961D01*
X105499159Y-109084455D01*
X105488526Y-109098632D01*
X105456930Y-109137132D01*
X105450180Y-109149760D01*
X101175000Y-114850000D01*
X80650000Y-114850000D01*
X80650000Y-110907690D01*
X81271915Y-110907690D01*
X81329070Y-111139522D01*
X81564271Y-111248519D01*
X81816217Y-111309535D01*
X82075226Y-111320226D01*
X82331345Y-111280183D01*
X82574729Y-111190942D01*
X82670930Y-111139522D01*
X82728085Y-110907690D01*
X83771915Y-110907690D01*
X83829070Y-111139522D01*
X84064271Y-111248519D01*
X84316217Y-111309535D01*
X84575226Y-111320226D01*
X84831345Y-111280183D01*
X85074729Y-111190942D01*
X85170930Y-111139522D01*
X85228085Y-110907690D01*
X84500000Y-110179605D01*
X83771915Y-110907690D01*
X82728085Y-110907690D01*
X82000000Y-110179605D01*
X81271915Y-110907690D01*
X80650000Y-110907690D01*
X80650000Y-110075226D01*
X80679774Y-110075226D01*
X80719817Y-110331345D01*
X80809058Y-110574729D01*
X80860478Y-110670930D01*
X81092310Y-110728085D01*
X81820395Y-110000000D01*
X82179605Y-110000000D01*
X82907690Y-110728085D01*
X83139522Y-110670930D01*
X83248519Y-110435729D01*
X83252327Y-110420007D01*
X83309058Y-110574729D01*
X83360478Y-110670930D01*
X83592310Y-110728085D01*
X84320395Y-110000000D01*
X84679605Y-110000000D01*
X85407690Y-110728085D01*
X85639522Y-110670930D01*
X85748519Y-110435729D01*
X85809535Y-110183783D01*
X85820226Y-109924774D01*
X85780183Y-109668655D01*
X85690942Y-109425271D01*
X85639522Y-109329070D01*
X85407690Y-109271915D01*
X84679605Y-110000000D01*
X84320395Y-110000000D01*
X83592310Y-109271915D01*
X83360478Y-109329070D01*
X83251481Y-109564271D01*
X83247673Y-109579993D01*
X83190942Y-109425271D01*
X83139522Y-109329070D01*
X82907690Y-109271915D01*
X82179605Y-110000000D01*
X81820395Y-110000000D01*
X81092310Y-109271915D01*
X80860478Y-109329070D01*
X80751481Y-109564271D01*
X80690465Y-109816217D01*
X80679774Y-110075226D01*
X80650000Y-110075226D01*
X80650000Y-94870385D01*
X80684000Y-94870385D01*
X80684000Y-95129615D01*
X80734573Y-95383863D01*
X80833776Y-95623360D01*
X80977796Y-95838901D01*
X81161099Y-96022204D01*
X81376640Y-96166224D01*
X81578893Y-96250000D01*
X81376640Y-96333776D01*
X81161099Y-96477796D01*
X80977796Y-96661099D01*
X80833776Y-96876640D01*
X80734573Y-97116137D01*
X80684000Y-97370385D01*
X80684000Y-97629615D01*
X80734573Y-97883863D01*
X80833776Y-98123360D01*
X80977796Y-98338901D01*
X81161099Y-98522204D01*
X81376640Y-98666224D01*
X81578893Y-98750000D01*
X81376640Y-98833776D01*
X81161099Y-98977796D01*
X80977796Y-99161099D01*
X80833776Y-99376640D01*
X80734573Y-99616137D01*
X80684000Y-99870385D01*
X80684000Y-100129615D01*
X80734573Y-100383863D01*
X80833776Y-100623360D01*
X80977796Y-100838901D01*
X81161099Y-101022204D01*
X81376640Y-101166224D01*
X81578893Y-101250000D01*
X81376640Y-101333776D01*
X81161099Y-101477796D01*
X80977796Y-101661099D01*
X80833776Y-101876640D01*
X80734573Y-102116137D01*
X80684000Y-102370385D01*
X80684000Y-102629615D01*
X80734573Y-102883863D01*
X80833776Y-103123360D01*
X80977796Y-103338901D01*
X81161099Y-103522204D01*
X81376640Y-103666224D01*
X81578893Y-103750000D01*
X81376640Y-103833776D01*
X81161099Y-103977796D01*
X80977796Y-104161099D01*
X80833776Y-104376640D01*
X80734573Y-104616137D01*
X80684000Y-104870385D01*
X80684000Y-105129615D01*
X80734573Y-105383863D01*
X80833776Y-105623360D01*
X80977796Y-105838901D01*
X81161099Y-106022204D01*
X81376640Y-106166224D01*
X81578893Y-106250000D01*
X81376640Y-106333776D01*
X81161099Y-106477796D01*
X80977796Y-106661099D01*
X80833776Y-106876640D01*
X80734573Y-107116137D01*
X80684000Y-107370385D01*
X80684000Y-107629615D01*
X80734573Y-107883863D01*
X80833776Y-108123360D01*
X80977796Y-108338901D01*
X81161099Y-108522204D01*
X81376640Y-108666224D01*
X81582389Y-108751448D01*
X81425271Y-108809058D01*
X81329070Y-108860478D01*
X81271915Y-109092310D01*
X82000000Y-109820395D01*
X82728085Y-109092310D01*
X82670930Y-108860478D01*
X82435729Y-108751481D01*
X82424246Y-108748700D01*
X82623360Y-108666224D01*
X82838901Y-108522204D01*
X83022204Y-108338901D01*
X83166224Y-108123360D01*
X83250000Y-107921107D01*
X83333776Y-108123360D01*
X83477796Y-108338901D01*
X83661099Y-108522204D01*
X83876640Y-108666224D01*
X84082389Y-108751448D01*
X83925271Y-108809058D01*
X83829070Y-108860478D01*
X83771915Y-109092310D01*
X84500000Y-109820395D01*
X85228085Y-109092310D01*
X85170930Y-108860478D01*
X84935729Y-108751481D01*
X84924246Y-108748700D01*
X85123360Y-108666224D01*
X85338901Y-108522204D01*
X85522204Y-108338901D01*
X85666224Y-108123360D01*
X85765427Y-107883863D01*
X85816000Y-107629615D01*
X85816000Y-107370385D01*
X85765427Y-107116137D01*
X85666224Y-106876640D01*
X85522204Y-106661099D01*
X85338901Y-106477796D01*
X85123360Y-106333776D01*
X84921107Y-106250000D01*
X85123360Y-106166224D01*
X85338901Y-106022204D01*
X85522204Y-105838901D01*
X85573588Y-105762000D01*
X85777708Y-105762000D01*
X85734573Y-105866137D01*
X85684000Y-106120385D01*
X85684000Y-106379615D01*
X85734573Y-106633863D01*
X85833776Y-106873360D01*
X85977796Y-107088901D01*
X86161099Y-107272204D01*
X86376640Y-107416224D01*
X86578893Y-107500000D01*
X86376640Y-107583776D01*
X86161099Y-107727796D01*
X85977796Y-107911099D01*
X85833776Y-108126640D01*
X85734573Y-108366137D01*
X85684000Y-108620385D01*
X85684000Y-108879615D01*
X85734573Y-109133863D01*
X85833776Y-109373360D01*
X85977796Y-109588901D01*
X86161099Y-109772204D01*
X86376640Y-109916224D01*
X86616137Y-110015427D01*
X86870385Y-110066000D01*
X87129615Y-110066000D01*
X87383863Y-110015427D01*
X87623360Y-109916224D01*
X87838901Y-109772204D01*
X88022204Y-109588901D01*
X88166224Y-109373360D01*
X88265427Y-109133863D01*
X88316000Y-108879615D01*
X88316000Y-108620385D01*
X88265427Y-108366137D01*
X88166224Y-108126640D01*
X88022204Y-107911099D01*
X87838901Y-107727796D01*
X87623360Y-107583776D01*
X87421107Y-107500000D01*
X87623360Y-107416224D01*
X87838901Y-107272204D01*
X88022204Y-107088901D01*
X88073588Y-107012000D01*
X91934370Y-107012000D01*
X95950740Y-111028371D01*
X95974597Y-111057441D01*
X96003667Y-111081298D01*
X96090626Y-111152664D01*
X96161383Y-111190484D01*
X96223004Y-111223421D01*
X96366641Y-111266993D01*
X96478593Y-111278019D01*
X96478596Y-111278019D01*
X96516019Y-111281705D01*
X96553442Y-111278019D01*
X102664992Y-111278019D01*
X102702415Y-111281705D01*
X102739838Y-111278019D01*
X102739841Y-111278019D01*
X102851793Y-111266993D01*
X102995430Y-111223421D01*
X103127807Y-111152664D01*
X103243837Y-111057441D01*
X103267699Y-111028365D01*
X109907044Y-104389021D01*
X170270115Y-104389021D01*
X170307538Y-104392707D01*
X170344961Y-104389021D01*
X170344964Y-104389021D01*
X170456916Y-104377995D01*
X170600553Y-104334423D01*
X170732930Y-104263666D01*
X170848960Y-104168443D01*
X170872822Y-104139367D01*
X173325236Y-101686953D01*
X173350475Y-101747885D01*
X173504782Y-101978822D01*
X173701178Y-102175218D01*
X173932115Y-102329525D01*
X174188718Y-102435814D01*
X174461127Y-102490000D01*
X174738873Y-102490000D01*
X175011282Y-102435814D01*
X175267885Y-102329525D01*
X175278624Y-102322349D01*
X177347256Y-102322349D01*
X177461118Y-102602090D01*
X177776296Y-102757961D01*
X178115826Y-102849349D01*
X178466661Y-102872741D01*
X178815319Y-102827240D01*
X179148400Y-102714594D01*
X179358882Y-102602090D01*
X179472744Y-102322349D01*
X178410000Y-101259605D01*
X177347256Y-102322349D01*
X175278624Y-102322349D01*
X175498822Y-102175218D01*
X175695218Y-101978822D01*
X175849525Y-101747885D01*
X175955814Y-101491282D01*
X176010000Y-101218873D01*
X176010000Y-101136661D01*
X176617259Y-101136661D01*
X176662760Y-101485319D01*
X176775406Y-101818400D01*
X176887910Y-102028882D01*
X177167651Y-102142744D01*
X178230395Y-101080000D01*
X178589605Y-101080000D01*
X179652349Y-102142744D01*
X179932090Y-102028882D01*
X180087961Y-101713704D01*
X180179349Y-101374174D01*
X180202741Y-101023339D01*
X180192013Y-100941127D01*
X185690000Y-100941127D01*
X185690000Y-101218873D01*
X185744186Y-101491282D01*
X185850475Y-101747885D01*
X186004782Y-101978822D01*
X186201178Y-102175218D01*
X186432115Y-102329525D01*
X186688718Y-102435814D01*
X186961127Y-102490000D01*
X187238873Y-102490000D01*
X187511282Y-102435814D01*
X187767885Y-102329525D01*
X187778624Y-102322349D01*
X189847256Y-102322349D01*
X189961118Y-102602090D01*
X190276296Y-102757961D01*
X190615826Y-102849349D01*
X190966661Y-102872741D01*
X191315319Y-102827240D01*
X191648400Y-102714594D01*
X191858882Y-102602090D01*
X191972744Y-102322349D01*
X190910000Y-101259605D01*
X189847256Y-102322349D01*
X187778624Y-102322349D01*
X187998822Y-102175218D01*
X188195218Y-101978822D01*
X188349525Y-101747885D01*
X188455814Y-101491282D01*
X188510000Y-101218873D01*
X188510000Y-101136661D01*
X189117259Y-101136661D01*
X189162760Y-101485319D01*
X189275406Y-101818400D01*
X189387910Y-102028882D01*
X189667651Y-102142744D01*
X190730395Y-101080000D01*
X191089605Y-101080000D01*
X192152349Y-102142744D01*
X192432090Y-102028882D01*
X192587961Y-101713704D01*
X192679349Y-101374174D01*
X192702741Y-101023339D01*
X192692013Y-100941127D01*
X198190000Y-100941127D01*
X198190000Y-101218873D01*
X198244186Y-101491282D01*
X198350475Y-101747885D01*
X198504782Y-101978822D01*
X198701178Y-102175218D01*
X198932115Y-102329525D01*
X199188718Y-102435814D01*
X199461127Y-102490000D01*
X199738873Y-102490000D01*
X200011282Y-102435814D01*
X200267885Y-102329525D01*
X200278624Y-102322349D01*
X202347256Y-102322349D01*
X202461118Y-102602090D01*
X202776296Y-102757961D01*
X203115826Y-102849349D01*
X203466661Y-102872741D01*
X203815319Y-102827240D01*
X204148400Y-102714594D01*
X204358882Y-102602090D01*
X204472744Y-102322349D01*
X203410000Y-101259605D01*
X202347256Y-102322349D01*
X200278624Y-102322349D01*
X200498822Y-102175218D01*
X200695218Y-101978822D01*
X200849525Y-101747885D01*
X200955814Y-101491282D01*
X201010000Y-101218873D01*
X201010000Y-101136661D01*
X201617259Y-101136661D01*
X201662760Y-101485319D01*
X201775406Y-101818400D01*
X201887910Y-102028882D01*
X202167651Y-102142744D01*
X203230395Y-101080000D01*
X203589605Y-101080000D01*
X204652349Y-102142744D01*
X204932090Y-102028882D01*
X205087961Y-101713704D01*
X205179349Y-101374174D01*
X205202741Y-101023339D01*
X205192013Y-100941127D01*
X210772000Y-100941127D01*
X210772000Y-101218873D01*
X210826186Y-101491282D01*
X210932475Y-101747885D01*
X211086782Y-101978822D01*
X211283178Y-102175218D01*
X211514115Y-102329525D01*
X211770718Y-102435814D01*
X212043127Y-102490000D01*
X212320873Y-102490000D01*
X212593282Y-102435814D01*
X212849885Y-102329525D01*
X212860624Y-102322349D01*
X214929256Y-102322349D01*
X215043118Y-102602090D01*
X215358296Y-102757961D01*
X215697826Y-102849349D01*
X216048661Y-102872741D01*
X216397319Y-102827240D01*
X216730400Y-102714594D01*
X216940882Y-102602090D01*
X217054744Y-102322349D01*
X215992000Y-101259605D01*
X214929256Y-102322349D01*
X212860624Y-102322349D01*
X213080822Y-102175218D01*
X213277218Y-101978822D01*
X213431525Y-101747885D01*
X213537814Y-101491282D01*
X213592000Y-101218873D01*
X213592000Y-101136661D01*
X214199259Y-101136661D01*
X214244760Y-101485319D01*
X214357406Y-101818400D01*
X214469910Y-102028882D01*
X214749651Y-102142744D01*
X215812395Y-101080000D01*
X216171605Y-101080000D01*
X217234349Y-102142744D01*
X217514090Y-102028882D01*
X217669961Y-101713704D01*
X217761349Y-101374174D01*
X217784741Y-101023339D01*
X217739240Y-100674681D01*
X217626594Y-100341600D01*
X217514090Y-100131118D01*
X217234349Y-100017256D01*
X216171605Y-101080000D01*
X215812395Y-101080000D01*
X214749651Y-100017256D01*
X214469910Y-100131118D01*
X214314039Y-100446296D01*
X214222651Y-100785826D01*
X214199259Y-101136661D01*
X213592000Y-101136661D01*
X213592000Y-100941127D01*
X213537814Y-100668718D01*
X213431525Y-100412115D01*
X213277218Y-100181178D01*
X213080822Y-99984782D01*
X212860625Y-99837651D01*
X214929256Y-99837651D01*
X215992000Y-100900395D01*
X217054744Y-99837651D01*
X216940882Y-99557910D01*
X216625704Y-99402039D01*
X216286174Y-99310651D01*
X215935339Y-99287259D01*
X215586681Y-99332760D01*
X215253600Y-99445406D01*
X215043118Y-99557910D01*
X214929256Y-99837651D01*
X212860625Y-99837651D01*
X212849885Y-99830475D01*
X212593282Y-99724186D01*
X212320873Y-99670000D01*
X212043127Y-99670000D01*
X211770718Y-99724186D01*
X211514115Y-99830475D01*
X211283178Y-99984782D01*
X211086782Y-100181178D01*
X210932475Y-100412115D01*
X210826186Y-100668718D01*
X210772000Y-100941127D01*
X205192013Y-100941127D01*
X205157240Y-100674681D01*
X205044594Y-100341600D01*
X204932090Y-100131118D01*
X204652349Y-100017256D01*
X203589605Y-101080000D01*
X203230395Y-101080000D01*
X202167651Y-100017256D01*
X201887910Y-100131118D01*
X201732039Y-100446296D01*
X201640651Y-100785826D01*
X201617259Y-101136661D01*
X201010000Y-101136661D01*
X201010000Y-100941127D01*
X200955814Y-100668718D01*
X200849525Y-100412115D01*
X200695218Y-100181178D01*
X200498822Y-99984782D01*
X200278625Y-99837651D01*
X202347256Y-99837651D01*
X203410000Y-100900395D01*
X204472744Y-99837651D01*
X204358882Y-99557910D01*
X204043704Y-99402039D01*
X203704174Y-99310651D01*
X203353339Y-99287259D01*
X203004681Y-99332760D01*
X202671600Y-99445406D01*
X202461118Y-99557910D01*
X202347256Y-99837651D01*
X200278625Y-99837651D01*
X200267885Y-99830475D01*
X200011282Y-99724186D01*
X199738873Y-99670000D01*
X199461127Y-99670000D01*
X199188718Y-99724186D01*
X198932115Y-99830475D01*
X198701178Y-99984782D01*
X198504782Y-100181178D01*
X198350475Y-100412115D01*
X198244186Y-100668718D01*
X198190000Y-100941127D01*
X192692013Y-100941127D01*
X192657240Y-100674681D01*
X192544594Y-100341600D01*
X192432090Y-100131118D01*
X192152349Y-100017256D01*
X191089605Y-101080000D01*
X190730395Y-101080000D01*
X189667651Y-100017256D01*
X189387910Y-100131118D01*
X189232039Y-100446296D01*
X189140651Y-100785826D01*
X189117259Y-101136661D01*
X188510000Y-101136661D01*
X188510000Y-100941127D01*
X188455814Y-100668718D01*
X188349525Y-100412115D01*
X188195218Y-100181178D01*
X187998822Y-99984782D01*
X187778625Y-99837651D01*
X189847256Y-99837651D01*
X190910000Y-100900395D01*
X191972744Y-99837651D01*
X191858882Y-99557910D01*
X191543704Y-99402039D01*
X191204174Y-99310651D01*
X190853339Y-99287259D01*
X190504681Y-99332760D01*
X190171600Y-99445406D01*
X189961118Y-99557910D01*
X189847256Y-99837651D01*
X187778625Y-99837651D01*
X187767885Y-99830475D01*
X187511282Y-99724186D01*
X187238873Y-99670000D01*
X186961127Y-99670000D01*
X186688718Y-99724186D01*
X186432115Y-99830475D01*
X186201178Y-99984782D01*
X186004782Y-100181178D01*
X185850475Y-100412115D01*
X185744186Y-100668718D01*
X185690000Y-100941127D01*
X180192013Y-100941127D01*
X180157240Y-100674681D01*
X180044594Y-100341600D01*
X179932090Y-100131118D01*
X179652349Y-100017256D01*
X178589605Y-101080000D01*
X178230395Y-101080000D01*
X177167651Y-100017256D01*
X176887910Y-100131118D01*
X176732039Y-100446296D01*
X176640651Y-100785826D01*
X176617259Y-101136661D01*
X176010000Y-101136661D01*
X176010000Y-100941127D01*
X175955814Y-100668718D01*
X175849525Y-100412115D01*
X175695218Y-100181178D01*
X175498822Y-99984782D01*
X175278625Y-99837651D01*
X177347256Y-99837651D01*
X178410000Y-100900395D01*
X179472744Y-99837651D01*
X179358882Y-99557910D01*
X179043704Y-99402039D01*
X178704174Y-99310651D01*
X178353339Y-99287259D01*
X178004681Y-99332760D01*
X177671600Y-99445406D01*
X177461118Y-99557910D01*
X177347256Y-99837651D01*
X175278625Y-99837651D01*
X175267885Y-99830475D01*
X175206953Y-99805236D01*
X177484072Y-97528117D01*
X177564485Y-97581847D01*
X177889335Y-97716404D01*
X178234193Y-97785000D01*
X178585807Y-97785000D01*
X178930665Y-97716404D01*
X179255515Y-97581847D01*
X179547871Y-97386500D01*
X179796500Y-97137871D01*
X179991847Y-96845515D01*
X180126404Y-96520665D01*
X180195000Y-96175807D01*
X180195000Y-95824193D01*
X180126404Y-95479335D01*
X179991847Y-95154485D01*
X179796500Y-94862129D01*
X179712391Y-94778020D01*
X179720390Y-94778020D01*
X180338189Y-95395820D01*
X180303596Y-95479335D01*
X180235000Y-95824193D01*
X180235000Y-96175807D01*
X180303596Y-96520665D01*
X180438153Y-96845515D01*
X180633500Y-97137871D01*
X180882129Y-97386500D01*
X181174485Y-97581847D01*
X181499335Y-97716404D01*
X181844193Y-97785000D01*
X182195807Y-97785000D01*
X182540665Y-97716404D01*
X182865515Y-97581847D01*
X183157871Y-97386500D01*
X183406500Y-97137871D01*
X183601847Y-96845515D01*
X183736404Y-96520665D01*
X183805000Y-96175807D01*
X183805000Y-95824193D01*
X183736404Y-95479335D01*
X183601847Y-95154485D01*
X183406500Y-94862129D01*
X183157871Y-94613500D01*
X182865515Y-94418153D01*
X182540665Y-94283596D01*
X182472363Y-94270010D01*
X186220166Y-94270010D01*
X186183434Y-94285225D01*
X185866509Y-94496987D01*
X185596987Y-94766509D01*
X185385225Y-95083434D01*
X185239361Y-95435581D01*
X185165000Y-95809419D01*
X185165000Y-96190581D01*
X185239361Y-96564419D01*
X185385225Y-96916566D01*
X185596987Y-97233491D01*
X185866509Y-97503013D01*
X186183434Y-97714775D01*
X186535581Y-97860639D01*
X186909419Y-97935000D01*
X187290581Y-97935000D01*
X187664419Y-97860639D01*
X188016566Y-97714775D01*
X188333491Y-97503013D01*
X188603013Y-97233491D01*
X188814775Y-96916566D01*
X188960639Y-96564419D01*
X189035000Y-96190581D01*
X189035000Y-95809419D01*
X188960639Y-95435581D01*
X188814775Y-95083434D01*
X188603013Y-94766509D01*
X188333491Y-94496987D01*
X188016566Y-94285225D01*
X187979834Y-94270010D01*
X190457637Y-94270010D01*
X190389335Y-94283596D01*
X190064485Y-94418153D01*
X189772129Y-94613500D01*
X189523500Y-94862129D01*
X189328153Y-95154485D01*
X189193596Y-95479335D01*
X189125000Y-95824193D01*
X189125000Y-96175807D01*
X189193596Y-96520665D01*
X189328153Y-96845515D01*
X189523500Y-97137871D01*
X189772129Y-97386500D01*
X190064485Y-97581847D01*
X190389335Y-97716404D01*
X190734193Y-97785000D01*
X191085807Y-97785000D01*
X191430665Y-97716404D01*
X191755515Y-97581847D01*
X192047871Y-97386500D01*
X192296500Y-97137871D01*
X192491847Y-96845515D01*
X192626404Y-96520665D01*
X192695000Y-96175807D01*
X192695000Y-95824193D01*
X192626404Y-95479335D01*
X192491847Y-95154485D01*
X192296500Y-94862129D01*
X192047871Y-94613500D01*
X191755515Y-94418153D01*
X191430665Y-94283596D01*
X191362363Y-94270010D01*
X191712380Y-94270010D01*
X192838189Y-95395820D01*
X192803596Y-95479335D01*
X192735000Y-95824193D01*
X192735000Y-96175807D01*
X192803596Y-96520665D01*
X192938153Y-96845515D01*
X193133500Y-97137871D01*
X193382129Y-97386500D01*
X193674485Y-97581847D01*
X193999335Y-97716404D01*
X194344193Y-97785000D01*
X194695807Y-97785000D01*
X195040665Y-97716404D01*
X195365515Y-97581847D01*
X195657871Y-97386500D01*
X195906500Y-97137871D01*
X196101847Y-96845515D01*
X196236404Y-96520665D01*
X196305000Y-96175807D01*
X196305000Y-95824193D01*
X196236404Y-95479335D01*
X196101847Y-95154485D01*
X195906500Y-94862129D01*
X195657871Y-94613500D01*
X195365515Y-94418153D01*
X195040665Y-94283596D01*
X194695807Y-94215000D01*
X194344193Y-94215000D01*
X193999335Y-94283596D01*
X193915820Y-94318189D01*
X193359630Y-93762000D01*
X200094370Y-93762000D01*
X200821033Y-94488663D01*
X200516566Y-94285225D01*
X200164419Y-94139361D01*
X199790581Y-94065000D01*
X199409419Y-94065000D01*
X199035581Y-94139361D01*
X198683434Y-94285225D01*
X198366509Y-94496987D01*
X198096987Y-94766509D01*
X197885225Y-95083434D01*
X197739361Y-95435581D01*
X197665000Y-95809419D01*
X197665000Y-96190581D01*
X197739361Y-96564419D01*
X197885225Y-96916566D01*
X198096987Y-97233491D01*
X198366509Y-97503013D01*
X198683434Y-97714775D01*
X199035581Y-97860639D01*
X199409419Y-97935000D01*
X199790581Y-97935000D01*
X200164419Y-97860639D01*
X200516566Y-97714775D01*
X200833491Y-97503013D01*
X201103013Y-97233491D01*
X201314775Y-96916566D01*
X201460639Y-96564419D01*
X201535000Y-96190581D01*
X201535000Y-95809419D01*
X201460639Y-95435581D01*
X201314775Y-95083434D01*
X201111337Y-94778967D01*
X201728189Y-95395819D01*
X201693596Y-95479335D01*
X201625000Y-95824193D01*
X201625000Y-96175807D01*
X201693596Y-96520665D01*
X201828153Y-96845515D01*
X202023500Y-97137871D01*
X202272129Y-97386500D01*
X202564485Y-97581847D01*
X202889335Y-97716404D01*
X203234193Y-97785000D01*
X203585807Y-97785000D01*
X203930665Y-97716404D01*
X204255515Y-97581847D01*
X204547871Y-97386500D01*
X204796500Y-97137871D01*
X204991847Y-96845515D01*
X205126404Y-96520665D01*
X205195000Y-96175807D01*
X205195000Y-95824193D01*
X205317000Y-95824193D01*
X205317000Y-96175807D01*
X205385596Y-96520665D01*
X205520153Y-96845515D01*
X205715500Y-97137871D01*
X205964129Y-97386500D01*
X206256485Y-97581847D01*
X206581335Y-97716404D01*
X206926193Y-97785000D01*
X207277807Y-97785000D01*
X207622665Y-97716404D01*
X207947515Y-97581847D01*
X208239871Y-97386500D01*
X208488500Y-97137871D01*
X208683847Y-96845515D01*
X208818404Y-96520665D01*
X208887000Y-96175807D01*
X208887000Y-95824193D01*
X208818404Y-95479335D01*
X208683847Y-95154485D01*
X208488500Y-94862129D01*
X208239871Y-94613500D01*
X207947515Y-94418153D01*
X207622665Y-94283596D01*
X207277807Y-94215000D01*
X206926193Y-94215000D01*
X206581335Y-94283596D01*
X206256485Y-94418153D01*
X205964129Y-94613500D01*
X205715500Y-94862129D01*
X205520153Y-95154485D01*
X205385596Y-95479335D01*
X205317000Y-95824193D01*
X205195000Y-95824193D01*
X205126404Y-95479335D01*
X205091811Y-95395819D01*
X206725630Y-93762000D01*
X212676370Y-93762000D01*
X213403033Y-94488663D01*
X213098566Y-94285225D01*
X212746419Y-94139361D01*
X212372581Y-94065000D01*
X211991419Y-94065000D01*
X211617581Y-94139361D01*
X211265434Y-94285225D01*
X210948509Y-94496987D01*
X210678987Y-94766509D01*
X210467225Y-95083434D01*
X210321361Y-95435581D01*
X210247000Y-95809419D01*
X210247000Y-96190581D01*
X210321361Y-96564419D01*
X210467225Y-96916566D01*
X210678987Y-97233491D01*
X210948509Y-97503013D01*
X211265434Y-97714775D01*
X211617581Y-97860639D01*
X211991419Y-97935000D01*
X212372581Y-97935000D01*
X212746419Y-97860639D01*
X213098566Y-97714775D01*
X213415491Y-97503013D01*
X213685013Y-97233491D01*
X213896775Y-96916566D01*
X214042639Y-96564419D01*
X214117000Y-96190581D01*
X214117000Y-95809419D01*
X214042639Y-95435581D01*
X213896775Y-95083434D01*
X213693337Y-94778967D01*
X214310189Y-95395819D01*
X214275596Y-95479335D01*
X214207000Y-95824193D01*
X214207000Y-96175807D01*
X214275596Y-96520665D01*
X214410153Y-96845515D01*
X214605500Y-97137871D01*
X214854129Y-97386500D01*
X215146485Y-97581847D01*
X215471335Y-97716404D01*
X215816193Y-97785000D01*
X216167807Y-97785000D01*
X216512665Y-97716404D01*
X216837515Y-97581847D01*
X217129871Y-97386500D01*
X217378500Y-97137871D01*
X217573847Y-96845515D01*
X217708404Y-96520665D01*
X217777000Y-96175807D01*
X217777000Y-95824193D01*
X217708404Y-95479335D01*
X217573847Y-95154485D01*
X217378500Y-94862129D01*
X217129871Y-94613500D01*
X216837515Y-94418153D01*
X216512665Y-94283596D01*
X216167807Y-94215000D01*
X215816193Y-94215000D01*
X215471335Y-94283596D01*
X215387819Y-94318189D01*
X213557284Y-92487654D01*
X213533422Y-92458578D01*
X213417392Y-92363355D01*
X213285015Y-92292598D01*
X213141378Y-92249026D01*
X213029426Y-92238000D01*
X213029423Y-92238000D01*
X212992000Y-92234314D01*
X212954577Y-92238000D01*
X212684573Y-92238000D01*
X212849885Y-92169525D01*
X212860624Y-92162349D01*
X214929256Y-92162349D01*
X215043118Y-92442090D01*
X215358296Y-92597961D01*
X215697826Y-92689349D01*
X216048661Y-92712741D01*
X216397319Y-92667240D01*
X216730400Y-92554594D01*
X216940882Y-92442090D01*
X217054744Y-92162349D01*
X215992000Y-91099605D01*
X214929256Y-92162349D01*
X212860624Y-92162349D01*
X213080822Y-92015218D01*
X213277218Y-91818822D01*
X213431525Y-91587885D01*
X213537814Y-91331282D01*
X213592000Y-91058873D01*
X213592000Y-90976661D01*
X214199259Y-90976661D01*
X214244760Y-91325319D01*
X214357406Y-91658400D01*
X214469910Y-91868882D01*
X214749651Y-91982744D01*
X215812395Y-90920000D01*
X216171605Y-90920000D01*
X217234349Y-91982744D01*
X217514090Y-91868882D01*
X217669961Y-91553704D01*
X217761349Y-91214174D01*
X217784741Y-90863339D01*
X217739240Y-90514681D01*
X217626594Y-90181600D01*
X217514090Y-89971118D01*
X217234349Y-89857256D01*
X216171605Y-90920000D01*
X215812395Y-90920000D01*
X214749651Y-89857256D01*
X214469910Y-89971118D01*
X214314039Y-90286296D01*
X214222651Y-90625826D01*
X214199259Y-90976661D01*
X213592000Y-90976661D01*
X213592000Y-90781127D01*
X213537814Y-90508718D01*
X213431525Y-90252115D01*
X213277218Y-90021178D01*
X213080822Y-89824782D01*
X212849885Y-89670475D01*
X212593282Y-89564186D01*
X212320873Y-89510000D01*
X212043127Y-89510000D01*
X211770718Y-89564186D01*
X211514115Y-89670475D01*
X211283178Y-89824782D01*
X211086782Y-90021178D01*
X210932475Y-90252115D01*
X210826186Y-90508718D01*
X210772000Y-90781127D01*
X210772000Y-91058873D01*
X210826186Y-91331282D01*
X210932475Y-91587885D01*
X211086782Y-91818822D01*
X211283178Y-92015218D01*
X211514115Y-92169525D01*
X211679427Y-92238000D01*
X206447423Y-92238000D01*
X206410000Y-92234314D01*
X206372577Y-92238000D01*
X206372574Y-92238000D01*
X206260622Y-92249026D01*
X206116985Y-92292598D01*
X206055364Y-92325535D01*
X205984607Y-92363355D01*
X205942219Y-92398143D01*
X205868578Y-92458578D01*
X205844716Y-92487654D01*
X204014181Y-94318189D01*
X203930665Y-94283596D01*
X203585807Y-94215000D01*
X203234193Y-94215000D01*
X202889335Y-94283596D01*
X202805819Y-94318189D01*
X200975284Y-92487654D01*
X200951422Y-92458578D01*
X200835392Y-92363355D01*
X200703015Y-92292598D01*
X200559378Y-92249026D01*
X200447426Y-92238000D01*
X200447423Y-92238000D01*
X200410000Y-92234314D01*
X200372577Y-92238000D01*
X200102573Y-92238000D01*
X200267885Y-92169525D01*
X200278624Y-92162349D01*
X202347256Y-92162349D01*
X202461118Y-92442090D01*
X202776296Y-92597961D01*
X203115826Y-92689349D01*
X203466661Y-92712741D01*
X203815319Y-92667240D01*
X204148400Y-92554594D01*
X204358882Y-92442090D01*
X204472744Y-92162349D01*
X203410000Y-91099605D01*
X202347256Y-92162349D01*
X200278624Y-92162349D01*
X200498822Y-92015218D01*
X200695218Y-91818822D01*
X200849525Y-91587885D01*
X200955814Y-91331282D01*
X201010000Y-91058873D01*
X201010000Y-90976661D01*
X201617259Y-90976661D01*
X201662760Y-91325319D01*
X201775406Y-91658400D01*
X201887910Y-91868882D01*
X202167651Y-91982744D01*
X203230395Y-90920000D01*
X203589605Y-90920000D01*
X204652349Y-91982744D01*
X204932090Y-91868882D01*
X205087961Y-91553704D01*
X205179349Y-91214174D01*
X205202741Y-90863339D01*
X205157240Y-90514681D01*
X205044594Y-90181600D01*
X204932090Y-89971118D01*
X204652349Y-89857256D01*
X203589605Y-90920000D01*
X203230395Y-90920000D01*
X202167651Y-89857256D01*
X201887910Y-89971118D01*
X201732039Y-90286296D01*
X201640651Y-90625826D01*
X201617259Y-90976661D01*
X201010000Y-90976661D01*
X201010000Y-90781127D01*
X200955814Y-90508718D01*
X200849525Y-90252115D01*
X200695218Y-90021178D01*
X200498822Y-89824782D01*
X200267885Y-89670475D01*
X200011282Y-89564186D01*
X199738873Y-89510000D01*
X199461127Y-89510000D01*
X199188718Y-89564186D01*
X198932115Y-89670475D01*
X198701178Y-89824782D01*
X198504782Y-90021178D01*
X198350475Y-90252115D01*
X198244186Y-90508718D01*
X198190000Y-90781127D01*
X198190000Y-91058873D01*
X198244186Y-91331282D01*
X198350475Y-91587885D01*
X198504782Y-91818822D01*
X198701178Y-92015218D01*
X198932115Y-92169525D01*
X199097427Y-92238000D01*
X191941952Y-92238000D01*
X191972744Y-92162349D01*
X190910000Y-91099605D01*
X189847256Y-92162349D01*
X189878048Y-92238000D01*
X187602573Y-92238000D01*
X187767885Y-92169525D01*
X187998822Y-92015218D01*
X188195218Y-91818822D01*
X188349525Y-91587885D01*
X188455814Y-91331282D01*
X188510000Y-91058873D01*
X188510000Y-90976661D01*
X189117259Y-90976661D01*
X189162760Y-91325319D01*
X189275406Y-91658400D01*
X189387910Y-91868882D01*
X189667651Y-91982744D01*
X190730395Y-90920000D01*
X191089605Y-90920000D01*
X192152349Y-91982744D01*
X192432090Y-91868882D01*
X192587961Y-91553704D01*
X192679349Y-91214174D01*
X192702741Y-90863339D01*
X192657240Y-90514681D01*
X192544594Y-90181600D01*
X192432090Y-89971118D01*
X192152349Y-89857256D01*
X191089605Y-90920000D01*
X190730395Y-90920000D01*
X189667651Y-89857256D01*
X189387910Y-89971118D01*
X189232039Y-90286296D01*
X189140651Y-90625826D01*
X189117259Y-90976661D01*
X188510000Y-90976661D01*
X188510000Y-90781127D01*
X188455814Y-90508718D01*
X188349525Y-90252115D01*
X188195218Y-90021178D01*
X187998822Y-89824782D01*
X187767885Y-89670475D01*
X187511282Y-89564186D01*
X187238873Y-89510000D01*
X186961127Y-89510000D01*
X186688718Y-89564186D01*
X186432115Y-89670475D01*
X186201178Y-89824782D01*
X186004782Y-90021178D01*
X185850475Y-90252115D01*
X185744186Y-90508718D01*
X185690000Y-90781127D01*
X185690000Y-91058873D01*
X185744186Y-91331282D01*
X185850475Y-91587885D01*
X186004782Y-91818822D01*
X186201178Y-92015218D01*
X186432115Y-92169525D01*
X186597427Y-92238000D01*
X179441952Y-92238000D01*
X179472744Y-92162349D01*
X178410000Y-91099605D01*
X177347256Y-92162349D01*
X177378048Y-92238000D01*
X175102573Y-92238000D01*
X175267885Y-92169525D01*
X175498822Y-92015218D01*
X175695218Y-91818822D01*
X175849525Y-91587885D01*
X175955814Y-91331282D01*
X176010000Y-91058873D01*
X176010000Y-90976661D01*
X176617259Y-90976661D01*
X176662760Y-91325319D01*
X176775406Y-91658400D01*
X176887910Y-91868882D01*
X177167651Y-91982744D01*
X178230395Y-90920000D01*
X178589605Y-90920000D01*
X179652349Y-91982744D01*
X179932090Y-91868882D01*
X180087961Y-91553704D01*
X180179349Y-91214174D01*
X180202741Y-90863339D01*
X180157240Y-90514681D01*
X180044594Y-90181600D01*
X179932090Y-89971118D01*
X179652349Y-89857256D01*
X178589605Y-90920000D01*
X178230395Y-90920000D01*
X177167651Y-89857256D01*
X176887910Y-89971118D01*
X176732039Y-90286296D01*
X176640651Y-90625826D01*
X176617259Y-90976661D01*
X176010000Y-90976661D01*
X176010000Y-90781127D01*
X175955814Y-90508718D01*
X175849525Y-90252115D01*
X175695218Y-90021178D01*
X175498822Y-89824782D01*
X175267885Y-89670475D01*
X175011282Y-89564186D01*
X174738873Y-89510000D01*
X174461127Y-89510000D01*
X174188718Y-89564186D01*
X173932115Y-89670475D01*
X173701178Y-89824782D01*
X173504782Y-90021178D01*
X173350475Y-90252115D01*
X173244186Y-90508718D01*
X173190000Y-90781127D01*
X173190000Y-91058873D01*
X173244186Y-91331282D01*
X173350475Y-91587885D01*
X173504782Y-91818822D01*
X173701178Y-92015218D01*
X173932115Y-92169525D01*
X174097427Y-92238000D01*
X166941952Y-92238000D01*
X166972744Y-92162349D01*
X165910000Y-91099605D01*
X165895858Y-91113748D01*
X165716253Y-90934143D01*
X165730395Y-90920000D01*
X166089605Y-90920000D01*
X167152349Y-91982744D01*
X167432090Y-91868882D01*
X167587961Y-91553704D01*
X167679349Y-91214174D01*
X167702741Y-90863339D01*
X167657240Y-90514681D01*
X167544594Y-90181600D01*
X167432090Y-89971118D01*
X167152349Y-89857256D01*
X166089605Y-90920000D01*
X165730395Y-90920000D01*
X164667651Y-89857256D01*
X164387910Y-89971118D01*
X164232039Y-90286296D01*
X164140651Y-90625826D01*
X164117259Y-90976661D01*
X164162760Y-91325319D01*
X164275406Y-91658400D01*
X164309390Y-91721981D01*
X163259925Y-91721981D01*
X163349525Y-91587885D01*
X163455814Y-91331282D01*
X163510000Y-91058873D01*
X163510000Y-90781127D01*
X163455814Y-90508718D01*
X163349525Y-90252115D01*
X163195218Y-90021178D01*
X162998822Y-89824782D01*
X162767885Y-89670475D01*
X162511282Y-89564186D01*
X162238873Y-89510000D01*
X161961127Y-89510000D01*
X161688718Y-89564186D01*
X161432115Y-89670475D01*
X161201178Y-89824782D01*
X161004782Y-90021178D01*
X160850475Y-90252115D01*
X160744186Y-90508718D01*
X160690000Y-90781127D01*
X160690000Y-91058873D01*
X160744186Y-91331282D01*
X160850475Y-91587885D01*
X160940075Y-91721981D01*
X155004740Y-91721981D01*
X155087961Y-91553704D01*
X155179349Y-91214174D01*
X155202741Y-90863339D01*
X155157240Y-90514681D01*
X155044594Y-90181600D01*
X154932090Y-89971118D01*
X154652349Y-89857256D01*
X153589605Y-90920000D01*
X153603748Y-90934143D01*
X153424143Y-91113748D01*
X153410000Y-91099605D01*
X153395858Y-91113748D01*
X153216253Y-90934143D01*
X153230395Y-90920000D01*
X152167651Y-89857256D01*
X151887910Y-89971118D01*
X151732039Y-90286296D01*
X151640651Y-90625826D01*
X151617259Y-90976661D01*
X151662760Y-91325319D01*
X151775406Y-91658400D01*
X151805108Y-91713969D01*
X150765278Y-91713969D01*
X150849525Y-91587885D01*
X150955814Y-91331282D01*
X151010000Y-91058873D01*
X151010000Y-90781127D01*
X150955814Y-90508718D01*
X150849525Y-90252115D01*
X150695218Y-90021178D01*
X150498822Y-89824782D01*
X150267885Y-89670475D01*
X150011282Y-89564186D01*
X149738873Y-89510000D01*
X149461127Y-89510000D01*
X149188718Y-89564186D01*
X148932115Y-89670475D01*
X148701178Y-89824782D01*
X148504782Y-90021178D01*
X148350475Y-90252115D01*
X148244186Y-90508718D01*
X148190000Y-90781127D01*
X148190000Y-91058873D01*
X148244186Y-91331282D01*
X148350475Y-91587885D01*
X148434722Y-91713969D01*
X142508702Y-91713969D01*
X142587961Y-91553704D01*
X142679349Y-91214174D01*
X142702741Y-90863339D01*
X142657240Y-90514681D01*
X142544594Y-90181600D01*
X142432090Y-89971118D01*
X142152349Y-89857256D01*
X141089605Y-90920000D01*
X141103748Y-90934143D01*
X140924143Y-91113748D01*
X140910000Y-91099605D01*
X140895858Y-91113748D01*
X140716253Y-90934143D01*
X140730395Y-90920000D01*
X139667651Y-89857256D01*
X139387910Y-89971118D01*
X139232039Y-90286296D01*
X139140651Y-90625826D01*
X139117259Y-90976661D01*
X139162760Y-91325319D01*
X139275406Y-91658400D01*
X139305108Y-91713969D01*
X138265278Y-91713969D01*
X138349525Y-91587885D01*
X138455814Y-91331282D01*
X138510000Y-91058873D01*
X138510000Y-90781127D01*
X138455814Y-90508718D01*
X138349525Y-90252115D01*
X138195218Y-90021178D01*
X137998822Y-89824782D01*
X137767885Y-89670475D01*
X137511282Y-89564186D01*
X137238873Y-89510000D01*
X136961127Y-89510000D01*
X136688718Y-89564186D01*
X136432115Y-89670475D01*
X136201178Y-89824782D01*
X136004782Y-90021178D01*
X135850475Y-90252115D01*
X135744186Y-90508718D01*
X135690000Y-90781127D01*
X135690000Y-91058873D01*
X135744186Y-91331282D01*
X135850475Y-91587885D01*
X135934722Y-91713969D01*
X130008702Y-91713969D01*
X130087961Y-91553704D01*
X130179349Y-91214174D01*
X130202741Y-90863339D01*
X130157240Y-90514681D01*
X130044594Y-90181600D01*
X129932090Y-89971118D01*
X129652349Y-89857256D01*
X128589605Y-90920000D01*
X128603748Y-90934143D01*
X128424143Y-91113748D01*
X128410000Y-91099605D01*
X128395858Y-91113748D01*
X128216253Y-90934143D01*
X128230395Y-90920000D01*
X127167651Y-89857256D01*
X126887910Y-89971118D01*
X126732039Y-90286296D01*
X126640651Y-90625826D01*
X126617259Y-90976661D01*
X126662760Y-91325319D01*
X126775406Y-91658400D01*
X126805108Y-91713969D01*
X125765278Y-91713969D01*
X125849525Y-91587885D01*
X125955814Y-91331282D01*
X126010000Y-91058873D01*
X126010000Y-90781127D01*
X125955814Y-90508718D01*
X125849525Y-90252115D01*
X125695218Y-90021178D01*
X125498822Y-89824782D01*
X125267885Y-89670475D01*
X125011282Y-89564186D01*
X124738873Y-89510000D01*
X124461127Y-89510000D01*
X124188718Y-89564186D01*
X123932115Y-89670475D01*
X123701178Y-89824782D01*
X123504782Y-90021178D01*
X123350475Y-90252115D01*
X123244186Y-90508718D01*
X123190000Y-90781127D01*
X123190000Y-91058873D01*
X123244186Y-91331282D01*
X123350475Y-91587885D01*
X123434722Y-91713969D01*
X117508702Y-91713969D01*
X117587961Y-91553704D01*
X117679349Y-91214174D01*
X117702741Y-90863339D01*
X117657240Y-90514681D01*
X117544594Y-90181600D01*
X117432090Y-89971118D01*
X117152349Y-89857256D01*
X116089605Y-90920000D01*
X116103748Y-90934143D01*
X115924143Y-91113748D01*
X115910000Y-91099605D01*
X115895858Y-91113748D01*
X115716253Y-90934143D01*
X115730395Y-90920000D01*
X114667651Y-89857256D01*
X114387910Y-89971118D01*
X114232039Y-90286296D01*
X114140651Y-90625826D01*
X114117259Y-90976661D01*
X114162760Y-91325319D01*
X114275406Y-91658400D01*
X114305108Y-91713969D01*
X113265278Y-91713969D01*
X113349525Y-91587885D01*
X113455814Y-91331282D01*
X113510000Y-91058873D01*
X113510000Y-90781127D01*
X113455814Y-90508718D01*
X113349525Y-90252115D01*
X113195218Y-90021178D01*
X112998822Y-89824782D01*
X112767885Y-89670475D01*
X112511282Y-89564186D01*
X112238873Y-89510000D01*
X111961127Y-89510000D01*
X111688718Y-89564186D01*
X111432115Y-89670475D01*
X111201178Y-89824782D01*
X111004782Y-90021178D01*
X110850475Y-90252115D01*
X110744186Y-90508718D01*
X110690000Y-90781127D01*
X110690000Y-91058873D01*
X110744186Y-91331282D01*
X110850475Y-91587885D01*
X110934722Y-91713969D01*
X89115269Y-91713969D01*
X89077846Y-91710283D01*
X89040423Y-91713969D01*
X89040421Y-91713969D01*
X88928469Y-91724995D01*
X88784832Y-91768567D01*
X88652455Y-91839324D01*
X88536425Y-91934547D01*
X88512568Y-91963617D01*
X85781126Y-94695060D01*
X85765427Y-94616137D01*
X85666224Y-94376640D01*
X85522204Y-94161099D01*
X85338901Y-93977796D01*
X85123360Y-93833776D01*
X84883863Y-93734573D01*
X84629615Y-93684000D01*
X84370385Y-93684000D01*
X84116137Y-93734573D01*
X83876640Y-93833776D01*
X83661099Y-93977796D01*
X83477796Y-94161099D01*
X83333776Y-94376640D01*
X83250000Y-94578893D01*
X83166224Y-94376640D01*
X83022204Y-94161099D01*
X82838901Y-93977796D01*
X82623360Y-93833776D01*
X82383863Y-93734573D01*
X82129615Y-93684000D01*
X81870385Y-93684000D01*
X81616137Y-93734573D01*
X81376640Y-93833776D01*
X81161099Y-93977796D01*
X80977796Y-94161099D01*
X80833776Y-94376640D01*
X80734573Y-94616137D01*
X80684000Y-94870385D01*
X80650000Y-94870385D01*
X80650000Y-90650000D01*
X101468068Y-90650000D01*
X101500000Y-90653145D01*
X101531931Y-90650000D01*
X101531932Y-90650000D01*
X101627422Y-90640595D01*
X101749948Y-90603427D01*
X101862868Y-90543070D01*
X101961843Y-90461843D01*
X102043070Y-90362868D01*
X102103427Y-90249948D01*
X102140595Y-90127422D01*
X102153145Y-90000000D01*
X102150000Y-89968068D01*
X102150000Y-89150000D01*
X115679083Y-89150000D01*
X115504681Y-89172760D01*
G37*
%TD.AperFunction*%
D12*
X105934721Y-98512352D02*
X105958578Y-98541422D01*
X106074608Y-98636645D01*
X106206985Y-98707402D01*
X106350622Y-98750974D01*
X106462574Y-98762000D01*
X106462576Y-98762000D01*
X106499999Y-98765686D01*
X106537422Y-98762000D01*
X107462577Y-98762000D01*
X107500000Y-98765686D01*
X107537423Y-98762000D01*
X107537426Y-98762000D01*
X107649378Y-98750974D01*
X107793015Y-98707402D01*
X107925392Y-98636645D01*
X108041422Y-98541422D01*
X108065284Y-98512346D01*
X110201840Y-96375790D01*
X110239361Y-96564419D01*
X110385225Y-96916566D01*
X110596987Y-97233491D01*
X110866509Y-97503013D01*
X111183434Y-97714775D01*
X111535581Y-97860639D01*
X111909419Y-97935000D01*
X112290581Y-97935000D01*
X112664419Y-97860639D01*
X113016566Y-97714775D01*
X113333491Y-97503013D01*
X113603013Y-97233491D01*
X113814775Y-96916566D01*
X113960639Y-96564419D01*
X114035000Y-96190581D01*
X114035000Y-95809419D01*
X114033314Y-95800945D01*
X114125000Y-95892631D01*
X114125000Y-96175807D01*
X114193596Y-96520665D01*
X114328153Y-96845515D01*
X114523500Y-97137871D01*
X114772129Y-97386500D01*
X115064485Y-97581847D01*
X115389335Y-97716404D01*
X115734193Y-97785000D01*
X116085807Y-97785000D01*
X116430665Y-97716404D01*
X116755515Y-97581847D01*
X117047871Y-97386500D01*
X117296500Y-97137871D01*
X117491847Y-96845515D01*
X117626404Y-96520665D01*
X117695000Y-96175807D01*
X117695000Y-96036748D01*
X117735000Y-95996748D01*
X117735000Y-96175807D01*
X117803596Y-96520665D01*
X117938153Y-96845515D01*
X118133500Y-97137871D01*
X118382129Y-97386500D01*
X118674485Y-97581847D01*
X118738001Y-97608156D01*
X118738000Y-100184369D01*
X117688718Y-101233651D01*
X117702741Y-101023339D01*
X117657240Y-100674681D01*
X117544594Y-100341600D01*
X117432090Y-100131118D01*
X117152349Y-100017256D01*
X116089605Y-101080000D01*
X116103748Y-101094143D01*
X115924143Y-101273748D01*
X115910000Y-101259605D01*
X115895858Y-101273748D01*
X115716253Y-101094143D01*
X115730395Y-101080000D01*
X114667651Y-100017256D01*
X114387910Y-100131118D01*
X114232039Y-100446296D01*
X114140651Y-100785826D01*
X114117259Y-101136661D01*
X114162760Y-101485319D01*
X114275406Y-101818400D01*
X114291762Y-101849001D01*
X113281962Y-101849001D01*
X113349525Y-101747885D01*
X113455814Y-101491282D01*
X113510000Y-101218873D01*
X113510000Y-100941127D01*
X113455814Y-100668718D01*
X113349525Y-100412115D01*
X113195218Y-100181178D01*
X112998822Y-99984782D01*
X112778625Y-99837651D01*
X114847256Y-99837651D01*
X115910000Y-100900395D01*
X116972744Y-99837651D01*
X116858882Y-99557910D01*
X116543704Y-99402039D01*
X116204174Y-99310651D01*
X115853339Y-99287259D01*
X115504681Y-99332760D01*
X115171600Y-99445406D01*
X114961118Y-99557910D01*
X114847256Y-99837651D01*
X112778625Y-99837651D01*
X112767885Y-99830475D01*
X112511282Y-99724186D01*
X112238873Y-99670000D01*
X111961127Y-99670000D01*
X111688718Y-99724186D01*
X111432115Y-99830475D01*
X111201178Y-99984782D01*
X111004782Y-100181178D01*
X110850475Y-100412115D01*
X110744186Y-100668718D01*
X110690000Y-100941127D01*
X110690000Y-101218873D01*
X110744186Y-101491282D01*
X110850475Y-101747885D01*
X110918038Y-101849001D01*
X108976384Y-101849001D01*
X108938961Y-101845315D01*
X108901538Y-101849001D01*
X108901535Y-101849001D01*
X108789583Y-101860027D01*
X108645946Y-101903599D01*
X108584325Y-101936536D01*
X108513568Y-101974356D01*
X108430865Y-102042229D01*
X108397539Y-102069579D01*
X108373682Y-102098649D01*
X104890768Y-105581564D01*
X105054993Y-105185089D01*
X105277000Y-104068985D01*
X105277000Y-102931015D01*
X105054993Y-101814911D01*
X104619511Y-100763565D01*
X103987289Y-99817377D01*
X103182623Y-99012711D01*
X102236435Y-98380489D01*
X101185089Y-97945007D01*
X100068985Y-97723000D01*
X98931015Y-97723000D01*
X97814911Y-97945007D01*
X96763565Y-98380489D01*
X95817377Y-99012711D01*
X95012711Y-99817377D01*
X94380489Y-100763565D01*
X93945007Y-101814911D01*
X93723000Y-102931015D01*
X93723000Y-104068985D01*
X93945007Y-105185089D01*
X94073904Y-105496274D01*
X91815284Y-103237654D01*
X91791422Y-103208578D01*
X91675392Y-103113355D01*
X91543015Y-103042598D01*
X91399378Y-102999026D01*
X91287426Y-102988000D01*
X91287423Y-102988000D01*
X91250000Y-102984314D01*
X91212577Y-102988000D01*
X88073588Y-102988000D01*
X88022204Y-102911099D01*
X87838901Y-102727796D01*
X87623360Y-102583776D01*
X87421107Y-102500000D01*
X87623360Y-102416224D01*
X87838901Y-102272204D01*
X88022204Y-102088901D01*
X88166224Y-101873360D01*
X88265427Y-101633863D01*
X88316000Y-101379615D01*
X88316000Y-101120385D01*
X88297956Y-101029674D01*
X94557621Y-94770010D01*
X102192380Y-94770010D01*
X105934721Y-98512352D01*
%TA.AperFunction,Conductor*%
D13*
G36*
X105934721Y-98512352D02*
G01*
X105958578Y-98541422D01*
X106074608Y-98636645D01*
X106206985Y-98707402D01*
X106350622Y-98750974D01*
X106462574Y-98762000D01*
X106462576Y-98762000D01*
X106499999Y-98765686D01*
X106537422Y-98762000D01*
X107462577Y-98762000D01*
X107500000Y-98765686D01*
X107537423Y-98762000D01*
X107537426Y-98762000D01*
X107649378Y-98750974D01*
X107793015Y-98707402D01*
X107925392Y-98636645D01*
X108041422Y-98541422D01*
X108065284Y-98512346D01*
X110201840Y-96375790D01*
X110239361Y-96564419D01*
X110385225Y-96916566D01*
X110596987Y-97233491D01*
X110866509Y-97503013D01*
X111183434Y-97714775D01*
X111535581Y-97860639D01*
X111909419Y-97935000D01*
X112290581Y-97935000D01*
X112664419Y-97860639D01*
X113016566Y-97714775D01*
X113333491Y-97503013D01*
X113603013Y-97233491D01*
X113814775Y-96916566D01*
X113960639Y-96564419D01*
X114035000Y-96190581D01*
X114035000Y-95809419D01*
X114033314Y-95800945D01*
X114125000Y-95892631D01*
X114125000Y-96175807D01*
X114193596Y-96520665D01*
X114328153Y-96845515D01*
X114523500Y-97137871D01*
X114772129Y-97386500D01*
X115064485Y-97581847D01*
X115389335Y-97716404D01*
X115734193Y-97785000D01*
X116085807Y-97785000D01*
X116430665Y-97716404D01*
X116755515Y-97581847D01*
X117047871Y-97386500D01*
X117296500Y-97137871D01*
X117491847Y-96845515D01*
X117626404Y-96520665D01*
X117695000Y-96175807D01*
X117695000Y-96036748D01*
X117735000Y-95996748D01*
X117735000Y-96175807D01*
X117803596Y-96520665D01*
X117938153Y-96845515D01*
X118133500Y-97137871D01*
X118382129Y-97386500D01*
X118674485Y-97581847D01*
X118738001Y-97608156D01*
X118738000Y-100184369D01*
X117688718Y-101233651D01*
X117702741Y-101023339D01*
X117657240Y-100674681D01*
X117544594Y-100341600D01*
X117432090Y-100131118D01*
X117152349Y-100017256D01*
X116089605Y-101080000D01*
X116103748Y-101094143D01*
X115924143Y-101273748D01*
X115910000Y-101259605D01*
X115895858Y-101273748D01*
X115716253Y-101094143D01*
X115730395Y-101080000D01*
X114667651Y-100017256D01*
X114387910Y-100131118D01*
X114232039Y-100446296D01*
X114140651Y-100785826D01*
X114117259Y-101136661D01*
X114162760Y-101485319D01*
X114275406Y-101818400D01*
X114291762Y-101849001D01*
X113281962Y-101849001D01*
X113349525Y-101747885D01*
X113455814Y-101491282D01*
X113510000Y-101218873D01*
X113510000Y-100941127D01*
X113455814Y-100668718D01*
X113349525Y-100412115D01*
X113195218Y-100181178D01*
X112998822Y-99984782D01*
X112778625Y-99837651D01*
X114847256Y-99837651D01*
X115910000Y-100900395D01*
X116972744Y-99837651D01*
X116858882Y-99557910D01*
X116543704Y-99402039D01*
X116204174Y-99310651D01*
X115853339Y-99287259D01*
X115504681Y-99332760D01*
X115171600Y-99445406D01*
X114961118Y-99557910D01*
X114847256Y-99837651D01*
X112778625Y-99837651D01*
X112767885Y-99830475D01*
X112511282Y-99724186D01*
X112238873Y-99670000D01*
X111961127Y-99670000D01*
X111688718Y-99724186D01*
X111432115Y-99830475D01*
X111201178Y-99984782D01*
X111004782Y-100181178D01*
X110850475Y-100412115D01*
X110744186Y-100668718D01*
X110690000Y-100941127D01*
X110690000Y-101218873D01*
X110744186Y-101491282D01*
X110850475Y-101747885D01*
X110918038Y-101849001D01*
X108976384Y-101849001D01*
X108938961Y-101845315D01*
X108901538Y-101849001D01*
X108901535Y-101849001D01*
X108789583Y-101860027D01*
X108645946Y-101903599D01*
X108584325Y-101936536D01*
X108513568Y-101974356D01*
X108430865Y-102042229D01*
X108397539Y-102069579D01*
X108373682Y-102098649D01*
X104890768Y-105581564D01*
X105054993Y-105185089D01*
X105277000Y-104068985D01*
X105277000Y-102931015D01*
X105054993Y-101814911D01*
X104619511Y-100763565D01*
X103987289Y-99817377D01*
X103182623Y-99012711D01*
X102236435Y-98380489D01*
X101185089Y-97945007D01*
X100068985Y-97723000D01*
X98931015Y-97723000D01*
X97814911Y-97945007D01*
X96763565Y-98380489D01*
X95817377Y-99012711D01*
X95012711Y-99817377D01*
X94380489Y-100763565D01*
X93945007Y-101814911D01*
X93723000Y-102931015D01*
X93723000Y-104068985D01*
X93945007Y-105185089D01*
X94073904Y-105496274D01*
X91815284Y-103237654D01*
X91791422Y-103208578D01*
X91675392Y-103113355D01*
X91543015Y-103042598D01*
X91399378Y-102999026D01*
X91287426Y-102988000D01*
X91287423Y-102988000D01*
X91250000Y-102984314D01*
X91212577Y-102988000D01*
X88073588Y-102988000D01*
X88022204Y-102911099D01*
X87838901Y-102727796D01*
X87623360Y-102583776D01*
X87421107Y-102500000D01*
X87623360Y-102416224D01*
X87838901Y-102272204D01*
X88022204Y-102088901D01*
X88166224Y-101873360D01*
X88265427Y-101633863D01*
X88316000Y-101379615D01*
X88316000Y-101120385D01*
X88297956Y-101029674D01*
X94557621Y-94770010D01*
X102192380Y-94770010D01*
X105934721Y-98512352D01*
G37*
%TD.AperFunction*%
D12*
X155633500Y-94862129D02*
X155438153Y-95154485D01*
X155303596Y-95479335D01*
X155235000Y-95824193D01*
X155235000Y-96175807D01*
X155303596Y-96520665D01*
X155438153Y-96845515D01*
X155633500Y-97137871D01*
X155882129Y-97386500D01*
X156174485Y-97581847D01*
X156499335Y-97716404D01*
X156844193Y-97785000D01*
X157195807Y-97785000D01*
X157540665Y-97716404D01*
X157865515Y-97581847D01*
X158157871Y-97386500D01*
X158406500Y-97137871D01*
X158601847Y-96845515D01*
X158736404Y-96520665D01*
X158805000Y-96175807D01*
X158805000Y-95824193D01*
X158736404Y-95479335D01*
X158601847Y-95154485D01*
X158406500Y-94862129D01*
X158314381Y-94770010D01*
X160594648Y-94770010D01*
X160385225Y-95083434D01*
X160239361Y-95435581D01*
X160165000Y-95809419D01*
X160165000Y-96190581D01*
X160239361Y-96564419D01*
X160385225Y-96916566D01*
X160596987Y-97233491D01*
X160866509Y-97503013D01*
X161183434Y-97714775D01*
X161535581Y-97860639D01*
X161909419Y-97935000D01*
X162290581Y-97935000D01*
X162664419Y-97860639D01*
X163016566Y-97714775D01*
X163333491Y-97503013D01*
X163603013Y-97233491D01*
X163814775Y-96916566D01*
X163960639Y-96564419D01*
X164035000Y-96190581D01*
X164035000Y-95809419D01*
X163960639Y-95435581D01*
X163814775Y-95083434D01*
X163605352Y-94770010D01*
X163684370Y-94770010D01*
X164252203Y-95337844D01*
X164193596Y-95479335D01*
X164125000Y-95824193D01*
X164125000Y-96175807D01*
X164193596Y-96520665D01*
X164328153Y-96845515D01*
X164523500Y-97137871D01*
X164772129Y-97386500D01*
X165064485Y-97581847D01*
X165389335Y-97716404D01*
X165734193Y-97785000D01*
X166085807Y-97785000D01*
X166430665Y-97716404D01*
X166755515Y-97581847D01*
X167047871Y-97386500D01*
X167296500Y-97137871D01*
X167491847Y-96845515D01*
X167526440Y-96762000D01*
X167903560Y-96762000D01*
X167938153Y-96845515D01*
X168133500Y-97137871D01*
X168382129Y-97386500D01*
X168674485Y-97581847D01*
X168999335Y-97716404D01*
X169344193Y-97785000D01*
X169695807Y-97785000D01*
X170040665Y-97716404D01*
X170365515Y-97581847D01*
X170657871Y-97386500D01*
X170906500Y-97137871D01*
X171101847Y-96845515D01*
X171236404Y-96520665D01*
X171305000Y-96175807D01*
X171305000Y-95824193D01*
X171236404Y-95479335D01*
X171101847Y-95154485D01*
X170906500Y-94862129D01*
X170822391Y-94778020D01*
X173089296Y-94778020D01*
X172885225Y-95083434D01*
X172739361Y-95435581D01*
X172665000Y-95809419D01*
X172665000Y-96190581D01*
X172739361Y-96564419D01*
X172885225Y-96916566D01*
X173096987Y-97233491D01*
X173366509Y-97503013D01*
X173683434Y-97714775D01*
X174035581Y-97860639D01*
X174409419Y-97935000D01*
X174790581Y-97935000D01*
X174954543Y-97902386D01*
X169991908Y-102865021D01*
X166025817Y-102865021D01*
X166315319Y-102827240D01*
X166648400Y-102714594D01*
X166858882Y-102602090D01*
X166972744Y-102322349D01*
X165910000Y-101259605D01*
X164847256Y-102322349D01*
X164961118Y-102602090D01*
X165276296Y-102757961D01*
X165615826Y-102849349D01*
X165850876Y-102865021D01*
X153525817Y-102865021D01*
X153815319Y-102827240D01*
X154148400Y-102714594D01*
X154358882Y-102602090D01*
X154472744Y-102322349D01*
X153410000Y-101259605D01*
X152347256Y-102322349D01*
X152461118Y-102602090D01*
X152776296Y-102757961D01*
X153115826Y-102849349D01*
X153350876Y-102865021D01*
X147147168Y-102865021D01*
X148325236Y-101686953D01*
X148350475Y-101747885D01*
X148504782Y-101978822D01*
X148701178Y-102175218D01*
X148932115Y-102329525D01*
X149188718Y-102435814D01*
X149461127Y-102490000D01*
X149738873Y-102490000D01*
X150011282Y-102435814D01*
X150267885Y-102329525D01*
X150498822Y-102175218D01*
X150695218Y-101978822D01*
X150849525Y-101747885D01*
X150955814Y-101491282D01*
X151010000Y-101218873D01*
X151010000Y-101136661D01*
X151617259Y-101136661D01*
X151662760Y-101485319D01*
X151775406Y-101818400D01*
X151887910Y-102028882D01*
X152167651Y-102142744D01*
X153230395Y-101080000D01*
X153589605Y-101080000D01*
X154652349Y-102142744D01*
X154932090Y-102028882D01*
X155087961Y-101713704D01*
X155179349Y-101374174D01*
X155202741Y-101023339D01*
X155192013Y-100941127D01*
X160690000Y-100941127D01*
X160690000Y-101218873D01*
X160744186Y-101491282D01*
X160850475Y-101747885D01*
X161004782Y-101978822D01*
X161201178Y-102175218D01*
X161432115Y-102329525D01*
X161688718Y-102435814D01*
X161961127Y-102490000D01*
X162238873Y-102490000D01*
X162511282Y-102435814D01*
X162767885Y-102329525D01*
X162998822Y-102175218D01*
X163195218Y-101978822D01*
X163349525Y-101747885D01*
X163455814Y-101491282D01*
X163510000Y-101218873D01*
X163510000Y-101136661D01*
X164117259Y-101136661D01*
X164162760Y-101485319D01*
X164275406Y-101818400D01*
X164387910Y-102028882D01*
X164667651Y-102142744D01*
X165730395Y-101080000D01*
X166089605Y-101080000D01*
X167152349Y-102142744D01*
X167432090Y-102028882D01*
X167587961Y-101713704D01*
X167679349Y-101374174D01*
X167702741Y-101023339D01*
X167657240Y-100674681D01*
X167544594Y-100341600D01*
X167432090Y-100131118D01*
X167152349Y-100017256D01*
X166089605Y-101080000D01*
X165730395Y-101080000D01*
X164667651Y-100017256D01*
X164387910Y-100131118D01*
X164232039Y-100446296D01*
X164140651Y-100785826D01*
X164117259Y-101136661D01*
X163510000Y-101136661D01*
X163510000Y-100941127D01*
X163455814Y-100668718D01*
X163349525Y-100412115D01*
X163195218Y-100181178D01*
X162998822Y-99984782D01*
X162778625Y-99837651D01*
X164847256Y-99837651D01*
X165910000Y-100900395D01*
X166972744Y-99837651D01*
X166858882Y-99557910D01*
X166543704Y-99402039D01*
X166204174Y-99310651D01*
X165853339Y-99287259D01*
X165504681Y-99332760D01*
X165171600Y-99445406D01*
X164961118Y-99557910D01*
X164847256Y-99837651D01*
X162778625Y-99837651D01*
X162767885Y-99830475D01*
X162511282Y-99724186D01*
X162238873Y-99670000D01*
X161961127Y-99670000D01*
X161688718Y-99724186D01*
X161432115Y-99830475D01*
X161201178Y-99984782D01*
X161004782Y-100181178D01*
X160850475Y-100412115D01*
X160744186Y-100668718D01*
X160690000Y-100941127D01*
X155192013Y-100941127D01*
X155157240Y-100674681D01*
X155044594Y-100341600D01*
X154932090Y-100131118D01*
X154652349Y-100017256D01*
X153589605Y-101080000D01*
X153230395Y-101080000D01*
X152167651Y-100017256D01*
X151887910Y-100131118D01*
X151732039Y-100446296D01*
X151640651Y-100785826D01*
X151617259Y-101136661D01*
X151010000Y-101136661D01*
X151010000Y-100941127D01*
X150955814Y-100668718D01*
X150849525Y-100412115D01*
X150695218Y-100181178D01*
X150498822Y-99984782D01*
X150278625Y-99837651D01*
X152347256Y-99837651D01*
X153410000Y-100900395D01*
X154472744Y-99837651D01*
X154358882Y-99557910D01*
X154043704Y-99402039D01*
X153704174Y-99310651D01*
X153353339Y-99287259D01*
X153004681Y-99332760D01*
X152671600Y-99445406D01*
X152461118Y-99557910D01*
X152347256Y-99837651D01*
X150278625Y-99837651D01*
X150267885Y-99830475D01*
X150206953Y-99805236D01*
X152484073Y-97528117D01*
X152564485Y-97581847D01*
X152889335Y-97716404D01*
X153234193Y-97785000D01*
X153585807Y-97785000D01*
X153930665Y-97716404D01*
X154255515Y-97581847D01*
X154547871Y-97386500D01*
X154796500Y-97137871D01*
X154991847Y-96845515D01*
X155126404Y-96520665D01*
X155195000Y-96175807D01*
X155195000Y-95824193D01*
X155126404Y-95479335D01*
X155090346Y-95392284D01*
X155712621Y-94770010D01*
X155725619Y-94770010D01*
X155633500Y-94862129D01*
%TA.AperFunction,Conductor*%
D13*
G36*
X155633500Y-94862129D02*
G01*
X155438153Y-95154485D01*
X155303596Y-95479335D01*
X155235000Y-95824193D01*
X155235000Y-96175807D01*
X155303596Y-96520665D01*
X155438153Y-96845515D01*
X155633500Y-97137871D01*
X155882129Y-97386500D01*
X156174485Y-97581847D01*
X156499335Y-97716404D01*
X156844193Y-97785000D01*
X157195807Y-97785000D01*
X157540665Y-97716404D01*
X157865515Y-97581847D01*
X158157871Y-97386500D01*
X158406500Y-97137871D01*
X158601847Y-96845515D01*
X158736404Y-96520665D01*
X158805000Y-96175807D01*
X158805000Y-95824193D01*
X158736404Y-95479335D01*
X158601847Y-95154485D01*
X158406500Y-94862129D01*
X158314381Y-94770010D01*
X160594648Y-94770010D01*
X160385225Y-95083434D01*
X160239361Y-95435581D01*
X160165000Y-95809419D01*
X160165000Y-96190581D01*
X160239361Y-96564419D01*
X160385225Y-96916566D01*
X160596987Y-97233491D01*
X160866509Y-97503013D01*
X161183434Y-97714775D01*
X161535581Y-97860639D01*
X161909419Y-97935000D01*
X162290581Y-97935000D01*
X162664419Y-97860639D01*
X163016566Y-97714775D01*
X163333491Y-97503013D01*
X163603013Y-97233491D01*
X163814775Y-96916566D01*
X163960639Y-96564419D01*
X164035000Y-96190581D01*
X164035000Y-95809419D01*
X163960639Y-95435581D01*
X163814775Y-95083434D01*
X163605352Y-94770010D01*
X163684370Y-94770010D01*
X164252203Y-95337844D01*
X164193596Y-95479335D01*
X164125000Y-95824193D01*
X164125000Y-96175807D01*
X164193596Y-96520665D01*
X164328153Y-96845515D01*
X164523500Y-97137871D01*
X164772129Y-97386500D01*
X165064485Y-97581847D01*
X165389335Y-97716404D01*
X165734193Y-97785000D01*
X166085807Y-97785000D01*
X166430665Y-97716404D01*
X166755515Y-97581847D01*
X167047871Y-97386500D01*
X167296500Y-97137871D01*
X167491847Y-96845515D01*
X167526440Y-96762000D01*
X167903560Y-96762000D01*
X167938153Y-96845515D01*
X168133500Y-97137871D01*
X168382129Y-97386500D01*
X168674485Y-97581847D01*
X168999335Y-97716404D01*
X169344193Y-97785000D01*
X169695807Y-97785000D01*
X170040665Y-97716404D01*
X170365515Y-97581847D01*
X170657871Y-97386500D01*
X170906500Y-97137871D01*
X171101847Y-96845515D01*
X171236404Y-96520665D01*
X171305000Y-96175807D01*
X171305000Y-95824193D01*
X171236404Y-95479335D01*
X171101847Y-95154485D01*
X170906500Y-94862129D01*
X170822391Y-94778020D01*
X173089296Y-94778020D01*
X172885225Y-95083434D01*
X172739361Y-95435581D01*
X172665000Y-95809419D01*
X172665000Y-96190581D01*
X172739361Y-96564419D01*
X172885225Y-96916566D01*
X173096987Y-97233491D01*
X173366509Y-97503013D01*
X173683434Y-97714775D01*
X174035581Y-97860639D01*
X174409419Y-97935000D01*
X174790581Y-97935000D01*
X174954543Y-97902386D01*
X169991908Y-102865021D01*
X166025817Y-102865021D01*
X166315319Y-102827240D01*
X166648400Y-102714594D01*
X166858882Y-102602090D01*
X166972744Y-102322349D01*
X165910000Y-101259605D01*
X164847256Y-102322349D01*
X164961118Y-102602090D01*
X165276296Y-102757961D01*
X165615826Y-102849349D01*
X165850876Y-102865021D01*
X153525817Y-102865021D01*
X153815319Y-102827240D01*
X154148400Y-102714594D01*
X154358882Y-102602090D01*
X154472744Y-102322349D01*
X153410000Y-101259605D01*
X152347256Y-102322349D01*
X152461118Y-102602090D01*
X152776296Y-102757961D01*
X153115826Y-102849349D01*
X153350876Y-102865021D01*
X147147168Y-102865021D01*
X148325236Y-101686953D01*
X148350475Y-101747885D01*
X148504782Y-101978822D01*
X148701178Y-102175218D01*
X148932115Y-102329525D01*
X149188718Y-102435814D01*
X149461127Y-102490000D01*
X149738873Y-102490000D01*
X150011282Y-102435814D01*
X150267885Y-102329525D01*
X150498822Y-102175218D01*
X150695218Y-101978822D01*
X150849525Y-101747885D01*
X150955814Y-101491282D01*
X151010000Y-101218873D01*
X151010000Y-101136661D01*
X151617259Y-101136661D01*
X151662760Y-101485319D01*
X151775406Y-101818400D01*
X151887910Y-102028882D01*
X152167651Y-102142744D01*
X153230395Y-101080000D01*
X153589605Y-101080000D01*
X154652349Y-102142744D01*
X154932090Y-102028882D01*
X155087961Y-101713704D01*
X155179349Y-101374174D01*
X155202741Y-101023339D01*
X155192013Y-100941127D01*
X160690000Y-100941127D01*
X160690000Y-101218873D01*
X160744186Y-101491282D01*
X160850475Y-101747885D01*
X161004782Y-101978822D01*
X161201178Y-102175218D01*
X161432115Y-102329525D01*
X161688718Y-102435814D01*
X161961127Y-102490000D01*
X162238873Y-102490000D01*
X162511282Y-102435814D01*
X162767885Y-102329525D01*
X162998822Y-102175218D01*
X163195218Y-101978822D01*
X163349525Y-101747885D01*
X163455814Y-101491282D01*
X163510000Y-101218873D01*
X163510000Y-101136661D01*
X164117259Y-101136661D01*
X164162760Y-101485319D01*
X164275406Y-101818400D01*
X164387910Y-102028882D01*
X164667651Y-102142744D01*
X165730395Y-101080000D01*
X166089605Y-101080000D01*
X167152349Y-102142744D01*
X167432090Y-102028882D01*
X167587961Y-101713704D01*
X167679349Y-101374174D01*
X167702741Y-101023339D01*
X167657240Y-100674681D01*
X167544594Y-100341600D01*
X167432090Y-100131118D01*
X167152349Y-100017256D01*
X166089605Y-101080000D01*
X165730395Y-101080000D01*
X164667651Y-100017256D01*
X164387910Y-100131118D01*
X164232039Y-100446296D01*
X164140651Y-100785826D01*
X164117259Y-101136661D01*
X163510000Y-101136661D01*
X163510000Y-100941127D01*
X163455814Y-100668718D01*
X163349525Y-100412115D01*
X163195218Y-100181178D01*
X162998822Y-99984782D01*
X162778625Y-99837651D01*
X164847256Y-99837651D01*
X165910000Y-100900395D01*
X166972744Y-99837651D01*
X166858882Y-99557910D01*
X166543704Y-99402039D01*
X166204174Y-99310651D01*
X165853339Y-99287259D01*
X165504681Y-99332760D01*
X165171600Y-99445406D01*
X164961118Y-99557910D01*
X164847256Y-99837651D01*
X162778625Y-99837651D01*
X162767885Y-99830475D01*
X162511282Y-99724186D01*
X162238873Y-99670000D01*
X161961127Y-99670000D01*
X161688718Y-99724186D01*
X161432115Y-99830475D01*
X161201178Y-99984782D01*
X161004782Y-100181178D01*
X160850475Y-100412115D01*
X160744186Y-100668718D01*
X160690000Y-100941127D01*
X155192013Y-100941127D01*
X155157240Y-100674681D01*
X155044594Y-100341600D01*
X154932090Y-100131118D01*
X154652349Y-100017256D01*
X153589605Y-101080000D01*
X153230395Y-101080000D01*
X152167651Y-100017256D01*
X151887910Y-100131118D01*
X151732039Y-100446296D01*
X151640651Y-100785826D01*
X151617259Y-101136661D01*
X151010000Y-101136661D01*
X151010000Y-100941127D01*
X150955814Y-100668718D01*
X150849525Y-100412115D01*
X150695218Y-100181178D01*
X150498822Y-99984782D01*
X150278625Y-99837651D01*
X152347256Y-99837651D01*
X153410000Y-100900395D01*
X154472744Y-99837651D01*
X154358882Y-99557910D01*
X154043704Y-99402039D01*
X153704174Y-99310651D01*
X153353339Y-99287259D01*
X153004681Y-99332760D01*
X152671600Y-99445406D01*
X152461118Y-99557910D01*
X152347256Y-99837651D01*
X150278625Y-99837651D01*
X150267885Y-99830475D01*
X150206953Y-99805236D01*
X152484073Y-97528117D01*
X152564485Y-97581847D01*
X152889335Y-97716404D01*
X153234193Y-97785000D01*
X153585807Y-97785000D01*
X153930665Y-97716404D01*
X154255515Y-97581847D01*
X154547871Y-97386500D01*
X154796500Y-97137871D01*
X154991847Y-96845515D01*
X155126404Y-96520665D01*
X155195000Y-96175807D01*
X155195000Y-95824193D01*
X155126404Y-95479335D01*
X155090346Y-95392284D01*
X155712621Y-94770010D01*
X155725619Y-94770010D01*
X155633500Y-94862129D01*
G37*
%TD.AperFunction*%
D12*
X136183434Y-94285225D02*
X135866509Y-94496987D01*
X135596987Y-94766509D01*
X135385225Y-95083434D01*
X135239361Y-95435581D01*
X135165000Y-95809419D01*
X135165000Y-96190581D01*
X135239361Y-96564419D01*
X135385225Y-96916566D01*
X135596987Y-97233491D01*
X135866509Y-97503013D01*
X136183434Y-97714775D01*
X136535581Y-97860639D01*
X136909419Y-97935000D01*
X137290581Y-97935000D01*
X137664419Y-97860639D01*
X138016566Y-97714775D01*
X138333491Y-97503013D01*
X138603013Y-97233491D01*
X138814775Y-96916566D01*
X138960639Y-96564419D01*
X139035000Y-96190581D01*
X139035000Y-95809419D01*
X138960639Y-95435581D01*
X138814775Y-95083434D01*
X138603013Y-94766509D01*
X138333491Y-94496987D01*
X138016566Y-94285225D01*
X137941158Y-94253990D01*
X140538176Y-94253990D01*
X140389335Y-94283596D01*
X140064485Y-94418153D01*
X139772129Y-94613500D01*
X139523500Y-94862129D01*
X139328153Y-95154485D01*
X139193596Y-95479335D01*
X139125000Y-95824193D01*
X139125000Y-96175807D01*
X139193596Y-96520665D01*
X139328153Y-96845515D01*
X139523500Y-97137871D01*
X139772129Y-97386500D01*
X140064485Y-97581847D01*
X140389335Y-97716404D01*
X140734193Y-97785000D01*
X141085807Y-97785000D01*
X141430665Y-97716404D01*
X141755515Y-97581847D01*
X142047871Y-97386500D01*
X142296500Y-97137871D01*
X142491847Y-96845515D01*
X142626404Y-96520665D01*
X142695000Y-96175807D01*
X142695000Y-95824193D01*
X142626404Y-95479335D01*
X142491847Y-95154485D01*
X142296500Y-94862129D01*
X142047871Y-94613500D01*
X141755515Y-94418153D01*
X141430665Y-94283596D01*
X141281824Y-94253990D01*
X141696360Y-94253990D01*
X142838189Y-95395819D01*
X142803596Y-95479335D01*
X142735000Y-95824193D01*
X142735000Y-96175807D01*
X142803596Y-96520665D01*
X142938153Y-96845515D01*
X143133500Y-97137871D01*
X143382129Y-97386500D01*
X143674485Y-97581847D01*
X143999335Y-97716404D01*
X144344193Y-97785000D01*
X144695807Y-97785000D01*
X145040665Y-97716404D01*
X145365515Y-97581847D01*
X145657871Y-97386500D01*
X145906500Y-97137871D01*
X146101847Y-96845515D01*
X146236404Y-96520665D01*
X146305000Y-96175807D01*
X146305000Y-95824193D01*
X146236404Y-95479335D01*
X146195953Y-95381677D01*
X147315629Y-94262002D01*
X148739499Y-94262002D01*
X148683434Y-94285225D01*
X148366509Y-94496987D01*
X148096987Y-94766509D01*
X147885225Y-95083434D01*
X147739361Y-95435581D01*
X147665000Y-95809419D01*
X147665000Y-96190581D01*
X147739361Y-96564419D01*
X147885225Y-96916566D01*
X148096987Y-97233491D01*
X148366509Y-97503013D01*
X148683434Y-97714775D01*
X149035581Y-97860639D01*
X149409419Y-97935000D01*
X149790581Y-97935000D01*
X149954542Y-97902386D01*
X145499918Y-102357011D01*
X141958636Y-102357011D01*
X141972744Y-102322349D01*
X140910000Y-101259605D01*
X139847256Y-102322349D01*
X139861364Y-102357011D01*
X137701528Y-102357011D01*
X137767885Y-102329525D01*
X137998822Y-102175218D01*
X138195218Y-101978822D01*
X138349525Y-101747885D01*
X138455814Y-101491282D01*
X138510000Y-101218873D01*
X138510000Y-101136661D01*
X139117259Y-101136661D01*
X139162760Y-101485319D01*
X139275406Y-101818400D01*
X139387910Y-102028882D01*
X139667651Y-102142744D01*
X140730395Y-101080000D01*
X141089605Y-101080000D01*
X142152349Y-102142744D01*
X142432090Y-102028882D01*
X142587961Y-101713704D01*
X142679349Y-101374174D01*
X142702741Y-101023339D01*
X142657240Y-100674681D01*
X142544594Y-100341600D01*
X142432090Y-100131118D01*
X142152349Y-100017256D01*
X141089605Y-101080000D01*
X140730395Y-101080000D01*
X139667651Y-100017256D01*
X139387910Y-100131118D01*
X139232039Y-100446296D01*
X139140651Y-100785826D01*
X139117259Y-101136661D01*
X138510000Y-101136661D01*
X138510000Y-100941127D01*
X138455814Y-100668718D01*
X138349525Y-100412115D01*
X138195218Y-100181178D01*
X137998822Y-99984782D01*
X137778625Y-99837651D01*
X139847256Y-99837651D01*
X140910000Y-100900395D01*
X141972744Y-99837651D01*
X141858882Y-99557910D01*
X141543704Y-99402039D01*
X141204174Y-99310651D01*
X140853339Y-99287259D01*
X140504681Y-99332760D01*
X140171600Y-99445406D01*
X139961118Y-99557910D01*
X139847256Y-99837651D01*
X137778625Y-99837651D01*
X137767885Y-99830475D01*
X137511282Y-99724186D01*
X137238873Y-99670000D01*
X136961127Y-99670000D01*
X136688718Y-99724186D01*
X136432115Y-99830475D01*
X136201178Y-99984782D01*
X136004782Y-100181178D01*
X135850475Y-100412115D01*
X135744186Y-100668718D01*
X135690000Y-100941127D01*
X135690000Y-101218873D01*
X135744186Y-101491282D01*
X135850475Y-101747885D01*
X136004782Y-101978822D01*
X136201178Y-102175218D01*
X136432115Y-102329525D01*
X136498472Y-102357011D01*
X129458636Y-102357011D01*
X129472744Y-102322349D01*
X128410000Y-101259605D01*
X127347256Y-102322349D01*
X127361364Y-102357011D01*
X125201528Y-102357011D01*
X125267885Y-102329525D01*
X125498822Y-102175218D01*
X125695218Y-101978822D01*
X125849525Y-101747885D01*
X125955814Y-101491282D01*
X126010000Y-101218873D01*
X126010000Y-101136661D01*
X126617259Y-101136661D01*
X126662760Y-101485319D01*
X126775406Y-101818400D01*
X126887910Y-102028882D01*
X127167651Y-102142744D01*
X128230395Y-101080000D01*
X128589605Y-101080000D01*
X129652349Y-102142744D01*
X129932090Y-102028882D01*
X130087961Y-101713704D01*
X130179349Y-101374174D01*
X130202741Y-101023339D01*
X130157240Y-100674681D01*
X130044594Y-100341600D01*
X129932090Y-100131118D01*
X129652349Y-100017256D01*
X128589605Y-101080000D01*
X128230395Y-101080000D01*
X127167651Y-100017256D01*
X126887910Y-100131118D01*
X126732039Y-100446296D01*
X126640651Y-100785826D01*
X126617259Y-101136661D01*
X126010000Y-101136661D01*
X126010000Y-100941127D01*
X125955814Y-100668718D01*
X125849525Y-100412115D01*
X125695218Y-100181178D01*
X125498822Y-99984782D01*
X125278625Y-99837651D01*
X127347256Y-99837651D01*
X128410000Y-100900395D01*
X129472744Y-99837651D01*
X129358882Y-99557910D01*
X129043704Y-99402039D01*
X128704174Y-99310651D01*
X128353339Y-99287259D01*
X128004681Y-99332760D01*
X127671600Y-99445406D01*
X127461118Y-99557910D01*
X127347256Y-99837651D01*
X125278625Y-99837651D01*
X125267885Y-99830475D01*
X125011282Y-99724186D01*
X124738873Y-99670000D01*
X124461127Y-99670000D01*
X124188718Y-99724186D01*
X123932115Y-99830475D01*
X123701178Y-99984782D01*
X123504782Y-100181178D01*
X123350475Y-100412115D01*
X123244186Y-100668718D01*
X123190000Y-100941127D01*
X123190000Y-101218873D01*
X123244186Y-101491282D01*
X123350475Y-101747885D01*
X123504782Y-101978822D01*
X123701178Y-102175218D01*
X123932115Y-102329525D01*
X123998472Y-102357011D01*
X118720619Y-102357011D01*
X120012353Y-101065278D01*
X120041422Y-101041422D01*
X120136645Y-100925392D01*
X120207402Y-100793015D01*
X120250974Y-100649378D01*
X120262000Y-100537426D01*
X120262000Y-100537424D01*
X120265686Y-100500001D01*
X120262000Y-100462578D01*
X120262000Y-97624724D01*
X120365515Y-97581847D01*
X120657871Y-97386500D01*
X120906500Y-97137871D01*
X121101847Y-96845515D01*
X121236404Y-96520665D01*
X121305000Y-96175807D01*
X121305000Y-95824193D01*
X121236404Y-95479335D01*
X121101847Y-95154485D01*
X120906500Y-94862129D01*
X120806371Y-94762000D01*
X123101496Y-94762000D01*
X123096987Y-94766509D01*
X122885225Y-95083434D01*
X122739361Y-95435581D01*
X122665000Y-95809419D01*
X122665000Y-96190581D01*
X122739361Y-96564419D01*
X122885225Y-96916566D01*
X123096987Y-97233491D01*
X123366509Y-97503013D01*
X123683434Y-97714775D01*
X124035581Y-97860639D01*
X124409419Y-97935000D01*
X124790581Y-97935000D01*
X125164419Y-97860639D01*
X125516566Y-97714775D01*
X125833491Y-97503013D01*
X126103013Y-97233491D01*
X126314775Y-96916566D01*
X126460639Y-96564419D01*
X126535000Y-96190581D01*
X126535000Y-95809419D01*
X126460639Y-95435581D01*
X126314775Y-95083434D01*
X126103013Y-94766509D01*
X126098504Y-94762000D01*
X126184370Y-94762000D01*
X126754550Y-95332180D01*
X126693596Y-95479335D01*
X126625000Y-95824193D01*
X126625000Y-96175807D01*
X126693596Y-96520665D01*
X126828153Y-96845515D01*
X127023500Y-97137871D01*
X127272129Y-97386500D01*
X127564485Y-97581847D01*
X127889335Y-97716404D01*
X128234193Y-97785000D01*
X128585807Y-97785000D01*
X128930665Y-97716404D01*
X129255515Y-97581847D01*
X129547871Y-97386500D01*
X129796500Y-97137871D01*
X129991847Y-96845515D01*
X130026440Y-96762000D01*
X130403560Y-96762000D01*
X130438153Y-96845515D01*
X130633500Y-97137871D01*
X130882129Y-97386500D01*
X131174485Y-97581847D01*
X131499335Y-97716404D01*
X131844193Y-97785000D01*
X132195807Y-97785000D01*
X132540665Y-97716404D01*
X132865515Y-97581847D01*
X133157871Y-97386500D01*
X133406500Y-97137871D01*
X133601847Y-96845515D01*
X133736404Y-96520665D01*
X133805000Y-96175807D01*
X133805000Y-95824193D01*
X133736404Y-95479335D01*
X133601847Y-95154485D01*
X133406500Y-94862129D01*
X133157871Y-94613500D01*
X132865515Y-94418153D01*
X132540665Y-94283596D01*
X132391824Y-94253990D01*
X136258842Y-94253990D01*
X136183434Y-94285225D01*
%TA.AperFunction,Conductor*%
D13*
G36*
X136183434Y-94285225D02*
G01*
X135866509Y-94496987D01*
X135596987Y-94766509D01*
X135385225Y-95083434D01*
X135239361Y-95435581D01*
X135165000Y-95809419D01*
X135165000Y-96190581D01*
X135239361Y-96564419D01*
X135385225Y-96916566D01*
X135596987Y-97233491D01*
X135866509Y-97503013D01*
X136183434Y-97714775D01*
X136535581Y-97860639D01*
X136909419Y-97935000D01*
X137290581Y-97935000D01*
X137664419Y-97860639D01*
X138016566Y-97714775D01*
X138333491Y-97503013D01*
X138603013Y-97233491D01*
X138814775Y-96916566D01*
X138960639Y-96564419D01*
X139035000Y-96190581D01*
X139035000Y-95809419D01*
X138960639Y-95435581D01*
X138814775Y-95083434D01*
X138603013Y-94766509D01*
X138333491Y-94496987D01*
X138016566Y-94285225D01*
X137941158Y-94253990D01*
X140538176Y-94253990D01*
X140389335Y-94283596D01*
X140064485Y-94418153D01*
X139772129Y-94613500D01*
X139523500Y-94862129D01*
X139328153Y-95154485D01*
X139193596Y-95479335D01*
X139125000Y-95824193D01*
X139125000Y-96175807D01*
X139193596Y-96520665D01*
X139328153Y-96845515D01*
X139523500Y-97137871D01*
X139772129Y-97386500D01*
X140064485Y-97581847D01*
X140389335Y-97716404D01*
X140734193Y-97785000D01*
X141085807Y-97785000D01*
X141430665Y-97716404D01*
X141755515Y-97581847D01*
X142047871Y-97386500D01*
X142296500Y-97137871D01*
X142491847Y-96845515D01*
X142626404Y-96520665D01*
X142695000Y-96175807D01*
X142695000Y-95824193D01*
X142626404Y-95479335D01*
X142491847Y-95154485D01*
X142296500Y-94862129D01*
X142047871Y-94613500D01*
X141755515Y-94418153D01*
X141430665Y-94283596D01*
X141281824Y-94253990D01*
X141696360Y-94253990D01*
X142838189Y-95395819D01*
X142803596Y-95479335D01*
X142735000Y-95824193D01*
X142735000Y-96175807D01*
X142803596Y-96520665D01*
X142938153Y-96845515D01*
X143133500Y-97137871D01*
X143382129Y-97386500D01*
X143674485Y-97581847D01*
X143999335Y-97716404D01*
X144344193Y-97785000D01*
X144695807Y-97785000D01*
X145040665Y-97716404D01*
X145365515Y-97581847D01*
X145657871Y-97386500D01*
X145906500Y-97137871D01*
X146101847Y-96845515D01*
X146236404Y-96520665D01*
X146305000Y-96175807D01*
X146305000Y-95824193D01*
X146236404Y-95479335D01*
X146195953Y-95381677D01*
X147315629Y-94262002D01*
X148739499Y-94262002D01*
X148683434Y-94285225D01*
X148366509Y-94496987D01*
X148096987Y-94766509D01*
X147885225Y-95083434D01*
X147739361Y-95435581D01*
X147665000Y-95809419D01*
X147665000Y-96190581D01*
X147739361Y-96564419D01*
X147885225Y-96916566D01*
X148096987Y-97233491D01*
X148366509Y-97503013D01*
X148683434Y-97714775D01*
X149035581Y-97860639D01*
X149409419Y-97935000D01*
X149790581Y-97935000D01*
X149954542Y-97902386D01*
X145499918Y-102357011D01*
X141958636Y-102357011D01*
X141972744Y-102322349D01*
X140910000Y-101259605D01*
X139847256Y-102322349D01*
X139861364Y-102357011D01*
X137701528Y-102357011D01*
X137767885Y-102329525D01*
X137998822Y-102175218D01*
X138195218Y-101978822D01*
X138349525Y-101747885D01*
X138455814Y-101491282D01*
X138510000Y-101218873D01*
X138510000Y-101136661D01*
X139117259Y-101136661D01*
X139162760Y-101485319D01*
X139275406Y-101818400D01*
X139387910Y-102028882D01*
X139667651Y-102142744D01*
X140730395Y-101080000D01*
X141089605Y-101080000D01*
X142152349Y-102142744D01*
X142432090Y-102028882D01*
X142587961Y-101713704D01*
X142679349Y-101374174D01*
X142702741Y-101023339D01*
X142657240Y-100674681D01*
X142544594Y-100341600D01*
X142432090Y-100131118D01*
X142152349Y-100017256D01*
X141089605Y-101080000D01*
X140730395Y-101080000D01*
X139667651Y-100017256D01*
X139387910Y-100131118D01*
X139232039Y-100446296D01*
X139140651Y-100785826D01*
X139117259Y-101136661D01*
X138510000Y-101136661D01*
X138510000Y-100941127D01*
X138455814Y-100668718D01*
X138349525Y-100412115D01*
X138195218Y-100181178D01*
X137998822Y-99984782D01*
X137778625Y-99837651D01*
X139847256Y-99837651D01*
X140910000Y-100900395D01*
X141972744Y-99837651D01*
X141858882Y-99557910D01*
X141543704Y-99402039D01*
X141204174Y-99310651D01*
X140853339Y-99287259D01*
X140504681Y-99332760D01*
X140171600Y-99445406D01*
X139961118Y-99557910D01*
X139847256Y-99837651D01*
X137778625Y-99837651D01*
X137767885Y-99830475D01*
X137511282Y-99724186D01*
X137238873Y-99670000D01*
X136961127Y-99670000D01*
X136688718Y-99724186D01*
X136432115Y-99830475D01*
X136201178Y-99984782D01*
X136004782Y-100181178D01*
X135850475Y-100412115D01*
X135744186Y-100668718D01*
X135690000Y-100941127D01*
X135690000Y-101218873D01*
X135744186Y-101491282D01*
X135850475Y-101747885D01*
X136004782Y-101978822D01*
X136201178Y-102175218D01*
X136432115Y-102329525D01*
X136498472Y-102357011D01*
X129458636Y-102357011D01*
X129472744Y-102322349D01*
X128410000Y-101259605D01*
X127347256Y-102322349D01*
X127361364Y-102357011D01*
X125201528Y-102357011D01*
X125267885Y-102329525D01*
X125498822Y-102175218D01*
X125695218Y-101978822D01*
X125849525Y-101747885D01*
X125955814Y-101491282D01*
X126010000Y-101218873D01*
X126010000Y-101136661D01*
X126617259Y-101136661D01*
X126662760Y-101485319D01*
X126775406Y-101818400D01*
X126887910Y-102028882D01*
X127167651Y-102142744D01*
X128230395Y-101080000D01*
X128589605Y-101080000D01*
X129652349Y-102142744D01*
X129932090Y-102028882D01*
X130087961Y-101713704D01*
X130179349Y-101374174D01*
X130202741Y-101023339D01*
X130157240Y-100674681D01*
X130044594Y-100341600D01*
X129932090Y-100131118D01*
X129652349Y-100017256D01*
X128589605Y-101080000D01*
X128230395Y-101080000D01*
X127167651Y-100017256D01*
X126887910Y-100131118D01*
X126732039Y-100446296D01*
X126640651Y-100785826D01*
X126617259Y-101136661D01*
X126010000Y-101136661D01*
X126010000Y-100941127D01*
X125955814Y-100668718D01*
X125849525Y-100412115D01*
X125695218Y-100181178D01*
X125498822Y-99984782D01*
X125278625Y-99837651D01*
X127347256Y-99837651D01*
X128410000Y-100900395D01*
X129472744Y-99837651D01*
X129358882Y-99557910D01*
X129043704Y-99402039D01*
X128704174Y-99310651D01*
X128353339Y-99287259D01*
X128004681Y-99332760D01*
X127671600Y-99445406D01*
X127461118Y-99557910D01*
X127347256Y-99837651D01*
X125278625Y-99837651D01*
X125267885Y-99830475D01*
X125011282Y-99724186D01*
X124738873Y-99670000D01*
X124461127Y-99670000D01*
X124188718Y-99724186D01*
X123932115Y-99830475D01*
X123701178Y-99984782D01*
X123504782Y-100181178D01*
X123350475Y-100412115D01*
X123244186Y-100668718D01*
X123190000Y-100941127D01*
X123190000Y-101218873D01*
X123244186Y-101491282D01*
X123350475Y-101747885D01*
X123504782Y-101978822D01*
X123701178Y-102175218D01*
X123932115Y-102329525D01*
X123998472Y-102357011D01*
X118720619Y-102357011D01*
X120012353Y-101065278D01*
X120041422Y-101041422D01*
X120136645Y-100925392D01*
X120207402Y-100793015D01*
X120250974Y-100649378D01*
X120262000Y-100537426D01*
X120262000Y-100537424D01*
X120265686Y-100500001D01*
X120262000Y-100462578D01*
X120262000Y-97624724D01*
X120365515Y-97581847D01*
X120657871Y-97386500D01*
X120906500Y-97137871D01*
X121101847Y-96845515D01*
X121236404Y-96520665D01*
X121305000Y-96175807D01*
X121305000Y-95824193D01*
X121236404Y-95479335D01*
X121101847Y-95154485D01*
X120906500Y-94862129D01*
X120806371Y-94762000D01*
X123101496Y-94762000D01*
X123096987Y-94766509D01*
X122885225Y-95083434D01*
X122739361Y-95435581D01*
X122665000Y-95809419D01*
X122665000Y-96190581D01*
X122739361Y-96564419D01*
X122885225Y-96916566D01*
X123096987Y-97233491D01*
X123366509Y-97503013D01*
X123683434Y-97714775D01*
X124035581Y-97860639D01*
X124409419Y-97935000D01*
X124790581Y-97935000D01*
X125164419Y-97860639D01*
X125516566Y-97714775D01*
X125833491Y-97503013D01*
X126103013Y-97233491D01*
X126314775Y-96916566D01*
X126460639Y-96564419D01*
X126535000Y-96190581D01*
X126535000Y-95809419D01*
X126460639Y-95435581D01*
X126314775Y-95083434D01*
X126103013Y-94766509D01*
X126098504Y-94762000D01*
X126184370Y-94762000D01*
X126754550Y-95332180D01*
X126693596Y-95479335D01*
X126625000Y-95824193D01*
X126625000Y-96175807D01*
X126693596Y-96520665D01*
X126828153Y-96845515D01*
X127023500Y-97137871D01*
X127272129Y-97386500D01*
X127564485Y-97581847D01*
X127889335Y-97716404D01*
X128234193Y-97785000D01*
X128585807Y-97785000D01*
X128930665Y-97716404D01*
X129255515Y-97581847D01*
X129547871Y-97386500D01*
X129796500Y-97137871D01*
X129991847Y-96845515D01*
X130026440Y-96762000D01*
X130403560Y-96762000D01*
X130438153Y-96845515D01*
X130633500Y-97137871D01*
X130882129Y-97386500D01*
X131174485Y-97581847D01*
X131499335Y-97716404D01*
X131844193Y-97785000D01*
X132195807Y-97785000D01*
X132540665Y-97716404D01*
X132865515Y-97581847D01*
X133157871Y-97386500D01*
X133406500Y-97137871D01*
X133601847Y-96845515D01*
X133736404Y-96520665D01*
X133805000Y-96175807D01*
X133805000Y-95824193D01*
X133736404Y-95479335D01*
X133601847Y-95154485D01*
X133406500Y-94862129D01*
X133157871Y-94613500D01*
X132865515Y-94418153D01*
X132540665Y-94283596D01*
X132391824Y-94253990D01*
X136258842Y-94253990D01*
X136183434Y-94285225D01*
G37*
%TD.AperFunction*%
%TD*%
M02*
