%TF.GenerationSoftware,KiCad,Pcbnew,5.1.12-1.fc35*%
%TF.CreationDate,2022-04-23T06:03:32-07:00*%
%TF.ProjectId,right,72696768-742e-46b6-9963-61645f706362,v1.1*%
%TF.SameCoordinates,Original*%
%TF.FileFunction,Profile,NP*%
%FSLAX46Y46*%
G04 Gerber Fmt 4.6, Leading zero omitted, Abs format (unit mm)*
G04 Created by KiCad (PCBNEW 5.1.12-1.fc35) date 2022-04-23 06:03:32*
%MOMM*%
%LPD*%
G01*
G04 APERTURE LIST*
%TA.AperFunction,Profile*%
%ADD10C,0.030000*%
%TD*%
G04 APERTURE END LIST*
D10*
X101500000Y-90000000D02*
X101500000Y-88500000D01*
X80000000Y-90000000D02*
X101500000Y-90000000D01*
X80000000Y-115500000D02*
X80000000Y-90000000D01*
X101500000Y-115500000D02*
X80000000Y-115500000D01*
X106000000Y-109500000D02*
X101500000Y-115500000D01*
X112000000Y-109500000D02*
X106000000Y-109500000D01*
X115000000Y-106500000D02*
X112000000Y-109500000D01*
X134000000Y-106500000D02*
X115000000Y-106500000D01*
X136000000Y-109500000D02*
X134000000Y-106500000D01*
X148000000Y-109500000D02*
X136000000Y-109500000D01*
X200000000Y-106500000D02*
X197000000Y-109500000D01*
X166000000Y-106500000D02*
X150500000Y-106500000D01*
X168500000Y-109500000D02*
X166000000Y-106500000D01*
X197000000Y-109500000D02*
X168500000Y-109500000D01*
X150500000Y-106500000D02*
X148000000Y-109500000D01*
X217000000Y-106500000D02*
X200000000Y-106500000D01*
X220000000Y-89000000D02*
X220000000Y-103500000D01*
X220000000Y-103500000D02*
X217000000Y-106500000D01*
X216500000Y-89000000D02*
X220000000Y-89000000D01*
X216500000Y-88500000D02*
X216500000Y-89000000D01*
X101500000Y-88500000D02*
X216500000Y-88500000D01*
M02*
