M48
; DRILL file {KiCad 5.1.12-1.fc35} date Sat 23 Apr 2022 06:03:44 AM PDT
; FORMAT={-:-/ absolute / inch / decimal}
; #@! TF.CreationDate,2022-04-23T06:03:44-07:00
; #@! TF.GenerationSoftware,Kicad,Pcbnew,5.1.12-1.fc35
; #@! TF.FileFunction,Plated,1,2,PTH
FMAT,2
INCH
T1C0.0197
T2C0.0591
%
G90
G05
T1
X3.2283Y-3.7402
X3.2283Y-3.8386
X3.2283Y-3.937
X3.2283Y-4.0354
X3.2283Y-4.1339
X3.2283Y-4.2323
X3.2283Y-4.3307
X3.3268Y-3.7402
X3.3268Y-3.8386
X3.3268Y-3.937
X3.3268Y-4.0354
X3.3268Y-4.1339
X3.3268Y-4.2323
X3.3268Y-4.3307
X3.4252Y-3.7894
X3.4252Y-3.8878
X3.4252Y-3.9862
X3.4252Y-4.0846
X3.4252Y-4.1831
X3.4252Y-4.2815
T2
X4.1898Y-3.7795
X4.5398Y-3.5795
X4.5398Y-3.7795
X4.5398Y-3.9795
X4.6819Y-3.7795
X5.0319Y-3.5795
X5.0319Y-3.7795
X5.0319Y-3.9795
X5.174Y-3.7795
X5.524Y-3.5795
X5.524Y-3.7795
X5.524Y-3.9795
X5.6661Y-3.7795
X6.0161Y-3.5795
X6.0161Y-3.7795
X6.0161Y-3.9795
X6.1583Y-3.7795
X6.5083Y-3.5795
X6.5083Y-3.7795
X6.5083Y-3.9795
X6.6504Y-3.7795
X7.0004Y-3.5795
X7.0004Y-3.7795
X7.0004Y-3.9795
X7.1425Y-3.7795
X7.4925Y-3.5795
X7.4925Y-3.7795
X7.4925Y-3.9795
X7.6346Y-3.7795
X7.9846Y-3.5795
X7.9846Y-3.7795
X7.9846Y-3.9795
X8.1268Y-3.7795
X8.4768Y-3.5795
X8.4768Y-3.7795
X8.4768Y-3.9795
T0
M30
