%TF.GenerationSoftware,KiCad,Pcbnew,5.1.12-1.fc35*%
%TF.CreationDate,2022-05-08T03:34:16-07:00*%
%TF.ProjectId,right,72696768-742e-46b6-9963-61645f706362,v1.3*%
%TF.SameCoordinates,Original*%
%TF.FileFunction,Soldermask,Bot*%
%TF.FilePolarity,Negative*%
%FSLAX46Y46*%
G04 Gerber Fmt 4.6, Leading zero omitted, Abs format (unit mm)*
G04 Created by KiCad (PCBNEW 5.1.12-1.fc35) date 2022-05-08 03:34:16*
%MOMM*%
%LPD*%
G01*
G04 APERTURE LIST*
%ADD10C,2.401600*%
%ADD11C,2.701600*%
%ADD12C,1.651600*%
%ADD13C,1.463600*%
%ADD14C,5.401600*%
G04 APERTURE END LIST*
D10*
%TO.C,PG1*%
X215992000Y-90920000D03*
X215992000Y-96000000D03*
D11*
X212182000Y-96000000D03*
D10*
X215992000Y-101080000D03*
X207102000Y-96000000D03*
D12*
X212182000Y-90920000D03*
X212182000Y-101080000D03*
%TD*%
D13*
%TO.C,J1*%
X82000000Y-110000000D03*
X82000000Y-107500000D03*
X82000000Y-105000000D03*
X82000000Y-102500000D03*
X82000000Y-100000000D03*
X82000000Y-97500000D03*
X82000000Y-95000000D03*
X87000000Y-108750000D03*
X87000000Y-106250000D03*
X87000000Y-103750000D03*
X87000000Y-101250000D03*
X87000000Y-98750000D03*
X87000000Y-96250000D03*
X84500000Y-110000000D03*
X84500000Y-107500000D03*
X84500000Y-105000000D03*
X84500000Y-102500000D03*
X84500000Y-100000000D03*
X84500000Y-97500000D03*
X84500000Y-95000000D03*
%TD*%
D10*
%TO.C,F11*%
X140910000Y-90920000D03*
X140910000Y-96000000D03*
D11*
X137100000Y-96000000D03*
D10*
X140910000Y-101080000D03*
X132020000Y-96000000D03*
D12*
X137100000Y-90920000D03*
X137100000Y-101080000D03*
%TD*%
D10*
%TO.C,F9*%
X115910000Y-90920000D03*
X115910000Y-96000000D03*
D11*
X112100000Y-96000000D03*
D10*
X115910000Y-101080000D03*
X107020000Y-96000000D03*
D12*
X112100000Y-90920000D03*
X112100000Y-101080000D03*
%TD*%
D10*
%TO.C,F10*%
X128410000Y-90920000D03*
X128410000Y-96000000D03*
D11*
X124600000Y-96000000D03*
D10*
X128410000Y-101080000D03*
X119520000Y-96000000D03*
D12*
X124600000Y-90920000D03*
X124600000Y-101080000D03*
%TD*%
D10*
%TO.C,F12*%
X153410000Y-90920000D03*
X153410000Y-96000000D03*
D11*
X149600000Y-96000000D03*
D10*
X153410000Y-101080000D03*
X144520000Y-96000000D03*
D12*
X149600000Y-90920000D03*
X149600000Y-101080000D03*
%TD*%
D10*
%TO.C,P-S1*%
X165910000Y-90920000D03*
X165910000Y-96000000D03*
D11*
X162100000Y-96000000D03*
D10*
X165910000Y-101080000D03*
X157020000Y-96000000D03*
D12*
X162100000Y-90920000D03*
X162100000Y-101080000D03*
%TD*%
D10*
%TO.C,S-L1*%
X178410000Y-90920000D03*
X178410000Y-96000000D03*
D11*
X174600000Y-96000000D03*
D10*
X178410000Y-101080000D03*
X169520000Y-96000000D03*
D12*
X174600000Y-90920000D03*
X174600000Y-101080000D03*
%TD*%
D10*
%TO.C,P-B1*%
X190910000Y-90920000D03*
X190910000Y-96000000D03*
D11*
X187100000Y-96000000D03*
D10*
X190910000Y-101080000D03*
X182020000Y-96000000D03*
D12*
X187100000Y-90920000D03*
X187100000Y-101080000D03*
%TD*%
D10*
%TO.C,KP1*%
X203410000Y-90920000D03*
X203410000Y-96000000D03*
D11*
X199600000Y-96000000D03*
D10*
X203410000Y-101080000D03*
X194520000Y-96000000D03*
D12*
X199600000Y-90920000D03*
X199600000Y-101080000D03*
%TD*%
D14*
%TO.C,H1*%
X99500000Y-103500000D03*
%TD*%
M02*
