%TF.GenerationSoftware,KiCad,Pcbnew,5.1.12-1.fc35*%
%TF.CreationDate,2022-04-30T07:47:03-07:00*%
%TF.ProjectId,right,72696768-742e-46b6-9963-61645f706362,v1.2*%
%TF.SameCoordinates,Original*%
%TF.FileFunction,Legend,Bot*%
%TF.FilePolarity,Positive*%
%FSLAX46Y46*%
G04 Gerber Fmt 4.6, Leading zero omitted, Abs format (unit mm)*
G04 Created by KiCad (PCBNEW 5.1.12-1.fc35) date 2022-04-30 07:47:03*
%MOMM*%
%LPD*%
G01*
G04 APERTURE LIST*
%ADD10C,0.300000*%
%ADD11C,0.150000*%
G04 APERTURE END LIST*
D10*
X103892857Y-93178571D02*
X103892857Y-91678571D01*
X103892857Y-92250000D02*
X103750000Y-92178571D01*
X103464285Y-92178571D01*
X103321428Y-92250000D01*
X103250000Y-92321428D01*
X103178571Y-92464285D01*
X103178571Y-92892857D01*
X103250000Y-93035714D01*
X103321428Y-93107142D01*
X103464285Y-93178571D01*
X103750000Y-93178571D01*
X103892857Y-93107142D01*
X102321428Y-93178571D02*
X102464285Y-93107142D01*
X102535714Y-92964285D01*
X102535714Y-91678571D01*
X101107142Y-92178571D02*
X101107142Y-93178571D01*
X101750000Y-92178571D02*
X101750000Y-92964285D01*
X101678571Y-93107142D01*
X101535714Y-93178571D01*
X101321428Y-93178571D01*
X101178571Y-93107142D01*
X101107142Y-93035714D01*
X99821428Y-93107142D02*
X99964285Y-93178571D01*
X100250000Y-93178571D01*
X100392857Y-93107142D01*
X100464285Y-92964285D01*
X100464285Y-92392857D01*
X100392857Y-92250000D01*
X100250000Y-92178571D01*
X99964285Y-92178571D01*
X99821428Y-92250000D01*
X99750000Y-92392857D01*
X99750000Y-92535714D01*
X100464285Y-92678571D01*
X98892857Y-93178571D02*
X99035714Y-93107142D01*
X99107142Y-92964285D01*
X99107142Y-91678571D01*
X98321428Y-93178571D02*
X98321428Y-92178571D01*
X98321428Y-91678571D02*
X98392857Y-91750000D01*
X98321428Y-91821428D01*
X98250000Y-91750000D01*
X98321428Y-91678571D01*
X98321428Y-91821428D01*
X96964285Y-92178571D02*
X96964285Y-93392857D01*
X97035714Y-93535714D01*
X97107142Y-93607142D01*
X97250000Y-93678571D01*
X97464285Y-93678571D01*
X97607142Y-93607142D01*
X96964285Y-93107142D02*
X97107142Y-93178571D01*
X97392857Y-93178571D01*
X97535714Y-93107142D01*
X97607142Y-93035714D01*
X97678571Y-92892857D01*
X97678571Y-92464285D01*
X97607142Y-92321428D01*
X97535714Y-92250000D01*
X97392857Y-92178571D01*
X97107142Y-92178571D01*
X96964285Y-92250000D01*
X96250000Y-93178571D02*
X96250000Y-91678571D01*
X95607142Y-93178571D02*
X95607142Y-92392857D01*
X95678571Y-92250000D01*
X95821428Y-92178571D01*
X96035714Y-92178571D01*
X96178571Y-92250000D01*
X96250000Y-92321428D01*
X95107142Y-92178571D02*
X94535714Y-92178571D01*
X94892857Y-91678571D02*
X94892857Y-92964285D01*
X94821428Y-93107142D01*
X94678571Y-93178571D01*
X94535714Y-93178571D01*
X94035714Y-92178571D02*
X94035714Y-93178571D01*
X94035714Y-92321428D02*
X93964285Y-92250000D01*
X93821428Y-92178571D01*
X93607142Y-92178571D01*
X93464285Y-92250000D01*
X93392857Y-92392857D01*
X93392857Y-93178571D01*
X92678571Y-93178571D02*
X92678571Y-92178571D01*
X92678571Y-91678571D02*
X92750000Y-91750000D01*
X92678571Y-91821428D01*
X92607142Y-91750000D01*
X92678571Y-91678571D01*
X92678571Y-91821428D01*
X91964285Y-92178571D02*
X91964285Y-93178571D01*
X91964285Y-92321428D02*
X91892857Y-92250000D01*
X91750000Y-92178571D01*
X91535714Y-92178571D01*
X91392857Y-92250000D01*
X91321428Y-92392857D01*
X91321428Y-93178571D01*
X89964285Y-92178571D02*
X89964285Y-93392857D01*
X90035714Y-93535714D01*
X90107142Y-93607142D01*
X90250000Y-93678571D01*
X90464285Y-93678571D01*
X90607142Y-93607142D01*
X89964285Y-93107142D02*
X90107142Y-93178571D01*
X90392857Y-93178571D01*
X90535714Y-93107142D01*
X90607142Y-93035714D01*
X90678571Y-92892857D01*
X90678571Y-92464285D01*
X90607142Y-92321428D01*
X90535714Y-92250000D01*
X90392857Y-92178571D01*
X90107142Y-92178571D01*
X89964285Y-92250000D01*
X89392857Y-91678571D02*
X88464285Y-91678571D01*
X88964285Y-92250000D01*
X88750000Y-92250000D01*
X88607142Y-92321428D01*
X88535714Y-92392857D01*
X88464285Y-92535714D01*
X88464285Y-92892857D01*
X88535714Y-93035714D01*
X88607142Y-93107142D01*
X88750000Y-93178571D01*
X89178571Y-93178571D01*
X89321428Y-93107142D01*
X89392857Y-93035714D01*
X87892857Y-91821428D02*
X87821428Y-91750000D01*
X87678571Y-91678571D01*
X87321428Y-91678571D01*
X87178571Y-91750000D01*
X87107142Y-91821428D01*
X87035714Y-91964285D01*
X87035714Y-92107142D01*
X87107142Y-92321428D01*
X87964285Y-93178571D01*
X87035714Y-93178571D01*
X197928571Y-103678571D02*
X197428571Y-105178571D01*
X196928571Y-103678571D01*
X195642857Y-105178571D02*
X196500000Y-105178571D01*
X196071428Y-105178571D02*
X196071428Y-103678571D01*
X196214285Y-103892857D01*
X196357142Y-104035714D01*
X196500000Y-104107142D01*
X195000000Y-105035714D02*
X194928571Y-105107142D01*
X195000000Y-105178571D01*
X195071428Y-105107142D01*
X195000000Y-105035714D01*
X195000000Y-105178571D01*
X194357142Y-103821428D02*
X194285714Y-103750000D01*
X194142857Y-103678571D01*
X193785714Y-103678571D01*
X193642857Y-103750000D01*
X193571428Y-103821428D01*
X193500000Y-103964285D01*
X193500000Y-104107142D01*
X193571428Y-104321428D01*
X194428571Y-105178571D01*
X193500000Y-105178571D01*
X191785714Y-103821428D02*
X191714285Y-103750000D01*
X191571428Y-103678571D01*
X191214285Y-103678571D01*
X191071428Y-103750000D01*
X191000000Y-103821428D01*
X190928571Y-103964285D01*
X190928571Y-104107142D01*
X191000000Y-104321428D01*
X191857142Y-105178571D01*
X190928571Y-105178571D01*
X190000000Y-103678571D02*
X189857142Y-103678571D01*
X189714285Y-103750000D01*
X189642857Y-103821428D01*
X189571428Y-103964285D01*
X189500000Y-104250000D01*
X189500000Y-104607142D01*
X189571428Y-104892857D01*
X189642857Y-105035714D01*
X189714285Y-105107142D01*
X189857142Y-105178571D01*
X190000000Y-105178571D01*
X190142857Y-105107142D01*
X190214285Y-105035714D01*
X190285714Y-104892857D01*
X190357142Y-104607142D01*
X190357142Y-104250000D01*
X190285714Y-103964285D01*
X190214285Y-103821428D01*
X190142857Y-103750000D01*
X190000000Y-103678571D01*
X188928571Y-103821428D02*
X188857142Y-103750000D01*
X188714285Y-103678571D01*
X188357142Y-103678571D01*
X188214285Y-103750000D01*
X188142857Y-103821428D01*
X188071428Y-103964285D01*
X188071428Y-104107142D01*
X188142857Y-104321428D01*
X189000000Y-105178571D01*
X188071428Y-105178571D01*
X187500000Y-103821428D02*
X187428571Y-103750000D01*
X187285714Y-103678571D01*
X186928571Y-103678571D01*
X186785714Y-103750000D01*
X186714285Y-103821428D01*
X186642857Y-103964285D01*
X186642857Y-104107142D01*
X186714285Y-104321428D01*
X187571428Y-105178571D01*
X186642857Y-105178571D01*
X186000000Y-104607142D02*
X184857142Y-104607142D01*
X183857142Y-103678571D02*
X183714285Y-103678571D01*
X183571428Y-103750000D01*
X183500000Y-103821428D01*
X183428571Y-103964285D01*
X183357142Y-104250000D01*
X183357142Y-104607142D01*
X183428571Y-104892857D01*
X183500000Y-105035714D01*
X183571428Y-105107142D01*
X183714285Y-105178571D01*
X183857142Y-105178571D01*
X184000000Y-105107142D01*
X184071428Y-105035714D01*
X184142857Y-104892857D01*
X184214285Y-104607142D01*
X184214285Y-104250000D01*
X184142857Y-103964285D01*
X184071428Y-103821428D01*
X184000000Y-103750000D01*
X183857142Y-103678571D01*
X182071428Y-104178571D02*
X182071428Y-105178571D01*
X182428571Y-103607142D02*
X182785714Y-104678571D01*
X181857142Y-104678571D01*
X181285714Y-104607142D02*
X180142857Y-104607142D01*
X179571428Y-103678571D02*
X178642857Y-103678571D01*
X179142857Y-104250000D01*
X178928571Y-104250000D01*
X178785714Y-104321428D01*
X178714285Y-104392857D01*
X178642857Y-104535714D01*
X178642857Y-104892857D01*
X178714285Y-105035714D01*
X178785714Y-105107142D01*
X178928571Y-105178571D01*
X179357142Y-105178571D01*
X179500000Y-105107142D01*
X179571428Y-105035714D01*
X177714285Y-103678571D02*
X177571428Y-103678571D01*
X177428571Y-103750000D01*
X177357142Y-103821428D01*
X177285714Y-103964285D01*
X177214285Y-104250000D01*
X177214285Y-104607142D01*
X177285714Y-104892857D01*
X177357142Y-105035714D01*
X177428571Y-105107142D01*
X177571428Y-105178571D01*
X177714285Y-105178571D01*
X177857142Y-105107142D01*
X177928571Y-105035714D01*
X178000000Y-104892857D01*
X178071428Y-104607142D01*
X178071428Y-104250000D01*
X178000000Y-103964285D01*
X177928571Y-103821428D01*
X177857142Y-103750000D01*
X177714285Y-103678571D01*
X217035714Y-105107142D02*
X216892857Y-105178571D01*
X216607142Y-105178571D01*
X216464285Y-105107142D01*
X216392857Y-104964285D01*
X216392857Y-104892857D01*
X216464285Y-104750000D01*
X216607142Y-104678571D01*
X216821428Y-104678571D01*
X216964285Y-104607142D01*
X217035714Y-104464285D01*
X217035714Y-104392857D01*
X216964285Y-104250000D01*
X216821428Y-104178571D01*
X216607142Y-104178571D01*
X216464285Y-104250000D01*
X215535714Y-105178571D02*
X215678571Y-105107142D01*
X215750000Y-105035714D01*
X215821428Y-104892857D01*
X215821428Y-104464285D01*
X215750000Y-104321428D01*
X215678571Y-104250000D01*
X215535714Y-104178571D01*
X215321428Y-104178571D01*
X215178571Y-104250000D01*
X215107142Y-104321428D01*
X215035714Y-104464285D01*
X215035714Y-104892857D01*
X215107142Y-105035714D01*
X215178571Y-105107142D01*
X215321428Y-105178571D01*
X215535714Y-105178571D01*
X214178571Y-105178571D02*
X214321428Y-105107142D01*
X214392857Y-104964285D01*
X214392857Y-103678571D01*
X212964285Y-105178571D02*
X212964285Y-103678571D01*
X212964285Y-105107142D02*
X213107142Y-105178571D01*
X213392857Y-105178571D01*
X213535714Y-105107142D01*
X213607142Y-105035714D01*
X213678571Y-104892857D01*
X213678571Y-104464285D01*
X213607142Y-104321428D01*
X213535714Y-104250000D01*
X213392857Y-104178571D01*
X213107142Y-104178571D01*
X212964285Y-104250000D01*
X211678571Y-105107142D02*
X211821428Y-105178571D01*
X212107142Y-105178571D01*
X212250000Y-105107142D01*
X212321428Y-104964285D01*
X212321428Y-104392857D01*
X212250000Y-104250000D01*
X212107142Y-104178571D01*
X211821428Y-104178571D01*
X211678571Y-104250000D01*
X211607142Y-104392857D01*
X211607142Y-104535714D01*
X212321428Y-104678571D01*
X210964285Y-105178571D02*
X210964285Y-104178571D01*
X210964285Y-104464285D02*
X210892857Y-104321428D01*
X210821428Y-104250000D01*
X210678571Y-104178571D01*
X210535714Y-104178571D01*
X208964285Y-105107142D02*
X208821428Y-105178571D01*
X208535714Y-105178571D01*
X208392857Y-105107142D01*
X208321428Y-104964285D01*
X208321428Y-104892857D01*
X208392857Y-104750000D01*
X208535714Y-104678571D01*
X208750000Y-104678571D01*
X208892857Y-104607142D01*
X208964285Y-104464285D01*
X208964285Y-104392857D01*
X208892857Y-104250000D01*
X208750000Y-104178571D01*
X208535714Y-104178571D01*
X208392857Y-104250000D01*
X207678571Y-105178571D02*
X207678571Y-104178571D01*
X207678571Y-103678571D02*
X207750000Y-103750000D01*
X207678571Y-103821428D01*
X207607142Y-103750000D01*
X207678571Y-103678571D01*
X207678571Y-103821428D01*
X206321428Y-105178571D02*
X206321428Y-103678571D01*
X206321428Y-105107142D02*
X206464285Y-105178571D01*
X206750000Y-105178571D01*
X206892857Y-105107142D01*
X206964285Y-105035714D01*
X207035714Y-104892857D01*
X207035714Y-104464285D01*
X206964285Y-104321428D01*
X206892857Y-104250000D01*
X206750000Y-104178571D01*
X206464285Y-104178571D01*
X206321428Y-104250000D01*
X205035714Y-105107142D02*
X205178571Y-105178571D01*
X205464285Y-105178571D01*
X205607142Y-105107142D01*
X205678571Y-104964285D01*
X205678571Y-104392857D01*
X205607142Y-104250000D01*
X205464285Y-104178571D01*
X205178571Y-104178571D01*
X205035714Y-104250000D01*
X204964285Y-104392857D01*
X204964285Y-104535714D01*
X205678571Y-104678571D01*
X196535714Y-107535714D02*
X196607142Y-107607142D01*
X196821428Y-107678571D01*
X196964285Y-107678571D01*
X197178571Y-107607142D01*
X197321428Y-107464285D01*
X197392857Y-107321428D01*
X197464285Y-107035714D01*
X197464285Y-106821428D01*
X197392857Y-106535714D01*
X197321428Y-106392857D01*
X197178571Y-106250000D01*
X196964285Y-106178571D01*
X196821428Y-106178571D01*
X196607142Y-106250000D01*
X196535714Y-106321428D01*
X195678571Y-107678571D02*
X195821428Y-107607142D01*
X195892857Y-107464285D01*
X195892857Y-106178571D01*
X194464285Y-107678571D02*
X194464285Y-106892857D01*
X194535714Y-106750000D01*
X194678571Y-106678571D01*
X194964285Y-106678571D01*
X195107142Y-106750000D01*
X194464285Y-107607142D02*
X194607142Y-107678571D01*
X194964285Y-107678571D01*
X195107142Y-107607142D01*
X195178571Y-107464285D01*
X195178571Y-107321428D01*
X195107142Y-107178571D01*
X194964285Y-107107142D01*
X194607142Y-107107142D01*
X194464285Y-107035714D01*
X193821428Y-107607142D02*
X193678571Y-107678571D01*
X193392857Y-107678571D01*
X193250000Y-107607142D01*
X193178571Y-107464285D01*
X193178571Y-107392857D01*
X193250000Y-107250000D01*
X193392857Y-107178571D01*
X193607142Y-107178571D01*
X193750000Y-107107142D01*
X193821428Y-106964285D01*
X193821428Y-106892857D01*
X193750000Y-106750000D01*
X193607142Y-106678571D01*
X193392857Y-106678571D01*
X193250000Y-106750000D01*
X192607142Y-107607142D02*
X192464285Y-107678571D01*
X192178571Y-107678571D01*
X192035714Y-107607142D01*
X191964285Y-107464285D01*
X191964285Y-107392857D01*
X192035714Y-107250000D01*
X192178571Y-107178571D01*
X192392857Y-107178571D01*
X192535714Y-107107142D01*
X192607142Y-106964285D01*
X192607142Y-106892857D01*
X192535714Y-106750000D01*
X192392857Y-106678571D01*
X192178571Y-106678571D01*
X192035714Y-106750000D01*
X191321428Y-107678571D02*
X191321428Y-106678571D01*
X191321428Y-106178571D02*
X191392857Y-106250000D01*
X191321428Y-106321428D01*
X191250000Y-106250000D01*
X191321428Y-106178571D01*
X191321428Y-106321428D01*
X189964285Y-107607142D02*
X190107142Y-107678571D01*
X190392857Y-107678571D01*
X190535714Y-107607142D01*
X190607142Y-107535714D01*
X190678571Y-107392857D01*
X190678571Y-106964285D01*
X190607142Y-106821428D01*
X190535714Y-106750000D01*
X190392857Y-106678571D01*
X190107142Y-106678571D01*
X189964285Y-106750000D01*
X187321428Y-107678571D02*
X187821428Y-106964285D01*
X188178571Y-107678571D02*
X188178571Y-106178571D01*
X187607142Y-106178571D01*
X187464285Y-106250000D01*
X187392857Y-106321428D01*
X187321428Y-106464285D01*
X187321428Y-106678571D01*
X187392857Y-106821428D01*
X187464285Y-106892857D01*
X187607142Y-106964285D01*
X188178571Y-106964285D01*
X186678571Y-107678571D02*
X186678571Y-106678571D01*
X186678571Y-106178571D02*
X186750000Y-106250000D01*
X186678571Y-106321428D01*
X186607142Y-106250000D01*
X186678571Y-106178571D01*
X186678571Y-106321428D01*
X185321428Y-106678571D02*
X185321428Y-107892857D01*
X185392857Y-108035714D01*
X185464285Y-108107142D01*
X185607142Y-108178571D01*
X185821428Y-108178571D01*
X185964285Y-108107142D01*
X185321428Y-107607142D02*
X185464285Y-107678571D01*
X185750000Y-107678571D01*
X185892857Y-107607142D01*
X185964285Y-107535714D01*
X186035714Y-107392857D01*
X186035714Y-106964285D01*
X185964285Y-106821428D01*
X185892857Y-106750000D01*
X185750000Y-106678571D01*
X185464285Y-106678571D01*
X185321428Y-106750000D01*
X184607142Y-107678571D02*
X184607142Y-106178571D01*
X183964285Y-107678571D02*
X183964285Y-106892857D01*
X184035714Y-106750000D01*
X184178571Y-106678571D01*
X184392857Y-106678571D01*
X184535714Y-106750000D01*
X184607142Y-106821428D01*
X183464285Y-106678571D02*
X182892857Y-106678571D01*
X183250000Y-106178571D02*
X183250000Y-107464285D01*
X183178571Y-107607142D01*
X183035714Y-107678571D01*
X182892857Y-107678571D01*
X180750000Y-106892857D02*
X181250000Y-106892857D01*
X181250000Y-107678571D02*
X181250000Y-106178571D01*
X180535714Y-106178571D01*
X179107142Y-107535714D02*
X179178571Y-107607142D01*
X179392857Y-107678571D01*
X179535714Y-107678571D01*
X179750000Y-107607142D01*
X179892857Y-107464285D01*
X179964285Y-107321428D01*
X180035714Y-107035714D01*
X180035714Y-106821428D01*
X179964285Y-106535714D01*
X179892857Y-106392857D01*
X179750000Y-106250000D01*
X179535714Y-106178571D01*
X179392857Y-106178571D01*
X179178571Y-106250000D01*
X179107142Y-106321428D01*
X178464285Y-107678571D02*
X178464285Y-106178571D01*
X177607142Y-107678571D01*
X177607142Y-106178571D01*
X185071428Y-100678571D02*
X185071428Y-99178571D01*
X184500000Y-99178571D01*
X184357142Y-99250000D01*
X184285714Y-99321428D01*
X184214285Y-99464285D01*
X184214285Y-99678571D01*
X184285714Y-99821428D01*
X184357142Y-99892857D01*
X184500000Y-99964285D01*
X185071428Y-99964285D01*
X183571428Y-100107142D02*
X182428571Y-100107142D01*
X181214285Y-99892857D02*
X181000000Y-99964285D01*
X180928571Y-100035714D01*
X180857142Y-100178571D01*
X180857142Y-100392857D01*
X180928571Y-100535714D01*
X181000000Y-100607142D01*
X181142857Y-100678571D01*
X181714285Y-100678571D01*
X181714285Y-99178571D01*
X181214285Y-99178571D01*
X181071428Y-99250000D01*
X181000000Y-99321428D01*
X180928571Y-99464285D01*
X180928571Y-99607142D01*
X181000000Y-99750000D01*
X181071428Y-99821428D01*
X181214285Y-99892857D01*
X181714285Y-99892857D01*
X108500000Y-99892857D02*
X109000000Y-99892857D01*
X109000000Y-100678571D02*
X109000000Y-99178571D01*
X108285714Y-99178571D01*
X107642857Y-100678571D02*
X107357142Y-100678571D01*
X107214285Y-100607142D01*
X107142857Y-100535714D01*
X107000000Y-100321428D01*
X106928571Y-100035714D01*
X106928571Y-99464285D01*
X107000000Y-99321428D01*
X107071428Y-99250000D01*
X107214285Y-99178571D01*
X107500000Y-99178571D01*
X107642857Y-99250000D01*
X107714285Y-99321428D01*
X107785714Y-99464285D01*
X107785714Y-99821428D01*
X107714285Y-99964285D01*
X107642857Y-100035714D01*
X107500000Y-100107142D01*
X107214285Y-100107142D01*
X107071428Y-100035714D01*
X107000000Y-99964285D01*
X106928571Y-99821428D01*
X121714285Y-99892857D02*
X122214285Y-99892857D01*
X122214285Y-100678571D02*
X122214285Y-99178571D01*
X121500000Y-99178571D01*
X120142857Y-100678571D02*
X121000000Y-100678571D01*
X120571428Y-100678571D02*
X120571428Y-99178571D01*
X120714285Y-99392857D01*
X120857142Y-99535714D01*
X121000000Y-99607142D01*
X119214285Y-99178571D02*
X119071428Y-99178571D01*
X118928571Y-99250000D01*
X118857142Y-99321428D01*
X118785714Y-99464285D01*
X118714285Y-99750000D01*
X118714285Y-100107142D01*
X118785714Y-100392857D01*
X118857142Y-100535714D01*
X118928571Y-100607142D01*
X119071428Y-100678571D01*
X119214285Y-100678571D01*
X119357142Y-100607142D01*
X119428571Y-100535714D01*
X119500000Y-100392857D01*
X119571428Y-100107142D01*
X119571428Y-99750000D01*
X119500000Y-99464285D01*
X119428571Y-99321428D01*
X119357142Y-99250000D01*
X119214285Y-99178571D01*
X133714285Y-99892857D02*
X134214285Y-99892857D01*
X134214285Y-100678571D02*
X134214285Y-99178571D01*
X133500000Y-99178571D01*
X132142857Y-100678571D02*
X133000000Y-100678571D01*
X132571428Y-100678571D02*
X132571428Y-99178571D01*
X132714285Y-99392857D01*
X132857142Y-99535714D01*
X133000000Y-99607142D01*
X130714285Y-100678571D02*
X131571428Y-100678571D01*
X131142857Y-100678571D02*
X131142857Y-99178571D01*
X131285714Y-99392857D01*
X131428571Y-99535714D01*
X131571428Y-99607142D01*
X146214285Y-99892857D02*
X146714285Y-99892857D01*
X146714285Y-100678571D02*
X146714285Y-99178571D01*
X146000000Y-99178571D01*
X144642857Y-100678571D02*
X145500000Y-100678571D01*
X145071428Y-100678571D02*
X145071428Y-99178571D01*
X145214285Y-99392857D01*
X145357142Y-99535714D01*
X145500000Y-99607142D01*
X144071428Y-99321428D02*
X144000000Y-99250000D01*
X143857142Y-99178571D01*
X143500000Y-99178571D01*
X143357142Y-99250000D01*
X143285714Y-99321428D01*
X143214285Y-99464285D01*
X143214285Y-99607142D01*
X143285714Y-99821428D01*
X144142857Y-100678571D01*
X143214285Y-100678571D01*
X160035714Y-100678571D02*
X160035714Y-99178571D01*
X159464285Y-99178571D01*
X159321428Y-99250000D01*
X159250000Y-99321428D01*
X159178571Y-99464285D01*
X159178571Y-99678571D01*
X159250000Y-99821428D01*
X159321428Y-99892857D01*
X159464285Y-99964285D01*
X160035714Y-99964285D01*
X158535714Y-100107142D02*
X157392857Y-100107142D01*
X156750000Y-100607142D02*
X156535714Y-100678571D01*
X156178571Y-100678571D01*
X156035714Y-100607142D01*
X155964285Y-100535714D01*
X155892857Y-100392857D01*
X155892857Y-100250000D01*
X155964285Y-100107142D01*
X156035714Y-100035714D01*
X156178571Y-99964285D01*
X156464285Y-99892857D01*
X156607142Y-99821428D01*
X156678571Y-99750000D01*
X156750000Y-99607142D01*
X156750000Y-99464285D01*
X156678571Y-99321428D01*
X156607142Y-99250000D01*
X156464285Y-99178571D01*
X156107142Y-99178571D01*
X155892857Y-99250000D01*
X172464285Y-100607142D02*
X172250000Y-100678571D01*
X171892857Y-100678571D01*
X171750000Y-100607142D01*
X171678571Y-100535714D01*
X171607142Y-100392857D01*
X171607142Y-100250000D01*
X171678571Y-100107142D01*
X171750000Y-100035714D01*
X171892857Y-99964285D01*
X172178571Y-99892857D01*
X172321428Y-99821428D01*
X172392857Y-99750000D01*
X172464285Y-99607142D01*
X172464285Y-99464285D01*
X172392857Y-99321428D01*
X172321428Y-99250000D01*
X172178571Y-99178571D01*
X171821428Y-99178571D01*
X171607142Y-99250000D01*
X170964285Y-100107142D02*
X169821428Y-100107142D01*
X168392857Y-100678571D02*
X169107142Y-100678571D01*
X169107142Y-99178571D01*
X196142857Y-100678571D02*
X196142857Y-99178571D01*
X195285714Y-100678571D02*
X195928571Y-99821428D01*
X195285714Y-99178571D02*
X196142857Y-100035714D01*
X194642857Y-100678571D02*
X194642857Y-99178571D01*
X194071428Y-99178571D01*
X193928571Y-99250000D01*
X193857142Y-99321428D01*
X193785714Y-99464285D01*
X193785714Y-99678571D01*
X193857142Y-99821428D01*
X193928571Y-99892857D01*
X194071428Y-99964285D01*
X194642857Y-99964285D01*
X208642857Y-100678571D02*
X208642857Y-99178571D01*
X208071428Y-99178571D01*
X207928571Y-99250000D01*
X207857142Y-99321428D01*
X207785714Y-99464285D01*
X207785714Y-99678571D01*
X207857142Y-99821428D01*
X207928571Y-99892857D01*
X208071428Y-99964285D01*
X208642857Y-99964285D01*
X206357142Y-99250000D02*
X206500000Y-99178571D01*
X206714285Y-99178571D01*
X206928571Y-99250000D01*
X207071428Y-99392857D01*
X207142857Y-99535714D01*
X207214285Y-99821428D01*
X207214285Y-100035714D01*
X207142857Y-100321428D01*
X207071428Y-100464285D01*
X206928571Y-100607142D01*
X206714285Y-100678571D01*
X206571428Y-100678571D01*
X206357142Y-100607142D01*
X206285714Y-100535714D01*
X206285714Y-100035714D01*
X206571428Y-100035714D01*
D11*
%TO.C,F11*%
X130150000Y-89650000D02*
X130150000Y-102350000D01*
X141580000Y-89650000D02*
X141580000Y-102350000D01*
%TO.C,F9*%
X105150000Y-89650000D02*
X105150000Y-102350000D01*
X116580000Y-89650000D02*
X116580000Y-102350000D01*
%TO.C,F10*%
X117650000Y-89650000D02*
X117650000Y-102350000D01*
X129080000Y-89650000D02*
X129080000Y-102350000D01*
%TO.C,F12*%
X142650000Y-89650000D02*
X142650000Y-102350000D01*
X154080000Y-89650000D02*
X154080000Y-102350000D01*
%TO.C,P-S1*%
X155150000Y-89650000D02*
X155150000Y-102350000D01*
X166580000Y-89650000D02*
X166580000Y-102350000D01*
%TO.C,S-L1*%
X167650000Y-89650000D02*
X167650000Y-102350000D01*
X179080000Y-89650000D02*
X179080000Y-102350000D01*
%TO.C,P-B1*%
X180150000Y-89650000D02*
X180150000Y-102350000D01*
X191580000Y-89650000D02*
X191580000Y-102350000D01*
%TO.C,KP1*%
X192650000Y-89650000D02*
X192650000Y-102350000D01*
X204080000Y-89650000D02*
X204080000Y-102350000D01*
%TO.C,PG1*%
X205150000Y-89650000D02*
X205150000Y-102350000D01*
X216580000Y-89650000D02*
X216580000Y-102350000D01*
%TD*%
M02*
