M48
; DRILL file {KiCad 5.1.12-1.fc35} date Sat 23 Apr 2022 06:03:44 AM PDT
; FORMAT={-:-/ absolute / inch / decimal}
; #@! TF.CreationDate,2022-04-23T06:03:44-07:00
; #@! TF.GenerationSoftware,Kicad,Pcbnew,5.1.12-1.fc35
; #@! TF.FileFunction,NonPlated,1,2,NPTH
FMAT,2
INCH
T1C0.0610
T2C0.1024
T3C0.2087
%
G90
G05
T1
X4.3898Y-3.5795
X4.3898Y-3.9795
X4.8819Y-3.5795
X4.8819Y-3.9795
X5.374Y-3.5795
X5.374Y-3.9795
X5.8661Y-3.5795
X5.8661Y-3.9795
X6.3583Y-3.5795
X6.3583Y-3.9795
X6.8504Y-3.5795
X6.8504Y-3.9795
X7.3425Y-3.5795
X7.3425Y-3.9795
X7.8346Y-3.5795
X7.8346Y-3.9795
X8.3268Y-3.5795
X8.3268Y-3.9795
T2
X4.3898Y-3.7795
X4.8819Y-3.7795
X5.374Y-3.7795
X5.8661Y-3.7795
X6.3583Y-3.7795
X6.8504Y-3.7795
X7.3425Y-3.7795
X7.8346Y-3.7795
X8.3268Y-3.7795
T3
X3.9173Y-4.0748
T0
M30
