M48
; DRILL file {KiCad 5.1.12-1.fc35} date Sun 08 May 2022 03:34:30 AM PDT
; FORMAT={-:-/ absolute / inch / decimal}
; #@! TF.CreationDate,2022-05-08T03:34:30-07:00
; #@! TF.GenerationSoftware,Kicad,Pcbnew,5.1.12-1.fc35
; #@! TF.FileFunction,NonPlated,1,2,NPTH
FMAT,2
INCH
T1C0.0610
T2C0.1024
T3C0.2087
%
G90
G05
T1
X4.4134Y-3.5795
X4.4134Y-3.9795
X4.9055Y-3.5795
X4.9055Y-3.9795
X5.3976Y-3.5795
X5.3976Y-3.9795
X5.8898Y-3.5795
X5.8898Y-3.9795
X6.3819Y-3.5795
X6.3819Y-3.9795
X6.874Y-3.5795
X6.874Y-3.9795
X7.3661Y-3.5795
X7.3661Y-3.9795
X7.8583Y-3.5795
X7.8583Y-3.9795
X8.3536Y-3.5795
X8.3536Y-3.9795
T2
X4.4134Y-3.7795
X4.9055Y-3.7795
X5.3976Y-3.7795
X5.8898Y-3.7795
X6.3819Y-3.7795
X6.874Y-3.7795
X7.3661Y-3.7795
X7.8583Y-3.7795
X8.3536Y-3.7795
T3
X3.9173Y-4.0748
T0
M30
