%TF.GenerationSoftware,KiCad,Pcbnew,5.1.12-1.fc35*%
%TF.CreationDate,2022-04-23T06:04:12-07:00*%
%TF.ProjectId,left,6c656674-2e6b-4696-9361-645f70636258,v1.1*%
%TF.SameCoordinates,Original*%
%TF.FileFunction,Soldermask,Top*%
%TF.FilePolarity,Negative*%
%FSLAX46Y46*%
G04 Gerber Fmt 4.6, Leading zero omitted, Abs format (unit mm)*
G04 Created by KiCad (PCBNEW 5.1.12-1.fc35) date 2022-04-23 06:04:12*
%MOMM*%
%LPD*%
G01*
G04 APERTURE LIST*
%ADD10C,1.651600*%
%ADD11C,2.401600*%
%ADD12C,2.701600*%
%ADD13C,5.401600*%
%ADD14C,1.363600*%
G04 APERTURE END LIST*
D10*
%TO.C,F2*%
X116000000Y-112580000D03*
X116000000Y-102420000D03*
D11*
X110920000Y-107500000D03*
X119810000Y-112580000D03*
D12*
X116000000Y-107500000D03*
D11*
X119810000Y-107500000D03*
X119810000Y-102420000D03*
%TD*%
D10*
%TO.C,ESC1*%
X91000000Y-112580000D03*
X91000000Y-102420000D03*
D11*
X85920000Y-107500000D03*
X94810000Y-112580000D03*
D12*
X91000000Y-107500000D03*
D11*
X94810000Y-107500000D03*
X94810000Y-102420000D03*
%TD*%
D10*
%TO.C,F1*%
X103500000Y-112580000D03*
X103500000Y-102420000D03*
D11*
X98420000Y-107500000D03*
X107310000Y-112580000D03*
D12*
X103500000Y-107500000D03*
D11*
X107310000Y-107500000D03*
X107310000Y-102420000D03*
%TD*%
D10*
%TO.C,F3*%
X128500000Y-112580000D03*
X128500000Y-102420000D03*
D11*
X123420000Y-107500000D03*
X132310000Y-112580000D03*
D12*
X128500000Y-107500000D03*
D11*
X132310000Y-107500000D03*
X132310000Y-102420000D03*
%TD*%
D10*
%TO.C,F4*%
X141000000Y-112580000D03*
X141000000Y-102420000D03*
D11*
X135920000Y-107500000D03*
X144810000Y-112580000D03*
D12*
X141000000Y-107500000D03*
D11*
X144810000Y-107500000D03*
X144810000Y-102420000D03*
%TD*%
D10*
%TO.C,F5*%
X153500000Y-112580000D03*
X153500000Y-102420000D03*
D11*
X148420000Y-107500000D03*
X157310000Y-112580000D03*
D12*
X153500000Y-107500000D03*
D11*
X157310000Y-107500000D03*
X157310000Y-102420000D03*
%TD*%
D10*
%TO.C,F6*%
X166000000Y-112580000D03*
X166000000Y-102420000D03*
D11*
X160920000Y-107500000D03*
X169810000Y-112580000D03*
D12*
X166000000Y-107500000D03*
D11*
X169810000Y-107500000D03*
X169810000Y-102420000D03*
%TD*%
D10*
%TO.C,F7*%
X178500000Y-112580000D03*
X178500000Y-102420000D03*
D11*
X173420000Y-107500000D03*
X182310000Y-112580000D03*
D12*
X178500000Y-107500000D03*
D11*
X182310000Y-107500000D03*
X182310000Y-102420000D03*
%TD*%
D10*
%TO.C,F8*%
X191000000Y-112580000D03*
X191000000Y-102420000D03*
D11*
X185920000Y-107500000D03*
X194810000Y-112580000D03*
D12*
X191000000Y-107500000D03*
D11*
X194810000Y-107500000D03*
X194810000Y-102420000D03*
%TD*%
D13*
%TO.C,H1*%
X202000000Y-115000000D03*
%TD*%
D14*
%TO.C,J1*%
X217000000Y-121500000D03*
X217000000Y-119000000D03*
X217000000Y-116500000D03*
X217000000Y-114000000D03*
X217000000Y-111500000D03*
X217000000Y-109000000D03*
X217000000Y-106500000D03*
X214500000Y-120250000D03*
X214500000Y-117750000D03*
X214500000Y-115250000D03*
X214500000Y-112750000D03*
X214500000Y-110250000D03*
X214500000Y-107750000D03*
X219500000Y-121500000D03*
X219500000Y-119000000D03*
X219500000Y-116500000D03*
X219500000Y-114000000D03*
X219500000Y-111500000D03*
X219500000Y-109000000D03*
X219500000Y-106500000D03*
%TD*%
M02*
