M48
; DRILL file {KiCad 5.1.12-1.fc35} date Sat 23 Apr 2022 06:04:14 AM PDT
; FORMAT={-:-/ absolute / inch / decimal}
; #@! TF.CreationDate,2022-04-23T06:04:14-07:00
; #@! TF.GenerationSoftware,Kicad,Pcbnew,5.1.12-1.fc35
; #@! TF.FileFunction,NonPlated,1,2,NPTH
FMAT,2
INCH
T1C0.0610
T2C0.1024
T3C0.2087
%
G90
G05
T1
X3.5827Y-4.0323
X3.5827Y-4.4323
X4.0748Y-4.0323
X4.0748Y-4.4323
X4.5669Y-4.0323
X4.5669Y-4.4323
X5.0591Y-4.0323
X5.0591Y-4.4323
X5.5512Y-4.0323
X5.5512Y-4.4323
X6.0433Y-4.0323
X6.0433Y-4.4323
X6.5354Y-4.0323
X6.5354Y-4.4323
X7.0276Y-4.0323
X7.0276Y-4.4323
X7.5197Y-4.0323
X7.5197Y-4.4323
T2
X3.5827Y-4.2323
X4.0748Y-4.2323
X4.5669Y-4.2323
X5.0591Y-4.2323
X5.5512Y-4.2323
X6.0433Y-4.2323
X6.5354Y-4.2323
X7.0276Y-4.2323
X7.5197Y-4.2323
T3
X7.9528Y-4.5276
T0
M30
