M48
; DRILL file {KiCad 5.1.12-1.fc35} date Sat 23 Apr 2022 06:04:14 AM PDT
; FORMAT={-:-/ absolute / inch / decimal}
; #@! TF.CreationDate,2022-04-23T06:04:14-07:00
; #@! TF.GenerationSoftware,Kicad,Pcbnew,5.1.12-1.fc35
; #@! TF.FileFunction,Plated,1,2,PTH
FMAT,2
INCH
T1C0.0197
T2C0.0591
%
G90
G05
T1
X8.4449Y-4.2421
X8.4449Y-4.3406
X8.4449Y-4.439
X8.4449Y-4.5374
X8.4449Y-4.6358
X8.4449Y-4.7343
X8.5433Y-4.1929
X8.5433Y-4.2913
X8.5433Y-4.3898
X8.5433Y-4.4882
X8.5433Y-4.5866
X8.5433Y-4.685
X8.5433Y-4.7835
X8.6417Y-4.1929
X8.6417Y-4.2913
X8.6417Y-4.3898
X8.6417Y-4.4882
X8.6417Y-4.5866
X8.6417Y-4.685
X8.6417Y-4.7835
T2
X3.3827Y-4.2323
X3.7327Y-4.0323
X3.7327Y-4.2323
X3.7327Y-4.4323
X3.8748Y-4.2323
X4.2248Y-4.0323
X4.2248Y-4.2323
X4.2248Y-4.4323
X4.3669Y-4.2323
X4.7169Y-4.0323
X4.7169Y-4.2323
X4.7169Y-4.4323
X4.8591Y-4.2323
X5.2091Y-4.0323
X5.2091Y-4.2323
X5.2091Y-4.4323
X5.3512Y-4.2323
X5.7012Y-4.0323
X5.7012Y-4.2323
X5.7012Y-4.4323
X5.8433Y-4.2323
X6.1933Y-4.0323
X6.1933Y-4.2323
X6.1933Y-4.4323
X6.3354Y-4.2323
X6.6854Y-4.0323
X6.6854Y-4.2323
X6.6854Y-4.4323
X6.8276Y-4.2323
X7.1776Y-4.0323
X7.1776Y-4.2323
X7.1776Y-4.4323
X7.3197Y-4.2323
X7.6697Y-4.0323
X7.6697Y-4.2323
X7.6697Y-4.4323
T0
M30
