%TF.GenerationSoftware,KiCad,Pcbnew,5.1.12-1.fc35*%
%TF.CreationDate,2022-04-30T07:46:19-07:00*%
%TF.ProjectId,left,6c656674-2e6b-4696-9361-645f70636258,v1.2*%
%TF.SameCoordinates,Original*%
%TF.FileFunction,Profile,NP*%
%FSLAX46Y46*%
G04 Gerber Fmt 4.6, Leading zero omitted, Abs format (unit mm)*
G04 Created by KiCad (PCBNEW 5.1.12-1.fc35) date 2022-04-30 07:46:19*
%MOMM*%
%LPD*%
G01*
G04 APERTURE LIST*
%TA.AperFunction,Profile*%
%ADD10C,0.030000*%
%TD*%
G04 APERTURE END LIST*
D10*
X200000000Y-101500000D02*
X200000000Y-100000000D01*
X221500000Y-101500000D02*
X200000000Y-101500000D01*
X221500000Y-127000000D02*
X221500000Y-101500000D01*
X200000000Y-127000000D02*
X221500000Y-127000000D01*
X195500000Y-121000000D02*
X200000000Y-127000000D01*
X189500000Y-121000000D02*
X195500000Y-121000000D01*
X186500000Y-118000000D02*
X189500000Y-121000000D01*
X167500000Y-118000000D02*
X186500000Y-118000000D01*
X165500000Y-121000000D02*
X167500000Y-118000000D01*
X153500000Y-121000000D02*
X165500000Y-121000000D01*
X101500000Y-118000000D02*
X104500000Y-121000000D01*
X135500000Y-118000000D02*
X151000000Y-118000000D01*
X133000000Y-121000000D02*
X135500000Y-118000000D01*
X104500000Y-121000000D02*
X133000000Y-121000000D01*
X151000000Y-118000000D02*
X153500000Y-121000000D01*
X84500000Y-118000000D02*
X101500000Y-118000000D01*
X81500000Y-100500000D02*
X81500000Y-115000000D01*
X81500000Y-115000000D02*
X84500000Y-118000000D01*
X85000000Y-100500000D02*
X81500000Y-100500000D01*
X85000000Y-100000000D02*
X85000000Y-100500000D01*
X200000000Y-100000000D02*
X85000000Y-100000000D01*
M02*
