%TF.GenerationSoftware,KiCad,Pcbnew,5.1.12-1.fc35*%
%TF.CreationDate,2022-04-30T07:46:19-07:00*%
%TF.ProjectId,left,6c656674-2e6b-4696-9361-645f70636258,v1.2*%
%TF.SameCoordinates,Original*%
%TF.FileFunction,Copper,L1,Top*%
%TF.FilePolarity,Positive*%
%FSLAX46Y46*%
G04 Gerber Fmt 4.6, Leading zero omitted, Abs format (unit mm)*
G04 Created by KiCad (PCBNEW 5.1.12-1.fc35) date 2022-04-30 07:46:19*
%MOMM*%
%LPD*%
G01*
G04 APERTURE LIST*
%TA.AperFunction,ComponentPad*%
%ADD10C,1.362000*%
%TD*%
%TA.AperFunction,ComponentPad*%
%ADD11C,2.300000*%
%TD*%
%TA.AperFunction,Conductor*%
%ADD12C,0.254000*%
%TD*%
%TA.AperFunction,Conductor*%
%ADD13C,0.100000*%
%TD*%
G04 APERTURE END LIST*
D10*
%TO.P,J1,13B*%
%TO.N,Net-(ESC1-Pad2)*%
X219500000Y-106500000D03*
%TO.P,J1,11B*%
%TO.N,Net-(F7-Pad4)*%
X219500000Y-109000000D03*
%TO.P,J1,9B*%
%TO.N,Net-(F6-Pad2)*%
X219500000Y-111500000D03*
%TO.P,J1,7B*%
%TO.N,Net-(F5-Pad2)*%
X219500000Y-114000000D03*
%TO.P,J1,5B*%
%TO.N,Net-(J1-Pad5)*%
X219500000Y-116500000D03*
%TO.P,J1,3B*%
%TO.N,Net-(F2-Pad2)*%
X219500000Y-119000000D03*
%TO.P,J1,1B*%
%TO.N,GND*%
X219500000Y-121500000D03*
%TO.P,J1,12*%
%TO.N,Net-(ESC1-Pad4)*%
X214500000Y-107750000D03*
%TO.P,J1,10*%
%TO.N,Net-(F8-Pad4)*%
X214500000Y-110250000D03*
%TO.P,J1,8*%
%TO.N,Net-(F4-Pad4)*%
X214500000Y-112750000D03*
%TO.P,J1,6*%
%TO.N,Net-(F3-Pad2)*%
X214500000Y-115250000D03*
%TO.P,J1,4*%
%TO.N,Net-(F1-Pad4)*%
X214500000Y-117750000D03*
%TO.P,J1,2*%
%TO.N,N/C*%
X214500000Y-120250000D03*
%TO.P,J1,13*%
%TO.N,Net-(ESC1-Pad2)*%
X217000000Y-106500000D03*
%TO.P,J1,11*%
%TO.N,Net-(F7-Pad4)*%
X217000000Y-109000000D03*
%TO.P,J1,9*%
%TO.N,Net-(F6-Pad2)*%
X217000000Y-111500000D03*
%TO.P,J1,7*%
%TO.N,Net-(F5-Pad2)*%
X217000000Y-114000000D03*
%TO.P,J1,5*%
%TO.N,Net-(J1-Pad5)*%
X217000000Y-116500000D03*
%TO.P,J1,3*%
%TO.N,Net-(F2-Pad2)*%
X217000000Y-119000000D03*
%TO.P,J1,1*%
%TO.N,GND*%
X217000000Y-121500000D03*
%TD*%
D11*
%TO.P,F2,4*%
%TO.N,Net-(ESC1-Pad2)*%
X110920000Y-107500000D03*
%TO.P,F2,3*%
%TO.N,GND*%
X119810000Y-112580000D03*
%TO.P,F2,2*%
%TO.N,Net-(F2-Pad2)*%
X119810000Y-107500000D03*
%TO.P,F2,1*%
%TO.N,GND*%
X119810000Y-102420000D03*
%TD*%
%TO.P,ESC1,4*%
%TO.N,Net-(ESC1-Pad4)*%
X85920000Y-107500000D03*
%TO.P,ESC1,3*%
%TO.N,GND*%
X94810000Y-112580000D03*
%TO.P,ESC1,2*%
%TO.N,Net-(ESC1-Pad2)*%
X94810000Y-107500000D03*
%TO.P,ESC1,1*%
%TO.N,GND*%
X94810000Y-102420000D03*
%TD*%
%TO.P,F1,4*%
%TO.N,Net-(F1-Pad4)*%
X98420000Y-107500000D03*
%TO.P,F1,3*%
%TO.N,GND*%
X107310000Y-112580000D03*
%TO.P,F1,2*%
%TO.N,Net-(ESC1-Pad2)*%
X107310000Y-107500000D03*
%TO.P,F1,1*%
%TO.N,GND*%
X107310000Y-102420000D03*
%TD*%
%TO.P,F3,4*%
%TO.N,Net-(ESC1-Pad4)*%
X123420000Y-107500000D03*
%TO.P,F3,3*%
%TO.N,GND*%
X132310000Y-112580000D03*
%TO.P,F3,2*%
%TO.N,Net-(F3-Pad2)*%
X132310000Y-107500000D03*
%TO.P,F3,1*%
%TO.N,GND*%
X132310000Y-102420000D03*
%TD*%
%TO.P,F4,4*%
%TO.N,Net-(F4-Pad4)*%
X135920000Y-107500000D03*
%TO.P,F4,3*%
%TO.N,GND*%
X144810000Y-112580000D03*
%TO.P,F4,2*%
%TO.N,Net-(F3-Pad2)*%
X144810000Y-107500000D03*
%TO.P,F4,1*%
%TO.N,GND*%
X144810000Y-102420000D03*
%TD*%
%TO.P,F5,4*%
%TO.N,Net-(F3-Pad2)*%
X148420000Y-107500000D03*
%TO.P,F5,3*%
%TO.N,GND*%
X157310000Y-112580000D03*
%TO.P,F5,2*%
%TO.N,Net-(F5-Pad2)*%
X157310000Y-107500000D03*
%TO.P,F5,1*%
%TO.N,GND*%
X157310000Y-102420000D03*
%TD*%
%TO.P,F6,4*%
%TO.N,Net-(ESC1-Pad4)*%
X160920000Y-107500000D03*
%TO.P,F6,3*%
%TO.N,GND*%
X169810000Y-112580000D03*
%TO.P,F6,2*%
%TO.N,Net-(F6-Pad2)*%
X169810000Y-107500000D03*
%TO.P,F6,1*%
%TO.N,GND*%
X169810000Y-102420000D03*
%TD*%
%TO.P,F7,4*%
%TO.N,Net-(F7-Pad4)*%
X173420000Y-107500000D03*
%TO.P,F7,3*%
%TO.N,GND*%
X182310000Y-112580000D03*
%TO.P,F7,2*%
%TO.N,Net-(F6-Pad2)*%
X182310000Y-107500000D03*
%TO.P,F7,1*%
%TO.N,GND*%
X182310000Y-102420000D03*
%TD*%
%TO.P,F8,4*%
%TO.N,Net-(F8-Pad4)*%
X185920000Y-107500000D03*
%TO.P,F8,3*%
%TO.N,GND*%
X194810000Y-112580000D03*
%TO.P,F8,2*%
%TO.N,Net-(F6-Pad2)*%
X194810000Y-107500000D03*
%TO.P,F8,1*%
%TO.N,GND*%
X194810000Y-102420000D03*
%TD*%
D12*
%TO.N,Net-(ESC1-Pad4)*%
X126420000Y-104500000D02*
X123420000Y-107500000D01*
X157920000Y-104500000D02*
X126420000Y-104500000D01*
X160920000Y-107500000D02*
X157920000Y-104500000D01*
X163920000Y-104500000D02*
X160920000Y-107500000D01*
X209750000Y-107750000D02*
X206500000Y-104500000D01*
X206500000Y-104500000D02*
X163920000Y-104500000D01*
X215000000Y-107750000D02*
X209750000Y-107750000D01*
%TO.N,Net-(ESC1-Pad2)*%
X217500000Y-106500000D02*
X220000000Y-106500000D01*
%TO.N,Net-(F1-Pad4)*%
X215000000Y-117750000D02*
X214750000Y-118000000D01*
X121500000Y-106924118D02*
X119075882Y-104500000D01*
X101420000Y-104500000D02*
X98420000Y-107500000D01*
X129154117Y-115499999D02*
X121500000Y-107845882D01*
X191999999Y-115499999D02*
X129154117Y-115499999D01*
X119075882Y-104500000D02*
X101420000Y-104500000D01*
X198491989Y-121991989D02*
X191999999Y-115499999D01*
X205508011Y-121991989D02*
X198491989Y-121991989D01*
X209750000Y-117750000D02*
X205508011Y-121991989D01*
X121500000Y-107845882D02*
X121500000Y-106924118D01*
X214500000Y-117750000D02*
X209750000Y-117750000D01*
%TO.N,Net-(F2-Pad2)*%
X191508010Y-116008010D02*
X128318010Y-116008010D01*
X198000000Y-122500000D02*
X191508010Y-116008010D01*
X128318010Y-116008010D02*
X119810000Y-107500000D01*
X206000000Y-122500000D02*
X198000000Y-122500000D01*
X209500000Y-119000000D02*
X206000000Y-122500000D01*
X220000000Y-119000000D02*
X209500000Y-119000000D01*
%TO.N,Net-(F3-Pad2)*%
X148420000Y-107500000D02*
X144810000Y-107500000D01*
X148420000Y-109773282D02*
X148420000Y-107500000D01*
X153638706Y-114991988D02*
X148420000Y-109773282D01*
X192491988Y-114991988D02*
X153638706Y-114991988D01*
X198983978Y-121483978D02*
X192491988Y-114991988D01*
X205047586Y-121483978D02*
X198983978Y-121483978D01*
X211281564Y-115250000D02*
X205047586Y-121483978D01*
X215000000Y-115250000D02*
X211281564Y-115250000D01*
%TO.N,Net-(F5-Pad2)*%
X164293977Y-114483977D02*
X157310000Y-107500000D01*
X192983977Y-114483977D02*
X164293977Y-114483977D01*
X204549014Y-120975967D02*
X199475967Y-120975967D01*
X199475967Y-120975967D02*
X192983977Y-114483977D01*
X207777001Y-117747980D02*
X204549014Y-120975967D01*
X207777001Y-117722999D02*
X207777001Y-117747980D01*
X211500000Y-114000000D02*
X207777001Y-117722999D01*
X220000000Y-114000000D02*
X211500000Y-114000000D01*
%TO.N,Net-(F6-Pad2)*%
X206500000Y-107500000D02*
X194810000Y-107500000D01*
X210500000Y-111500000D02*
X206500000Y-107500000D01*
X220000000Y-111500000D02*
X210500000Y-111500000D01*
%TO.N,Net-(F7-Pad4)*%
X175911989Y-105008011D02*
X173420000Y-107500000D01*
X210000000Y-109000000D02*
X206008011Y-105008011D01*
X220000000Y-109000000D02*
X210000000Y-109000000D01*
X206008011Y-105008011D02*
X175911989Y-105008011D01*
%TO.N,Net-(F8-Pad4)*%
X187903978Y-105516022D02*
X185920000Y-107500000D01*
X205516022Y-105516022D02*
X187903978Y-105516022D01*
X215000000Y-110250000D02*
X210250000Y-110250000D01*
X210250000Y-110250000D02*
X205516022Y-105516022D01*
%TO.N,Net-(J1-Pad5)*%
X217500000Y-116500000D02*
X220000000Y-116500000D01*
%TD*%
%TO.N,GND*%
X94404681Y-100672760D02*
X94071600Y-100785406D01*
X93861118Y-100897910D01*
X93747256Y-101177651D01*
X94810000Y-102240395D01*
X95872744Y-101177651D01*
X95758882Y-100897910D01*
X95443704Y-100742039D01*
X95104174Y-100650651D01*
X95094410Y-100650000D01*
X107079083Y-100650000D01*
X106904681Y-100672760D01*
X106571600Y-100785406D01*
X106361118Y-100897910D01*
X106247256Y-101177651D01*
X107310000Y-102240395D01*
X108372744Y-101177651D01*
X108258882Y-100897910D01*
X107943704Y-100742039D01*
X107604174Y-100650651D01*
X107594410Y-100650000D01*
X119579083Y-100650000D01*
X119404681Y-100672760D01*
X119071600Y-100785406D01*
X118861118Y-100897910D01*
X118747256Y-101177651D01*
X119810000Y-102240395D01*
X120872744Y-101177651D01*
X120758882Y-100897910D01*
X120443704Y-100742039D01*
X120104174Y-100650651D01*
X120094410Y-100650000D01*
X132079083Y-100650000D01*
X131904681Y-100672760D01*
X131571600Y-100785406D01*
X131361118Y-100897910D01*
X131247256Y-101177651D01*
X132310000Y-102240395D01*
X133372744Y-101177651D01*
X133258882Y-100897910D01*
X132943704Y-100742039D01*
X132604174Y-100650651D01*
X132594410Y-100650000D01*
X144579083Y-100650000D01*
X144404681Y-100672760D01*
X144071600Y-100785406D01*
X143861118Y-100897910D01*
X143747256Y-101177651D01*
X144810000Y-102240395D01*
X145872744Y-101177651D01*
X145758882Y-100897910D01*
X145443704Y-100742039D01*
X145104174Y-100650651D01*
X145094410Y-100650000D01*
X157079083Y-100650000D01*
X156904681Y-100672760D01*
X156571600Y-100785406D01*
X156361118Y-100897910D01*
X156247256Y-101177651D01*
X157310000Y-102240395D01*
X158372744Y-101177651D01*
X158258882Y-100897910D01*
X157943704Y-100742039D01*
X157604174Y-100650651D01*
X157594410Y-100650000D01*
X169579083Y-100650000D01*
X169404681Y-100672760D01*
X169071600Y-100785406D01*
X168861118Y-100897910D01*
X168747256Y-101177651D01*
X169810000Y-102240395D01*
X170872744Y-101177651D01*
X170758882Y-100897910D01*
X170443704Y-100742039D01*
X170104174Y-100650651D01*
X170094410Y-100650000D01*
X182079083Y-100650000D01*
X181904681Y-100672760D01*
X181571600Y-100785406D01*
X181361118Y-100897910D01*
X181247256Y-101177651D01*
X182310000Y-102240395D01*
X183372744Y-101177651D01*
X183258882Y-100897910D01*
X182943704Y-100742039D01*
X182604174Y-100650651D01*
X182594410Y-100650000D01*
X194579083Y-100650000D01*
X194404681Y-100672760D01*
X194071600Y-100785406D01*
X193861118Y-100897910D01*
X193747256Y-101177651D01*
X194810000Y-102240395D01*
X195872744Y-101177651D01*
X195758882Y-100897910D01*
X195443704Y-100742039D01*
X195104174Y-100650651D01*
X195094410Y-100650000D01*
X199350001Y-100650000D01*
X199350000Y-101468068D01*
X199346855Y-101500000D01*
X199359405Y-101627422D01*
X199396573Y-101749948D01*
X199456930Y-101862868D01*
X199538157Y-101961843D01*
X199637132Y-102043070D01*
X199750052Y-102103427D01*
X199872578Y-102140595D01*
X200000000Y-102153145D01*
X200031931Y-102150000D01*
X220850001Y-102150000D01*
X220850000Y-126350000D01*
X200325000Y-126350000D01*
X198010955Y-123264607D01*
X198037422Y-123262000D01*
X205962577Y-123262000D01*
X206000000Y-123265686D01*
X206037423Y-123262000D01*
X206037426Y-123262000D01*
X206149378Y-123250974D01*
X206293015Y-123207402D01*
X206425392Y-123136645D01*
X206541422Y-123041422D01*
X206565284Y-123012346D01*
X207169940Y-122407690D01*
X216271915Y-122407690D01*
X216329070Y-122639522D01*
X216564271Y-122748519D01*
X216816217Y-122809535D01*
X217075226Y-122820226D01*
X217331345Y-122780183D01*
X217574729Y-122690942D01*
X217670930Y-122639522D01*
X217728085Y-122407690D01*
X218771915Y-122407690D01*
X218829070Y-122639522D01*
X219064271Y-122748519D01*
X219316217Y-122809535D01*
X219575226Y-122820226D01*
X219831345Y-122780183D01*
X220074729Y-122690942D01*
X220170930Y-122639522D01*
X220228085Y-122407690D01*
X219500000Y-121679605D01*
X218771915Y-122407690D01*
X217728085Y-122407690D01*
X217000000Y-121679605D01*
X216271915Y-122407690D01*
X207169940Y-122407690D01*
X208002404Y-121575226D01*
X215679774Y-121575226D01*
X215719817Y-121831345D01*
X215809058Y-122074729D01*
X215860478Y-122170930D01*
X216092310Y-122228085D01*
X216820395Y-121500000D01*
X217179605Y-121500000D01*
X217907690Y-122228085D01*
X218139522Y-122170930D01*
X218248519Y-121935729D01*
X218252327Y-121920007D01*
X218309058Y-122074729D01*
X218360478Y-122170930D01*
X218592310Y-122228085D01*
X219320395Y-121500000D01*
X219679605Y-121500000D01*
X220407690Y-122228085D01*
X220639522Y-122170930D01*
X220748519Y-121935729D01*
X220809535Y-121683783D01*
X220820226Y-121424774D01*
X220780183Y-121168655D01*
X220690942Y-120925271D01*
X220639522Y-120829070D01*
X220407690Y-120771915D01*
X219679605Y-121500000D01*
X219320395Y-121500000D01*
X218592310Y-120771915D01*
X218360478Y-120829070D01*
X218251481Y-121064271D01*
X218247673Y-121079993D01*
X218190942Y-120925271D01*
X218139522Y-120829070D01*
X217907690Y-120771915D01*
X217179605Y-121500000D01*
X216820395Y-121500000D01*
X216092310Y-120771915D01*
X215860478Y-120829070D01*
X215751481Y-121064271D01*
X215690465Y-121316217D01*
X215679774Y-121575226D01*
X208002404Y-121575226D01*
X209815631Y-119762000D01*
X213277708Y-119762000D01*
X213234573Y-119866137D01*
X213184000Y-120120385D01*
X213184000Y-120379615D01*
X213234573Y-120633863D01*
X213333776Y-120873360D01*
X213477796Y-121088901D01*
X213661099Y-121272204D01*
X213876640Y-121416224D01*
X214116137Y-121515427D01*
X214370385Y-121566000D01*
X214629615Y-121566000D01*
X214883863Y-121515427D01*
X215123360Y-121416224D01*
X215338901Y-121272204D01*
X215522204Y-121088901D01*
X215666224Y-120873360D01*
X215765427Y-120633863D01*
X215816000Y-120379615D01*
X215816000Y-120120385D01*
X215765427Y-119866137D01*
X215722292Y-119762000D01*
X215926412Y-119762000D01*
X215977796Y-119838901D01*
X216161099Y-120022204D01*
X216376640Y-120166224D01*
X216582389Y-120251448D01*
X216425271Y-120309058D01*
X216329070Y-120360478D01*
X216271915Y-120592310D01*
X217000000Y-121320395D01*
X217728085Y-120592310D01*
X217670930Y-120360478D01*
X217435729Y-120251481D01*
X217424246Y-120248700D01*
X217623360Y-120166224D01*
X217838901Y-120022204D01*
X218022204Y-119838901D01*
X218073588Y-119762000D01*
X218426412Y-119762000D01*
X218477796Y-119838901D01*
X218661099Y-120022204D01*
X218876640Y-120166224D01*
X219082389Y-120251448D01*
X218925271Y-120309058D01*
X218829070Y-120360478D01*
X218771915Y-120592310D01*
X219500000Y-121320395D01*
X220228085Y-120592310D01*
X220170930Y-120360478D01*
X219935729Y-120251481D01*
X219924246Y-120248700D01*
X220123360Y-120166224D01*
X220338901Y-120022204D01*
X220522204Y-119838901D01*
X220666224Y-119623360D01*
X220765427Y-119383863D01*
X220816000Y-119129615D01*
X220816000Y-118870385D01*
X220765427Y-118616137D01*
X220666224Y-118376640D01*
X220522204Y-118161099D01*
X220338901Y-117977796D01*
X220123360Y-117833776D01*
X219921107Y-117750000D01*
X220123360Y-117666224D01*
X220338901Y-117522204D01*
X220522204Y-117338901D01*
X220666224Y-117123360D01*
X220765427Y-116883863D01*
X220816000Y-116629615D01*
X220816000Y-116370385D01*
X220765427Y-116116137D01*
X220666224Y-115876640D01*
X220522204Y-115661099D01*
X220338901Y-115477796D01*
X220123360Y-115333776D01*
X219921107Y-115250000D01*
X220123360Y-115166224D01*
X220338901Y-115022204D01*
X220522204Y-114838901D01*
X220666224Y-114623360D01*
X220765427Y-114383863D01*
X220816000Y-114129615D01*
X220816000Y-113870385D01*
X220765427Y-113616137D01*
X220666224Y-113376640D01*
X220522204Y-113161099D01*
X220338901Y-112977796D01*
X220123360Y-112833776D01*
X219921107Y-112750000D01*
X220123360Y-112666224D01*
X220338901Y-112522204D01*
X220522204Y-112338901D01*
X220666224Y-112123360D01*
X220765427Y-111883863D01*
X220816000Y-111629615D01*
X220816000Y-111370385D01*
X220765427Y-111116137D01*
X220666224Y-110876640D01*
X220522204Y-110661099D01*
X220338901Y-110477796D01*
X220123360Y-110333776D01*
X219921107Y-110250000D01*
X220123360Y-110166224D01*
X220338901Y-110022204D01*
X220522204Y-109838901D01*
X220666224Y-109623360D01*
X220765427Y-109383863D01*
X220816000Y-109129615D01*
X220816000Y-108870385D01*
X220765427Y-108616137D01*
X220666224Y-108376640D01*
X220522204Y-108161099D01*
X220338901Y-107977796D01*
X220123360Y-107833776D01*
X219921107Y-107750000D01*
X220123360Y-107666224D01*
X220338901Y-107522204D01*
X220522204Y-107338901D01*
X220666224Y-107123360D01*
X220765427Y-106883863D01*
X220816000Y-106629615D01*
X220816000Y-106370385D01*
X220765427Y-106116137D01*
X220666224Y-105876640D01*
X220522204Y-105661099D01*
X220338901Y-105477796D01*
X220123360Y-105333776D01*
X219883863Y-105234573D01*
X219629615Y-105184000D01*
X219370385Y-105184000D01*
X219116137Y-105234573D01*
X218876640Y-105333776D01*
X218661099Y-105477796D01*
X218477796Y-105661099D01*
X218426412Y-105738000D01*
X218073588Y-105738000D01*
X218022204Y-105661099D01*
X217838901Y-105477796D01*
X217623360Y-105333776D01*
X217383863Y-105234573D01*
X217129615Y-105184000D01*
X216870385Y-105184000D01*
X216616137Y-105234573D01*
X216376640Y-105333776D01*
X216161099Y-105477796D01*
X215977796Y-105661099D01*
X215833776Y-105876640D01*
X215734573Y-106116137D01*
X215684000Y-106370385D01*
X215684000Y-106629615D01*
X215734573Y-106883863D01*
X215833776Y-107123360D01*
X215977796Y-107338901D01*
X216161099Y-107522204D01*
X216376640Y-107666224D01*
X216578893Y-107750000D01*
X216376640Y-107833776D01*
X216161099Y-107977796D01*
X215977796Y-108161099D01*
X215926412Y-108238000D01*
X215722292Y-108238000D01*
X215765427Y-108133863D01*
X215816000Y-107879615D01*
X215816000Y-107620385D01*
X215765427Y-107366137D01*
X215666224Y-107126640D01*
X215522204Y-106911099D01*
X215338901Y-106727796D01*
X215123360Y-106583776D01*
X214883863Y-106484573D01*
X214629615Y-106434000D01*
X214370385Y-106434000D01*
X214116137Y-106484573D01*
X213876640Y-106583776D01*
X213661099Y-106727796D01*
X213477796Y-106911099D01*
X213426412Y-106988000D01*
X210065631Y-106988000D01*
X207065284Y-103987654D01*
X207041422Y-103958578D01*
X206925392Y-103863355D01*
X206793015Y-103792598D01*
X206649378Y-103749026D01*
X206537426Y-103738000D01*
X206537423Y-103738000D01*
X206500000Y-103734314D01*
X206462577Y-103738000D01*
X195841952Y-103738000D01*
X195872744Y-103662349D01*
X194810000Y-102599605D01*
X193747256Y-103662349D01*
X193778048Y-103738000D01*
X191502573Y-103738000D01*
X191667885Y-103669525D01*
X191898822Y-103515218D01*
X192095218Y-103318822D01*
X192249525Y-103087885D01*
X192355814Y-102831282D01*
X192410000Y-102558873D01*
X192410000Y-102476661D01*
X193017259Y-102476661D01*
X193062760Y-102825319D01*
X193175406Y-103158400D01*
X193287910Y-103368882D01*
X193567651Y-103482744D01*
X194630395Y-102420000D01*
X194989605Y-102420000D01*
X196052349Y-103482744D01*
X196332090Y-103368882D01*
X196487961Y-103053704D01*
X196579349Y-102714174D01*
X196602741Y-102363339D01*
X196557240Y-102014681D01*
X196444594Y-101681600D01*
X196332090Y-101471118D01*
X196052349Y-101357256D01*
X194989605Y-102420000D01*
X194630395Y-102420000D01*
X193567651Y-101357256D01*
X193287910Y-101471118D01*
X193132039Y-101786296D01*
X193040651Y-102125826D01*
X193017259Y-102476661D01*
X192410000Y-102476661D01*
X192410000Y-102281127D01*
X192355814Y-102008718D01*
X192249525Y-101752115D01*
X192095218Y-101521178D01*
X191898822Y-101324782D01*
X191667885Y-101170475D01*
X191411282Y-101064186D01*
X191138873Y-101010000D01*
X190861127Y-101010000D01*
X190588718Y-101064186D01*
X190332115Y-101170475D01*
X190101178Y-101324782D01*
X189904782Y-101521178D01*
X189750475Y-101752115D01*
X189644186Y-102008718D01*
X189590000Y-102281127D01*
X189590000Y-102558873D01*
X189644186Y-102831282D01*
X189750475Y-103087885D01*
X189904782Y-103318822D01*
X190101178Y-103515218D01*
X190332115Y-103669525D01*
X190497427Y-103738000D01*
X183341952Y-103738000D01*
X183372744Y-103662349D01*
X182310000Y-102599605D01*
X181247256Y-103662349D01*
X181278048Y-103738000D01*
X179002573Y-103738000D01*
X179167885Y-103669525D01*
X179398822Y-103515218D01*
X179595218Y-103318822D01*
X179749525Y-103087885D01*
X179855814Y-102831282D01*
X179910000Y-102558873D01*
X179910000Y-102476661D01*
X180517259Y-102476661D01*
X180562760Y-102825319D01*
X180675406Y-103158400D01*
X180787910Y-103368882D01*
X181067651Y-103482744D01*
X182130395Y-102420000D01*
X182489605Y-102420000D01*
X183552349Y-103482744D01*
X183832090Y-103368882D01*
X183987961Y-103053704D01*
X184079349Y-102714174D01*
X184102741Y-102363339D01*
X184057240Y-102014681D01*
X183944594Y-101681600D01*
X183832090Y-101471118D01*
X183552349Y-101357256D01*
X182489605Y-102420000D01*
X182130395Y-102420000D01*
X181067651Y-101357256D01*
X180787910Y-101471118D01*
X180632039Y-101786296D01*
X180540651Y-102125826D01*
X180517259Y-102476661D01*
X179910000Y-102476661D01*
X179910000Y-102281127D01*
X179855814Y-102008718D01*
X179749525Y-101752115D01*
X179595218Y-101521178D01*
X179398822Y-101324782D01*
X179167885Y-101170475D01*
X178911282Y-101064186D01*
X178638873Y-101010000D01*
X178361127Y-101010000D01*
X178088718Y-101064186D01*
X177832115Y-101170475D01*
X177601178Y-101324782D01*
X177404782Y-101521178D01*
X177250475Y-101752115D01*
X177144186Y-102008718D01*
X177090000Y-102281127D01*
X177090000Y-102558873D01*
X177144186Y-102831282D01*
X177250475Y-103087885D01*
X177404782Y-103318822D01*
X177601178Y-103515218D01*
X177832115Y-103669525D01*
X177997427Y-103738000D01*
X170841952Y-103738000D01*
X170872744Y-103662349D01*
X169810000Y-102599605D01*
X168747256Y-103662349D01*
X168778048Y-103738000D01*
X166502573Y-103738000D01*
X166667885Y-103669525D01*
X166898822Y-103515218D01*
X167095218Y-103318822D01*
X167249525Y-103087885D01*
X167355814Y-102831282D01*
X167410000Y-102558873D01*
X167410000Y-102476661D01*
X168017259Y-102476661D01*
X168062760Y-102825319D01*
X168175406Y-103158400D01*
X168287910Y-103368882D01*
X168567651Y-103482744D01*
X169630395Y-102420000D01*
X169989605Y-102420000D01*
X171052349Y-103482744D01*
X171332090Y-103368882D01*
X171487961Y-103053704D01*
X171579349Y-102714174D01*
X171602741Y-102363339D01*
X171557240Y-102014681D01*
X171444594Y-101681600D01*
X171332090Y-101471118D01*
X171052349Y-101357256D01*
X169989605Y-102420000D01*
X169630395Y-102420000D01*
X168567651Y-101357256D01*
X168287910Y-101471118D01*
X168132039Y-101786296D01*
X168040651Y-102125826D01*
X168017259Y-102476661D01*
X167410000Y-102476661D01*
X167410000Y-102281127D01*
X167355814Y-102008718D01*
X167249525Y-101752115D01*
X167095218Y-101521178D01*
X166898822Y-101324782D01*
X166667885Y-101170475D01*
X166411282Y-101064186D01*
X166138873Y-101010000D01*
X165861127Y-101010000D01*
X165588718Y-101064186D01*
X165332115Y-101170475D01*
X165101178Y-101324782D01*
X164904782Y-101521178D01*
X164750475Y-101752115D01*
X164644186Y-102008718D01*
X164590000Y-102281127D01*
X164590000Y-102558873D01*
X164644186Y-102831282D01*
X164750475Y-103087885D01*
X164904782Y-103318822D01*
X165101178Y-103515218D01*
X165332115Y-103669525D01*
X165497427Y-103738000D01*
X163957423Y-103738000D01*
X163920000Y-103734314D01*
X163882577Y-103738000D01*
X163882574Y-103738000D01*
X163770622Y-103749026D01*
X163626985Y-103792598D01*
X163565364Y-103825535D01*
X163494607Y-103863355D01*
X163452219Y-103898143D01*
X163378578Y-103958578D01*
X163354716Y-103987654D01*
X161524181Y-105818189D01*
X161440665Y-105783596D01*
X161095807Y-105715000D01*
X160744193Y-105715000D01*
X160399335Y-105783596D01*
X160315819Y-105818189D01*
X158485284Y-103987654D01*
X158461422Y-103958578D01*
X158345392Y-103863355D01*
X158300661Y-103839446D01*
X158372744Y-103662349D01*
X157310000Y-102599605D01*
X156247256Y-103662349D01*
X156278048Y-103738000D01*
X154002573Y-103738000D01*
X154167885Y-103669525D01*
X154398822Y-103515218D01*
X154595218Y-103318822D01*
X154749525Y-103087885D01*
X154855814Y-102831282D01*
X154910000Y-102558873D01*
X154910000Y-102476661D01*
X155517259Y-102476661D01*
X155562760Y-102825319D01*
X155675406Y-103158400D01*
X155787910Y-103368882D01*
X156067651Y-103482744D01*
X157130395Y-102420000D01*
X157489605Y-102420000D01*
X158552349Y-103482744D01*
X158832090Y-103368882D01*
X158987961Y-103053704D01*
X159079349Y-102714174D01*
X159102741Y-102363339D01*
X159057240Y-102014681D01*
X158944594Y-101681600D01*
X158832090Y-101471118D01*
X158552349Y-101357256D01*
X157489605Y-102420000D01*
X157130395Y-102420000D01*
X156067651Y-101357256D01*
X155787910Y-101471118D01*
X155632039Y-101786296D01*
X155540651Y-102125826D01*
X155517259Y-102476661D01*
X154910000Y-102476661D01*
X154910000Y-102281127D01*
X154855814Y-102008718D01*
X154749525Y-101752115D01*
X154595218Y-101521178D01*
X154398822Y-101324782D01*
X154167885Y-101170475D01*
X153911282Y-101064186D01*
X153638873Y-101010000D01*
X153361127Y-101010000D01*
X153088718Y-101064186D01*
X152832115Y-101170475D01*
X152601178Y-101324782D01*
X152404782Y-101521178D01*
X152250475Y-101752115D01*
X152144186Y-102008718D01*
X152090000Y-102281127D01*
X152090000Y-102558873D01*
X152144186Y-102831282D01*
X152250475Y-103087885D01*
X152404782Y-103318822D01*
X152601178Y-103515218D01*
X152832115Y-103669525D01*
X152997427Y-103738000D01*
X145841952Y-103738000D01*
X145872744Y-103662349D01*
X144810000Y-102599605D01*
X143747256Y-103662349D01*
X143778048Y-103738000D01*
X141502573Y-103738000D01*
X141667885Y-103669525D01*
X141898822Y-103515218D01*
X142095218Y-103318822D01*
X142249525Y-103087885D01*
X142355814Y-102831282D01*
X142410000Y-102558873D01*
X142410000Y-102476661D01*
X143017259Y-102476661D01*
X143062760Y-102825319D01*
X143175406Y-103158400D01*
X143287910Y-103368882D01*
X143567651Y-103482744D01*
X144630395Y-102420000D01*
X144989605Y-102420000D01*
X146052349Y-103482744D01*
X146332090Y-103368882D01*
X146487961Y-103053704D01*
X146579349Y-102714174D01*
X146602741Y-102363339D01*
X146557240Y-102014681D01*
X146444594Y-101681600D01*
X146332090Y-101471118D01*
X146052349Y-101357256D01*
X144989605Y-102420000D01*
X144630395Y-102420000D01*
X143567651Y-101357256D01*
X143287910Y-101471118D01*
X143132039Y-101786296D01*
X143040651Y-102125826D01*
X143017259Y-102476661D01*
X142410000Y-102476661D01*
X142410000Y-102281127D01*
X142355814Y-102008718D01*
X142249525Y-101752115D01*
X142095218Y-101521178D01*
X141898822Y-101324782D01*
X141667885Y-101170475D01*
X141411282Y-101064186D01*
X141138873Y-101010000D01*
X140861127Y-101010000D01*
X140588718Y-101064186D01*
X140332115Y-101170475D01*
X140101178Y-101324782D01*
X139904782Y-101521178D01*
X139750475Y-101752115D01*
X139644186Y-102008718D01*
X139590000Y-102281127D01*
X139590000Y-102558873D01*
X139644186Y-102831282D01*
X139750475Y-103087885D01*
X139904782Y-103318822D01*
X140101178Y-103515218D01*
X140332115Y-103669525D01*
X140497427Y-103738000D01*
X133341952Y-103738000D01*
X133372744Y-103662349D01*
X132310000Y-102599605D01*
X131247256Y-103662349D01*
X131278048Y-103738000D01*
X129002573Y-103738000D01*
X129167885Y-103669525D01*
X129398822Y-103515218D01*
X129595218Y-103318822D01*
X129749525Y-103087885D01*
X129855814Y-102831282D01*
X129910000Y-102558873D01*
X129910000Y-102476661D01*
X130517259Y-102476661D01*
X130562760Y-102825319D01*
X130675406Y-103158400D01*
X130787910Y-103368882D01*
X131067651Y-103482744D01*
X132130395Y-102420000D01*
X132489605Y-102420000D01*
X133552349Y-103482744D01*
X133832090Y-103368882D01*
X133987961Y-103053704D01*
X134079349Y-102714174D01*
X134102741Y-102363339D01*
X134057240Y-102014681D01*
X133944594Y-101681600D01*
X133832090Y-101471118D01*
X133552349Y-101357256D01*
X132489605Y-102420000D01*
X132130395Y-102420000D01*
X131067651Y-101357256D01*
X130787910Y-101471118D01*
X130632039Y-101786296D01*
X130540651Y-102125826D01*
X130517259Y-102476661D01*
X129910000Y-102476661D01*
X129910000Y-102281127D01*
X129855814Y-102008718D01*
X129749525Y-101752115D01*
X129595218Y-101521178D01*
X129398822Y-101324782D01*
X129167885Y-101170475D01*
X128911282Y-101064186D01*
X128638873Y-101010000D01*
X128361127Y-101010000D01*
X128088718Y-101064186D01*
X127832115Y-101170475D01*
X127601178Y-101324782D01*
X127404782Y-101521178D01*
X127250475Y-101752115D01*
X127144186Y-102008718D01*
X127090000Y-102281127D01*
X127090000Y-102558873D01*
X127144186Y-102831282D01*
X127250475Y-103087885D01*
X127404782Y-103318822D01*
X127601178Y-103515218D01*
X127832115Y-103669525D01*
X127997427Y-103738000D01*
X126457423Y-103738000D01*
X126420000Y-103734314D01*
X126382577Y-103738000D01*
X126382574Y-103738000D01*
X126270622Y-103749026D01*
X126126985Y-103792598D01*
X126065364Y-103825535D01*
X125994607Y-103863355D01*
X125952219Y-103898143D01*
X125878578Y-103958578D01*
X125854716Y-103987654D01*
X124024181Y-105818189D01*
X123940665Y-105783596D01*
X123595807Y-105715000D01*
X123244193Y-105715000D01*
X122899335Y-105783596D01*
X122574485Y-105918153D01*
X122282129Y-106113500D01*
X122033500Y-106362129D01*
X122027430Y-106371213D01*
X122012346Y-106358834D01*
X119866224Y-104212712D01*
X119866661Y-104212741D01*
X120215319Y-104167240D01*
X120548400Y-104054594D01*
X120758882Y-103942090D01*
X120872744Y-103662349D01*
X119810000Y-102599605D01*
X118747256Y-103662349D01*
X118778048Y-103738000D01*
X116502573Y-103738000D01*
X116667885Y-103669525D01*
X116898822Y-103515218D01*
X117095218Y-103318822D01*
X117249525Y-103087885D01*
X117355814Y-102831282D01*
X117410000Y-102558873D01*
X117410000Y-102476661D01*
X118017259Y-102476661D01*
X118062760Y-102825319D01*
X118175406Y-103158400D01*
X118287910Y-103368882D01*
X118567651Y-103482744D01*
X119630395Y-102420000D01*
X119989605Y-102420000D01*
X121052349Y-103482744D01*
X121332090Y-103368882D01*
X121487961Y-103053704D01*
X121579349Y-102714174D01*
X121602741Y-102363339D01*
X121557240Y-102014681D01*
X121444594Y-101681600D01*
X121332090Y-101471118D01*
X121052349Y-101357256D01*
X119989605Y-102420000D01*
X119630395Y-102420000D01*
X118567651Y-101357256D01*
X118287910Y-101471118D01*
X118132039Y-101786296D01*
X118040651Y-102125826D01*
X118017259Y-102476661D01*
X117410000Y-102476661D01*
X117410000Y-102281127D01*
X117355814Y-102008718D01*
X117249525Y-101752115D01*
X117095218Y-101521178D01*
X116898822Y-101324782D01*
X116667885Y-101170475D01*
X116411282Y-101064186D01*
X116138873Y-101010000D01*
X115861127Y-101010000D01*
X115588718Y-101064186D01*
X115332115Y-101170475D01*
X115101178Y-101324782D01*
X114904782Y-101521178D01*
X114750475Y-101752115D01*
X114644186Y-102008718D01*
X114590000Y-102281127D01*
X114590000Y-102558873D01*
X114644186Y-102831282D01*
X114750475Y-103087885D01*
X114904782Y-103318822D01*
X115101178Y-103515218D01*
X115332115Y-103669525D01*
X115497427Y-103738000D01*
X108341952Y-103738000D01*
X108372744Y-103662349D01*
X107310000Y-102599605D01*
X106247256Y-103662349D01*
X106278048Y-103738000D01*
X104002573Y-103738000D01*
X104167885Y-103669525D01*
X104398822Y-103515218D01*
X104595218Y-103318822D01*
X104749525Y-103087885D01*
X104855814Y-102831282D01*
X104910000Y-102558873D01*
X104910000Y-102476661D01*
X105517259Y-102476661D01*
X105562760Y-102825319D01*
X105675406Y-103158400D01*
X105787910Y-103368882D01*
X106067651Y-103482744D01*
X107130395Y-102420000D01*
X107489605Y-102420000D01*
X108552349Y-103482744D01*
X108832090Y-103368882D01*
X108987961Y-103053704D01*
X109079349Y-102714174D01*
X109102741Y-102363339D01*
X109057240Y-102014681D01*
X108944594Y-101681600D01*
X108832090Y-101471118D01*
X108552349Y-101357256D01*
X107489605Y-102420000D01*
X107130395Y-102420000D01*
X106067651Y-101357256D01*
X105787910Y-101471118D01*
X105632039Y-101786296D01*
X105540651Y-102125826D01*
X105517259Y-102476661D01*
X104910000Y-102476661D01*
X104910000Y-102281127D01*
X104855814Y-102008718D01*
X104749525Y-101752115D01*
X104595218Y-101521178D01*
X104398822Y-101324782D01*
X104167885Y-101170475D01*
X103911282Y-101064186D01*
X103638873Y-101010000D01*
X103361127Y-101010000D01*
X103088718Y-101064186D01*
X102832115Y-101170475D01*
X102601178Y-101324782D01*
X102404782Y-101521178D01*
X102250475Y-101752115D01*
X102144186Y-102008718D01*
X102090000Y-102281127D01*
X102090000Y-102558873D01*
X102144186Y-102831282D01*
X102250475Y-103087885D01*
X102404782Y-103318822D01*
X102601178Y-103515218D01*
X102832115Y-103669525D01*
X102997427Y-103738000D01*
X101457423Y-103738000D01*
X101420000Y-103734314D01*
X101382577Y-103738000D01*
X101382574Y-103738000D01*
X101270622Y-103749026D01*
X101126985Y-103792598D01*
X101065364Y-103825535D01*
X100994607Y-103863355D01*
X100952219Y-103898143D01*
X100878578Y-103958578D01*
X100854716Y-103987654D01*
X99024181Y-105818189D01*
X98940665Y-105783596D01*
X98595807Y-105715000D01*
X98244193Y-105715000D01*
X97899335Y-105783596D01*
X97574485Y-105918153D01*
X97282129Y-106113500D01*
X97033500Y-106362129D01*
X96838153Y-106654485D01*
X96703596Y-106979335D01*
X96635000Y-107324193D01*
X96635000Y-107675807D01*
X96703596Y-108020665D01*
X96838153Y-108345515D01*
X97033500Y-108637871D01*
X97282129Y-108886500D01*
X97574485Y-109081847D01*
X97899335Y-109216404D01*
X98244193Y-109285000D01*
X98595807Y-109285000D01*
X98940665Y-109216404D01*
X99265515Y-109081847D01*
X99557871Y-108886500D01*
X99806500Y-108637871D01*
X100001847Y-108345515D01*
X100136404Y-108020665D01*
X100205000Y-107675807D01*
X100205000Y-107324193D01*
X100202062Y-107309419D01*
X101565000Y-107309419D01*
X101565000Y-107690581D01*
X101639361Y-108064419D01*
X101785225Y-108416566D01*
X101996987Y-108733491D01*
X102266509Y-109003013D01*
X102583434Y-109214775D01*
X102935581Y-109360639D01*
X103309419Y-109435000D01*
X103690581Y-109435000D01*
X104064419Y-109360639D01*
X104416566Y-109214775D01*
X104733491Y-109003013D01*
X105003013Y-108733491D01*
X105214775Y-108416566D01*
X105360639Y-108064419D01*
X105435000Y-107690581D01*
X105435000Y-107324193D01*
X105525000Y-107324193D01*
X105525000Y-107675807D01*
X105593596Y-108020665D01*
X105728153Y-108345515D01*
X105923500Y-108637871D01*
X106172129Y-108886500D01*
X106464485Y-109081847D01*
X106789335Y-109216404D01*
X107134193Y-109285000D01*
X107485807Y-109285000D01*
X107830665Y-109216404D01*
X108155515Y-109081847D01*
X108447871Y-108886500D01*
X108696500Y-108637871D01*
X108891847Y-108345515D01*
X109026404Y-108020665D01*
X109095000Y-107675807D01*
X109095000Y-107324193D01*
X109135000Y-107324193D01*
X109135000Y-107675807D01*
X109203596Y-108020665D01*
X109338153Y-108345515D01*
X109533500Y-108637871D01*
X109782129Y-108886500D01*
X110074485Y-109081847D01*
X110399335Y-109216404D01*
X110744193Y-109285000D01*
X111095807Y-109285000D01*
X111440665Y-109216404D01*
X111765515Y-109081847D01*
X112057871Y-108886500D01*
X112306500Y-108637871D01*
X112501847Y-108345515D01*
X112636404Y-108020665D01*
X112705000Y-107675807D01*
X112705000Y-107324193D01*
X112702062Y-107309419D01*
X114065000Y-107309419D01*
X114065000Y-107690581D01*
X114139361Y-108064419D01*
X114285225Y-108416566D01*
X114496987Y-108733491D01*
X114766509Y-109003013D01*
X115083434Y-109214775D01*
X115435581Y-109360639D01*
X115809419Y-109435000D01*
X116190581Y-109435000D01*
X116564419Y-109360639D01*
X116916566Y-109214775D01*
X117233491Y-109003013D01*
X117503013Y-108733491D01*
X117714775Y-108416566D01*
X117860639Y-108064419D01*
X117935000Y-107690581D01*
X117935000Y-107309419D01*
X117860639Y-106935581D01*
X117714775Y-106583434D01*
X117503013Y-106266509D01*
X117233491Y-105996987D01*
X116916566Y-105785225D01*
X116564419Y-105639361D01*
X116190581Y-105565000D01*
X115809419Y-105565000D01*
X115435581Y-105639361D01*
X115083434Y-105785225D01*
X114766509Y-105996987D01*
X114496987Y-106266509D01*
X114285225Y-106583434D01*
X114139361Y-106935581D01*
X114065000Y-107309419D01*
X112702062Y-107309419D01*
X112636404Y-106979335D01*
X112501847Y-106654485D01*
X112306500Y-106362129D01*
X112057871Y-106113500D01*
X111765515Y-105918153D01*
X111440665Y-105783596D01*
X111095807Y-105715000D01*
X110744193Y-105715000D01*
X110399335Y-105783596D01*
X110074485Y-105918153D01*
X109782129Y-106113500D01*
X109533500Y-106362129D01*
X109338153Y-106654485D01*
X109203596Y-106979335D01*
X109135000Y-107324193D01*
X109095000Y-107324193D01*
X109026404Y-106979335D01*
X108891847Y-106654485D01*
X108696500Y-106362129D01*
X108447871Y-106113500D01*
X108155515Y-105918153D01*
X107830665Y-105783596D01*
X107485807Y-105715000D01*
X107134193Y-105715000D01*
X106789335Y-105783596D01*
X106464485Y-105918153D01*
X106172129Y-106113500D01*
X105923500Y-106362129D01*
X105728153Y-106654485D01*
X105593596Y-106979335D01*
X105525000Y-107324193D01*
X105435000Y-107324193D01*
X105435000Y-107309419D01*
X105360639Y-106935581D01*
X105214775Y-106583434D01*
X105003013Y-106266509D01*
X104733491Y-105996987D01*
X104416566Y-105785225D01*
X104064419Y-105639361D01*
X103690581Y-105565000D01*
X103309419Y-105565000D01*
X102935581Y-105639361D01*
X102583434Y-105785225D01*
X102266509Y-105996987D01*
X101996987Y-106266509D01*
X101785225Y-106583434D01*
X101639361Y-106935581D01*
X101565000Y-107309419D01*
X100202062Y-107309419D01*
X100136404Y-106979335D01*
X100101811Y-106895819D01*
X101735630Y-105262000D01*
X118760252Y-105262000D01*
X119284041Y-105785789D01*
X118964485Y-105918153D01*
X118672129Y-106113500D01*
X118423500Y-106362129D01*
X118228153Y-106654485D01*
X118093596Y-106979335D01*
X118025000Y-107324193D01*
X118025000Y-107675807D01*
X118093596Y-108020665D01*
X118228153Y-108345515D01*
X118423500Y-108637871D01*
X118672129Y-108886500D01*
X118964485Y-109081847D01*
X119289335Y-109216404D01*
X119634193Y-109285000D01*
X119985807Y-109285000D01*
X120330665Y-109216404D01*
X120414181Y-109181811D01*
X127752730Y-116520361D01*
X127776588Y-116549432D01*
X127892618Y-116644655D01*
X128024995Y-116715412D01*
X128168632Y-116758984D01*
X128280584Y-116770010D01*
X128280586Y-116770010D01*
X128318009Y-116773696D01*
X128355432Y-116770010D01*
X191192380Y-116770010D01*
X194772369Y-120350000D01*
X189769238Y-120350000D01*
X186982198Y-117562960D01*
X186961843Y-117538157D01*
X186862868Y-117456930D01*
X186749948Y-117396573D01*
X186627422Y-117359405D01*
X186531932Y-117350000D01*
X186531921Y-117350000D01*
X186500000Y-117346856D01*
X186468079Y-117350000D01*
X167531583Y-117350000D01*
X167499316Y-117346856D01*
X167436831Y-117353077D01*
X167372578Y-117359405D01*
X167372243Y-117359507D01*
X167371907Y-117359540D01*
X167311562Y-117377914D01*
X167250052Y-117396573D01*
X167249748Y-117396735D01*
X167249421Y-117396835D01*
X167193410Y-117426849D01*
X167137132Y-117456930D01*
X167136866Y-117457148D01*
X167136564Y-117457310D01*
X167087302Y-117497824D01*
X167038157Y-117538157D01*
X167037940Y-117538421D01*
X167037673Y-117538641D01*
X166997132Y-117588146D01*
X166956930Y-117637132D01*
X166941646Y-117665727D01*
X165463005Y-119883689D01*
X164969768Y-119289102D01*
X164946123Y-119267046D01*
X163750225Y-118407858D01*
X163720321Y-118391938D01*
X162187715Y-117823016D01*
X162173220Y-117818599D01*
X162148560Y-117815177D01*
X160395352Y-117745513D01*
X160360194Y-117749035D01*
X158885641Y-118108965D01*
X158853050Y-118121904D01*
X157482993Y-118899818D01*
X157455897Y-118920454D01*
X156585098Y-119791253D01*
X156568106Y-119812326D01*
X156222078Y-120350000D01*
X153804443Y-120350000D01*
X151500948Y-117585806D01*
X151461843Y-117538157D01*
X151435146Y-117516247D01*
X151410545Y-117492013D01*
X151385781Y-117475735D01*
X151362868Y-117456930D01*
X151332402Y-117440646D01*
X151303552Y-117421681D01*
X151276095Y-117410549D01*
X151249948Y-117396573D01*
X151216890Y-117386545D01*
X151184895Y-117373573D01*
X151155792Y-117368011D01*
X151127422Y-117359405D01*
X151093044Y-117356019D01*
X151059132Y-117349538D01*
X150997644Y-117350000D01*
X135502356Y-117350000D01*
X135440867Y-117349538D01*
X135406954Y-117356019D01*
X135372578Y-117359405D01*
X135344209Y-117368011D01*
X135315104Y-117373573D01*
X135283104Y-117386547D01*
X135250052Y-117396573D01*
X135223914Y-117410544D01*
X135196447Y-117421680D01*
X135167587Y-117440652D01*
X135137132Y-117456930D01*
X135114224Y-117475730D01*
X135089454Y-117492013D01*
X135064848Y-117516252D01*
X135038157Y-117538157D01*
X134999116Y-117585728D01*
X132695556Y-120350000D01*
X112609476Y-120350000D01*
X112087748Y-119488016D01*
X112068903Y-119463974D01*
X111082462Y-118477533D01*
X111059707Y-118459477D01*
X109822476Y-117690387D01*
X109789671Y-117675950D01*
X108535721Y-117324844D01*
X108510020Y-117320428D01*
X107021999Y-117220112D01*
X106987847Y-117222433D01*
X105850932Y-117456504D01*
X105824426Y-117465081D01*
X104821265Y-117916503D01*
X104803294Y-117926408D01*
X103666379Y-118678778D01*
X103639817Y-118702298D01*
X103401316Y-118982078D01*
X101982198Y-117562960D01*
X101961843Y-117538157D01*
X101862868Y-117456930D01*
X101749948Y-117396573D01*
X101627422Y-117359405D01*
X101531932Y-117350000D01*
X101531921Y-117350000D01*
X101500000Y-117346856D01*
X101468079Y-117350000D01*
X85677185Y-117350000D01*
X85676982Y-117348318D01*
X85671493Y-117323700D01*
X85276731Y-116127803D01*
X85265659Y-116103325D01*
X84638684Y-115035145D01*
X84624828Y-115015909D01*
X83986242Y-114284438D01*
X83964890Y-114264977D01*
X82838656Y-113452231D01*
X82812627Y-113437754D01*
X82150000Y-113165341D01*
X82150000Y-112441127D01*
X89590000Y-112441127D01*
X89590000Y-112718873D01*
X89644186Y-112991282D01*
X89750475Y-113247885D01*
X89904782Y-113478822D01*
X90101178Y-113675218D01*
X90332115Y-113829525D01*
X90588718Y-113935814D01*
X90861127Y-113990000D01*
X91138873Y-113990000D01*
X91411282Y-113935814D01*
X91667885Y-113829525D01*
X91678624Y-113822349D01*
X93747256Y-113822349D01*
X93861118Y-114102090D01*
X94176296Y-114257961D01*
X94515826Y-114349349D01*
X94866661Y-114372741D01*
X95215319Y-114327240D01*
X95548400Y-114214594D01*
X95758882Y-114102090D01*
X95872744Y-113822349D01*
X94810000Y-112759605D01*
X93747256Y-113822349D01*
X91678624Y-113822349D01*
X91898822Y-113675218D01*
X92095218Y-113478822D01*
X92249525Y-113247885D01*
X92355814Y-112991282D01*
X92410000Y-112718873D01*
X92410000Y-112636661D01*
X93017259Y-112636661D01*
X93062760Y-112985319D01*
X93175406Y-113318400D01*
X93287910Y-113528882D01*
X93567651Y-113642744D01*
X94630395Y-112580000D01*
X94989605Y-112580000D01*
X96052349Y-113642744D01*
X96332090Y-113528882D01*
X96487961Y-113213704D01*
X96579349Y-112874174D01*
X96602741Y-112523339D01*
X96592013Y-112441127D01*
X102090000Y-112441127D01*
X102090000Y-112718873D01*
X102144186Y-112991282D01*
X102250475Y-113247885D01*
X102404782Y-113478822D01*
X102601178Y-113675218D01*
X102832115Y-113829525D01*
X103088718Y-113935814D01*
X103361127Y-113990000D01*
X103638873Y-113990000D01*
X103911282Y-113935814D01*
X104167885Y-113829525D01*
X104178624Y-113822349D01*
X106247256Y-113822349D01*
X106361118Y-114102090D01*
X106676296Y-114257961D01*
X107015826Y-114349349D01*
X107366661Y-114372741D01*
X107715319Y-114327240D01*
X108048400Y-114214594D01*
X108258882Y-114102090D01*
X108372744Y-113822349D01*
X107310000Y-112759605D01*
X106247256Y-113822349D01*
X104178624Y-113822349D01*
X104398822Y-113675218D01*
X104595218Y-113478822D01*
X104749525Y-113247885D01*
X104855814Y-112991282D01*
X104910000Y-112718873D01*
X104910000Y-112636661D01*
X105517259Y-112636661D01*
X105562760Y-112985319D01*
X105675406Y-113318400D01*
X105787910Y-113528882D01*
X106067651Y-113642744D01*
X107130395Y-112580000D01*
X107489605Y-112580000D01*
X108552349Y-113642744D01*
X108832090Y-113528882D01*
X108987961Y-113213704D01*
X109079349Y-112874174D01*
X109102741Y-112523339D01*
X109092013Y-112441127D01*
X114590000Y-112441127D01*
X114590000Y-112718873D01*
X114644186Y-112991282D01*
X114750475Y-113247885D01*
X114904782Y-113478822D01*
X115101178Y-113675218D01*
X115332115Y-113829525D01*
X115588718Y-113935814D01*
X115861127Y-113990000D01*
X116138873Y-113990000D01*
X116411282Y-113935814D01*
X116667885Y-113829525D01*
X116678624Y-113822349D01*
X118747256Y-113822349D01*
X118861118Y-114102090D01*
X119176296Y-114257961D01*
X119515826Y-114349349D01*
X119866661Y-114372741D01*
X120215319Y-114327240D01*
X120548400Y-114214594D01*
X120758882Y-114102090D01*
X120872744Y-113822349D01*
X119810000Y-112759605D01*
X118747256Y-113822349D01*
X116678624Y-113822349D01*
X116898822Y-113675218D01*
X117095218Y-113478822D01*
X117249525Y-113247885D01*
X117355814Y-112991282D01*
X117410000Y-112718873D01*
X117410000Y-112636661D01*
X118017259Y-112636661D01*
X118062760Y-112985319D01*
X118175406Y-113318400D01*
X118287910Y-113528882D01*
X118567651Y-113642744D01*
X119630395Y-112580000D01*
X119989605Y-112580000D01*
X121052349Y-113642744D01*
X121332090Y-113528882D01*
X121487961Y-113213704D01*
X121579349Y-112874174D01*
X121602741Y-112523339D01*
X121557240Y-112174681D01*
X121444594Y-111841600D01*
X121332090Y-111631118D01*
X121052349Y-111517256D01*
X119989605Y-112580000D01*
X119630395Y-112580000D01*
X118567651Y-111517256D01*
X118287910Y-111631118D01*
X118132039Y-111946296D01*
X118040651Y-112285826D01*
X118017259Y-112636661D01*
X117410000Y-112636661D01*
X117410000Y-112441127D01*
X117355814Y-112168718D01*
X117249525Y-111912115D01*
X117095218Y-111681178D01*
X116898822Y-111484782D01*
X116678625Y-111337651D01*
X118747256Y-111337651D01*
X119810000Y-112400395D01*
X120872744Y-111337651D01*
X120758882Y-111057910D01*
X120443704Y-110902039D01*
X120104174Y-110810651D01*
X119753339Y-110787259D01*
X119404681Y-110832760D01*
X119071600Y-110945406D01*
X118861118Y-111057910D01*
X118747256Y-111337651D01*
X116678625Y-111337651D01*
X116667885Y-111330475D01*
X116411282Y-111224186D01*
X116138873Y-111170000D01*
X115861127Y-111170000D01*
X115588718Y-111224186D01*
X115332115Y-111330475D01*
X115101178Y-111484782D01*
X114904782Y-111681178D01*
X114750475Y-111912115D01*
X114644186Y-112168718D01*
X114590000Y-112441127D01*
X109092013Y-112441127D01*
X109057240Y-112174681D01*
X108944594Y-111841600D01*
X108832090Y-111631118D01*
X108552349Y-111517256D01*
X107489605Y-112580000D01*
X107130395Y-112580000D01*
X106067651Y-111517256D01*
X105787910Y-111631118D01*
X105632039Y-111946296D01*
X105540651Y-112285826D01*
X105517259Y-112636661D01*
X104910000Y-112636661D01*
X104910000Y-112441127D01*
X104855814Y-112168718D01*
X104749525Y-111912115D01*
X104595218Y-111681178D01*
X104398822Y-111484782D01*
X104178625Y-111337651D01*
X106247256Y-111337651D01*
X107310000Y-112400395D01*
X108372744Y-111337651D01*
X108258882Y-111057910D01*
X107943704Y-110902039D01*
X107604174Y-110810651D01*
X107253339Y-110787259D01*
X106904681Y-110832760D01*
X106571600Y-110945406D01*
X106361118Y-111057910D01*
X106247256Y-111337651D01*
X104178625Y-111337651D01*
X104167885Y-111330475D01*
X103911282Y-111224186D01*
X103638873Y-111170000D01*
X103361127Y-111170000D01*
X103088718Y-111224186D01*
X102832115Y-111330475D01*
X102601178Y-111484782D01*
X102404782Y-111681178D01*
X102250475Y-111912115D01*
X102144186Y-112168718D01*
X102090000Y-112441127D01*
X96592013Y-112441127D01*
X96557240Y-112174681D01*
X96444594Y-111841600D01*
X96332090Y-111631118D01*
X96052349Y-111517256D01*
X94989605Y-112580000D01*
X94630395Y-112580000D01*
X93567651Y-111517256D01*
X93287910Y-111631118D01*
X93132039Y-111946296D01*
X93040651Y-112285826D01*
X93017259Y-112636661D01*
X92410000Y-112636661D01*
X92410000Y-112441127D01*
X92355814Y-112168718D01*
X92249525Y-111912115D01*
X92095218Y-111681178D01*
X91898822Y-111484782D01*
X91678625Y-111337651D01*
X93747256Y-111337651D01*
X94810000Y-112400395D01*
X95872744Y-111337651D01*
X95758882Y-111057910D01*
X95443704Y-110902039D01*
X95104174Y-110810651D01*
X94753339Y-110787259D01*
X94404681Y-110832760D01*
X94071600Y-110945406D01*
X93861118Y-111057910D01*
X93747256Y-111337651D01*
X91678625Y-111337651D01*
X91667885Y-111330475D01*
X91411282Y-111224186D01*
X91138873Y-111170000D01*
X90861127Y-111170000D01*
X90588718Y-111224186D01*
X90332115Y-111330475D01*
X90101178Y-111484782D01*
X89904782Y-111681178D01*
X89750475Y-111912115D01*
X89644186Y-112168718D01*
X89590000Y-112441127D01*
X82150000Y-112441127D01*
X82150000Y-107324193D01*
X84135000Y-107324193D01*
X84135000Y-107675807D01*
X84203596Y-108020665D01*
X84338153Y-108345515D01*
X84533500Y-108637871D01*
X84782129Y-108886500D01*
X85074485Y-109081847D01*
X85399335Y-109216404D01*
X85744193Y-109285000D01*
X86095807Y-109285000D01*
X86440665Y-109216404D01*
X86765515Y-109081847D01*
X87057871Y-108886500D01*
X87306500Y-108637871D01*
X87501847Y-108345515D01*
X87636404Y-108020665D01*
X87705000Y-107675807D01*
X87705000Y-107324193D01*
X87702062Y-107309419D01*
X89065000Y-107309419D01*
X89065000Y-107690581D01*
X89139361Y-108064419D01*
X89285225Y-108416566D01*
X89496987Y-108733491D01*
X89766509Y-109003013D01*
X90083434Y-109214775D01*
X90435581Y-109360639D01*
X90809419Y-109435000D01*
X91190581Y-109435000D01*
X91564419Y-109360639D01*
X91916566Y-109214775D01*
X92233491Y-109003013D01*
X92503013Y-108733491D01*
X92714775Y-108416566D01*
X92860639Y-108064419D01*
X92935000Y-107690581D01*
X92935000Y-107324193D01*
X93025000Y-107324193D01*
X93025000Y-107675807D01*
X93093596Y-108020665D01*
X93228153Y-108345515D01*
X93423500Y-108637871D01*
X93672129Y-108886500D01*
X93964485Y-109081847D01*
X94289335Y-109216404D01*
X94634193Y-109285000D01*
X94985807Y-109285000D01*
X95330665Y-109216404D01*
X95655515Y-109081847D01*
X95947871Y-108886500D01*
X96196500Y-108637871D01*
X96391847Y-108345515D01*
X96526404Y-108020665D01*
X96595000Y-107675807D01*
X96595000Y-107324193D01*
X96526404Y-106979335D01*
X96391847Y-106654485D01*
X96196500Y-106362129D01*
X95947871Y-106113500D01*
X95655515Y-105918153D01*
X95330665Y-105783596D01*
X94985807Y-105715000D01*
X94634193Y-105715000D01*
X94289335Y-105783596D01*
X93964485Y-105918153D01*
X93672129Y-106113500D01*
X93423500Y-106362129D01*
X93228153Y-106654485D01*
X93093596Y-106979335D01*
X93025000Y-107324193D01*
X92935000Y-107324193D01*
X92935000Y-107309419D01*
X92860639Y-106935581D01*
X92714775Y-106583434D01*
X92503013Y-106266509D01*
X92233491Y-105996987D01*
X91916566Y-105785225D01*
X91564419Y-105639361D01*
X91190581Y-105565000D01*
X90809419Y-105565000D01*
X90435581Y-105639361D01*
X90083434Y-105785225D01*
X89766509Y-105996987D01*
X89496987Y-106266509D01*
X89285225Y-106583434D01*
X89139361Y-106935581D01*
X89065000Y-107309419D01*
X87702062Y-107309419D01*
X87636404Y-106979335D01*
X87501847Y-106654485D01*
X87306500Y-106362129D01*
X87057871Y-106113500D01*
X86765515Y-105918153D01*
X86440665Y-105783596D01*
X86095807Y-105715000D01*
X85744193Y-105715000D01*
X85399335Y-105783596D01*
X85074485Y-105918153D01*
X84782129Y-106113500D01*
X84533500Y-106362129D01*
X84338153Y-106654485D01*
X84203596Y-106979335D01*
X84135000Y-107324193D01*
X82150000Y-107324193D01*
X82150000Y-102281127D01*
X89590000Y-102281127D01*
X89590000Y-102558873D01*
X89644186Y-102831282D01*
X89750475Y-103087885D01*
X89904782Y-103318822D01*
X90101178Y-103515218D01*
X90332115Y-103669525D01*
X90588718Y-103775814D01*
X90861127Y-103830000D01*
X91138873Y-103830000D01*
X91411282Y-103775814D01*
X91667885Y-103669525D01*
X91678624Y-103662349D01*
X93747256Y-103662349D01*
X93861118Y-103942090D01*
X94176296Y-104097961D01*
X94515826Y-104189349D01*
X94866661Y-104212741D01*
X95215319Y-104167240D01*
X95548400Y-104054594D01*
X95758882Y-103942090D01*
X95872744Y-103662349D01*
X94810000Y-102599605D01*
X93747256Y-103662349D01*
X91678624Y-103662349D01*
X91898822Y-103515218D01*
X92095218Y-103318822D01*
X92249525Y-103087885D01*
X92355814Y-102831282D01*
X92410000Y-102558873D01*
X92410000Y-102476661D01*
X93017259Y-102476661D01*
X93062760Y-102825319D01*
X93175406Y-103158400D01*
X93287910Y-103368882D01*
X93567651Y-103482744D01*
X94630395Y-102420000D01*
X94989605Y-102420000D01*
X96052349Y-103482744D01*
X96332090Y-103368882D01*
X96487961Y-103053704D01*
X96579349Y-102714174D01*
X96602741Y-102363339D01*
X96557240Y-102014681D01*
X96444594Y-101681600D01*
X96332090Y-101471118D01*
X96052349Y-101357256D01*
X94989605Y-102420000D01*
X94630395Y-102420000D01*
X93567651Y-101357256D01*
X93287910Y-101471118D01*
X93132039Y-101786296D01*
X93040651Y-102125826D01*
X93017259Y-102476661D01*
X92410000Y-102476661D01*
X92410000Y-102281127D01*
X92355814Y-102008718D01*
X92249525Y-101752115D01*
X92095218Y-101521178D01*
X91898822Y-101324782D01*
X91667885Y-101170475D01*
X91411282Y-101064186D01*
X91138873Y-101010000D01*
X90861127Y-101010000D01*
X90588718Y-101064186D01*
X90332115Y-101170475D01*
X90101178Y-101324782D01*
X89904782Y-101521178D01*
X89750475Y-101752115D01*
X89644186Y-102008718D01*
X89590000Y-102281127D01*
X82150000Y-102281127D01*
X82150000Y-101150000D01*
X84968069Y-101150000D01*
X85000000Y-101153145D01*
X85127422Y-101140595D01*
X85249948Y-101103427D01*
X85362868Y-101043070D01*
X85461843Y-100961843D01*
X85543070Y-100862868D01*
X85603427Y-100749948D01*
X85633746Y-100650000D01*
X94579083Y-100650000D01*
X94404681Y-100672760D01*
%TA.AperFunction,Conductor*%
D13*
G36*
X94404681Y-100672760D02*
G01*
X94071600Y-100785406D01*
X93861118Y-100897910D01*
X93747256Y-101177651D01*
X94810000Y-102240395D01*
X95872744Y-101177651D01*
X95758882Y-100897910D01*
X95443704Y-100742039D01*
X95104174Y-100650651D01*
X95094410Y-100650000D01*
X107079083Y-100650000D01*
X106904681Y-100672760D01*
X106571600Y-100785406D01*
X106361118Y-100897910D01*
X106247256Y-101177651D01*
X107310000Y-102240395D01*
X108372744Y-101177651D01*
X108258882Y-100897910D01*
X107943704Y-100742039D01*
X107604174Y-100650651D01*
X107594410Y-100650000D01*
X119579083Y-100650000D01*
X119404681Y-100672760D01*
X119071600Y-100785406D01*
X118861118Y-100897910D01*
X118747256Y-101177651D01*
X119810000Y-102240395D01*
X120872744Y-101177651D01*
X120758882Y-100897910D01*
X120443704Y-100742039D01*
X120104174Y-100650651D01*
X120094410Y-100650000D01*
X132079083Y-100650000D01*
X131904681Y-100672760D01*
X131571600Y-100785406D01*
X131361118Y-100897910D01*
X131247256Y-101177651D01*
X132310000Y-102240395D01*
X133372744Y-101177651D01*
X133258882Y-100897910D01*
X132943704Y-100742039D01*
X132604174Y-100650651D01*
X132594410Y-100650000D01*
X144579083Y-100650000D01*
X144404681Y-100672760D01*
X144071600Y-100785406D01*
X143861118Y-100897910D01*
X143747256Y-101177651D01*
X144810000Y-102240395D01*
X145872744Y-101177651D01*
X145758882Y-100897910D01*
X145443704Y-100742039D01*
X145104174Y-100650651D01*
X145094410Y-100650000D01*
X157079083Y-100650000D01*
X156904681Y-100672760D01*
X156571600Y-100785406D01*
X156361118Y-100897910D01*
X156247256Y-101177651D01*
X157310000Y-102240395D01*
X158372744Y-101177651D01*
X158258882Y-100897910D01*
X157943704Y-100742039D01*
X157604174Y-100650651D01*
X157594410Y-100650000D01*
X169579083Y-100650000D01*
X169404681Y-100672760D01*
X169071600Y-100785406D01*
X168861118Y-100897910D01*
X168747256Y-101177651D01*
X169810000Y-102240395D01*
X170872744Y-101177651D01*
X170758882Y-100897910D01*
X170443704Y-100742039D01*
X170104174Y-100650651D01*
X170094410Y-100650000D01*
X182079083Y-100650000D01*
X181904681Y-100672760D01*
X181571600Y-100785406D01*
X181361118Y-100897910D01*
X181247256Y-101177651D01*
X182310000Y-102240395D01*
X183372744Y-101177651D01*
X183258882Y-100897910D01*
X182943704Y-100742039D01*
X182604174Y-100650651D01*
X182594410Y-100650000D01*
X194579083Y-100650000D01*
X194404681Y-100672760D01*
X194071600Y-100785406D01*
X193861118Y-100897910D01*
X193747256Y-101177651D01*
X194810000Y-102240395D01*
X195872744Y-101177651D01*
X195758882Y-100897910D01*
X195443704Y-100742039D01*
X195104174Y-100650651D01*
X195094410Y-100650000D01*
X199350001Y-100650000D01*
X199350000Y-101468068D01*
X199346855Y-101500000D01*
X199359405Y-101627422D01*
X199396573Y-101749948D01*
X199456930Y-101862868D01*
X199538157Y-101961843D01*
X199637132Y-102043070D01*
X199750052Y-102103427D01*
X199872578Y-102140595D01*
X200000000Y-102153145D01*
X200031931Y-102150000D01*
X220850001Y-102150000D01*
X220850000Y-126350000D01*
X200325000Y-126350000D01*
X198010955Y-123264607D01*
X198037422Y-123262000D01*
X205962577Y-123262000D01*
X206000000Y-123265686D01*
X206037423Y-123262000D01*
X206037426Y-123262000D01*
X206149378Y-123250974D01*
X206293015Y-123207402D01*
X206425392Y-123136645D01*
X206541422Y-123041422D01*
X206565284Y-123012346D01*
X207169940Y-122407690D01*
X216271915Y-122407690D01*
X216329070Y-122639522D01*
X216564271Y-122748519D01*
X216816217Y-122809535D01*
X217075226Y-122820226D01*
X217331345Y-122780183D01*
X217574729Y-122690942D01*
X217670930Y-122639522D01*
X217728085Y-122407690D01*
X218771915Y-122407690D01*
X218829070Y-122639522D01*
X219064271Y-122748519D01*
X219316217Y-122809535D01*
X219575226Y-122820226D01*
X219831345Y-122780183D01*
X220074729Y-122690942D01*
X220170930Y-122639522D01*
X220228085Y-122407690D01*
X219500000Y-121679605D01*
X218771915Y-122407690D01*
X217728085Y-122407690D01*
X217000000Y-121679605D01*
X216271915Y-122407690D01*
X207169940Y-122407690D01*
X208002404Y-121575226D01*
X215679774Y-121575226D01*
X215719817Y-121831345D01*
X215809058Y-122074729D01*
X215860478Y-122170930D01*
X216092310Y-122228085D01*
X216820395Y-121500000D01*
X217179605Y-121500000D01*
X217907690Y-122228085D01*
X218139522Y-122170930D01*
X218248519Y-121935729D01*
X218252327Y-121920007D01*
X218309058Y-122074729D01*
X218360478Y-122170930D01*
X218592310Y-122228085D01*
X219320395Y-121500000D01*
X219679605Y-121500000D01*
X220407690Y-122228085D01*
X220639522Y-122170930D01*
X220748519Y-121935729D01*
X220809535Y-121683783D01*
X220820226Y-121424774D01*
X220780183Y-121168655D01*
X220690942Y-120925271D01*
X220639522Y-120829070D01*
X220407690Y-120771915D01*
X219679605Y-121500000D01*
X219320395Y-121500000D01*
X218592310Y-120771915D01*
X218360478Y-120829070D01*
X218251481Y-121064271D01*
X218247673Y-121079993D01*
X218190942Y-120925271D01*
X218139522Y-120829070D01*
X217907690Y-120771915D01*
X217179605Y-121500000D01*
X216820395Y-121500000D01*
X216092310Y-120771915D01*
X215860478Y-120829070D01*
X215751481Y-121064271D01*
X215690465Y-121316217D01*
X215679774Y-121575226D01*
X208002404Y-121575226D01*
X209815631Y-119762000D01*
X213277708Y-119762000D01*
X213234573Y-119866137D01*
X213184000Y-120120385D01*
X213184000Y-120379615D01*
X213234573Y-120633863D01*
X213333776Y-120873360D01*
X213477796Y-121088901D01*
X213661099Y-121272204D01*
X213876640Y-121416224D01*
X214116137Y-121515427D01*
X214370385Y-121566000D01*
X214629615Y-121566000D01*
X214883863Y-121515427D01*
X215123360Y-121416224D01*
X215338901Y-121272204D01*
X215522204Y-121088901D01*
X215666224Y-120873360D01*
X215765427Y-120633863D01*
X215816000Y-120379615D01*
X215816000Y-120120385D01*
X215765427Y-119866137D01*
X215722292Y-119762000D01*
X215926412Y-119762000D01*
X215977796Y-119838901D01*
X216161099Y-120022204D01*
X216376640Y-120166224D01*
X216582389Y-120251448D01*
X216425271Y-120309058D01*
X216329070Y-120360478D01*
X216271915Y-120592310D01*
X217000000Y-121320395D01*
X217728085Y-120592310D01*
X217670930Y-120360478D01*
X217435729Y-120251481D01*
X217424246Y-120248700D01*
X217623360Y-120166224D01*
X217838901Y-120022204D01*
X218022204Y-119838901D01*
X218073588Y-119762000D01*
X218426412Y-119762000D01*
X218477796Y-119838901D01*
X218661099Y-120022204D01*
X218876640Y-120166224D01*
X219082389Y-120251448D01*
X218925271Y-120309058D01*
X218829070Y-120360478D01*
X218771915Y-120592310D01*
X219500000Y-121320395D01*
X220228085Y-120592310D01*
X220170930Y-120360478D01*
X219935729Y-120251481D01*
X219924246Y-120248700D01*
X220123360Y-120166224D01*
X220338901Y-120022204D01*
X220522204Y-119838901D01*
X220666224Y-119623360D01*
X220765427Y-119383863D01*
X220816000Y-119129615D01*
X220816000Y-118870385D01*
X220765427Y-118616137D01*
X220666224Y-118376640D01*
X220522204Y-118161099D01*
X220338901Y-117977796D01*
X220123360Y-117833776D01*
X219921107Y-117750000D01*
X220123360Y-117666224D01*
X220338901Y-117522204D01*
X220522204Y-117338901D01*
X220666224Y-117123360D01*
X220765427Y-116883863D01*
X220816000Y-116629615D01*
X220816000Y-116370385D01*
X220765427Y-116116137D01*
X220666224Y-115876640D01*
X220522204Y-115661099D01*
X220338901Y-115477796D01*
X220123360Y-115333776D01*
X219921107Y-115250000D01*
X220123360Y-115166224D01*
X220338901Y-115022204D01*
X220522204Y-114838901D01*
X220666224Y-114623360D01*
X220765427Y-114383863D01*
X220816000Y-114129615D01*
X220816000Y-113870385D01*
X220765427Y-113616137D01*
X220666224Y-113376640D01*
X220522204Y-113161099D01*
X220338901Y-112977796D01*
X220123360Y-112833776D01*
X219921107Y-112750000D01*
X220123360Y-112666224D01*
X220338901Y-112522204D01*
X220522204Y-112338901D01*
X220666224Y-112123360D01*
X220765427Y-111883863D01*
X220816000Y-111629615D01*
X220816000Y-111370385D01*
X220765427Y-111116137D01*
X220666224Y-110876640D01*
X220522204Y-110661099D01*
X220338901Y-110477796D01*
X220123360Y-110333776D01*
X219921107Y-110250000D01*
X220123360Y-110166224D01*
X220338901Y-110022204D01*
X220522204Y-109838901D01*
X220666224Y-109623360D01*
X220765427Y-109383863D01*
X220816000Y-109129615D01*
X220816000Y-108870385D01*
X220765427Y-108616137D01*
X220666224Y-108376640D01*
X220522204Y-108161099D01*
X220338901Y-107977796D01*
X220123360Y-107833776D01*
X219921107Y-107750000D01*
X220123360Y-107666224D01*
X220338901Y-107522204D01*
X220522204Y-107338901D01*
X220666224Y-107123360D01*
X220765427Y-106883863D01*
X220816000Y-106629615D01*
X220816000Y-106370385D01*
X220765427Y-106116137D01*
X220666224Y-105876640D01*
X220522204Y-105661099D01*
X220338901Y-105477796D01*
X220123360Y-105333776D01*
X219883863Y-105234573D01*
X219629615Y-105184000D01*
X219370385Y-105184000D01*
X219116137Y-105234573D01*
X218876640Y-105333776D01*
X218661099Y-105477796D01*
X218477796Y-105661099D01*
X218426412Y-105738000D01*
X218073588Y-105738000D01*
X218022204Y-105661099D01*
X217838901Y-105477796D01*
X217623360Y-105333776D01*
X217383863Y-105234573D01*
X217129615Y-105184000D01*
X216870385Y-105184000D01*
X216616137Y-105234573D01*
X216376640Y-105333776D01*
X216161099Y-105477796D01*
X215977796Y-105661099D01*
X215833776Y-105876640D01*
X215734573Y-106116137D01*
X215684000Y-106370385D01*
X215684000Y-106629615D01*
X215734573Y-106883863D01*
X215833776Y-107123360D01*
X215977796Y-107338901D01*
X216161099Y-107522204D01*
X216376640Y-107666224D01*
X216578893Y-107750000D01*
X216376640Y-107833776D01*
X216161099Y-107977796D01*
X215977796Y-108161099D01*
X215926412Y-108238000D01*
X215722292Y-108238000D01*
X215765427Y-108133863D01*
X215816000Y-107879615D01*
X215816000Y-107620385D01*
X215765427Y-107366137D01*
X215666224Y-107126640D01*
X215522204Y-106911099D01*
X215338901Y-106727796D01*
X215123360Y-106583776D01*
X214883863Y-106484573D01*
X214629615Y-106434000D01*
X214370385Y-106434000D01*
X214116137Y-106484573D01*
X213876640Y-106583776D01*
X213661099Y-106727796D01*
X213477796Y-106911099D01*
X213426412Y-106988000D01*
X210065631Y-106988000D01*
X207065284Y-103987654D01*
X207041422Y-103958578D01*
X206925392Y-103863355D01*
X206793015Y-103792598D01*
X206649378Y-103749026D01*
X206537426Y-103738000D01*
X206537423Y-103738000D01*
X206500000Y-103734314D01*
X206462577Y-103738000D01*
X195841952Y-103738000D01*
X195872744Y-103662349D01*
X194810000Y-102599605D01*
X193747256Y-103662349D01*
X193778048Y-103738000D01*
X191502573Y-103738000D01*
X191667885Y-103669525D01*
X191898822Y-103515218D01*
X192095218Y-103318822D01*
X192249525Y-103087885D01*
X192355814Y-102831282D01*
X192410000Y-102558873D01*
X192410000Y-102476661D01*
X193017259Y-102476661D01*
X193062760Y-102825319D01*
X193175406Y-103158400D01*
X193287910Y-103368882D01*
X193567651Y-103482744D01*
X194630395Y-102420000D01*
X194989605Y-102420000D01*
X196052349Y-103482744D01*
X196332090Y-103368882D01*
X196487961Y-103053704D01*
X196579349Y-102714174D01*
X196602741Y-102363339D01*
X196557240Y-102014681D01*
X196444594Y-101681600D01*
X196332090Y-101471118D01*
X196052349Y-101357256D01*
X194989605Y-102420000D01*
X194630395Y-102420000D01*
X193567651Y-101357256D01*
X193287910Y-101471118D01*
X193132039Y-101786296D01*
X193040651Y-102125826D01*
X193017259Y-102476661D01*
X192410000Y-102476661D01*
X192410000Y-102281127D01*
X192355814Y-102008718D01*
X192249525Y-101752115D01*
X192095218Y-101521178D01*
X191898822Y-101324782D01*
X191667885Y-101170475D01*
X191411282Y-101064186D01*
X191138873Y-101010000D01*
X190861127Y-101010000D01*
X190588718Y-101064186D01*
X190332115Y-101170475D01*
X190101178Y-101324782D01*
X189904782Y-101521178D01*
X189750475Y-101752115D01*
X189644186Y-102008718D01*
X189590000Y-102281127D01*
X189590000Y-102558873D01*
X189644186Y-102831282D01*
X189750475Y-103087885D01*
X189904782Y-103318822D01*
X190101178Y-103515218D01*
X190332115Y-103669525D01*
X190497427Y-103738000D01*
X183341952Y-103738000D01*
X183372744Y-103662349D01*
X182310000Y-102599605D01*
X181247256Y-103662349D01*
X181278048Y-103738000D01*
X179002573Y-103738000D01*
X179167885Y-103669525D01*
X179398822Y-103515218D01*
X179595218Y-103318822D01*
X179749525Y-103087885D01*
X179855814Y-102831282D01*
X179910000Y-102558873D01*
X179910000Y-102476661D01*
X180517259Y-102476661D01*
X180562760Y-102825319D01*
X180675406Y-103158400D01*
X180787910Y-103368882D01*
X181067651Y-103482744D01*
X182130395Y-102420000D01*
X182489605Y-102420000D01*
X183552349Y-103482744D01*
X183832090Y-103368882D01*
X183987961Y-103053704D01*
X184079349Y-102714174D01*
X184102741Y-102363339D01*
X184057240Y-102014681D01*
X183944594Y-101681600D01*
X183832090Y-101471118D01*
X183552349Y-101357256D01*
X182489605Y-102420000D01*
X182130395Y-102420000D01*
X181067651Y-101357256D01*
X180787910Y-101471118D01*
X180632039Y-101786296D01*
X180540651Y-102125826D01*
X180517259Y-102476661D01*
X179910000Y-102476661D01*
X179910000Y-102281127D01*
X179855814Y-102008718D01*
X179749525Y-101752115D01*
X179595218Y-101521178D01*
X179398822Y-101324782D01*
X179167885Y-101170475D01*
X178911282Y-101064186D01*
X178638873Y-101010000D01*
X178361127Y-101010000D01*
X178088718Y-101064186D01*
X177832115Y-101170475D01*
X177601178Y-101324782D01*
X177404782Y-101521178D01*
X177250475Y-101752115D01*
X177144186Y-102008718D01*
X177090000Y-102281127D01*
X177090000Y-102558873D01*
X177144186Y-102831282D01*
X177250475Y-103087885D01*
X177404782Y-103318822D01*
X177601178Y-103515218D01*
X177832115Y-103669525D01*
X177997427Y-103738000D01*
X170841952Y-103738000D01*
X170872744Y-103662349D01*
X169810000Y-102599605D01*
X168747256Y-103662349D01*
X168778048Y-103738000D01*
X166502573Y-103738000D01*
X166667885Y-103669525D01*
X166898822Y-103515218D01*
X167095218Y-103318822D01*
X167249525Y-103087885D01*
X167355814Y-102831282D01*
X167410000Y-102558873D01*
X167410000Y-102476661D01*
X168017259Y-102476661D01*
X168062760Y-102825319D01*
X168175406Y-103158400D01*
X168287910Y-103368882D01*
X168567651Y-103482744D01*
X169630395Y-102420000D01*
X169989605Y-102420000D01*
X171052349Y-103482744D01*
X171332090Y-103368882D01*
X171487961Y-103053704D01*
X171579349Y-102714174D01*
X171602741Y-102363339D01*
X171557240Y-102014681D01*
X171444594Y-101681600D01*
X171332090Y-101471118D01*
X171052349Y-101357256D01*
X169989605Y-102420000D01*
X169630395Y-102420000D01*
X168567651Y-101357256D01*
X168287910Y-101471118D01*
X168132039Y-101786296D01*
X168040651Y-102125826D01*
X168017259Y-102476661D01*
X167410000Y-102476661D01*
X167410000Y-102281127D01*
X167355814Y-102008718D01*
X167249525Y-101752115D01*
X167095218Y-101521178D01*
X166898822Y-101324782D01*
X166667885Y-101170475D01*
X166411282Y-101064186D01*
X166138873Y-101010000D01*
X165861127Y-101010000D01*
X165588718Y-101064186D01*
X165332115Y-101170475D01*
X165101178Y-101324782D01*
X164904782Y-101521178D01*
X164750475Y-101752115D01*
X164644186Y-102008718D01*
X164590000Y-102281127D01*
X164590000Y-102558873D01*
X164644186Y-102831282D01*
X164750475Y-103087885D01*
X164904782Y-103318822D01*
X165101178Y-103515218D01*
X165332115Y-103669525D01*
X165497427Y-103738000D01*
X163957423Y-103738000D01*
X163920000Y-103734314D01*
X163882577Y-103738000D01*
X163882574Y-103738000D01*
X163770622Y-103749026D01*
X163626985Y-103792598D01*
X163565364Y-103825535D01*
X163494607Y-103863355D01*
X163452219Y-103898143D01*
X163378578Y-103958578D01*
X163354716Y-103987654D01*
X161524181Y-105818189D01*
X161440665Y-105783596D01*
X161095807Y-105715000D01*
X160744193Y-105715000D01*
X160399335Y-105783596D01*
X160315819Y-105818189D01*
X158485284Y-103987654D01*
X158461422Y-103958578D01*
X158345392Y-103863355D01*
X158300661Y-103839446D01*
X158372744Y-103662349D01*
X157310000Y-102599605D01*
X156247256Y-103662349D01*
X156278048Y-103738000D01*
X154002573Y-103738000D01*
X154167885Y-103669525D01*
X154398822Y-103515218D01*
X154595218Y-103318822D01*
X154749525Y-103087885D01*
X154855814Y-102831282D01*
X154910000Y-102558873D01*
X154910000Y-102476661D01*
X155517259Y-102476661D01*
X155562760Y-102825319D01*
X155675406Y-103158400D01*
X155787910Y-103368882D01*
X156067651Y-103482744D01*
X157130395Y-102420000D01*
X157489605Y-102420000D01*
X158552349Y-103482744D01*
X158832090Y-103368882D01*
X158987961Y-103053704D01*
X159079349Y-102714174D01*
X159102741Y-102363339D01*
X159057240Y-102014681D01*
X158944594Y-101681600D01*
X158832090Y-101471118D01*
X158552349Y-101357256D01*
X157489605Y-102420000D01*
X157130395Y-102420000D01*
X156067651Y-101357256D01*
X155787910Y-101471118D01*
X155632039Y-101786296D01*
X155540651Y-102125826D01*
X155517259Y-102476661D01*
X154910000Y-102476661D01*
X154910000Y-102281127D01*
X154855814Y-102008718D01*
X154749525Y-101752115D01*
X154595218Y-101521178D01*
X154398822Y-101324782D01*
X154167885Y-101170475D01*
X153911282Y-101064186D01*
X153638873Y-101010000D01*
X153361127Y-101010000D01*
X153088718Y-101064186D01*
X152832115Y-101170475D01*
X152601178Y-101324782D01*
X152404782Y-101521178D01*
X152250475Y-101752115D01*
X152144186Y-102008718D01*
X152090000Y-102281127D01*
X152090000Y-102558873D01*
X152144186Y-102831282D01*
X152250475Y-103087885D01*
X152404782Y-103318822D01*
X152601178Y-103515218D01*
X152832115Y-103669525D01*
X152997427Y-103738000D01*
X145841952Y-103738000D01*
X145872744Y-103662349D01*
X144810000Y-102599605D01*
X143747256Y-103662349D01*
X143778048Y-103738000D01*
X141502573Y-103738000D01*
X141667885Y-103669525D01*
X141898822Y-103515218D01*
X142095218Y-103318822D01*
X142249525Y-103087885D01*
X142355814Y-102831282D01*
X142410000Y-102558873D01*
X142410000Y-102476661D01*
X143017259Y-102476661D01*
X143062760Y-102825319D01*
X143175406Y-103158400D01*
X143287910Y-103368882D01*
X143567651Y-103482744D01*
X144630395Y-102420000D01*
X144989605Y-102420000D01*
X146052349Y-103482744D01*
X146332090Y-103368882D01*
X146487961Y-103053704D01*
X146579349Y-102714174D01*
X146602741Y-102363339D01*
X146557240Y-102014681D01*
X146444594Y-101681600D01*
X146332090Y-101471118D01*
X146052349Y-101357256D01*
X144989605Y-102420000D01*
X144630395Y-102420000D01*
X143567651Y-101357256D01*
X143287910Y-101471118D01*
X143132039Y-101786296D01*
X143040651Y-102125826D01*
X143017259Y-102476661D01*
X142410000Y-102476661D01*
X142410000Y-102281127D01*
X142355814Y-102008718D01*
X142249525Y-101752115D01*
X142095218Y-101521178D01*
X141898822Y-101324782D01*
X141667885Y-101170475D01*
X141411282Y-101064186D01*
X141138873Y-101010000D01*
X140861127Y-101010000D01*
X140588718Y-101064186D01*
X140332115Y-101170475D01*
X140101178Y-101324782D01*
X139904782Y-101521178D01*
X139750475Y-101752115D01*
X139644186Y-102008718D01*
X139590000Y-102281127D01*
X139590000Y-102558873D01*
X139644186Y-102831282D01*
X139750475Y-103087885D01*
X139904782Y-103318822D01*
X140101178Y-103515218D01*
X140332115Y-103669525D01*
X140497427Y-103738000D01*
X133341952Y-103738000D01*
X133372744Y-103662349D01*
X132310000Y-102599605D01*
X131247256Y-103662349D01*
X131278048Y-103738000D01*
X129002573Y-103738000D01*
X129167885Y-103669525D01*
X129398822Y-103515218D01*
X129595218Y-103318822D01*
X129749525Y-103087885D01*
X129855814Y-102831282D01*
X129910000Y-102558873D01*
X129910000Y-102476661D01*
X130517259Y-102476661D01*
X130562760Y-102825319D01*
X130675406Y-103158400D01*
X130787910Y-103368882D01*
X131067651Y-103482744D01*
X132130395Y-102420000D01*
X132489605Y-102420000D01*
X133552349Y-103482744D01*
X133832090Y-103368882D01*
X133987961Y-103053704D01*
X134079349Y-102714174D01*
X134102741Y-102363339D01*
X134057240Y-102014681D01*
X133944594Y-101681600D01*
X133832090Y-101471118D01*
X133552349Y-101357256D01*
X132489605Y-102420000D01*
X132130395Y-102420000D01*
X131067651Y-101357256D01*
X130787910Y-101471118D01*
X130632039Y-101786296D01*
X130540651Y-102125826D01*
X130517259Y-102476661D01*
X129910000Y-102476661D01*
X129910000Y-102281127D01*
X129855814Y-102008718D01*
X129749525Y-101752115D01*
X129595218Y-101521178D01*
X129398822Y-101324782D01*
X129167885Y-101170475D01*
X128911282Y-101064186D01*
X128638873Y-101010000D01*
X128361127Y-101010000D01*
X128088718Y-101064186D01*
X127832115Y-101170475D01*
X127601178Y-101324782D01*
X127404782Y-101521178D01*
X127250475Y-101752115D01*
X127144186Y-102008718D01*
X127090000Y-102281127D01*
X127090000Y-102558873D01*
X127144186Y-102831282D01*
X127250475Y-103087885D01*
X127404782Y-103318822D01*
X127601178Y-103515218D01*
X127832115Y-103669525D01*
X127997427Y-103738000D01*
X126457423Y-103738000D01*
X126420000Y-103734314D01*
X126382577Y-103738000D01*
X126382574Y-103738000D01*
X126270622Y-103749026D01*
X126126985Y-103792598D01*
X126065364Y-103825535D01*
X125994607Y-103863355D01*
X125952219Y-103898143D01*
X125878578Y-103958578D01*
X125854716Y-103987654D01*
X124024181Y-105818189D01*
X123940665Y-105783596D01*
X123595807Y-105715000D01*
X123244193Y-105715000D01*
X122899335Y-105783596D01*
X122574485Y-105918153D01*
X122282129Y-106113500D01*
X122033500Y-106362129D01*
X122027430Y-106371213D01*
X122012346Y-106358834D01*
X119866224Y-104212712D01*
X119866661Y-104212741D01*
X120215319Y-104167240D01*
X120548400Y-104054594D01*
X120758882Y-103942090D01*
X120872744Y-103662349D01*
X119810000Y-102599605D01*
X118747256Y-103662349D01*
X118778048Y-103738000D01*
X116502573Y-103738000D01*
X116667885Y-103669525D01*
X116898822Y-103515218D01*
X117095218Y-103318822D01*
X117249525Y-103087885D01*
X117355814Y-102831282D01*
X117410000Y-102558873D01*
X117410000Y-102476661D01*
X118017259Y-102476661D01*
X118062760Y-102825319D01*
X118175406Y-103158400D01*
X118287910Y-103368882D01*
X118567651Y-103482744D01*
X119630395Y-102420000D01*
X119989605Y-102420000D01*
X121052349Y-103482744D01*
X121332090Y-103368882D01*
X121487961Y-103053704D01*
X121579349Y-102714174D01*
X121602741Y-102363339D01*
X121557240Y-102014681D01*
X121444594Y-101681600D01*
X121332090Y-101471118D01*
X121052349Y-101357256D01*
X119989605Y-102420000D01*
X119630395Y-102420000D01*
X118567651Y-101357256D01*
X118287910Y-101471118D01*
X118132039Y-101786296D01*
X118040651Y-102125826D01*
X118017259Y-102476661D01*
X117410000Y-102476661D01*
X117410000Y-102281127D01*
X117355814Y-102008718D01*
X117249525Y-101752115D01*
X117095218Y-101521178D01*
X116898822Y-101324782D01*
X116667885Y-101170475D01*
X116411282Y-101064186D01*
X116138873Y-101010000D01*
X115861127Y-101010000D01*
X115588718Y-101064186D01*
X115332115Y-101170475D01*
X115101178Y-101324782D01*
X114904782Y-101521178D01*
X114750475Y-101752115D01*
X114644186Y-102008718D01*
X114590000Y-102281127D01*
X114590000Y-102558873D01*
X114644186Y-102831282D01*
X114750475Y-103087885D01*
X114904782Y-103318822D01*
X115101178Y-103515218D01*
X115332115Y-103669525D01*
X115497427Y-103738000D01*
X108341952Y-103738000D01*
X108372744Y-103662349D01*
X107310000Y-102599605D01*
X106247256Y-103662349D01*
X106278048Y-103738000D01*
X104002573Y-103738000D01*
X104167885Y-103669525D01*
X104398822Y-103515218D01*
X104595218Y-103318822D01*
X104749525Y-103087885D01*
X104855814Y-102831282D01*
X104910000Y-102558873D01*
X104910000Y-102476661D01*
X105517259Y-102476661D01*
X105562760Y-102825319D01*
X105675406Y-103158400D01*
X105787910Y-103368882D01*
X106067651Y-103482744D01*
X107130395Y-102420000D01*
X107489605Y-102420000D01*
X108552349Y-103482744D01*
X108832090Y-103368882D01*
X108987961Y-103053704D01*
X109079349Y-102714174D01*
X109102741Y-102363339D01*
X109057240Y-102014681D01*
X108944594Y-101681600D01*
X108832090Y-101471118D01*
X108552349Y-101357256D01*
X107489605Y-102420000D01*
X107130395Y-102420000D01*
X106067651Y-101357256D01*
X105787910Y-101471118D01*
X105632039Y-101786296D01*
X105540651Y-102125826D01*
X105517259Y-102476661D01*
X104910000Y-102476661D01*
X104910000Y-102281127D01*
X104855814Y-102008718D01*
X104749525Y-101752115D01*
X104595218Y-101521178D01*
X104398822Y-101324782D01*
X104167885Y-101170475D01*
X103911282Y-101064186D01*
X103638873Y-101010000D01*
X103361127Y-101010000D01*
X103088718Y-101064186D01*
X102832115Y-101170475D01*
X102601178Y-101324782D01*
X102404782Y-101521178D01*
X102250475Y-101752115D01*
X102144186Y-102008718D01*
X102090000Y-102281127D01*
X102090000Y-102558873D01*
X102144186Y-102831282D01*
X102250475Y-103087885D01*
X102404782Y-103318822D01*
X102601178Y-103515218D01*
X102832115Y-103669525D01*
X102997427Y-103738000D01*
X101457423Y-103738000D01*
X101420000Y-103734314D01*
X101382577Y-103738000D01*
X101382574Y-103738000D01*
X101270622Y-103749026D01*
X101126985Y-103792598D01*
X101065364Y-103825535D01*
X100994607Y-103863355D01*
X100952219Y-103898143D01*
X100878578Y-103958578D01*
X100854716Y-103987654D01*
X99024181Y-105818189D01*
X98940665Y-105783596D01*
X98595807Y-105715000D01*
X98244193Y-105715000D01*
X97899335Y-105783596D01*
X97574485Y-105918153D01*
X97282129Y-106113500D01*
X97033500Y-106362129D01*
X96838153Y-106654485D01*
X96703596Y-106979335D01*
X96635000Y-107324193D01*
X96635000Y-107675807D01*
X96703596Y-108020665D01*
X96838153Y-108345515D01*
X97033500Y-108637871D01*
X97282129Y-108886500D01*
X97574485Y-109081847D01*
X97899335Y-109216404D01*
X98244193Y-109285000D01*
X98595807Y-109285000D01*
X98940665Y-109216404D01*
X99265515Y-109081847D01*
X99557871Y-108886500D01*
X99806500Y-108637871D01*
X100001847Y-108345515D01*
X100136404Y-108020665D01*
X100205000Y-107675807D01*
X100205000Y-107324193D01*
X100202062Y-107309419D01*
X101565000Y-107309419D01*
X101565000Y-107690581D01*
X101639361Y-108064419D01*
X101785225Y-108416566D01*
X101996987Y-108733491D01*
X102266509Y-109003013D01*
X102583434Y-109214775D01*
X102935581Y-109360639D01*
X103309419Y-109435000D01*
X103690581Y-109435000D01*
X104064419Y-109360639D01*
X104416566Y-109214775D01*
X104733491Y-109003013D01*
X105003013Y-108733491D01*
X105214775Y-108416566D01*
X105360639Y-108064419D01*
X105435000Y-107690581D01*
X105435000Y-107324193D01*
X105525000Y-107324193D01*
X105525000Y-107675807D01*
X105593596Y-108020665D01*
X105728153Y-108345515D01*
X105923500Y-108637871D01*
X106172129Y-108886500D01*
X106464485Y-109081847D01*
X106789335Y-109216404D01*
X107134193Y-109285000D01*
X107485807Y-109285000D01*
X107830665Y-109216404D01*
X108155515Y-109081847D01*
X108447871Y-108886500D01*
X108696500Y-108637871D01*
X108891847Y-108345515D01*
X109026404Y-108020665D01*
X109095000Y-107675807D01*
X109095000Y-107324193D01*
X109135000Y-107324193D01*
X109135000Y-107675807D01*
X109203596Y-108020665D01*
X109338153Y-108345515D01*
X109533500Y-108637871D01*
X109782129Y-108886500D01*
X110074485Y-109081847D01*
X110399335Y-109216404D01*
X110744193Y-109285000D01*
X111095807Y-109285000D01*
X111440665Y-109216404D01*
X111765515Y-109081847D01*
X112057871Y-108886500D01*
X112306500Y-108637871D01*
X112501847Y-108345515D01*
X112636404Y-108020665D01*
X112705000Y-107675807D01*
X112705000Y-107324193D01*
X112702062Y-107309419D01*
X114065000Y-107309419D01*
X114065000Y-107690581D01*
X114139361Y-108064419D01*
X114285225Y-108416566D01*
X114496987Y-108733491D01*
X114766509Y-109003013D01*
X115083434Y-109214775D01*
X115435581Y-109360639D01*
X115809419Y-109435000D01*
X116190581Y-109435000D01*
X116564419Y-109360639D01*
X116916566Y-109214775D01*
X117233491Y-109003013D01*
X117503013Y-108733491D01*
X117714775Y-108416566D01*
X117860639Y-108064419D01*
X117935000Y-107690581D01*
X117935000Y-107309419D01*
X117860639Y-106935581D01*
X117714775Y-106583434D01*
X117503013Y-106266509D01*
X117233491Y-105996987D01*
X116916566Y-105785225D01*
X116564419Y-105639361D01*
X116190581Y-105565000D01*
X115809419Y-105565000D01*
X115435581Y-105639361D01*
X115083434Y-105785225D01*
X114766509Y-105996987D01*
X114496987Y-106266509D01*
X114285225Y-106583434D01*
X114139361Y-106935581D01*
X114065000Y-107309419D01*
X112702062Y-107309419D01*
X112636404Y-106979335D01*
X112501847Y-106654485D01*
X112306500Y-106362129D01*
X112057871Y-106113500D01*
X111765515Y-105918153D01*
X111440665Y-105783596D01*
X111095807Y-105715000D01*
X110744193Y-105715000D01*
X110399335Y-105783596D01*
X110074485Y-105918153D01*
X109782129Y-106113500D01*
X109533500Y-106362129D01*
X109338153Y-106654485D01*
X109203596Y-106979335D01*
X109135000Y-107324193D01*
X109095000Y-107324193D01*
X109026404Y-106979335D01*
X108891847Y-106654485D01*
X108696500Y-106362129D01*
X108447871Y-106113500D01*
X108155515Y-105918153D01*
X107830665Y-105783596D01*
X107485807Y-105715000D01*
X107134193Y-105715000D01*
X106789335Y-105783596D01*
X106464485Y-105918153D01*
X106172129Y-106113500D01*
X105923500Y-106362129D01*
X105728153Y-106654485D01*
X105593596Y-106979335D01*
X105525000Y-107324193D01*
X105435000Y-107324193D01*
X105435000Y-107309419D01*
X105360639Y-106935581D01*
X105214775Y-106583434D01*
X105003013Y-106266509D01*
X104733491Y-105996987D01*
X104416566Y-105785225D01*
X104064419Y-105639361D01*
X103690581Y-105565000D01*
X103309419Y-105565000D01*
X102935581Y-105639361D01*
X102583434Y-105785225D01*
X102266509Y-105996987D01*
X101996987Y-106266509D01*
X101785225Y-106583434D01*
X101639361Y-106935581D01*
X101565000Y-107309419D01*
X100202062Y-107309419D01*
X100136404Y-106979335D01*
X100101811Y-106895819D01*
X101735630Y-105262000D01*
X118760252Y-105262000D01*
X119284041Y-105785789D01*
X118964485Y-105918153D01*
X118672129Y-106113500D01*
X118423500Y-106362129D01*
X118228153Y-106654485D01*
X118093596Y-106979335D01*
X118025000Y-107324193D01*
X118025000Y-107675807D01*
X118093596Y-108020665D01*
X118228153Y-108345515D01*
X118423500Y-108637871D01*
X118672129Y-108886500D01*
X118964485Y-109081847D01*
X119289335Y-109216404D01*
X119634193Y-109285000D01*
X119985807Y-109285000D01*
X120330665Y-109216404D01*
X120414181Y-109181811D01*
X127752730Y-116520361D01*
X127776588Y-116549432D01*
X127892618Y-116644655D01*
X128024995Y-116715412D01*
X128168632Y-116758984D01*
X128280584Y-116770010D01*
X128280586Y-116770010D01*
X128318009Y-116773696D01*
X128355432Y-116770010D01*
X191192380Y-116770010D01*
X194772369Y-120350000D01*
X189769238Y-120350000D01*
X186982198Y-117562960D01*
X186961843Y-117538157D01*
X186862868Y-117456930D01*
X186749948Y-117396573D01*
X186627422Y-117359405D01*
X186531932Y-117350000D01*
X186531921Y-117350000D01*
X186500000Y-117346856D01*
X186468079Y-117350000D01*
X167531583Y-117350000D01*
X167499316Y-117346856D01*
X167436831Y-117353077D01*
X167372578Y-117359405D01*
X167372243Y-117359507D01*
X167371907Y-117359540D01*
X167311562Y-117377914D01*
X167250052Y-117396573D01*
X167249748Y-117396735D01*
X167249421Y-117396835D01*
X167193410Y-117426849D01*
X167137132Y-117456930D01*
X167136866Y-117457148D01*
X167136564Y-117457310D01*
X167087302Y-117497824D01*
X167038157Y-117538157D01*
X167037940Y-117538421D01*
X167037673Y-117538641D01*
X166997132Y-117588146D01*
X166956930Y-117637132D01*
X166941646Y-117665727D01*
X165463005Y-119883689D01*
X164969768Y-119289102D01*
X164946123Y-119267046D01*
X163750225Y-118407858D01*
X163720321Y-118391938D01*
X162187715Y-117823016D01*
X162173220Y-117818599D01*
X162148560Y-117815177D01*
X160395352Y-117745513D01*
X160360194Y-117749035D01*
X158885641Y-118108965D01*
X158853050Y-118121904D01*
X157482993Y-118899818D01*
X157455897Y-118920454D01*
X156585098Y-119791253D01*
X156568106Y-119812326D01*
X156222078Y-120350000D01*
X153804443Y-120350000D01*
X151500948Y-117585806D01*
X151461843Y-117538157D01*
X151435146Y-117516247D01*
X151410545Y-117492013D01*
X151385781Y-117475735D01*
X151362868Y-117456930D01*
X151332402Y-117440646D01*
X151303552Y-117421681D01*
X151276095Y-117410549D01*
X151249948Y-117396573D01*
X151216890Y-117386545D01*
X151184895Y-117373573D01*
X151155792Y-117368011D01*
X151127422Y-117359405D01*
X151093044Y-117356019D01*
X151059132Y-117349538D01*
X150997644Y-117350000D01*
X135502356Y-117350000D01*
X135440867Y-117349538D01*
X135406954Y-117356019D01*
X135372578Y-117359405D01*
X135344209Y-117368011D01*
X135315104Y-117373573D01*
X135283104Y-117386547D01*
X135250052Y-117396573D01*
X135223914Y-117410544D01*
X135196447Y-117421680D01*
X135167587Y-117440652D01*
X135137132Y-117456930D01*
X135114224Y-117475730D01*
X135089454Y-117492013D01*
X135064848Y-117516252D01*
X135038157Y-117538157D01*
X134999116Y-117585728D01*
X132695556Y-120350000D01*
X112609476Y-120350000D01*
X112087748Y-119488016D01*
X112068903Y-119463974D01*
X111082462Y-118477533D01*
X111059707Y-118459477D01*
X109822476Y-117690387D01*
X109789671Y-117675950D01*
X108535721Y-117324844D01*
X108510020Y-117320428D01*
X107021999Y-117220112D01*
X106987847Y-117222433D01*
X105850932Y-117456504D01*
X105824426Y-117465081D01*
X104821265Y-117916503D01*
X104803294Y-117926408D01*
X103666379Y-118678778D01*
X103639817Y-118702298D01*
X103401316Y-118982078D01*
X101982198Y-117562960D01*
X101961843Y-117538157D01*
X101862868Y-117456930D01*
X101749948Y-117396573D01*
X101627422Y-117359405D01*
X101531932Y-117350000D01*
X101531921Y-117350000D01*
X101500000Y-117346856D01*
X101468079Y-117350000D01*
X85677185Y-117350000D01*
X85676982Y-117348318D01*
X85671493Y-117323700D01*
X85276731Y-116127803D01*
X85265659Y-116103325D01*
X84638684Y-115035145D01*
X84624828Y-115015909D01*
X83986242Y-114284438D01*
X83964890Y-114264977D01*
X82838656Y-113452231D01*
X82812627Y-113437754D01*
X82150000Y-113165341D01*
X82150000Y-112441127D01*
X89590000Y-112441127D01*
X89590000Y-112718873D01*
X89644186Y-112991282D01*
X89750475Y-113247885D01*
X89904782Y-113478822D01*
X90101178Y-113675218D01*
X90332115Y-113829525D01*
X90588718Y-113935814D01*
X90861127Y-113990000D01*
X91138873Y-113990000D01*
X91411282Y-113935814D01*
X91667885Y-113829525D01*
X91678624Y-113822349D01*
X93747256Y-113822349D01*
X93861118Y-114102090D01*
X94176296Y-114257961D01*
X94515826Y-114349349D01*
X94866661Y-114372741D01*
X95215319Y-114327240D01*
X95548400Y-114214594D01*
X95758882Y-114102090D01*
X95872744Y-113822349D01*
X94810000Y-112759605D01*
X93747256Y-113822349D01*
X91678624Y-113822349D01*
X91898822Y-113675218D01*
X92095218Y-113478822D01*
X92249525Y-113247885D01*
X92355814Y-112991282D01*
X92410000Y-112718873D01*
X92410000Y-112636661D01*
X93017259Y-112636661D01*
X93062760Y-112985319D01*
X93175406Y-113318400D01*
X93287910Y-113528882D01*
X93567651Y-113642744D01*
X94630395Y-112580000D01*
X94989605Y-112580000D01*
X96052349Y-113642744D01*
X96332090Y-113528882D01*
X96487961Y-113213704D01*
X96579349Y-112874174D01*
X96602741Y-112523339D01*
X96592013Y-112441127D01*
X102090000Y-112441127D01*
X102090000Y-112718873D01*
X102144186Y-112991282D01*
X102250475Y-113247885D01*
X102404782Y-113478822D01*
X102601178Y-113675218D01*
X102832115Y-113829525D01*
X103088718Y-113935814D01*
X103361127Y-113990000D01*
X103638873Y-113990000D01*
X103911282Y-113935814D01*
X104167885Y-113829525D01*
X104178624Y-113822349D01*
X106247256Y-113822349D01*
X106361118Y-114102090D01*
X106676296Y-114257961D01*
X107015826Y-114349349D01*
X107366661Y-114372741D01*
X107715319Y-114327240D01*
X108048400Y-114214594D01*
X108258882Y-114102090D01*
X108372744Y-113822349D01*
X107310000Y-112759605D01*
X106247256Y-113822349D01*
X104178624Y-113822349D01*
X104398822Y-113675218D01*
X104595218Y-113478822D01*
X104749525Y-113247885D01*
X104855814Y-112991282D01*
X104910000Y-112718873D01*
X104910000Y-112636661D01*
X105517259Y-112636661D01*
X105562760Y-112985319D01*
X105675406Y-113318400D01*
X105787910Y-113528882D01*
X106067651Y-113642744D01*
X107130395Y-112580000D01*
X107489605Y-112580000D01*
X108552349Y-113642744D01*
X108832090Y-113528882D01*
X108987961Y-113213704D01*
X109079349Y-112874174D01*
X109102741Y-112523339D01*
X109092013Y-112441127D01*
X114590000Y-112441127D01*
X114590000Y-112718873D01*
X114644186Y-112991282D01*
X114750475Y-113247885D01*
X114904782Y-113478822D01*
X115101178Y-113675218D01*
X115332115Y-113829525D01*
X115588718Y-113935814D01*
X115861127Y-113990000D01*
X116138873Y-113990000D01*
X116411282Y-113935814D01*
X116667885Y-113829525D01*
X116678624Y-113822349D01*
X118747256Y-113822349D01*
X118861118Y-114102090D01*
X119176296Y-114257961D01*
X119515826Y-114349349D01*
X119866661Y-114372741D01*
X120215319Y-114327240D01*
X120548400Y-114214594D01*
X120758882Y-114102090D01*
X120872744Y-113822349D01*
X119810000Y-112759605D01*
X118747256Y-113822349D01*
X116678624Y-113822349D01*
X116898822Y-113675218D01*
X117095218Y-113478822D01*
X117249525Y-113247885D01*
X117355814Y-112991282D01*
X117410000Y-112718873D01*
X117410000Y-112636661D01*
X118017259Y-112636661D01*
X118062760Y-112985319D01*
X118175406Y-113318400D01*
X118287910Y-113528882D01*
X118567651Y-113642744D01*
X119630395Y-112580000D01*
X119989605Y-112580000D01*
X121052349Y-113642744D01*
X121332090Y-113528882D01*
X121487961Y-113213704D01*
X121579349Y-112874174D01*
X121602741Y-112523339D01*
X121557240Y-112174681D01*
X121444594Y-111841600D01*
X121332090Y-111631118D01*
X121052349Y-111517256D01*
X119989605Y-112580000D01*
X119630395Y-112580000D01*
X118567651Y-111517256D01*
X118287910Y-111631118D01*
X118132039Y-111946296D01*
X118040651Y-112285826D01*
X118017259Y-112636661D01*
X117410000Y-112636661D01*
X117410000Y-112441127D01*
X117355814Y-112168718D01*
X117249525Y-111912115D01*
X117095218Y-111681178D01*
X116898822Y-111484782D01*
X116678625Y-111337651D01*
X118747256Y-111337651D01*
X119810000Y-112400395D01*
X120872744Y-111337651D01*
X120758882Y-111057910D01*
X120443704Y-110902039D01*
X120104174Y-110810651D01*
X119753339Y-110787259D01*
X119404681Y-110832760D01*
X119071600Y-110945406D01*
X118861118Y-111057910D01*
X118747256Y-111337651D01*
X116678625Y-111337651D01*
X116667885Y-111330475D01*
X116411282Y-111224186D01*
X116138873Y-111170000D01*
X115861127Y-111170000D01*
X115588718Y-111224186D01*
X115332115Y-111330475D01*
X115101178Y-111484782D01*
X114904782Y-111681178D01*
X114750475Y-111912115D01*
X114644186Y-112168718D01*
X114590000Y-112441127D01*
X109092013Y-112441127D01*
X109057240Y-112174681D01*
X108944594Y-111841600D01*
X108832090Y-111631118D01*
X108552349Y-111517256D01*
X107489605Y-112580000D01*
X107130395Y-112580000D01*
X106067651Y-111517256D01*
X105787910Y-111631118D01*
X105632039Y-111946296D01*
X105540651Y-112285826D01*
X105517259Y-112636661D01*
X104910000Y-112636661D01*
X104910000Y-112441127D01*
X104855814Y-112168718D01*
X104749525Y-111912115D01*
X104595218Y-111681178D01*
X104398822Y-111484782D01*
X104178625Y-111337651D01*
X106247256Y-111337651D01*
X107310000Y-112400395D01*
X108372744Y-111337651D01*
X108258882Y-111057910D01*
X107943704Y-110902039D01*
X107604174Y-110810651D01*
X107253339Y-110787259D01*
X106904681Y-110832760D01*
X106571600Y-110945406D01*
X106361118Y-111057910D01*
X106247256Y-111337651D01*
X104178625Y-111337651D01*
X104167885Y-111330475D01*
X103911282Y-111224186D01*
X103638873Y-111170000D01*
X103361127Y-111170000D01*
X103088718Y-111224186D01*
X102832115Y-111330475D01*
X102601178Y-111484782D01*
X102404782Y-111681178D01*
X102250475Y-111912115D01*
X102144186Y-112168718D01*
X102090000Y-112441127D01*
X96592013Y-112441127D01*
X96557240Y-112174681D01*
X96444594Y-111841600D01*
X96332090Y-111631118D01*
X96052349Y-111517256D01*
X94989605Y-112580000D01*
X94630395Y-112580000D01*
X93567651Y-111517256D01*
X93287910Y-111631118D01*
X93132039Y-111946296D01*
X93040651Y-112285826D01*
X93017259Y-112636661D01*
X92410000Y-112636661D01*
X92410000Y-112441127D01*
X92355814Y-112168718D01*
X92249525Y-111912115D01*
X92095218Y-111681178D01*
X91898822Y-111484782D01*
X91678625Y-111337651D01*
X93747256Y-111337651D01*
X94810000Y-112400395D01*
X95872744Y-111337651D01*
X95758882Y-111057910D01*
X95443704Y-110902039D01*
X95104174Y-110810651D01*
X94753339Y-110787259D01*
X94404681Y-110832760D01*
X94071600Y-110945406D01*
X93861118Y-111057910D01*
X93747256Y-111337651D01*
X91678625Y-111337651D01*
X91667885Y-111330475D01*
X91411282Y-111224186D01*
X91138873Y-111170000D01*
X90861127Y-111170000D01*
X90588718Y-111224186D01*
X90332115Y-111330475D01*
X90101178Y-111484782D01*
X89904782Y-111681178D01*
X89750475Y-111912115D01*
X89644186Y-112168718D01*
X89590000Y-112441127D01*
X82150000Y-112441127D01*
X82150000Y-107324193D01*
X84135000Y-107324193D01*
X84135000Y-107675807D01*
X84203596Y-108020665D01*
X84338153Y-108345515D01*
X84533500Y-108637871D01*
X84782129Y-108886500D01*
X85074485Y-109081847D01*
X85399335Y-109216404D01*
X85744193Y-109285000D01*
X86095807Y-109285000D01*
X86440665Y-109216404D01*
X86765515Y-109081847D01*
X87057871Y-108886500D01*
X87306500Y-108637871D01*
X87501847Y-108345515D01*
X87636404Y-108020665D01*
X87705000Y-107675807D01*
X87705000Y-107324193D01*
X87702062Y-107309419D01*
X89065000Y-107309419D01*
X89065000Y-107690581D01*
X89139361Y-108064419D01*
X89285225Y-108416566D01*
X89496987Y-108733491D01*
X89766509Y-109003013D01*
X90083434Y-109214775D01*
X90435581Y-109360639D01*
X90809419Y-109435000D01*
X91190581Y-109435000D01*
X91564419Y-109360639D01*
X91916566Y-109214775D01*
X92233491Y-109003013D01*
X92503013Y-108733491D01*
X92714775Y-108416566D01*
X92860639Y-108064419D01*
X92935000Y-107690581D01*
X92935000Y-107324193D01*
X93025000Y-107324193D01*
X93025000Y-107675807D01*
X93093596Y-108020665D01*
X93228153Y-108345515D01*
X93423500Y-108637871D01*
X93672129Y-108886500D01*
X93964485Y-109081847D01*
X94289335Y-109216404D01*
X94634193Y-109285000D01*
X94985807Y-109285000D01*
X95330665Y-109216404D01*
X95655515Y-109081847D01*
X95947871Y-108886500D01*
X96196500Y-108637871D01*
X96391847Y-108345515D01*
X96526404Y-108020665D01*
X96595000Y-107675807D01*
X96595000Y-107324193D01*
X96526404Y-106979335D01*
X96391847Y-106654485D01*
X96196500Y-106362129D01*
X95947871Y-106113500D01*
X95655515Y-105918153D01*
X95330665Y-105783596D01*
X94985807Y-105715000D01*
X94634193Y-105715000D01*
X94289335Y-105783596D01*
X93964485Y-105918153D01*
X93672129Y-106113500D01*
X93423500Y-106362129D01*
X93228153Y-106654485D01*
X93093596Y-106979335D01*
X93025000Y-107324193D01*
X92935000Y-107324193D01*
X92935000Y-107309419D01*
X92860639Y-106935581D01*
X92714775Y-106583434D01*
X92503013Y-106266509D01*
X92233491Y-105996987D01*
X91916566Y-105785225D01*
X91564419Y-105639361D01*
X91190581Y-105565000D01*
X90809419Y-105565000D01*
X90435581Y-105639361D01*
X90083434Y-105785225D01*
X89766509Y-105996987D01*
X89496987Y-106266509D01*
X89285225Y-106583434D01*
X89139361Y-106935581D01*
X89065000Y-107309419D01*
X87702062Y-107309419D01*
X87636404Y-106979335D01*
X87501847Y-106654485D01*
X87306500Y-106362129D01*
X87057871Y-106113500D01*
X86765515Y-105918153D01*
X86440665Y-105783596D01*
X86095807Y-105715000D01*
X85744193Y-105715000D01*
X85399335Y-105783596D01*
X85074485Y-105918153D01*
X84782129Y-106113500D01*
X84533500Y-106362129D01*
X84338153Y-106654485D01*
X84203596Y-106979335D01*
X84135000Y-107324193D01*
X82150000Y-107324193D01*
X82150000Y-102281127D01*
X89590000Y-102281127D01*
X89590000Y-102558873D01*
X89644186Y-102831282D01*
X89750475Y-103087885D01*
X89904782Y-103318822D01*
X90101178Y-103515218D01*
X90332115Y-103669525D01*
X90588718Y-103775814D01*
X90861127Y-103830000D01*
X91138873Y-103830000D01*
X91411282Y-103775814D01*
X91667885Y-103669525D01*
X91678624Y-103662349D01*
X93747256Y-103662349D01*
X93861118Y-103942090D01*
X94176296Y-104097961D01*
X94515826Y-104189349D01*
X94866661Y-104212741D01*
X95215319Y-104167240D01*
X95548400Y-104054594D01*
X95758882Y-103942090D01*
X95872744Y-103662349D01*
X94810000Y-102599605D01*
X93747256Y-103662349D01*
X91678624Y-103662349D01*
X91898822Y-103515218D01*
X92095218Y-103318822D01*
X92249525Y-103087885D01*
X92355814Y-102831282D01*
X92410000Y-102558873D01*
X92410000Y-102476661D01*
X93017259Y-102476661D01*
X93062760Y-102825319D01*
X93175406Y-103158400D01*
X93287910Y-103368882D01*
X93567651Y-103482744D01*
X94630395Y-102420000D01*
X94989605Y-102420000D01*
X96052349Y-103482744D01*
X96332090Y-103368882D01*
X96487961Y-103053704D01*
X96579349Y-102714174D01*
X96602741Y-102363339D01*
X96557240Y-102014681D01*
X96444594Y-101681600D01*
X96332090Y-101471118D01*
X96052349Y-101357256D01*
X94989605Y-102420000D01*
X94630395Y-102420000D01*
X93567651Y-101357256D01*
X93287910Y-101471118D01*
X93132039Y-101786296D01*
X93040651Y-102125826D01*
X93017259Y-102476661D01*
X92410000Y-102476661D01*
X92410000Y-102281127D01*
X92355814Y-102008718D01*
X92249525Y-101752115D01*
X92095218Y-101521178D01*
X91898822Y-101324782D01*
X91667885Y-101170475D01*
X91411282Y-101064186D01*
X91138873Y-101010000D01*
X90861127Y-101010000D01*
X90588718Y-101064186D01*
X90332115Y-101170475D01*
X90101178Y-101324782D01*
X89904782Y-101521178D01*
X89750475Y-101752115D01*
X89644186Y-102008718D01*
X89590000Y-102281127D01*
X82150000Y-102281127D01*
X82150000Y-101150000D01*
X84968069Y-101150000D01*
X85000000Y-101153145D01*
X85127422Y-101140595D01*
X85249948Y-101103427D01*
X85362868Y-101043070D01*
X85461843Y-100961843D01*
X85543070Y-100862868D01*
X85603427Y-100749948D01*
X85633746Y-100650000D01*
X94579083Y-100650000D01*
X94404681Y-100672760D01*
G37*
%TD.AperFunction*%
D12*
X159238189Y-106895819D02*
X159203596Y-106979335D01*
X159135000Y-107324193D01*
X159135000Y-107675807D01*
X159203596Y-108020665D01*
X159338153Y-108345515D01*
X159533500Y-108637871D01*
X159782129Y-108886500D01*
X160074485Y-109081847D01*
X160399335Y-109216404D01*
X160744193Y-109285000D01*
X161095807Y-109285000D01*
X161440665Y-109216404D01*
X161765515Y-109081847D01*
X162057871Y-108886500D01*
X162306500Y-108637871D01*
X162501847Y-108345515D01*
X162636404Y-108020665D01*
X162705000Y-107675807D01*
X162705000Y-107324193D01*
X162702062Y-107309419D01*
X164065000Y-107309419D01*
X164065000Y-107690581D01*
X164139361Y-108064419D01*
X164285225Y-108416566D01*
X164496987Y-108733491D01*
X164766509Y-109003013D01*
X165083434Y-109214775D01*
X165435581Y-109360639D01*
X165809419Y-109435000D01*
X166190581Y-109435000D01*
X166564419Y-109360639D01*
X166916566Y-109214775D01*
X167233491Y-109003013D01*
X167503013Y-108733491D01*
X167714775Y-108416566D01*
X167860639Y-108064419D01*
X167935000Y-107690581D01*
X167935000Y-107324193D01*
X168025000Y-107324193D01*
X168025000Y-107675807D01*
X168093596Y-108020665D01*
X168228153Y-108345515D01*
X168423500Y-108637871D01*
X168672129Y-108886500D01*
X168964485Y-109081847D01*
X169289335Y-109216404D01*
X169634193Y-109285000D01*
X169985807Y-109285000D01*
X170330665Y-109216404D01*
X170655515Y-109081847D01*
X170947871Y-108886500D01*
X171196500Y-108637871D01*
X171391847Y-108345515D01*
X171526404Y-108020665D01*
X171595000Y-107675807D01*
X171595000Y-107324193D01*
X171526404Y-106979335D01*
X171391847Y-106654485D01*
X171196500Y-106362129D01*
X170947871Y-106113500D01*
X170655515Y-105918153D01*
X170330665Y-105783596D01*
X169985807Y-105715000D01*
X169634193Y-105715000D01*
X169289335Y-105783596D01*
X168964485Y-105918153D01*
X168672129Y-106113500D01*
X168423500Y-106362129D01*
X168228153Y-106654485D01*
X168093596Y-106979335D01*
X168025000Y-107324193D01*
X167935000Y-107324193D01*
X167935000Y-107309419D01*
X167860639Y-106935581D01*
X167714775Y-106583434D01*
X167503013Y-106266509D01*
X167233491Y-105996987D01*
X166916566Y-105785225D01*
X166564419Y-105639361D01*
X166190581Y-105565000D01*
X165809419Y-105565000D01*
X165435581Y-105639361D01*
X165083434Y-105785225D01*
X164766509Y-105996987D01*
X164496987Y-106266509D01*
X164285225Y-106583434D01*
X164139361Y-106935581D01*
X164065000Y-107309419D01*
X162702062Y-107309419D01*
X162636404Y-106979335D01*
X162601811Y-106895819D01*
X164235630Y-105262000D01*
X174580370Y-105262000D01*
X174024181Y-105818189D01*
X173940665Y-105783596D01*
X173595807Y-105715000D01*
X173244193Y-105715000D01*
X172899335Y-105783596D01*
X172574485Y-105918153D01*
X172282129Y-106113500D01*
X172033500Y-106362129D01*
X171838153Y-106654485D01*
X171703596Y-106979335D01*
X171635000Y-107324193D01*
X171635000Y-107675807D01*
X171703596Y-108020665D01*
X171838153Y-108345515D01*
X172033500Y-108637871D01*
X172282129Y-108886500D01*
X172574485Y-109081847D01*
X172899335Y-109216404D01*
X173244193Y-109285000D01*
X173595807Y-109285000D01*
X173940665Y-109216404D01*
X174265515Y-109081847D01*
X174557871Y-108886500D01*
X174806500Y-108637871D01*
X175001847Y-108345515D01*
X175136404Y-108020665D01*
X175205000Y-107675807D01*
X175205000Y-107324193D01*
X175136404Y-106979335D01*
X175101811Y-106895819D01*
X176227619Y-105770011D01*
X177620164Y-105770011D01*
X177583434Y-105785225D01*
X177266509Y-105996987D01*
X176996987Y-106266509D01*
X176785225Y-106583434D01*
X176639361Y-106935581D01*
X176565000Y-107309419D01*
X176565000Y-107690581D01*
X176639361Y-108064419D01*
X176785225Y-108416566D01*
X176996987Y-108733491D01*
X177266509Y-109003013D01*
X177583434Y-109214775D01*
X177935581Y-109360639D01*
X178309419Y-109435000D01*
X178690581Y-109435000D01*
X179064419Y-109360639D01*
X179416566Y-109214775D01*
X179733491Y-109003013D01*
X180003013Y-108733491D01*
X180214775Y-108416566D01*
X180360639Y-108064419D01*
X180435000Y-107690581D01*
X180435000Y-107309419D01*
X180360639Y-106935581D01*
X180214775Y-106583434D01*
X180003013Y-106266509D01*
X179733491Y-105996987D01*
X179416566Y-105785225D01*
X179379836Y-105770011D01*
X181857632Y-105770011D01*
X181789335Y-105783596D01*
X181464485Y-105918153D01*
X181172129Y-106113500D01*
X180923500Y-106362129D01*
X180728153Y-106654485D01*
X180593596Y-106979335D01*
X180525000Y-107324193D01*
X180525000Y-107675807D01*
X180593596Y-108020665D01*
X180728153Y-108345515D01*
X180923500Y-108637871D01*
X181172129Y-108886500D01*
X181464485Y-109081847D01*
X181789335Y-109216404D01*
X182134193Y-109285000D01*
X182485807Y-109285000D01*
X182830665Y-109216404D01*
X183155515Y-109081847D01*
X183447871Y-108886500D01*
X183696500Y-108637871D01*
X183891847Y-108345515D01*
X184026404Y-108020665D01*
X184095000Y-107675807D01*
X184095000Y-107324193D01*
X184026404Y-106979335D01*
X183891847Y-106654485D01*
X183696500Y-106362129D01*
X183447871Y-106113500D01*
X183155515Y-105918153D01*
X182830665Y-105783596D01*
X182762368Y-105770011D01*
X185467632Y-105770011D01*
X185399335Y-105783596D01*
X185074485Y-105918153D01*
X184782129Y-106113500D01*
X184533500Y-106362129D01*
X184338153Y-106654485D01*
X184203596Y-106979335D01*
X184135000Y-107324193D01*
X184135000Y-107675807D01*
X184203596Y-108020665D01*
X184338153Y-108345515D01*
X184533500Y-108637871D01*
X184782129Y-108886500D01*
X185074485Y-109081847D01*
X185399335Y-109216404D01*
X185744193Y-109285000D01*
X186095807Y-109285000D01*
X186440665Y-109216404D01*
X186765515Y-109081847D01*
X187057871Y-108886500D01*
X187306500Y-108637871D01*
X187501847Y-108345515D01*
X187636404Y-108020665D01*
X187705000Y-107675807D01*
X187705000Y-107324193D01*
X187636404Y-106979335D01*
X187601811Y-106895819D01*
X188219608Y-106278022D01*
X189489294Y-106278022D01*
X189285225Y-106583434D01*
X189139361Y-106935581D01*
X189065000Y-107309419D01*
X189065000Y-107690581D01*
X189139361Y-108064419D01*
X189285225Y-108416566D01*
X189496987Y-108733491D01*
X189766509Y-109003013D01*
X190083434Y-109214775D01*
X190435581Y-109360639D01*
X190809419Y-109435000D01*
X191190581Y-109435000D01*
X191564419Y-109360639D01*
X191916566Y-109214775D01*
X192233491Y-109003013D01*
X192503013Y-108733491D01*
X192714775Y-108416566D01*
X192860639Y-108064419D01*
X192935000Y-107690581D01*
X192935000Y-107309419D01*
X192860639Y-106935581D01*
X192714775Y-106583434D01*
X192510706Y-106278022D01*
X193507607Y-106278022D01*
X193423500Y-106362129D01*
X193228153Y-106654485D01*
X193093596Y-106979335D01*
X193025000Y-107324193D01*
X193025000Y-107675807D01*
X193093596Y-108020665D01*
X193228153Y-108345515D01*
X193423500Y-108637871D01*
X193672129Y-108886500D01*
X193964485Y-109081847D01*
X194289335Y-109216404D01*
X194634193Y-109285000D01*
X194985807Y-109285000D01*
X195330665Y-109216404D01*
X195655515Y-109081847D01*
X195947871Y-108886500D01*
X196196500Y-108637871D01*
X196391847Y-108345515D01*
X196426440Y-108262000D01*
X206184370Y-108262000D01*
X209934721Y-112012352D01*
X209958578Y-112041422D01*
X210074608Y-112136645D01*
X210206985Y-112207402D01*
X210350622Y-112250974D01*
X210462574Y-112262000D01*
X210462576Y-112262000D01*
X210499999Y-112265686D01*
X210537422Y-112262000D01*
X213277708Y-112262000D01*
X213234573Y-112366137D01*
X213184000Y-112620385D01*
X213184000Y-112879615D01*
X213234573Y-113133863D01*
X213277708Y-113238000D01*
X211537423Y-113238000D01*
X211500000Y-113234314D01*
X211462577Y-113238000D01*
X211462574Y-113238000D01*
X211350622Y-113249026D01*
X211206985Y-113292598D01*
X211158713Y-113318400D01*
X211074607Y-113363355D01*
X211058420Y-113376640D01*
X210958578Y-113458578D01*
X210934716Y-113487654D01*
X207426096Y-116996274D01*
X207554993Y-116685089D01*
X207777000Y-115568985D01*
X207777000Y-114431015D01*
X207554993Y-113314911D01*
X207119511Y-112263565D01*
X206487289Y-111317377D01*
X205682623Y-110512711D01*
X204736435Y-109880489D01*
X203685089Y-109445007D01*
X202568985Y-109223000D01*
X201431015Y-109223000D01*
X200314911Y-109445007D01*
X199263565Y-109880489D01*
X198317377Y-110512711D01*
X197512711Y-111317377D01*
X196880489Y-112263565D01*
X196489877Y-113206585D01*
X196579349Y-112874174D01*
X196602741Y-112523339D01*
X196557240Y-112174681D01*
X196444594Y-111841600D01*
X196332090Y-111631118D01*
X196052349Y-111517256D01*
X194989605Y-112580000D01*
X196052349Y-113642744D01*
X196332090Y-113528882D01*
X196481604Y-113226558D01*
X196445007Y-113314911D01*
X196223000Y-114431015D01*
X196223000Y-115568985D01*
X196445007Y-116685089D01*
X196573904Y-116996273D01*
X193549261Y-113971631D01*
X193525399Y-113942555D01*
X193409369Y-113847332D01*
X193362630Y-113822349D01*
X193747256Y-113822349D01*
X193861118Y-114102090D01*
X194176296Y-114257961D01*
X194515826Y-114349349D01*
X194866661Y-114372741D01*
X195215319Y-114327240D01*
X195548400Y-114214594D01*
X195758882Y-114102090D01*
X195872744Y-113822349D01*
X194810000Y-112759605D01*
X193747256Y-113822349D01*
X193362630Y-113822349D01*
X193276992Y-113776575D01*
X193133355Y-113733003D01*
X193021403Y-113721977D01*
X193021400Y-113721977D01*
X192983977Y-113718291D01*
X192946554Y-113721977D01*
X191828842Y-113721977D01*
X191898822Y-113675218D01*
X192095218Y-113478822D01*
X192249525Y-113247885D01*
X192355814Y-112991282D01*
X192410000Y-112718873D01*
X192410000Y-112636661D01*
X193017259Y-112636661D01*
X193062760Y-112985319D01*
X193175406Y-113318400D01*
X193287910Y-113528882D01*
X193567651Y-113642744D01*
X194630395Y-112580000D01*
X193567651Y-111517256D01*
X193287910Y-111631118D01*
X193132039Y-111946296D01*
X193040651Y-112285826D01*
X193017259Y-112636661D01*
X192410000Y-112636661D01*
X192410000Y-112441127D01*
X192355814Y-112168718D01*
X192249525Y-111912115D01*
X192095218Y-111681178D01*
X191898822Y-111484782D01*
X191678625Y-111337651D01*
X193747256Y-111337651D01*
X194810000Y-112400395D01*
X195872744Y-111337651D01*
X195758882Y-111057910D01*
X195443704Y-110902039D01*
X195104174Y-110810651D01*
X194753339Y-110787259D01*
X194404681Y-110832760D01*
X194071600Y-110945406D01*
X193861118Y-111057910D01*
X193747256Y-111337651D01*
X191678625Y-111337651D01*
X191667885Y-111330475D01*
X191411282Y-111224186D01*
X191138873Y-111170000D01*
X190861127Y-111170000D01*
X190588718Y-111224186D01*
X190332115Y-111330475D01*
X190101178Y-111484782D01*
X189904782Y-111681178D01*
X189750475Y-111912115D01*
X189644186Y-112168718D01*
X189590000Y-112441127D01*
X189590000Y-112718873D01*
X189644186Y-112991282D01*
X189750475Y-113247885D01*
X189904782Y-113478822D01*
X190101178Y-113675218D01*
X190171158Y-113721977D01*
X183631585Y-113721977D01*
X183552351Y-113642743D01*
X183832090Y-113528882D01*
X183987961Y-113213704D01*
X184079349Y-112874174D01*
X184102741Y-112523339D01*
X184057240Y-112174681D01*
X183944594Y-111841600D01*
X183832090Y-111631118D01*
X183552349Y-111517256D01*
X182489605Y-112580000D01*
X182503748Y-112594143D01*
X182324143Y-112773748D01*
X182310000Y-112759605D01*
X182295858Y-112773748D01*
X182116253Y-112594143D01*
X182130395Y-112580000D01*
X181067651Y-111517256D01*
X180787910Y-111631118D01*
X180632039Y-111946296D01*
X180540651Y-112285826D01*
X180517259Y-112636661D01*
X180562760Y-112985319D01*
X180675406Y-113318400D01*
X180787910Y-113528882D01*
X181067649Y-113642743D01*
X180988415Y-113721977D01*
X179328842Y-113721977D01*
X179398822Y-113675218D01*
X179595218Y-113478822D01*
X179749525Y-113247885D01*
X179855814Y-112991282D01*
X179910000Y-112718873D01*
X179910000Y-112441127D01*
X179855814Y-112168718D01*
X179749525Y-111912115D01*
X179595218Y-111681178D01*
X179398822Y-111484782D01*
X179178625Y-111337651D01*
X181247256Y-111337651D01*
X182310000Y-112400395D01*
X183372744Y-111337651D01*
X183258882Y-111057910D01*
X182943704Y-110902039D01*
X182604174Y-110810651D01*
X182253339Y-110787259D01*
X181904681Y-110832760D01*
X181571600Y-110945406D01*
X181361118Y-111057910D01*
X181247256Y-111337651D01*
X179178625Y-111337651D01*
X179167885Y-111330475D01*
X178911282Y-111224186D01*
X178638873Y-111170000D01*
X178361127Y-111170000D01*
X178088718Y-111224186D01*
X177832115Y-111330475D01*
X177601178Y-111484782D01*
X177404782Y-111681178D01*
X177250475Y-111912115D01*
X177144186Y-112168718D01*
X177090000Y-112441127D01*
X177090000Y-112718873D01*
X177144186Y-112991282D01*
X177250475Y-113247885D01*
X177404782Y-113478822D01*
X177601178Y-113675218D01*
X177671158Y-113721977D01*
X171131585Y-113721977D01*
X171052351Y-113642743D01*
X171332090Y-113528882D01*
X171487961Y-113213704D01*
X171579349Y-112874174D01*
X171602741Y-112523339D01*
X171557240Y-112174681D01*
X171444594Y-111841600D01*
X171332090Y-111631118D01*
X171052349Y-111517256D01*
X169989605Y-112580000D01*
X170003748Y-112594143D01*
X169824143Y-112773748D01*
X169810000Y-112759605D01*
X169795858Y-112773748D01*
X169616253Y-112594143D01*
X169630395Y-112580000D01*
X168567651Y-111517256D01*
X168287910Y-111631118D01*
X168132039Y-111946296D01*
X168040651Y-112285826D01*
X168017259Y-112636661D01*
X168062760Y-112985319D01*
X168175406Y-113318400D01*
X168287910Y-113528882D01*
X168567649Y-113642743D01*
X168488415Y-113721977D01*
X166828842Y-113721977D01*
X166898822Y-113675218D01*
X167095218Y-113478822D01*
X167249525Y-113247885D01*
X167355814Y-112991282D01*
X167410000Y-112718873D01*
X167410000Y-112441127D01*
X167355814Y-112168718D01*
X167249525Y-111912115D01*
X167095218Y-111681178D01*
X166898822Y-111484782D01*
X166678625Y-111337651D01*
X168747256Y-111337651D01*
X169810000Y-112400395D01*
X170872744Y-111337651D01*
X170758882Y-111057910D01*
X170443704Y-110902039D01*
X170104174Y-110810651D01*
X169753339Y-110787259D01*
X169404681Y-110832760D01*
X169071600Y-110945406D01*
X168861118Y-111057910D01*
X168747256Y-111337651D01*
X166678625Y-111337651D01*
X166667885Y-111330475D01*
X166411282Y-111224186D01*
X166138873Y-111170000D01*
X165861127Y-111170000D01*
X165588718Y-111224186D01*
X165332115Y-111330475D01*
X165101178Y-111484782D01*
X164904782Y-111681178D01*
X164750475Y-111912115D01*
X164644186Y-112168718D01*
X164590000Y-112441127D01*
X164590000Y-112718873D01*
X164644186Y-112991282D01*
X164750475Y-113247885D01*
X164904782Y-113478822D01*
X165101178Y-113675218D01*
X165171158Y-113721977D01*
X164609608Y-113721977D01*
X158991811Y-108104181D01*
X159026404Y-108020665D01*
X159095000Y-107675807D01*
X159095000Y-107324193D01*
X159026404Y-106979335D01*
X158891847Y-106654485D01*
X158696500Y-106362129D01*
X158447871Y-106113500D01*
X158155515Y-105918153D01*
X157830665Y-105783596D01*
X157485807Y-105715000D01*
X157134193Y-105715000D01*
X156789335Y-105783596D01*
X156464485Y-105918153D01*
X156172129Y-106113500D01*
X155923500Y-106362129D01*
X155728153Y-106654485D01*
X155593596Y-106979335D01*
X155525000Y-107324193D01*
X155525000Y-107675807D01*
X155593596Y-108020665D01*
X155728153Y-108345515D01*
X155923500Y-108637871D01*
X156172129Y-108886500D01*
X156464485Y-109081847D01*
X156789335Y-109216404D01*
X157134193Y-109285000D01*
X157485807Y-109285000D01*
X157830665Y-109216404D01*
X157914181Y-109181811D01*
X162962357Y-114229988D01*
X158002882Y-114229988D01*
X158048400Y-114214594D01*
X158258882Y-114102090D01*
X158372744Y-113822349D01*
X157310000Y-112759605D01*
X156247256Y-113822349D01*
X156361118Y-114102090D01*
X156619733Y-114229988D01*
X153954337Y-114229988D01*
X153701827Y-113977478D01*
X153911282Y-113935814D01*
X154167885Y-113829525D01*
X154398822Y-113675218D01*
X154595218Y-113478822D01*
X154749525Y-113247885D01*
X154855814Y-112991282D01*
X154910000Y-112718873D01*
X154910000Y-112636661D01*
X155517259Y-112636661D01*
X155562760Y-112985319D01*
X155675406Y-113318400D01*
X155787910Y-113528882D01*
X156067651Y-113642744D01*
X157130395Y-112580000D01*
X157489605Y-112580000D01*
X158552349Y-113642744D01*
X158832090Y-113528882D01*
X158987961Y-113213704D01*
X159079349Y-112874174D01*
X159102741Y-112523339D01*
X159057240Y-112174681D01*
X158944594Y-111841600D01*
X158832090Y-111631118D01*
X158552349Y-111517256D01*
X157489605Y-112580000D01*
X157130395Y-112580000D01*
X156067651Y-111517256D01*
X155787910Y-111631118D01*
X155632039Y-111946296D01*
X155540651Y-112285826D01*
X155517259Y-112636661D01*
X154910000Y-112636661D01*
X154910000Y-112441127D01*
X154855814Y-112168718D01*
X154749525Y-111912115D01*
X154595218Y-111681178D01*
X154398822Y-111484782D01*
X154178625Y-111337651D01*
X156247256Y-111337651D01*
X157310000Y-112400395D01*
X158372744Y-111337651D01*
X158258882Y-111057910D01*
X157943704Y-110902039D01*
X157604174Y-110810651D01*
X157253339Y-110787259D01*
X156904681Y-110832760D01*
X156571600Y-110945406D01*
X156361118Y-111057910D01*
X156247256Y-111337651D01*
X154178625Y-111337651D01*
X154167885Y-111330475D01*
X153911282Y-111224186D01*
X153638873Y-111170000D01*
X153361127Y-111170000D01*
X153088718Y-111224186D01*
X152832115Y-111330475D01*
X152601178Y-111484782D01*
X152404782Y-111681178D01*
X152250475Y-111912115D01*
X152144186Y-112168718D01*
X152102522Y-112378174D01*
X149182000Y-109457652D01*
X149182000Y-109116440D01*
X149265515Y-109081847D01*
X149557871Y-108886500D01*
X149806500Y-108637871D01*
X150001847Y-108345515D01*
X150136404Y-108020665D01*
X150205000Y-107675807D01*
X150205000Y-107324193D01*
X150202062Y-107309419D01*
X151565000Y-107309419D01*
X151565000Y-107690581D01*
X151639361Y-108064419D01*
X151785225Y-108416566D01*
X151996987Y-108733491D01*
X152266509Y-109003013D01*
X152583434Y-109214775D01*
X152935581Y-109360639D01*
X153309419Y-109435000D01*
X153690581Y-109435000D01*
X154064419Y-109360639D01*
X154416566Y-109214775D01*
X154733491Y-109003013D01*
X155003013Y-108733491D01*
X155214775Y-108416566D01*
X155360639Y-108064419D01*
X155435000Y-107690581D01*
X155435000Y-107309419D01*
X155360639Y-106935581D01*
X155214775Y-106583434D01*
X155003013Y-106266509D01*
X154733491Y-105996987D01*
X154416566Y-105785225D01*
X154064419Y-105639361D01*
X153690581Y-105565000D01*
X153309419Y-105565000D01*
X152935581Y-105639361D01*
X152583434Y-105785225D01*
X152266509Y-105996987D01*
X151996987Y-106266509D01*
X151785225Y-106583434D01*
X151639361Y-106935581D01*
X151565000Y-107309419D01*
X150202062Y-107309419D01*
X150136404Y-106979335D01*
X150001847Y-106654485D01*
X149806500Y-106362129D01*
X149557871Y-106113500D01*
X149265515Y-105918153D01*
X148940665Y-105783596D01*
X148595807Y-105715000D01*
X148244193Y-105715000D01*
X147899335Y-105783596D01*
X147574485Y-105918153D01*
X147282129Y-106113500D01*
X147033500Y-106362129D01*
X146838153Y-106654485D01*
X146803560Y-106738000D01*
X146426440Y-106738000D01*
X146391847Y-106654485D01*
X146196500Y-106362129D01*
X145947871Y-106113500D01*
X145655515Y-105918153D01*
X145330665Y-105783596D01*
X144985807Y-105715000D01*
X144634193Y-105715000D01*
X144289335Y-105783596D01*
X143964485Y-105918153D01*
X143672129Y-106113500D01*
X143423500Y-106362129D01*
X143228153Y-106654485D01*
X143093596Y-106979335D01*
X143025000Y-107324193D01*
X143025000Y-107675807D01*
X143093596Y-108020665D01*
X143228153Y-108345515D01*
X143423500Y-108637871D01*
X143672129Y-108886500D01*
X143964485Y-109081847D01*
X144289335Y-109216404D01*
X144634193Y-109285000D01*
X144985807Y-109285000D01*
X145330665Y-109216404D01*
X145655515Y-109081847D01*
X145947871Y-108886500D01*
X146196500Y-108637871D01*
X146391847Y-108345515D01*
X146426440Y-108262000D01*
X146803560Y-108262000D01*
X146838153Y-108345515D01*
X147033500Y-108637871D01*
X147282129Y-108886500D01*
X147574485Y-109081847D01*
X147658000Y-109116440D01*
X147658000Y-109735858D01*
X147654314Y-109773282D01*
X147658000Y-109810705D01*
X147658000Y-109810707D01*
X147669026Y-109922659D01*
X147712598Y-110066296D01*
X147712599Y-110066297D01*
X147783355Y-110198674D01*
X147812817Y-110234573D01*
X147878578Y-110314704D01*
X147907654Y-110338566D01*
X152307086Y-114737999D01*
X129469748Y-114737999D01*
X128707999Y-113976250D01*
X128911282Y-113935814D01*
X129167885Y-113829525D01*
X129178624Y-113822349D01*
X131247256Y-113822349D01*
X131361118Y-114102090D01*
X131676296Y-114257961D01*
X132015826Y-114349349D01*
X132366661Y-114372741D01*
X132715319Y-114327240D01*
X133048400Y-114214594D01*
X133258882Y-114102090D01*
X133372744Y-113822349D01*
X132310000Y-112759605D01*
X131247256Y-113822349D01*
X129178624Y-113822349D01*
X129398822Y-113675218D01*
X129595218Y-113478822D01*
X129749525Y-113247885D01*
X129855814Y-112991282D01*
X129910000Y-112718873D01*
X129910000Y-112636661D01*
X130517259Y-112636661D01*
X130562760Y-112985319D01*
X130675406Y-113318400D01*
X130787910Y-113528882D01*
X131067651Y-113642744D01*
X132130395Y-112580000D01*
X132489605Y-112580000D01*
X133552349Y-113642744D01*
X133832090Y-113528882D01*
X133987961Y-113213704D01*
X134079349Y-112874174D01*
X134102741Y-112523339D01*
X134092013Y-112441127D01*
X139590000Y-112441127D01*
X139590000Y-112718873D01*
X139644186Y-112991282D01*
X139750475Y-113247885D01*
X139904782Y-113478822D01*
X140101178Y-113675218D01*
X140332115Y-113829525D01*
X140588718Y-113935814D01*
X140861127Y-113990000D01*
X141138873Y-113990000D01*
X141411282Y-113935814D01*
X141667885Y-113829525D01*
X141678624Y-113822349D01*
X143747256Y-113822349D01*
X143861118Y-114102090D01*
X144176296Y-114257961D01*
X144515826Y-114349349D01*
X144866661Y-114372741D01*
X145215319Y-114327240D01*
X145548400Y-114214594D01*
X145758882Y-114102090D01*
X145872744Y-113822349D01*
X144810000Y-112759605D01*
X143747256Y-113822349D01*
X141678624Y-113822349D01*
X141898822Y-113675218D01*
X142095218Y-113478822D01*
X142249525Y-113247885D01*
X142355814Y-112991282D01*
X142410000Y-112718873D01*
X142410000Y-112636661D01*
X143017259Y-112636661D01*
X143062760Y-112985319D01*
X143175406Y-113318400D01*
X143287910Y-113528882D01*
X143567651Y-113642744D01*
X144630395Y-112580000D01*
X144989605Y-112580000D01*
X146052349Y-113642744D01*
X146332090Y-113528882D01*
X146487961Y-113213704D01*
X146579349Y-112874174D01*
X146602741Y-112523339D01*
X146557240Y-112174681D01*
X146444594Y-111841600D01*
X146332090Y-111631118D01*
X146052349Y-111517256D01*
X144989605Y-112580000D01*
X144630395Y-112580000D01*
X143567651Y-111517256D01*
X143287910Y-111631118D01*
X143132039Y-111946296D01*
X143040651Y-112285826D01*
X143017259Y-112636661D01*
X142410000Y-112636661D01*
X142410000Y-112441127D01*
X142355814Y-112168718D01*
X142249525Y-111912115D01*
X142095218Y-111681178D01*
X141898822Y-111484782D01*
X141678625Y-111337651D01*
X143747256Y-111337651D01*
X144810000Y-112400395D01*
X145872744Y-111337651D01*
X145758882Y-111057910D01*
X145443704Y-110902039D01*
X145104174Y-110810651D01*
X144753339Y-110787259D01*
X144404681Y-110832760D01*
X144071600Y-110945406D01*
X143861118Y-111057910D01*
X143747256Y-111337651D01*
X141678625Y-111337651D01*
X141667885Y-111330475D01*
X141411282Y-111224186D01*
X141138873Y-111170000D01*
X140861127Y-111170000D01*
X140588718Y-111224186D01*
X140332115Y-111330475D01*
X140101178Y-111484782D01*
X139904782Y-111681178D01*
X139750475Y-111912115D01*
X139644186Y-112168718D01*
X139590000Y-112441127D01*
X134092013Y-112441127D01*
X134057240Y-112174681D01*
X133944594Y-111841600D01*
X133832090Y-111631118D01*
X133552349Y-111517256D01*
X132489605Y-112580000D01*
X132130395Y-112580000D01*
X131067651Y-111517256D01*
X130787910Y-111631118D01*
X130632039Y-111946296D01*
X130540651Y-112285826D01*
X130517259Y-112636661D01*
X129910000Y-112636661D01*
X129910000Y-112441127D01*
X129855814Y-112168718D01*
X129749525Y-111912115D01*
X129595218Y-111681178D01*
X129398822Y-111484782D01*
X129178625Y-111337651D01*
X131247256Y-111337651D01*
X132310000Y-112400395D01*
X133372744Y-111337651D01*
X133258882Y-111057910D01*
X132943704Y-110902039D01*
X132604174Y-110810651D01*
X132253339Y-110787259D01*
X131904681Y-110832760D01*
X131571600Y-110945406D01*
X131361118Y-111057910D01*
X131247256Y-111337651D01*
X129178625Y-111337651D01*
X129167885Y-111330475D01*
X128911282Y-111224186D01*
X128638873Y-111170000D01*
X128361127Y-111170000D01*
X128088718Y-111224186D01*
X127832115Y-111330475D01*
X127601178Y-111484782D01*
X127404782Y-111681178D01*
X127250475Y-111912115D01*
X127144186Y-112168718D01*
X127103750Y-112372001D01*
X123945959Y-109214211D01*
X124265515Y-109081847D01*
X124557871Y-108886500D01*
X124806500Y-108637871D01*
X125001847Y-108345515D01*
X125136404Y-108020665D01*
X125205000Y-107675807D01*
X125205000Y-107324193D01*
X125202062Y-107309419D01*
X126565000Y-107309419D01*
X126565000Y-107690581D01*
X126639361Y-108064419D01*
X126785225Y-108416566D01*
X126996987Y-108733491D01*
X127266509Y-109003013D01*
X127583434Y-109214775D01*
X127935581Y-109360639D01*
X128309419Y-109435000D01*
X128690581Y-109435000D01*
X129064419Y-109360639D01*
X129416566Y-109214775D01*
X129733491Y-109003013D01*
X130003013Y-108733491D01*
X130214775Y-108416566D01*
X130360639Y-108064419D01*
X130435000Y-107690581D01*
X130435000Y-107324193D01*
X130525000Y-107324193D01*
X130525000Y-107675807D01*
X130593596Y-108020665D01*
X130728153Y-108345515D01*
X130923500Y-108637871D01*
X131172129Y-108886500D01*
X131464485Y-109081847D01*
X131789335Y-109216404D01*
X132134193Y-109285000D01*
X132485807Y-109285000D01*
X132830665Y-109216404D01*
X133155515Y-109081847D01*
X133447871Y-108886500D01*
X133696500Y-108637871D01*
X133891847Y-108345515D01*
X134026404Y-108020665D01*
X134095000Y-107675807D01*
X134095000Y-107324193D01*
X134135000Y-107324193D01*
X134135000Y-107675807D01*
X134203596Y-108020665D01*
X134338153Y-108345515D01*
X134533500Y-108637871D01*
X134782129Y-108886500D01*
X135074485Y-109081847D01*
X135399335Y-109216404D01*
X135744193Y-109285000D01*
X136095807Y-109285000D01*
X136440665Y-109216404D01*
X136765515Y-109081847D01*
X137057871Y-108886500D01*
X137306500Y-108637871D01*
X137501847Y-108345515D01*
X137636404Y-108020665D01*
X137705000Y-107675807D01*
X137705000Y-107324193D01*
X137702062Y-107309419D01*
X139065000Y-107309419D01*
X139065000Y-107690581D01*
X139139361Y-108064419D01*
X139285225Y-108416566D01*
X139496987Y-108733491D01*
X139766509Y-109003013D01*
X140083434Y-109214775D01*
X140435581Y-109360639D01*
X140809419Y-109435000D01*
X141190581Y-109435000D01*
X141564419Y-109360639D01*
X141916566Y-109214775D01*
X142233491Y-109003013D01*
X142503013Y-108733491D01*
X142714775Y-108416566D01*
X142860639Y-108064419D01*
X142935000Y-107690581D01*
X142935000Y-107309419D01*
X142860639Y-106935581D01*
X142714775Y-106583434D01*
X142503013Y-106266509D01*
X142233491Y-105996987D01*
X141916566Y-105785225D01*
X141564419Y-105639361D01*
X141190581Y-105565000D01*
X140809419Y-105565000D01*
X140435581Y-105639361D01*
X140083434Y-105785225D01*
X139766509Y-105996987D01*
X139496987Y-106266509D01*
X139285225Y-106583434D01*
X139139361Y-106935581D01*
X139065000Y-107309419D01*
X137702062Y-107309419D01*
X137636404Y-106979335D01*
X137501847Y-106654485D01*
X137306500Y-106362129D01*
X137057871Y-106113500D01*
X136765515Y-105918153D01*
X136440665Y-105783596D01*
X136095807Y-105715000D01*
X135744193Y-105715000D01*
X135399335Y-105783596D01*
X135074485Y-105918153D01*
X134782129Y-106113500D01*
X134533500Y-106362129D01*
X134338153Y-106654485D01*
X134203596Y-106979335D01*
X134135000Y-107324193D01*
X134095000Y-107324193D01*
X134026404Y-106979335D01*
X133891847Y-106654485D01*
X133696500Y-106362129D01*
X133447871Y-106113500D01*
X133155515Y-105918153D01*
X132830665Y-105783596D01*
X132485807Y-105715000D01*
X132134193Y-105715000D01*
X131789335Y-105783596D01*
X131464485Y-105918153D01*
X131172129Y-106113500D01*
X130923500Y-106362129D01*
X130728153Y-106654485D01*
X130593596Y-106979335D01*
X130525000Y-107324193D01*
X130435000Y-107324193D01*
X130435000Y-107309419D01*
X130360639Y-106935581D01*
X130214775Y-106583434D01*
X130003013Y-106266509D01*
X129733491Y-105996987D01*
X129416566Y-105785225D01*
X129064419Y-105639361D01*
X128690581Y-105565000D01*
X128309419Y-105565000D01*
X127935581Y-105639361D01*
X127583434Y-105785225D01*
X127266509Y-105996987D01*
X126996987Y-106266509D01*
X126785225Y-106583434D01*
X126639361Y-106935581D01*
X126565000Y-107309419D01*
X125202062Y-107309419D01*
X125136404Y-106979335D01*
X125101811Y-106895819D01*
X126735630Y-105262000D01*
X157604370Y-105262000D01*
X159238189Y-106895819D01*
%TA.AperFunction,Conductor*%
D13*
G36*
X159238189Y-106895819D02*
G01*
X159203596Y-106979335D01*
X159135000Y-107324193D01*
X159135000Y-107675807D01*
X159203596Y-108020665D01*
X159338153Y-108345515D01*
X159533500Y-108637871D01*
X159782129Y-108886500D01*
X160074485Y-109081847D01*
X160399335Y-109216404D01*
X160744193Y-109285000D01*
X161095807Y-109285000D01*
X161440665Y-109216404D01*
X161765515Y-109081847D01*
X162057871Y-108886500D01*
X162306500Y-108637871D01*
X162501847Y-108345515D01*
X162636404Y-108020665D01*
X162705000Y-107675807D01*
X162705000Y-107324193D01*
X162702062Y-107309419D01*
X164065000Y-107309419D01*
X164065000Y-107690581D01*
X164139361Y-108064419D01*
X164285225Y-108416566D01*
X164496987Y-108733491D01*
X164766509Y-109003013D01*
X165083434Y-109214775D01*
X165435581Y-109360639D01*
X165809419Y-109435000D01*
X166190581Y-109435000D01*
X166564419Y-109360639D01*
X166916566Y-109214775D01*
X167233491Y-109003013D01*
X167503013Y-108733491D01*
X167714775Y-108416566D01*
X167860639Y-108064419D01*
X167935000Y-107690581D01*
X167935000Y-107324193D01*
X168025000Y-107324193D01*
X168025000Y-107675807D01*
X168093596Y-108020665D01*
X168228153Y-108345515D01*
X168423500Y-108637871D01*
X168672129Y-108886500D01*
X168964485Y-109081847D01*
X169289335Y-109216404D01*
X169634193Y-109285000D01*
X169985807Y-109285000D01*
X170330665Y-109216404D01*
X170655515Y-109081847D01*
X170947871Y-108886500D01*
X171196500Y-108637871D01*
X171391847Y-108345515D01*
X171526404Y-108020665D01*
X171595000Y-107675807D01*
X171595000Y-107324193D01*
X171526404Y-106979335D01*
X171391847Y-106654485D01*
X171196500Y-106362129D01*
X170947871Y-106113500D01*
X170655515Y-105918153D01*
X170330665Y-105783596D01*
X169985807Y-105715000D01*
X169634193Y-105715000D01*
X169289335Y-105783596D01*
X168964485Y-105918153D01*
X168672129Y-106113500D01*
X168423500Y-106362129D01*
X168228153Y-106654485D01*
X168093596Y-106979335D01*
X168025000Y-107324193D01*
X167935000Y-107324193D01*
X167935000Y-107309419D01*
X167860639Y-106935581D01*
X167714775Y-106583434D01*
X167503013Y-106266509D01*
X167233491Y-105996987D01*
X166916566Y-105785225D01*
X166564419Y-105639361D01*
X166190581Y-105565000D01*
X165809419Y-105565000D01*
X165435581Y-105639361D01*
X165083434Y-105785225D01*
X164766509Y-105996987D01*
X164496987Y-106266509D01*
X164285225Y-106583434D01*
X164139361Y-106935581D01*
X164065000Y-107309419D01*
X162702062Y-107309419D01*
X162636404Y-106979335D01*
X162601811Y-106895819D01*
X164235630Y-105262000D01*
X174580370Y-105262000D01*
X174024181Y-105818189D01*
X173940665Y-105783596D01*
X173595807Y-105715000D01*
X173244193Y-105715000D01*
X172899335Y-105783596D01*
X172574485Y-105918153D01*
X172282129Y-106113500D01*
X172033500Y-106362129D01*
X171838153Y-106654485D01*
X171703596Y-106979335D01*
X171635000Y-107324193D01*
X171635000Y-107675807D01*
X171703596Y-108020665D01*
X171838153Y-108345515D01*
X172033500Y-108637871D01*
X172282129Y-108886500D01*
X172574485Y-109081847D01*
X172899335Y-109216404D01*
X173244193Y-109285000D01*
X173595807Y-109285000D01*
X173940665Y-109216404D01*
X174265515Y-109081847D01*
X174557871Y-108886500D01*
X174806500Y-108637871D01*
X175001847Y-108345515D01*
X175136404Y-108020665D01*
X175205000Y-107675807D01*
X175205000Y-107324193D01*
X175136404Y-106979335D01*
X175101811Y-106895819D01*
X176227619Y-105770011D01*
X177620164Y-105770011D01*
X177583434Y-105785225D01*
X177266509Y-105996987D01*
X176996987Y-106266509D01*
X176785225Y-106583434D01*
X176639361Y-106935581D01*
X176565000Y-107309419D01*
X176565000Y-107690581D01*
X176639361Y-108064419D01*
X176785225Y-108416566D01*
X176996987Y-108733491D01*
X177266509Y-109003013D01*
X177583434Y-109214775D01*
X177935581Y-109360639D01*
X178309419Y-109435000D01*
X178690581Y-109435000D01*
X179064419Y-109360639D01*
X179416566Y-109214775D01*
X179733491Y-109003013D01*
X180003013Y-108733491D01*
X180214775Y-108416566D01*
X180360639Y-108064419D01*
X180435000Y-107690581D01*
X180435000Y-107309419D01*
X180360639Y-106935581D01*
X180214775Y-106583434D01*
X180003013Y-106266509D01*
X179733491Y-105996987D01*
X179416566Y-105785225D01*
X179379836Y-105770011D01*
X181857632Y-105770011D01*
X181789335Y-105783596D01*
X181464485Y-105918153D01*
X181172129Y-106113500D01*
X180923500Y-106362129D01*
X180728153Y-106654485D01*
X180593596Y-106979335D01*
X180525000Y-107324193D01*
X180525000Y-107675807D01*
X180593596Y-108020665D01*
X180728153Y-108345515D01*
X180923500Y-108637871D01*
X181172129Y-108886500D01*
X181464485Y-109081847D01*
X181789335Y-109216404D01*
X182134193Y-109285000D01*
X182485807Y-109285000D01*
X182830665Y-109216404D01*
X183155515Y-109081847D01*
X183447871Y-108886500D01*
X183696500Y-108637871D01*
X183891847Y-108345515D01*
X184026404Y-108020665D01*
X184095000Y-107675807D01*
X184095000Y-107324193D01*
X184026404Y-106979335D01*
X183891847Y-106654485D01*
X183696500Y-106362129D01*
X183447871Y-106113500D01*
X183155515Y-105918153D01*
X182830665Y-105783596D01*
X182762368Y-105770011D01*
X185467632Y-105770011D01*
X185399335Y-105783596D01*
X185074485Y-105918153D01*
X184782129Y-106113500D01*
X184533500Y-106362129D01*
X184338153Y-106654485D01*
X184203596Y-106979335D01*
X184135000Y-107324193D01*
X184135000Y-107675807D01*
X184203596Y-108020665D01*
X184338153Y-108345515D01*
X184533500Y-108637871D01*
X184782129Y-108886500D01*
X185074485Y-109081847D01*
X185399335Y-109216404D01*
X185744193Y-109285000D01*
X186095807Y-109285000D01*
X186440665Y-109216404D01*
X186765515Y-109081847D01*
X187057871Y-108886500D01*
X187306500Y-108637871D01*
X187501847Y-108345515D01*
X187636404Y-108020665D01*
X187705000Y-107675807D01*
X187705000Y-107324193D01*
X187636404Y-106979335D01*
X187601811Y-106895819D01*
X188219608Y-106278022D01*
X189489294Y-106278022D01*
X189285225Y-106583434D01*
X189139361Y-106935581D01*
X189065000Y-107309419D01*
X189065000Y-107690581D01*
X189139361Y-108064419D01*
X189285225Y-108416566D01*
X189496987Y-108733491D01*
X189766509Y-109003013D01*
X190083434Y-109214775D01*
X190435581Y-109360639D01*
X190809419Y-109435000D01*
X191190581Y-109435000D01*
X191564419Y-109360639D01*
X191916566Y-109214775D01*
X192233491Y-109003013D01*
X192503013Y-108733491D01*
X192714775Y-108416566D01*
X192860639Y-108064419D01*
X192935000Y-107690581D01*
X192935000Y-107309419D01*
X192860639Y-106935581D01*
X192714775Y-106583434D01*
X192510706Y-106278022D01*
X193507607Y-106278022D01*
X193423500Y-106362129D01*
X193228153Y-106654485D01*
X193093596Y-106979335D01*
X193025000Y-107324193D01*
X193025000Y-107675807D01*
X193093596Y-108020665D01*
X193228153Y-108345515D01*
X193423500Y-108637871D01*
X193672129Y-108886500D01*
X193964485Y-109081847D01*
X194289335Y-109216404D01*
X194634193Y-109285000D01*
X194985807Y-109285000D01*
X195330665Y-109216404D01*
X195655515Y-109081847D01*
X195947871Y-108886500D01*
X196196500Y-108637871D01*
X196391847Y-108345515D01*
X196426440Y-108262000D01*
X206184370Y-108262000D01*
X209934721Y-112012352D01*
X209958578Y-112041422D01*
X210074608Y-112136645D01*
X210206985Y-112207402D01*
X210350622Y-112250974D01*
X210462574Y-112262000D01*
X210462576Y-112262000D01*
X210499999Y-112265686D01*
X210537422Y-112262000D01*
X213277708Y-112262000D01*
X213234573Y-112366137D01*
X213184000Y-112620385D01*
X213184000Y-112879615D01*
X213234573Y-113133863D01*
X213277708Y-113238000D01*
X211537423Y-113238000D01*
X211500000Y-113234314D01*
X211462577Y-113238000D01*
X211462574Y-113238000D01*
X211350622Y-113249026D01*
X211206985Y-113292598D01*
X211158713Y-113318400D01*
X211074607Y-113363355D01*
X211058420Y-113376640D01*
X210958578Y-113458578D01*
X210934716Y-113487654D01*
X207426096Y-116996274D01*
X207554993Y-116685089D01*
X207777000Y-115568985D01*
X207777000Y-114431015D01*
X207554993Y-113314911D01*
X207119511Y-112263565D01*
X206487289Y-111317377D01*
X205682623Y-110512711D01*
X204736435Y-109880489D01*
X203685089Y-109445007D01*
X202568985Y-109223000D01*
X201431015Y-109223000D01*
X200314911Y-109445007D01*
X199263565Y-109880489D01*
X198317377Y-110512711D01*
X197512711Y-111317377D01*
X196880489Y-112263565D01*
X196489877Y-113206585D01*
X196579349Y-112874174D01*
X196602741Y-112523339D01*
X196557240Y-112174681D01*
X196444594Y-111841600D01*
X196332090Y-111631118D01*
X196052349Y-111517256D01*
X194989605Y-112580000D01*
X196052349Y-113642744D01*
X196332090Y-113528882D01*
X196481604Y-113226558D01*
X196445007Y-113314911D01*
X196223000Y-114431015D01*
X196223000Y-115568985D01*
X196445007Y-116685089D01*
X196573904Y-116996273D01*
X193549261Y-113971631D01*
X193525399Y-113942555D01*
X193409369Y-113847332D01*
X193362630Y-113822349D01*
X193747256Y-113822349D01*
X193861118Y-114102090D01*
X194176296Y-114257961D01*
X194515826Y-114349349D01*
X194866661Y-114372741D01*
X195215319Y-114327240D01*
X195548400Y-114214594D01*
X195758882Y-114102090D01*
X195872744Y-113822349D01*
X194810000Y-112759605D01*
X193747256Y-113822349D01*
X193362630Y-113822349D01*
X193276992Y-113776575D01*
X193133355Y-113733003D01*
X193021403Y-113721977D01*
X193021400Y-113721977D01*
X192983977Y-113718291D01*
X192946554Y-113721977D01*
X191828842Y-113721977D01*
X191898822Y-113675218D01*
X192095218Y-113478822D01*
X192249525Y-113247885D01*
X192355814Y-112991282D01*
X192410000Y-112718873D01*
X192410000Y-112636661D01*
X193017259Y-112636661D01*
X193062760Y-112985319D01*
X193175406Y-113318400D01*
X193287910Y-113528882D01*
X193567651Y-113642744D01*
X194630395Y-112580000D01*
X193567651Y-111517256D01*
X193287910Y-111631118D01*
X193132039Y-111946296D01*
X193040651Y-112285826D01*
X193017259Y-112636661D01*
X192410000Y-112636661D01*
X192410000Y-112441127D01*
X192355814Y-112168718D01*
X192249525Y-111912115D01*
X192095218Y-111681178D01*
X191898822Y-111484782D01*
X191678625Y-111337651D01*
X193747256Y-111337651D01*
X194810000Y-112400395D01*
X195872744Y-111337651D01*
X195758882Y-111057910D01*
X195443704Y-110902039D01*
X195104174Y-110810651D01*
X194753339Y-110787259D01*
X194404681Y-110832760D01*
X194071600Y-110945406D01*
X193861118Y-111057910D01*
X193747256Y-111337651D01*
X191678625Y-111337651D01*
X191667885Y-111330475D01*
X191411282Y-111224186D01*
X191138873Y-111170000D01*
X190861127Y-111170000D01*
X190588718Y-111224186D01*
X190332115Y-111330475D01*
X190101178Y-111484782D01*
X189904782Y-111681178D01*
X189750475Y-111912115D01*
X189644186Y-112168718D01*
X189590000Y-112441127D01*
X189590000Y-112718873D01*
X189644186Y-112991282D01*
X189750475Y-113247885D01*
X189904782Y-113478822D01*
X190101178Y-113675218D01*
X190171158Y-113721977D01*
X183631585Y-113721977D01*
X183552351Y-113642743D01*
X183832090Y-113528882D01*
X183987961Y-113213704D01*
X184079349Y-112874174D01*
X184102741Y-112523339D01*
X184057240Y-112174681D01*
X183944594Y-111841600D01*
X183832090Y-111631118D01*
X183552349Y-111517256D01*
X182489605Y-112580000D01*
X182503748Y-112594143D01*
X182324143Y-112773748D01*
X182310000Y-112759605D01*
X182295858Y-112773748D01*
X182116253Y-112594143D01*
X182130395Y-112580000D01*
X181067651Y-111517256D01*
X180787910Y-111631118D01*
X180632039Y-111946296D01*
X180540651Y-112285826D01*
X180517259Y-112636661D01*
X180562760Y-112985319D01*
X180675406Y-113318400D01*
X180787910Y-113528882D01*
X181067649Y-113642743D01*
X180988415Y-113721977D01*
X179328842Y-113721977D01*
X179398822Y-113675218D01*
X179595218Y-113478822D01*
X179749525Y-113247885D01*
X179855814Y-112991282D01*
X179910000Y-112718873D01*
X179910000Y-112441127D01*
X179855814Y-112168718D01*
X179749525Y-111912115D01*
X179595218Y-111681178D01*
X179398822Y-111484782D01*
X179178625Y-111337651D01*
X181247256Y-111337651D01*
X182310000Y-112400395D01*
X183372744Y-111337651D01*
X183258882Y-111057910D01*
X182943704Y-110902039D01*
X182604174Y-110810651D01*
X182253339Y-110787259D01*
X181904681Y-110832760D01*
X181571600Y-110945406D01*
X181361118Y-111057910D01*
X181247256Y-111337651D01*
X179178625Y-111337651D01*
X179167885Y-111330475D01*
X178911282Y-111224186D01*
X178638873Y-111170000D01*
X178361127Y-111170000D01*
X178088718Y-111224186D01*
X177832115Y-111330475D01*
X177601178Y-111484782D01*
X177404782Y-111681178D01*
X177250475Y-111912115D01*
X177144186Y-112168718D01*
X177090000Y-112441127D01*
X177090000Y-112718873D01*
X177144186Y-112991282D01*
X177250475Y-113247885D01*
X177404782Y-113478822D01*
X177601178Y-113675218D01*
X177671158Y-113721977D01*
X171131585Y-113721977D01*
X171052351Y-113642743D01*
X171332090Y-113528882D01*
X171487961Y-113213704D01*
X171579349Y-112874174D01*
X171602741Y-112523339D01*
X171557240Y-112174681D01*
X171444594Y-111841600D01*
X171332090Y-111631118D01*
X171052349Y-111517256D01*
X169989605Y-112580000D01*
X170003748Y-112594143D01*
X169824143Y-112773748D01*
X169810000Y-112759605D01*
X169795858Y-112773748D01*
X169616253Y-112594143D01*
X169630395Y-112580000D01*
X168567651Y-111517256D01*
X168287910Y-111631118D01*
X168132039Y-111946296D01*
X168040651Y-112285826D01*
X168017259Y-112636661D01*
X168062760Y-112985319D01*
X168175406Y-113318400D01*
X168287910Y-113528882D01*
X168567649Y-113642743D01*
X168488415Y-113721977D01*
X166828842Y-113721977D01*
X166898822Y-113675218D01*
X167095218Y-113478822D01*
X167249525Y-113247885D01*
X167355814Y-112991282D01*
X167410000Y-112718873D01*
X167410000Y-112441127D01*
X167355814Y-112168718D01*
X167249525Y-111912115D01*
X167095218Y-111681178D01*
X166898822Y-111484782D01*
X166678625Y-111337651D01*
X168747256Y-111337651D01*
X169810000Y-112400395D01*
X170872744Y-111337651D01*
X170758882Y-111057910D01*
X170443704Y-110902039D01*
X170104174Y-110810651D01*
X169753339Y-110787259D01*
X169404681Y-110832760D01*
X169071600Y-110945406D01*
X168861118Y-111057910D01*
X168747256Y-111337651D01*
X166678625Y-111337651D01*
X166667885Y-111330475D01*
X166411282Y-111224186D01*
X166138873Y-111170000D01*
X165861127Y-111170000D01*
X165588718Y-111224186D01*
X165332115Y-111330475D01*
X165101178Y-111484782D01*
X164904782Y-111681178D01*
X164750475Y-111912115D01*
X164644186Y-112168718D01*
X164590000Y-112441127D01*
X164590000Y-112718873D01*
X164644186Y-112991282D01*
X164750475Y-113247885D01*
X164904782Y-113478822D01*
X165101178Y-113675218D01*
X165171158Y-113721977D01*
X164609608Y-113721977D01*
X158991811Y-108104181D01*
X159026404Y-108020665D01*
X159095000Y-107675807D01*
X159095000Y-107324193D01*
X159026404Y-106979335D01*
X158891847Y-106654485D01*
X158696500Y-106362129D01*
X158447871Y-106113500D01*
X158155515Y-105918153D01*
X157830665Y-105783596D01*
X157485807Y-105715000D01*
X157134193Y-105715000D01*
X156789335Y-105783596D01*
X156464485Y-105918153D01*
X156172129Y-106113500D01*
X155923500Y-106362129D01*
X155728153Y-106654485D01*
X155593596Y-106979335D01*
X155525000Y-107324193D01*
X155525000Y-107675807D01*
X155593596Y-108020665D01*
X155728153Y-108345515D01*
X155923500Y-108637871D01*
X156172129Y-108886500D01*
X156464485Y-109081847D01*
X156789335Y-109216404D01*
X157134193Y-109285000D01*
X157485807Y-109285000D01*
X157830665Y-109216404D01*
X157914181Y-109181811D01*
X162962357Y-114229988D01*
X158002882Y-114229988D01*
X158048400Y-114214594D01*
X158258882Y-114102090D01*
X158372744Y-113822349D01*
X157310000Y-112759605D01*
X156247256Y-113822349D01*
X156361118Y-114102090D01*
X156619733Y-114229988D01*
X153954337Y-114229988D01*
X153701827Y-113977478D01*
X153911282Y-113935814D01*
X154167885Y-113829525D01*
X154398822Y-113675218D01*
X154595218Y-113478822D01*
X154749525Y-113247885D01*
X154855814Y-112991282D01*
X154910000Y-112718873D01*
X154910000Y-112636661D01*
X155517259Y-112636661D01*
X155562760Y-112985319D01*
X155675406Y-113318400D01*
X155787910Y-113528882D01*
X156067651Y-113642744D01*
X157130395Y-112580000D01*
X157489605Y-112580000D01*
X158552349Y-113642744D01*
X158832090Y-113528882D01*
X158987961Y-113213704D01*
X159079349Y-112874174D01*
X159102741Y-112523339D01*
X159057240Y-112174681D01*
X158944594Y-111841600D01*
X158832090Y-111631118D01*
X158552349Y-111517256D01*
X157489605Y-112580000D01*
X157130395Y-112580000D01*
X156067651Y-111517256D01*
X155787910Y-111631118D01*
X155632039Y-111946296D01*
X155540651Y-112285826D01*
X155517259Y-112636661D01*
X154910000Y-112636661D01*
X154910000Y-112441127D01*
X154855814Y-112168718D01*
X154749525Y-111912115D01*
X154595218Y-111681178D01*
X154398822Y-111484782D01*
X154178625Y-111337651D01*
X156247256Y-111337651D01*
X157310000Y-112400395D01*
X158372744Y-111337651D01*
X158258882Y-111057910D01*
X157943704Y-110902039D01*
X157604174Y-110810651D01*
X157253339Y-110787259D01*
X156904681Y-110832760D01*
X156571600Y-110945406D01*
X156361118Y-111057910D01*
X156247256Y-111337651D01*
X154178625Y-111337651D01*
X154167885Y-111330475D01*
X153911282Y-111224186D01*
X153638873Y-111170000D01*
X153361127Y-111170000D01*
X153088718Y-111224186D01*
X152832115Y-111330475D01*
X152601178Y-111484782D01*
X152404782Y-111681178D01*
X152250475Y-111912115D01*
X152144186Y-112168718D01*
X152102522Y-112378174D01*
X149182000Y-109457652D01*
X149182000Y-109116440D01*
X149265515Y-109081847D01*
X149557871Y-108886500D01*
X149806500Y-108637871D01*
X150001847Y-108345515D01*
X150136404Y-108020665D01*
X150205000Y-107675807D01*
X150205000Y-107324193D01*
X150202062Y-107309419D01*
X151565000Y-107309419D01*
X151565000Y-107690581D01*
X151639361Y-108064419D01*
X151785225Y-108416566D01*
X151996987Y-108733491D01*
X152266509Y-109003013D01*
X152583434Y-109214775D01*
X152935581Y-109360639D01*
X153309419Y-109435000D01*
X153690581Y-109435000D01*
X154064419Y-109360639D01*
X154416566Y-109214775D01*
X154733491Y-109003013D01*
X155003013Y-108733491D01*
X155214775Y-108416566D01*
X155360639Y-108064419D01*
X155435000Y-107690581D01*
X155435000Y-107309419D01*
X155360639Y-106935581D01*
X155214775Y-106583434D01*
X155003013Y-106266509D01*
X154733491Y-105996987D01*
X154416566Y-105785225D01*
X154064419Y-105639361D01*
X153690581Y-105565000D01*
X153309419Y-105565000D01*
X152935581Y-105639361D01*
X152583434Y-105785225D01*
X152266509Y-105996987D01*
X151996987Y-106266509D01*
X151785225Y-106583434D01*
X151639361Y-106935581D01*
X151565000Y-107309419D01*
X150202062Y-107309419D01*
X150136404Y-106979335D01*
X150001847Y-106654485D01*
X149806500Y-106362129D01*
X149557871Y-106113500D01*
X149265515Y-105918153D01*
X148940665Y-105783596D01*
X148595807Y-105715000D01*
X148244193Y-105715000D01*
X147899335Y-105783596D01*
X147574485Y-105918153D01*
X147282129Y-106113500D01*
X147033500Y-106362129D01*
X146838153Y-106654485D01*
X146803560Y-106738000D01*
X146426440Y-106738000D01*
X146391847Y-106654485D01*
X146196500Y-106362129D01*
X145947871Y-106113500D01*
X145655515Y-105918153D01*
X145330665Y-105783596D01*
X144985807Y-105715000D01*
X144634193Y-105715000D01*
X144289335Y-105783596D01*
X143964485Y-105918153D01*
X143672129Y-106113500D01*
X143423500Y-106362129D01*
X143228153Y-106654485D01*
X143093596Y-106979335D01*
X143025000Y-107324193D01*
X143025000Y-107675807D01*
X143093596Y-108020665D01*
X143228153Y-108345515D01*
X143423500Y-108637871D01*
X143672129Y-108886500D01*
X143964485Y-109081847D01*
X144289335Y-109216404D01*
X144634193Y-109285000D01*
X144985807Y-109285000D01*
X145330665Y-109216404D01*
X145655515Y-109081847D01*
X145947871Y-108886500D01*
X146196500Y-108637871D01*
X146391847Y-108345515D01*
X146426440Y-108262000D01*
X146803560Y-108262000D01*
X146838153Y-108345515D01*
X147033500Y-108637871D01*
X147282129Y-108886500D01*
X147574485Y-109081847D01*
X147658000Y-109116440D01*
X147658000Y-109735858D01*
X147654314Y-109773282D01*
X147658000Y-109810705D01*
X147658000Y-109810707D01*
X147669026Y-109922659D01*
X147712598Y-110066296D01*
X147712599Y-110066297D01*
X147783355Y-110198674D01*
X147812817Y-110234573D01*
X147878578Y-110314704D01*
X147907654Y-110338566D01*
X152307086Y-114737999D01*
X129469748Y-114737999D01*
X128707999Y-113976250D01*
X128911282Y-113935814D01*
X129167885Y-113829525D01*
X129178624Y-113822349D01*
X131247256Y-113822349D01*
X131361118Y-114102090D01*
X131676296Y-114257961D01*
X132015826Y-114349349D01*
X132366661Y-114372741D01*
X132715319Y-114327240D01*
X133048400Y-114214594D01*
X133258882Y-114102090D01*
X133372744Y-113822349D01*
X132310000Y-112759605D01*
X131247256Y-113822349D01*
X129178624Y-113822349D01*
X129398822Y-113675218D01*
X129595218Y-113478822D01*
X129749525Y-113247885D01*
X129855814Y-112991282D01*
X129910000Y-112718873D01*
X129910000Y-112636661D01*
X130517259Y-112636661D01*
X130562760Y-112985319D01*
X130675406Y-113318400D01*
X130787910Y-113528882D01*
X131067651Y-113642744D01*
X132130395Y-112580000D01*
X132489605Y-112580000D01*
X133552349Y-113642744D01*
X133832090Y-113528882D01*
X133987961Y-113213704D01*
X134079349Y-112874174D01*
X134102741Y-112523339D01*
X134092013Y-112441127D01*
X139590000Y-112441127D01*
X139590000Y-112718873D01*
X139644186Y-112991282D01*
X139750475Y-113247885D01*
X139904782Y-113478822D01*
X140101178Y-113675218D01*
X140332115Y-113829525D01*
X140588718Y-113935814D01*
X140861127Y-113990000D01*
X141138873Y-113990000D01*
X141411282Y-113935814D01*
X141667885Y-113829525D01*
X141678624Y-113822349D01*
X143747256Y-113822349D01*
X143861118Y-114102090D01*
X144176296Y-114257961D01*
X144515826Y-114349349D01*
X144866661Y-114372741D01*
X145215319Y-114327240D01*
X145548400Y-114214594D01*
X145758882Y-114102090D01*
X145872744Y-113822349D01*
X144810000Y-112759605D01*
X143747256Y-113822349D01*
X141678624Y-113822349D01*
X141898822Y-113675218D01*
X142095218Y-113478822D01*
X142249525Y-113247885D01*
X142355814Y-112991282D01*
X142410000Y-112718873D01*
X142410000Y-112636661D01*
X143017259Y-112636661D01*
X143062760Y-112985319D01*
X143175406Y-113318400D01*
X143287910Y-113528882D01*
X143567651Y-113642744D01*
X144630395Y-112580000D01*
X144989605Y-112580000D01*
X146052349Y-113642744D01*
X146332090Y-113528882D01*
X146487961Y-113213704D01*
X146579349Y-112874174D01*
X146602741Y-112523339D01*
X146557240Y-112174681D01*
X146444594Y-111841600D01*
X146332090Y-111631118D01*
X146052349Y-111517256D01*
X144989605Y-112580000D01*
X144630395Y-112580000D01*
X143567651Y-111517256D01*
X143287910Y-111631118D01*
X143132039Y-111946296D01*
X143040651Y-112285826D01*
X143017259Y-112636661D01*
X142410000Y-112636661D01*
X142410000Y-112441127D01*
X142355814Y-112168718D01*
X142249525Y-111912115D01*
X142095218Y-111681178D01*
X141898822Y-111484782D01*
X141678625Y-111337651D01*
X143747256Y-111337651D01*
X144810000Y-112400395D01*
X145872744Y-111337651D01*
X145758882Y-111057910D01*
X145443704Y-110902039D01*
X145104174Y-110810651D01*
X144753339Y-110787259D01*
X144404681Y-110832760D01*
X144071600Y-110945406D01*
X143861118Y-111057910D01*
X143747256Y-111337651D01*
X141678625Y-111337651D01*
X141667885Y-111330475D01*
X141411282Y-111224186D01*
X141138873Y-111170000D01*
X140861127Y-111170000D01*
X140588718Y-111224186D01*
X140332115Y-111330475D01*
X140101178Y-111484782D01*
X139904782Y-111681178D01*
X139750475Y-111912115D01*
X139644186Y-112168718D01*
X139590000Y-112441127D01*
X134092013Y-112441127D01*
X134057240Y-112174681D01*
X133944594Y-111841600D01*
X133832090Y-111631118D01*
X133552349Y-111517256D01*
X132489605Y-112580000D01*
X132130395Y-112580000D01*
X131067651Y-111517256D01*
X130787910Y-111631118D01*
X130632039Y-111946296D01*
X130540651Y-112285826D01*
X130517259Y-112636661D01*
X129910000Y-112636661D01*
X129910000Y-112441127D01*
X129855814Y-112168718D01*
X129749525Y-111912115D01*
X129595218Y-111681178D01*
X129398822Y-111484782D01*
X129178625Y-111337651D01*
X131247256Y-111337651D01*
X132310000Y-112400395D01*
X133372744Y-111337651D01*
X133258882Y-111057910D01*
X132943704Y-110902039D01*
X132604174Y-110810651D01*
X132253339Y-110787259D01*
X131904681Y-110832760D01*
X131571600Y-110945406D01*
X131361118Y-111057910D01*
X131247256Y-111337651D01*
X129178625Y-111337651D01*
X129167885Y-111330475D01*
X128911282Y-111224186D01*
X128638873Y-111170000D01*
X128361127Y-111170000D01*
X128088718Y-111224186D01*
X127832115Y-111330475D01*
X127601178Y-111484782D01*
X127404782Y-111681178D01*
X127250475Y-111912115D01*
X127144186Y-112168718D01*
X127103750Y-112372001D01*
X123945959Y-109214211D01*
X124265515Y-109081847D01*
X124557871Y-108886500D01*
X124806500Y-108637871D01*
X125001847Y-108345515D01*
X125136404Y-108020665D01*
X125205000Y-107675807D01*
X125205000Y-107324193D01*
X125202062Y-107309419D01*
X126565000Y-107309419D01*
X126565000Y-107690581D01*
X126639361Y-108064419D01*
X126785225Y-108416566D01*
X126996987Y-108733491D01*
X127266509Y-109003013D01*
X127583434Y-109214775D01*
X127935581Y-109360639D01*
X128309419Y-109435000D01*
X128690581Y-109435000D01*
X129064419Y-109360639D01*
X129416566Y-109214775D01*
X129733491Y-109003013D01*
X130003013Y-108733491D01*
X130214775Y-108416566D01*
X130360639Y-108064419D01*
X130435000Y-107690581D01*
X130435000Y-107324193D01*
X130525000Y-107324193D01*
X130525000Y-107675807D01*
X130593596Y-108020665D01*
X130728153Y-108345515D01*
X130923500Y-108637871D01*
X131172129Y-108886500D01*
X131464485Y-109081847D01*
X131789335Y-109216404D01*
X132134193Y-109285000D01*
X132485807Y-109285000D01*
X132830665Y-109216404D01*
X133155515Y-109081847D01*
X133447871Y-108886500D01*
X133696500Y-108637871D01*
X133891847Y-108345515D01*
X134026404Y-108020665D01*
X134095000Y-107675807D01*
X134095000Y-107324193D01*
X134135000Y-107324193D01*
X134135000Y-107675807D01*
X134203596Y-108020665D01*
X134338153Y-108345515D01*
X134533500Y-108637871D01*
X134782129Y-108886500D01*
X135074485Y-109081847D01*
X135399335Y-109216404D01*
X135744193Y-109285000D01*
X136095807Y-109285000D01*
X136440665Y-109216404D01*
X136765515Y-109081847D01*
X137057871Y-108886500D01*
X137306500Y-108637871D01*
X137501847Y-108345515D01*
X137636404Y-108020665D01*
X137705000Y-107675807D01*
X137705000Y-107324193D01*
X137702062Y-107309419D01*
X139065000Y-107309419D01*
X139065000Y-107690581D01*
X139139361Y-108064419D01*
X139285225Y-108416566D01*
X139496987Y-108733491D01*
X139766509Y-109003013D01*
X140083434Y-109214775D01*
X140435581Y-109360639D01*
X140809419Y-109435000D01*
X141190581Y-109435000D01*
X141564419Y-109360639D01*
X141916566Y-109214775D01*
X142233491Y-109003013D01*
X142503013Y-108733491D01*
X142714775Y-108416566D01*
X142860639Y-108064419D01*
X142935000Y-107690581D01*
X142935000Y-107309419D01*
X142860639Y-106935581D01*
X142714775Y-106583434D01*
X142503013Y-106266509D01*
X142233491Y-105996987D01*
X141916566Y-105785225D01*
X141564419Y-105639361D01*
X141190581Y-105565000D01*
X140809419Y-105565000D01*
X140435581Y-105639361D01*
X140083434Y-105785225D01*
X139766509Y-105996987D01*
X139496987Y-106266509D01*
X139285225Y-106583434D01*
X139139361Y-106935581D01*
X139065000Y-107309419D01*
X137702062Y-107309419D01*
X137636404Y-106979335D01*
X137501847Y-106654485D01*
X137306500Y-106362129D01*
X137057871Y-106113500D01*
X136765515Y-105918153D01*
X136440665Y-105783596D01*
X136095807Y-105715000D01*
X135744193Y-105715000D01*
X135399335Y-105783596D01*
X135074485Y-105918153D01*
X134782129Y-106113500D01*
X134533500Y-106362129D01*
X134338153Y-106654485D01*
X134203596Y-106979335D01*
X134135000Y-107324193D01*
X134095000Y-107324193D01*
X134026404Y-106979335D01*
X133891847Y-106654485D01*
X133696500Y-106362129D01*
X133447871Y-106113500D01*
X133155515Y-105918153D01*
X132830665Y-105783596D01*
X132485807Y-105715000D01*
X132134193Y-105715000D01*
X131789335Y-105783596D01*
X131464485Y-105918153D01*
X131172129Y-106113500D01*
X130923500Y-106362129D01*
X130728153Y-106654485D01*
X130593596Y-106979335D01*
X130525000Y-107324193D01*
X130435000Y-107324193D01*
X130435000Y-107309419D01*
X130360639Y-106935581D01*
X130214775Y-106583434D01*
X130003013Y-106266509D01*
X129733491Y-105996987D01*
X129416566Y-105785225D01*
X129064419Y-105639361D01*
X128690581Y-105565000D01*
X128309419Y-105565000D01*
X127935581Y-105639361D01*
X127583434Y-105785225D01*
X127266509Y-105996987D01*
X126996987Y-106266509D01*
X126785225Y-106583434D01*
X126639361Y-106935581D01*
X126565000Y-107309419D01*
X125202062Y-107309419D01*
X125136404Y-106979335D01*
X125101811Y-106895819D01*
X126735630Y-105262000D01*
X157604370Y-105262000D01*
X159238189Y-106895819D01*
G37*
%TD.AperFunction*%
%TD*%
M02*
